<svg id="_002" data-name="002" xmlns="http://www.w3.org/2000/svg" xmlns:xlink="http://www.w3.org/1999/xlink" width="287.185" height="400.773" viewBox="0 0 287.185 400.773">
  <defs>
    <clipPath id="clip-path">
      <rect id="Rectangle_95" data-name="Rectangle 95" width="287.185" height="400.773" fill="none"/>
    </clipPath>
  </defs>
  <g id="Group_202" data-name="Group 202" clip-path="url(#clip-path)">
    <path id="Path_436" data-name="Path 436" d="M68.489,358.211a27.328,27.328,0,0,1-1.977,3.444c-1.507,2.26-3.174,4.388-4.758,6.59-.81,1.125-1.552,2.385-2.389,3.466a7.589,7.589,0,0,1-2.566,2.142,28.123,28.123,0,0,1-6.547,9.983c-6.207,6.054-16.373,10.588-25.126,9.738-9.736-.944-16.695-8.166-20.177-16.923A47.848,47.848,0,0,1,1.9,358.241a8.359,8.359,0,0,1-1.1-2.922,59.432,59.432,0,0,1-.777-11.462,30.665,30.665,0,0,1,2.739-12.243A28.709,28.709,0,0,1,10.6,321.5c.68-.573,1.387-1.13,2.113-1.672a19.553,19.553,0,0,1,.622-2.649c1.441-4.933,3.248-9.875,4.824-14.783,1.773-5.526,3.443-11.092,5.053-16.668.747-2.582,1.452-5.57,2.389-8.07a8.3,8.3,0,0,1,1.24-2.232,23.566,23.566,0,0,1,.319-3.7c-.821-.6-1.645-1.2-2.41-1.863a16.359,16.359,0,0,1-4.639-6.135c-1.079-2.726-.7-5.336-.5-8.171.321-4.561.584-9.155,1.042-13.7.306-3.047.651-6.216,2.47-8.787,1.4-1.976,3.514-3.311,5.442-4.72a120.18,120.18,0,0,1,11.221-7.624,36.366,36.366,0,0,1,7.628-3.349A8.7,8.7,0,0,1,51.909,215a12.355,12.355,0,0,1,5.711-.038,10.751,10.751,0,0,1,6.389,4.532,12.8,12.8,0,0,1,1.83,6.708c.094,2.016.085,4.012.229,6.033.064.9.144,1.8.235,2.7h.128c2.063.005,4.586,1.186,6.553,1.87,4.32,1.5,8.726,2.9,13.1,4.226,1.991.6,4.055,1.144,6.072,1.739a7.865,7.865,0,0,1,2.763-1.858c2.568-1.037,6.634-.951,9.439-1.093,3.575-.181,7.141-.475,10.712-.709a12.238,12.238,0,0,1,5.312.633,35.134,35.134,0,0,1,3.512-.621c5.332-.808,10.664-1.79,15.988-2.665,6.456-1.062,12.972-2.129,19.457-2.985,1.011-.134,2.052-.274,3.071-.308a9.3,9.3,0,0,1,1.984.14c2.183-1.656,5.017-1.984,7.646-2.465,4.825-.883,9.792-1.822,14.654-2.43a17.949,17.949,0,0,1,3.558-.153c2.191-2.212,5.01-2.479,8.078-2.778a63.32,63.32,0,0,1,15.594.1,39.549,39.549,0,0,1,17.446,7.071c5.543,4.117,8.886,9.407,11.577,15.694,3.857,9.008,6.208,19.394,8.12,28.974,2.692,13.48,4.675,27.075,7.186,40.579.609,3.277,1.268,6.56,2.072,9.8.346,1.393.825,2.908,1.034,4.317a8.66,8.66,0,0,1-.111,3.283l.062.063c2.6,2.6,3.6,5.352,4.221,8.91.452,2.6,1.019,6.775.581,9.345a7.352,7.352,0,0,1-1.9,3.88,18.9,18.9,0,0,1-.622,7.6c-1.3,4.928-3.895,9.931-8.023,13.07-4.206,3.2-8.925,3.84-13.834,5.163a72.053,72.053,0,0,0-9.95,3.6c-.923.4-1.836.83-2.757,1.236-1.864,1.007-3.723,2.05-5.5,3.206-3.312,2.154-6.125,4.72-9.3,6.969-3.473,2.457-6.392,3.041-10.2,1.836a7.982,7.982,0,0,1-2.418.48,17.813,17.813,0,0,1-3.112-.194,83.138,83.138,0,0,1-10.328-2.1,27.987,27.987,0,0,1-7.625-3.09,15.254,15.254,0,0,1-3.926-3.349h-7.785c-6.341,0-12.685-.005-19.026.07-3.864.046-8.715.384-12.508-.041q-.348-.039-.679-.092a47.25,47.25,0,0,1-5.443,3.988c-3.955,2.475-8.264,4.152-13.01,3.908a19.436,19.436,0,0,1-2.712-.337c-3.135,2.267-8.011,1.007-11.663.574A128.978,128.978,0,0,0,84.416,399c-3.07.109-6.111.415-9.163.733a38.321,38.321,0,0,1-7.593.364c-3.227-.352-6.071-2.155-7.026-5.418-1.057-3.616.732-6.621,3.331-8.745a30.134,30.134,0,0,1,1.457-6.117,83.679,83.679,0,0,0,3-18.988q.053-1.305.071-2.614" fill="#4f1212" fill-rule="evenodd"/>
    <path id="Path_437" data-name="Path 437" d="M34.336,161.466a12.321,12.321,0,0,1-1.057-6.963,41.724,41.724,0,0,1,1.2-5.614c.044-.156.087-.311.132-.467a76.927,76.927,0,0,1-6.134-10.566c-3.913-7.993-5.26-15.115-3.627-23.993,1.308-7.115,4.613-15.438,8.35-22.581l-.4-2.349q-.484-2.856-.847-5.732c-.819-6.536-1.341-14.33-.419-20.873.732-5.182,2.609-9.943,7.131-12.939,3.91-2.591,7.779-2.576,12.235-1.829,3.542.594,7.032,1.364,10.573,1.973.631-.608,1.291-1.2,1.935-1.782A96.962,96.962,0,0,1,81.9,34.6a181.289,181.289,0,0,1,35.2-14.472,215.767,215.767,0,0,1,29.881-6.394,60.247,60.247,0,0,1,6.138-.783c.716-1.39,1.471-2.734,2.266-4.01,2.91-4.674,6.562-8.352,12.335-8.881,5.915-.542,10.443,2.781,14.729,6.375,1.406,1.178,2.8,2.4,4.195,3.648a34.107,34.107,0,0,1,6.323-.3,59.685,59.685,0,0,1,23.291,4.926c9.7,4.206,19.156,11.007,27.861,17.026,5.88,4.067,12.342,8.647,18.909,11.508,5.18,2.257,10.961,3.319,15.9,5.563a12.212,12.212,0,0,1,6.983,7.269c1.577,4.775-.293,8.527-2.544,12.534-2.723,4.849-5.494,9.839-8.5,14.514a23.763,23.763,0,0,1-3.979,4.907c3.982,10.619,7.471,21.762,10.439,32.494,2.572,9.295,5.384,20.393,5.818,30.056.33,7.348-1.029,13.781-6.972,18.59a27.549,27.549,0,0,1-5.074,3.191,13.284,13.284,0,0,1,2.27,8.679,12.346,12.346,0,0,1-2.748,6.41,19.216,19.216,0,0,1-2.549,2.559,10.153,10.153,0,0,1-1.513,8.114c-2.269,3.385-7.486,6.731-11.11,8.573-.263.135-.529.265-.795.394,0,.1,0,.2,0,.305a10.024,10.024,0,0,1-5.795,8.808A30.9,30.9,0,0,1,247.042,218a53.831,53.831,0,0,0-6.022,1.881c-2.921,1.128-5.806,2.539-8.653,3.846-2.326,1.068-4.654,2.1-7,3.1l.27.294a36.356,36.356,0,0,0-4.128,1.245c-2.31.733-5.949,1.711-13.52,3.884s-19.081,5.54-30.407,8.816-22.472,6.456-32.153,8.31a119.531,119.531,0,0,1-24.967,2.245,124.283,124.283,0,0,1-19.6-2.057c-6.6-1.132-13.875-2.6-19.223-3.861s-8.769-2.3-10.852-2.957c-.725-.228-1.288-.411-1.787-.542-1.336-.47-2.685-.992-4.015-1.545-1.973-.822-3.913-1.713-5.745-2.616-2.177-1.07-4.337-2.234-6.461-3.467-2.914-1.691-5.763-3.513-8.5-5.412-2.479-1.721-5.351-3.795-7.892-5.971a41.1,41.1,0,0,1-3.426-3.253,12.783,12.783,0,0,1-3.434-7.125c-.643-.545-1.254-1.116-1.841-1.713a33.336,33.336,0,0,1-3.892-4.833c-2.224-3.32-4.128-7.148-3.518-11.276a11.343,11.343,0,0,1,.506-2.093,9.886,9.886,0,0,1,.576-1.347,11.412,11.412,0,0,1,1.362-11.91h0c2.054-2.626,4.667-3.828,7.5-5.088.416-.185.837-.372,1.263-.565.69-.312,1.377-.64,2.052-.984a87.373,87.373,0,0,1,.8-11.536" fill="#4f1212" fill-rule="evenodd"/>
    <path id="Path_438" data-name="Path 438" d="M54.906,125.625q-.844,1.662-1.623,3.355a125.56,125.56,0,0,0-9.276,32.183,68.834,68.834,0,0,0-.922,14.225c.037,2.252-.163,2.941-1.514,3.939a39.374,39.374,0,0,1-6.149,3.34c-2.3,1.041-4.387,1.819-5.188,2.844s-.313,2.295.689,3.693a27.568,27.568,0,0,0,3.482,3.8c.963.88,1.372,1.115.927,1.36a13.606,13.606,0,0,1-3,.7c-1.258.2-2.475.35-2.618,1.318s.788,2.754,2.009,4.577a20.916,20.916,0,0,0,4.771,5.214c2.04,1.532,4.611,2.738,5.2,3.474s-.8,1-1.784,1.335-1.55.735.066,2.486a69.82,69.82,0,0,0,9.75,7.86,110.439,110.439,0,0,0,13.73,8.157,80.535,80.535,0,0,0,10.58,4.338c1.876.578,1.45.2.616-.788a45.4,45.4,0,0,1-3.159-4.271c-1.084-1.673-2.009-3.413-1.778-3.465s1.619,1.584,3.27,3.425a60.442,60.442,0,0,0,6.213,6.131,42.56,42.56,0,0,0,9.831,6.377,50.043,50.043,0,0,0,11.784,3.311,101.974,101.974,0,0,0,12.131,1.3,80.762,80.762,0,0,0,22.649-1.674c11.086-2.21,26.671-6.871,41.384-11.282s28.554-8.574,38.679-12.425,16.534-7.39,21.933-9.475,9.789-2.717,11.089-3.352-.488-1.27-2.445-2.124-4.084-1.924-4.4-2.551,1.184-.81,3.724-1.405a43.052,43.052,0,0,0,9.568-3.355c3.445-1.752,6.751-4.246,7.515-5.385s-1.015-.921-3.126-1.471-4.552-1.867-4.872-2.54,1.482-.7,4.328-1.907,6.738-3.579,8.223-5.424.564-3.157-1.959-6.7-6.65-9.307-11.85-13.756a48.359,48.359,0,0,0-4.2-3.194,76.25,76.25,0,0,1-27.332,9.229c-12.1,1.45-24.688-.842-32.336-5.015s-10.362-10.225-12.383-18.683-3.348-19.324-4.946-28.124a195.393,195.393,0,0,0-4.482-19.1c-1.016-3.562-1.179-3.948-3.745-2.386s-7.535,5.07-13.265,7.57a56.37,56.37,0,0,1-18.468,4.4,105.919,105.919,0,0,1-15.645-.5c-3.4-.253-4.19-.1-5.653.517a46.609,46.609,0,0,1-8.266,2.882c-4.671,1.194-11.881,2.511-19.516,4.62A126.028,126.028,0,0,0,62.169,120.9a34.167,34.167,0,0,0-7.263,4.724m187.352-1.454q-1.033-3.5-2.327-7.5c-5.261-16.224-14.022-38.911-22.018-54.183a116.567,116.567,0,0,0-22.5-30.557C188.136,24.5,180.82,17.51,176.319,13.736s-6.182-4.328-7.733-4.186-2.969.98-5.114,4.426a80.676,80.676,0,0,0-7.576,17.7c-.943,3.017-1.843,6.326-2.656,9.779a18.753,18.753,0,0,1,3.506,1.963c1.631,1.129,2.479,1.9,4.364,2.362a33.751,33.751,0,0,0,8.106.547c3.3-.083,6.971-.416,11.11.442a28.878,28.878,0,0,1,13.364,7.014c4.623,4.107,9.265,10.272,13.815,18.769s9.008,19.329,12.965,27.493,7.416,13.661,11,17.376a24.93,24.93,0,0,0,10.268,6.6q.263.083.516.156" fill="#fca921" fill-rule="evenodd"/>
    <path id="Path_439" data-name="Path 439" d="M47.7,144.257c-.519,1.81-.985,3.585-1.4,5.3,1.4-.458,3.133-1.026,4.412-1.427,1.888-.593,2.79-.824,3.064-.672s-.082.687-.236,2.47a43.15,43.15,0,0,0,.011,5.992c.122,1.179.318.506,1.112-.668a21.213,21.213,0,0,1,2.916-3.451c.727-.6.785-.12.958,1.3s.458,3.77.939,6.573,1.16,6.058,2.406,8.1a9.163,9.163,0,0,0,4.053,3.375c.99.517,1.155.728.273,1.288a25.7,25.7,0,0,1-4.509,2.054,10.081,10.081,0,0,1-5.422.489,27.07,27.07,0,0,1-7.619-2.573c-2.313-1.226-3.89-2.688-4.14-2.459s.83,2.148,4.033,4.122a44.512,44.512,0,0,0,12.3,4.788,12.07,12.07,0,0,0,8.808-1.03,49.653,49.653,0,0,0,8.662-5.577,18.914,18.914,0,0,0,4.978-5.623c1.164-2.043,2.092-4.5,2.959-5.988s1.67-2.019,2.7-1.588A11.374,11.374,0,0,1,92,161.72c.771.85,1.064,1.162,1.2.311a6.465,6.465,0,0,0-1.773-5.114c-1.9-2.249-5.677-4.73-9.358-6.494A64.836,64.836,0,0,0,69.735,146.3c-5.075-1.316-11.643-2.9-16.553-2.868a18.174,18.174,0,0,0-5.48.826" fill="#fc8320" fill-rule="evenodd"/>
    <path id="Path_440" data-name="Path 440" d="M165.048,11.742a7.833,7.833,0,0,1,1.342-.251c2.27-.208,4.276.845,7.369,4.06a142.57,142.57,0,0,1,10.447,12.931c3.173,4.341,5.338,7.646,4.942,7.254s-3.352-4.481-6.41-7.885a41.006,41.006,0,0,0-8.618-7.546c-2.4-1.422-4.036-1.546-5.188-.953s-1.821,1.906-2.8,4.691-2.275,7.044-2.906,17.85c-.077,1.312-.144,2.722-.184,4.222a44.389,44.389,0,0,0,6.175.212c3.3-.084,6.972-.417,11.11.441a28.876,28.876,0,0,1,13.365,7.014c4.622,4.107,9.264,10.272,13.814,18.77s9.008,19.328,12.966,27.492,7.415,13.661,11,17.376a24.93,24.93,0,0,0,10.268,6.6c.175.055.346.107.516.156q-1.033-3.5-2.328-7.5c-5.261-16.225-14.021-38.911-22.017-54.184a116.607,116.607,0,0,0-22.5-30.557C188.137,24.5,180.82,17.51,176.32,13.736s-6.183-4.328-7.733-4.186c-1.138.1-2.2.583-3.539,2.192" fill="#fc8320" fill-rule="evenodd"/>
    <path id="Path_441" data-name="Path 441" d="M54.907,125.625q-.846,1.661-1.624,3.354-.749,1.632-1.431,3.286c2.74-2.044,5.449-4.051,8.471-5.877A83.54,83.54,0,0,1,80.191,118c7.077-2.024,14.254-3.226,19.345-4.427a51.135,51.135,0,0,0,9.94-3.255c1.843-.851,2.523-1.351,3.793-1.39s3.13.382,7.258.6a109.587,109.587,0,0,0,16.564-.449c6.037-.668,11.714-2.011,15.628-2.419s6.063.116,7.129,2.767,1.047,7.428.428,10.331-1.837,3.933-4.615,4.713-7.118,1.311-12.164,2.507a158.343,158.343,0,0,0-17.365,5.46c-6.567,2.4-13.949,5.343-16.141,6.562s.806.712,4.259.522,7.363-.065,8.493,1.605-.515,4.883-3.888,8.008a44.321,44.321,0,0,1-12.317,7.693c-3.845,1.536-6.437,1.575-8.207.838a6.624,6.624,0,0,1-3.4-3.812c-.677-1.563-1.083-3.176-1.745-3.184s-1.579,1.586-1.464,4.362a17.564,17.564,0,0,0,3.637,9.662c2.375,2.931,5.977,4.839,9.526,6.424a39.334,39.334,0,0,0,13.085,3.5,101.7,101.7,0,0,0,20.705-.061A31.673,31.673,0,0,0,161.2,161.414c2.716-3.948,4.9-9.176,6.755-12.438s3.359-4.56,4.331-3.242,1.408,5.252,3.28,9.2a24.861,24.861,0,0,0,10.073,10.729c4.889,2.833,11.356,4.545,20.081,5.194s19.706.234,27.972.73,13.815,1.9,17.31,3.378,4.934,3.012,5.317,3.869-.291,1.032-2.912,1.585-7.19,1.481-8.865,2.381-.455,1.771.943,2.968,2.974,2.719,4.358,3.8,2.575,1.725.555,2.644-7.251,2.115-13.254,2.5a147.808,147.808,0,0,1-16.624-.24c-3.849-.2-4.774-.181-4.035.934a35.064,35.064,0,0,0,5.636,5.337c2.494,2.013,5.08,3.829,5.444,5.291s-1.493,2.57-4.594,4.132-7.443,3.574-15.316,7.437-19.275,9.575-32.464,14.728c-4.243,1.658-8.672,3.258-12.9,4.918,4.861-1.415,9.821-2.9,14.686-4.359,14.713-4.413,28.553-8.575,38.678-12.425s16.535-7.39,21.934-9.476,9.789-2.717,11.089-3.351-.488-1.271-2.445-2.124-4.084-1.924-4.4-2.551,1.184-.81,3.724-1.406a43.112,43.112,0,0,0,9.568-3.354c3.445-1.752,6.751-4.247,7.514-5.385s-1.015-.921-3.125-1.472-4.552-1.866-4.872-2.54,1.481-.7,4.328-1.907,6.738-3.579,8.222-5.423.565-3.158-1.959-6.7-6.649-9.308-11.849-13.756a48.113,48.113,0,0,0-4.2-3.194,76.248,76.248,0,0,1-27.333,9.228c-12.1,1.451-24.687-.842-32.336-5.014s-10.362-10.225-12.382-18.684-3.348-19.323-4.946-28.124a195.467,195.467,0,0,0-4.482-19.1c-1.016-3.562-1.179-3.947-3.745-2.386s-7.535,5.07-13.265,7.57a56.377,56.377,0,0,1-18.469,4.4,106.024,106.024,0,0,1-15.644-.5c-3.4-.252-4.19-.1-5.653.517a46.6,46.6,0,0,1-8.267,2.882c-4.671,1.195-11.88,2.512-19.516,4.62A126.118,126.118,0,0,0,62.169,120.9a34.22,34.22,0,0,0-7.262,4.725" fill="#fc8320" fill-rule="evenodd"/>
    <path id="Path_442" data-name="Path 442" d="M36.543,182.146c-.375.179-.75.354-1.12.521-2.3,1.041-4.387,1.819-5.188,2.844s-.314,2.295.689,3.693a27.569,27.569,0,0,0,3.482,3.8c.963.88,1.372,1.115.926,1.36a13.579,13.579,0,0,1-3,.7c-1.258.2-2.475.35-2.618,1.318s.788,2.754,2.009,4.577a20.914,20.914,0,0,0,4.771,5.214c2.04,1.532,4.61,2.738,5.2,3.474s-.8,1-1.785,1.335-1.549.735.066,2.486a69.943,69.943,0,0,0,9.75,7.86,110.522,110.522,0,0,0,13.731,8.157,80.481,80.481,0,0,0,10.579,4.338c1.876.578,1.45.2.617-.789a45.4,45.4,0,0,1-3.16-4.27c-1.083-1.673-2.008-3.413-1.777-3.465s1.619,1.584,3.269,3.425a60.565,60.565,0,0,0,6.214,6.131,42.525,42.525,0,0,0,9.831,6.376,49.985,49.985,0,0,0,11.784,3.312,102.158,102.158,0,0,0,12.131,1.3,80.764,80.764,0,0,0,22.649-1.674c11.086-2.21,26.671-6.871,41.384-11.282,5.428-1.628,10.737-3.222,15.785-4.778,1.112-.547,2.109-1.063,3.027-1.578,4.787-2.681,7.461-5.338,8.763-8.47a15.084,15.084,0,0,0,.22-10.092,29.421,29.421,0,0,0-4.793-8.871c-1.825-2.419-3.521-4.159-2.106-4.332s5.944,1.221,8.646,2.467,3.578,2.344,2.732.732a35.409,35.409,0,0,0-7.311-9.374,26.479,26.479,0,0,0-15.1-6.538c-5.981-.537-12.716.948-19.352,2.594s-13.174,3.451-19.5,3.963a69,69,0,0,1-17.617-1.191,57.143,57.143,0,0,1-13.123-3.634,57.2,57.2,0,0,1-10.185-6.149c-3.149-2.257-6.162-4.532-9.86-5.772a33.318,33.318,0,0,0-12.382-1.175,47.069,47.069,0,0,0-12.08,2.242,29.793,29.793,0,0,0-9.2,5.122,70.959,70.959,0,0,0-6.76,6.412c-1.427,1.507-1.69,1.818-2.106,1.637a9.965,9.965,0,0,1-1.944-1.872,12.451,12.451,0,0,0-4-3.1,10.86,10.86,0,0,0-6.135-.351c-1.955.345-4.156,1.01-6.039,1.363" fill="#fff" fill-rule="evenodd"/>
    <path id="Path_443" data-name="Path 443" d="M82.55,61.791q-1.031-.148-2.023-.284c-7.272-.988-12.834-1.4-18.059-2.164s-10.112-1.875-13.144-2.384-4.208-.412-5.394.374-2.385,2.263-2.957,6.325-.521,10.706.438,18.358c.217,1.736.481,3.523.786,5.328a47.663,47.663,0,0,1,5.169-5.919q-.022-.569-.036-1.131a86.974,86.974,0,0,1,.779-13.256c.349-2.585.484-2.649,1.212-2.714a13.454,13.454,0,0,1,4.974.651A68.117,68.117,0,0,1,66.552,69.82l.46.234c3.235-1.173,5.547-1.826,7.628-2.8a34.472,34.472,0,0,0,7-4.714c.3-.244.606-.493.912-.745" fill="#fca921" fill-rule="evenodd"/>
    <path id="Path_444" data-name="Path 444" d="M82.55,61.791q-1.031-.148-2.023-.284c-7.272-.988-12.834-1.4-18.059-2.164s-10.112-1.875-13.144-2.384-4.208-.412-5.394.374c-.962.637-1.93,1.728-2.568,4.279a17.15,17.15,0,0,1,6.029-.277,73.351,73.351,0,0,1,10.724,2.027c2.635.7,3.616,1.135,1.875,1.251-1.2.08-3.687.009-5.941.3l.246.065A68.117,68.117,0,0,1,66.552,69.82l.46.234c3.235-1.173,5.547-1.826,7.628-2.8a34.472,34.472,0,0,0,7-4.714c.3-.244.606-.493.912-.745" fill="#fc8320" fill-rule="evenodd"/>
    <path id="Path_445" data-name="Path 445" d="M147.231,46.369a60.52,60.52,0,0,0-18.51-.2,99.08,99.08,0,0,0-25.99,7.21,97.239,97.239,0,0,0-18.91,11.482c-.572.43-1.1.829-1.582,1.2.914-.141,1.857-.273,2.824-.39a129.12,129.12,0,0,1,22.9-.384c7.659.5,14.739,1.534,20.448,1.787a52.361,52.361,0,0,0,13.19-.94c3.141-.662,5.083-1.456,4.834-1.216a27.293,27.293,0,0,1-6.036,2.568,48.667,48.667,0,0,1-12.351,2.112c-4.749.21-9.993-.215-15.737-.556s-11.986-.6-17.548-.4a86.71,86.71,0,0,0-15.472,1.906c-5.028,1.069-10.2,2.566-13.233,3.491-2.14.653-3.209,1.021-4.172,1.37-1.126.463-2.233.954-3.29,1.479-5.2,2.579-9.195,5.969-13.622,13.006s-9.283,17.721-10.751,25.7.455,13.26,2.814,18.079a59.732,59.732,0,0,0,6.537,10.751c1.382,1.572,1.35.357,1.444-2.673s.314-7.873,2.216-12.255,5.486-8.3,13.577-12.189,20.689-7.74,29.072-10.182,12.553-3.474,15.521-4.591a31.847,31.847,0,0,0,3.118-1.375,68.551,68.551,0,0,0-6.973-1.848,76.971,76.971,0,0,0-11.8-1.316,65.748,65.748,0,0,0-11.775.373,43.065,43.065,0,0,0-10,2.752,50.1,50.1,0,0,0-9.036,4.581,48.945,48.945,0,0,0-7.462,6.081c-2.026,2.009-3.475,3.808-3.325,3.326a29.708,29.708,0,0,1,4.245-5.849,37.8,37.8,0,0,1,8.663-7.062A45.614,45.614,0,0,1,72.53,97.426,55.137,55.137,0,0,1,87.311,95.48,124.751,124.751,0,0,1,104.8,97.071c5.343.805,9.535,1.631,11.886,2.061,1.332.243,2.074.359,2.681.451,4.736.3,12.471.664,19.7-.766a55.629,55.629,0,0,0,19.4-8.175,41.92,41.92,0,0,0,7.907-7c1.19-1.19,1.46-.876,3.125,1.823s4.723,7.78,6.733,17.575,2.971,24.3,5.551,34.492,6.78,16.061,14.094,19.868,17.741,5.55,26.871,4.471a47.232,47.232,0,0,0,23.38-9.943,71.954,71.954,0,0,0,13.12-13.38c1.7-2.393.114-1.154-3.147-.291a35.031,35.031,0,0,1-13.213.629c-5.022-.722-10.133-2.651-10.96-3.246s2.629.142,6.531.247,8.247-.428,11.653-2.469,5.875-5.594,6.056-6.486-1.925.873-6.064,1.669a26.38,26.38,0,0,1-15.679-1.972,24.891,24.891,0,0,1-8.307-6.752,13.232,13.232,0,0,1-4.287-.834c-2.035-.725-2.958-1.446-1.916-.322A39.261,39.261,0,0,0,227.55,125c3.581,2.182,7.738,3.574,7.843,3.863s-3.842-.528-6.665-1.434a18.128,18.128,0,0,1-6.659-3.659,41.3,41.3,0,0,1-6.519-6.69c-1.8-2.422-2.83-4.753-2.539-3.514A66.188,66.188,0,0,0,216.53,123a25.177,25.177,0,0,0,4.584,6.788c1.331,1.413,2.362,2.261,2.413,2.486s-.879-.171-2.721-1.591-4.6-3.865-7.791-9.316-6.822-13.907-10.529-22.239S194.995,82.6,192.025,77.256s-5.127-7.81-7.211-9.5a14.866,14.866,0,0,0-6.361-3.116,23.158,23.158,0,0,0-6.754-.45c-1.972.172-3.4.624-2.9.332a19.421,19.421,0,0,1,5.77-1.725,16.13,16.13,0,0,1,9.327,1.41c3.2,1.555,6.335,4.417,10.619,11.4s9.721,18.1,14.222,25.334a55.763,55.763,0,0,0,10.78,13.081c2.425,2.213,4.174,3.718,4.9,3.637a59.323,59.323,0,0,1-4.389-7.264c-4.478-8.623-8.875-20.853-13.316-30.119s-8.924-15.566-13.449-20.294-9.089-7.885-14.7-9.115c-4.375-.961-9.385-.747-13.218-.574-3.254,1.417-3.557,2.609-3.589,3.664-.033,1.089.222,2.031-.463,1.315a38.523,38.523,0,0,1-3.478-5.078l-.168-.288a15.324,15.324,0,0,1-1.966-.828,30.7,30.7,0,0,0-8.456-2.71" fill="#c9703e" fill-rule="evenodd"/>
    <path id="Path_446" data-name="Path 446" d="M147.231,46.369a50.66,50.66,0,0,0-6.361-.723,41.344,41.344,0,0,1,9,4.483c2.6,1.931,3.205,3.85,2.361,5.668s-3.137,3.536-6.22,4.863a37.1,37.1,0,0,1-10.919,2.633,51.5,51.5,0,0,1-11.962-.393c-3.939-.561-7.76-1.485-11.614-1.918s-7.742-.375-10.058-.555-3.063-.6-2.771-1.732,1.623-2.978,5.271-5.185c1.287-.779,2.863-1.6,4.455-2.4-1.946.7-3.851,1.453-5.678,2.264a97.239,97.239,0,0,0-18.91,11.482c-.572.43-1.1.829-1.582,1.2.914-.141,1.857-.273,2.824-.39a129.12,129.12,0,0,1,22.9-.384c7.659.5,14.739,1.534,20.448,1.787a52.361,52.361,0,0,0,13.19-.94c3.141-.662,5.083-1.456,4.834-1.216a27.293,27.293,0,0,1-6.036,2.568,48.667,48.667,0,0,1-12.351,2.112c-4.749.21-9.993-.215-15.737-.556s-11.986-.6-17.548-.4a86.71,86.71,0,0,0-15.472,1.906c-5.028,1.069-10.2,2.566-13.233,3.491-2.14.653-3.209,1.021-4.172,1.37-1.126.463-2.233.954-3.29,1.479-5.2,2.579-9.195,5.969-13.622,13.006-.57.907-1.147,1.874-1.723,2.888q.61-.635,1.257-1.256C49.9,86.337,57.163,82.065,64.98,78.885a71.04,71.04,0,0,1,23.848-5.511c7.666-.242,14.63,1.364,22.46,2.47s16.527,1.711,23.3,1.022,11.633-2.673,11.249-2.024-6.009,3.933-12.283,5.7-13.2,2.007-19.059,1.842-10.659-.737-16.028-.474a79.086,79.086,0,0,0-16.33,2.737A51.429,51.429,0,0,0,73.2,87.753c.193.069,4.689-1.454,9.494-2.157a48.358,48.358,0,0,1,14.935.261c5.017.847,9.938,2.424,16.069,3.274a80.777,80.777,0,0,0,18.952.325c5.484-.647,9.112-2.063,8.982-1.607s-4.017,2.785-9.742,4.111-13.288,1.647-19.945,1.418-12.408-1.01-18.22-1.342a71.468,71.468,0,0,0-17.484.885A52.585,52.585,0,0,0,59.36,99.273a55.2,55.2,0,0,0-13.641,11.285,25.828,25.828,0,0,0-5.535,10.273,45.554,45.554,0,0,0-.731,5.211c-.183.393-.7-.841-1.184-2.289s-.913-3.11-1.112-1.493a49.085,49.085,0,0,0,.71,11.5c.146.837.316,1.677.5,2.51a52.138,52.138,0,0,0,5.2,8.149c1.382,1.572,1.35.357,1.444-2.673s.314-7.873,2.216-12.255,5.486-8.3,13.577-12.189,20.689-7.74,29.072-10.182,12.553-3.474,15.521-4.591a31.847,31.847,0,0,0,3.118-1.375,68.551,68.551,0,0,0-6.973-1.848,76.971,76.971,0,0,0-11.8-1.316,65.748,65.748,0,0,0-11.775.373,43.065,43.065,0,0,0-10,2.752,50.1,50.1,0,0,0-9.036,4.581,48.945,48.945,0,0,0-7.462,6.081c-2.026,2.009-3.475,3.808-3.325,3.326a29.708,29.708,0,0,1,4.245-5.849,37.8,37.8,0,0,1,8.663-7.062A45.614,45.614,0,0,1,72.53,97.426,55.137,55.137,0,0,1,87.311,95.48,124.751,124.751,0,0,1,104.8,97.071c5.343.805,9.535,1.631,11.886,2.061,1.332.243,2.074.359,2.681.451,4.736.3,12.471.664,19.7-.766a55.629,55.629,0,0,0,19.4-8.175,41.92,41.92,0,0,0,7.907-7c.614-.614.982-.827,1.424-.521a2.724,2.724,0,0,1,2.364-.8,6.809,6.809,0,0,1,4.1,2.7,28.063,28.063,0,0,1,4.21,7.713c1.168,3.1,1.952,6.483,1.992,6.247a57.73,57.73,0,0,0-1.716-7.787,34.186,34.186,0,0,0-4.063-9.539,11.207,11.207,0,0,0-4.607-3.934c-1.2-.548-1.807-.567-1.037-.522a14.61,14.61,0,0,1,5.1,1.116c2.181.961,4.4,2.776,6.842,7.809s5.123,13.28,7.007,19.4,2.974,10.113,4.886,15.326a97.2,97.2,0,0,0,7.072,15.568c2.426,3.922,4.545,5.332,6.854,6.394s4.806,1.776,5.017,1.983-1.866-.1-4.327-.885a18.318,18.318,0,0,1-7.852-4.7c-2.547-2.633-4.8-6.622-6.77-11.017S189.2,119,189,119.445s1.1,6.124,2.354,11.673,2.475,10.961,5.649,16.067a29.652,29.652,0,0,0,14.344,12.107c6.041,2.2,12.993,1.819,18.92.631,1.12-.225,2.2-.478,3.257-.761a50.972,50.972,0,0,0,12.61-7.236,71.954,71.954,0,0,0,13.12-13.38c.181-.255.325-.467.433-.645-.888.53-1.833,1.075-2.765,1.543a22.6,22.6,0,0,1-10.134,2.421,30.719,30.719,0,0,1-12.106-1.951,24.831,24.831,0,0,1-8.56-6.51c-2.168-2.377-3.777-4.545-3.688-4.764s1.876,1.509,6.183,2.419a47.851,47.851,0,0,0,17.268-.186,55,55,0,0,0,9.839-2.991,3.578,3.578,0,0,0,.45-.952c.181-.893-1.925.873-6.064,1.669a26.38,26.38,0,0,1-15.679-1.972,24.891,24.891,0,0,1-8.307-6.752,13.232,13.232,0,0,1-4.287-.834c-2.035-.725-2.958-1.446-1.916-.322A39.261,39.261,0,0,0,227.55,125c3.581,2.182,7.738,3.574,7.843,3.863s-3.842-.528-6.665-1.434a18.128,18.128,0,0,1-6.659-3.659,41.3,41.3,0,0,1-6.519-6.69c-1.8-2.422-2.83-4.753-2.539-3.514A66.188,66.188,0,0,0,216.53,123a25.177,25.177,0,0,0,4.584,6.788c1.331,1.413,2.362,2.261,2.413,2.486s-.879-.171-2.721-1.591-4.6-3.865-7.791-9.316-6.822-13.907-10.529-22.239S194.995,82.6,192.025,77.256s-5.127-7.81-7.211-9.5a14.866,14.866,0,0,0-6.361-3.116,23.158,23.158,0,0,0-6.754-.45c-1.972.172-3.4.624-2.9.332a19.421,19.421,0,0,1,5.77-1.725,16.13,16.13,0,0,1,9.327,1.41c3.2,1.555,6.335,4.417,10.619,11.4s9.721,18.1,14.222,25.334a55.763,55.763,0,0,0,10.78,13.081c2.425,2.213,4.174,3.718,4.9,3.637q-.8-1.109-1.582-2.349a36.764,36.764,0,0,1-7.975-7.758,79.741,79.741,0,0,1-8.182-13.771c-2.8-5.683-5.934-12.717-8.514-18.08s-4.607-9.057-7.615-11.864a26.806,26.806,0,0,0-10.746-5.8c-3.746-1.072-7.25-1.293-6.947-1.654s4.415-.865,8.967-.216a33.8,33.8,0,0,1,11.526,3.906l-.086-.089c-4.524-4.729-9.089-7.885-14.7-9.115-4.375-.961-9.385-.747-13.218-.574-3.254,1.417-3.557,2.609-3.589,3.664-.033,1.089.222,2.031-.463,1.315a38.523,38.523,0,0,1-3.478-5.078l-.168-.288a15.324,15.324,0,0,1-1.966-.828,30.7,30.7,0,0,0-8.456-2.71" fill="#b04932" fill-rule="evenodd"/>
    <path id="Path_447" data-name="Path 447" d="M69.8,54.818A85.014,85.014,0,0,1,86.509,42.939a178.632,178.632,0,0,1,33.3-13.675,208.661,208.661,0,0,1,28.563-6.1c5.7-.842,6.058-.769,6.3-.654s.382.272-.4,3.1-2.5,8.314-3.362,11.438-.889,3.881-1.99,3.9a44.936,44.936,0,0,0-8.037-.468,129.187,129.187,0,0,0-19.108,2.974,113.882,113.882,0,0,0-19.556,5.96A114.144,114.144,0,0,0,88.469,56.6a19.882,19.882,0,0,1-3.785,2.029,9.456,9.456,0,0,1-3.308.071c-2.287-.142-6.349-.487-8.833-.691s-3.392-.267-4.051-.317a3.584,3.584,0,0,1-1.236-.2c-.165-.111-.086-.295,2.546-2.677" fill="#e69aba" fill-rule="evenodd"/>
    <path id="Path_448" data-name="Path 448" d="M81.12,46.146c1.475-.945,3.092-1.921,4.859-2.912,2.743.658,4.808.334,6.354-.778a12.778,12.778,0,0,0,3.182-4.036c4.636-2.13,9.71-4.2,14.861-6.057,1.032.32,2.065.637,3.071.873a13.863,13.863,0,0,0,9.155-.626,16.521,16.521,0,0,0,6.985-5.93c2.259-.529,4.43-.994,6.475-1.4-1.762,2.033-3.6,4.34-5.3,6.237-2.774,3.1-5.171,5.106-7.834,6.265a14.535,14.535,0,0,1-8.412.959c-2.821-.513-5.534-1.85-7.945-1.671s-4.523,1.874-6.277,3.827-3.154,4.163-5.3,5.561S89.949,48.439,86,47.6a39.714,39.714,0,0,1-4.879-1.455" fill="#fff" fill-rule="evenodd"/>
    <path id="Path_449" data-name="Path 449" d="M192.8,19.312a50.109,50.109,0,0,1,19.659,4.141c8.457,3.667,18.242,10.6,26.23,16.121s14.179,9.642,20.524,12.407,12.843,4.176,15.762,5.5,2.258,2.568.073,6.458-5.894,10.427-8.208,14.029-3.235,4.264-4.564,2.352-3.067-6.4-6.731-11.187a70.536,70.536,0,0,0-10.891-11.041c-1.64-1.173.668,1.562,3.566,5.619s6.387,9.434,10.766,20.1a390.223,390.223,0,0,1,13.146,39.252c3.494,12.631,5.212,21.939,5.481,27.942s-.909,8.7-3.444,10.752-6.427,3.455-8.544,4.178-2.46.765-2.717.68-.427-.3-1.441-1.463-2.869-3.291-4.465-4.837q-.281-.27-.547-.518a13.9,13.9,0,0,1-1.135-.972l-.584-.532a13.413,13.413,0,0,1-1.122-1l-.058-.068c-.313-.288-.6-.553-.83-.785a3.357,3.357,0,0,1-1-1.343c-.088-.337.016-.628.951-1.507s2.7-2.347,4.589-4.389a27.743,27.743,0,0,0,4.813-6.788,8.986,8.986,0,0,0,.606-5.115,9.506,9.506,0,0,0-.6-2.845c-.267-.454-.629-.317-1.479-.027a22.254,22.254,0,0,1-3.368.922c-1.182.191-2.209.131-2.342-.2s.627-.934,1.535-2.041a12.483,12.483,0,0,0,2.445-4.561,9.872,9.872,0,0,0,.032-4.981c-.362-1.068-1-1.134-2.22-.593a46.4,46.4,0,0,1-4.745,2.246,7.063,7.063,0,0,1-4.289.177,1.93,1.93,0,0,1-1.3-1.9c-.086-.894.009-2.018-.29-4.647a94.812,94.812,0,0,0-2.3-11.957A190.824,190.824,0,0,0,237.9,88.2c-2.646-7.233-6.013-15.443-8.343-20.467s-3.619-6.858-3.622-5.931,1.283,4.618,2.173,7.917a70.417,70.417,0,0,1,1.664,8.117c.28,1.913.346,2.832-1-.017s-4.1-9.465-7.078-15.243a101.407,101.407,0,0,0-9.382-14.939,143.557,143.557,0,0,0-9.4-10.952c-1.128-1.218-2.224-2.4-3.235-3.484a32.467,32.467,0,0,1-2.432-2.581c-.468-.513-1.034-1.125-1.652-1.789l-.024-.025-.049-.052-.07-.075-.008-.009c-1.436-1.533-1.782-1.9-2.112-2.25l-.169-.181,0,0-.016-.017c-1.416-1.5-2.821-2.97-3.813-3.989-2.058-2.114-2.339-2.282-1.974-2.5s1.377-.487,5.448-.419" fill="#e183b2" fill-rule="evenodd"/>
    <path id="Path_450" data-name="Path 450" d="M200.22,19.909a49.258,49.258,0,0,1,9.192,2.336A12.782,12.782,0,0,0,211.17,25.7c1.877,2.459,4.979,3.563,7.388,5.447a18.452,18.452,0,0,1,5.141,6.789c1.015,2.24,1.33,4.056,2.89,5.441s4.365,2.341,6.261,4.195,2.881,4.608,4.811,10.538,4.8,15.034,5.123,17.267-1.917-2.408-3.7-6.779-3.122-8.473-4.209-11.678-1.925-5.513-4.193-7-5.964-2.145-7.97-3.383-2.319-3.054-3.255-5.4a17.02,17.02,0,0,0-4.8-7.017c-2.306-1.8-5.363-2.543-7.457-4.655s-3.225-5.6-6.491-9.058q-.237-.252-.489-.5" fill="#fff" fill-rule="evenodd"/>
    <path id="Path_451" data-name="Path 451" d="M74.447,175.593c1.738-.954,4.481-1.451,7.692-1.647a54.493,54.493,0,0,1,9.718.282,14.656,14.656,0,0,1,5.918,1.757,2.921,2.921,0,0,1,1.359,2.8,11.37,11.37,0,0,1-1.121,4.761,23.76,23.76,0,0,1-4.74,6.789,29.027,29.027,0,0,1-7.491,5.518,6.523,6.523,0,0,1-5.039.457,9.277,9.277,0,0,1-4.721-2.784,20.484,20.484,0,0,1-4.074-7.15,12.8,12.8,0,0,1-.361-6.6,5.65,5.65,0,0,1,2.86-4.185" fill="#4f1212" fill-rule="evenodd"/>
    <path id="Path_452" data-name="Path 452" d="M85.653,194.571a19.44,19.44,0,0,0,.544,5.114,23.328,23.328,0,0,0,1.391,4.268,5.609,5.609,0,0,0,2.793,3.136,19.152,19.152,0,0,0,7.451,1.987,14.769,14.769,0,0,0,7.83-1.745c2.437-1.295,4.7-3.286,5.529-3.689s.235.782-1.011,2.349a20.453,20.453,0,0,1-5.455,4.861A16.049,16.049,0,0,1,97.177,213a13.978,13.978,0,0,1-6.659-1.574c-1.9-.973-3.453-2.267-4.35-2.783s-1.144-.254-1.964.24a9.85,9.85,0,0,1-3.631,1.394,5.96,5.96,0,0,1-4.223-1.175,11.314,11.314,0,0,1-2.837-2.922c-.164-.4.809.365,2.012.913a8.167,8.167,0,0,0,3.942.77,4.783,4.783,0,0,0,3.16-1.453c.67-.777.827-1.769.391-4.2s-1.464-6.288-1.638-8.283.505-2.125,1.59-2.35a21.8,21.8,0,0,1,3.272-.539c.7.007.6.344.3.878a5.7,5.7,0,0,0-.893,2.647" fill="#4f1212" fill-rule="evenodd"/>
    <path id="Path_453" data-name="Path 453" d="M103.04,161.583a18.418,18.418,0,0,0,10.34-1.31c4.334-1.9,9.676-5.981,14.66-9.58s9.609-6.714,13.563-8.124a16.093,16.093,0,0,1,9.626-.505,15.912,15.912,0,0,1,4.877,2.162c.98.622,1.435.937,1.325.6a15.558,15.558,0,0,0-1.671-2.484,13.014,13.014,0,0,0-3.4-3.385c-1.427-.869-3.189-1.256-3.671-1.591s.319-.619,1.726-.86a20.245,20.245,0,0,0,3.871-.751c.449-.31-.668-.73-2.333-1.268a17.3,17.3,0,0,0-6.295-1.062,15.869,15.869,0,0,0-7.47,2.605c-2.43,1.549-4.667,3.722-5.605,4.393s-.576-.161.069-1.329,1.575-2.672,1.166-2.6-2.153,1.723-4.325,4.051-4.772,5.335-7.256,7.957a53.034,53.034,0,0,1-7.453,6.728,26.553,26.553,0,0,1-8.546,4.22c-3.119.845-6.527,1.029-7.215,1.276s1.343.554,4.021.853" fill="#4f1212" fill-rule="evenodd"/>
    <path id="Path_454" data-name="Path 454" d="M111.437,158.766a7.2,7.2,0,0,0,.825,3.816,16.252,16.252,0,0,0,3,4.872,21.622,21.622,0,0,0,6.418,4.813,16.454,16.454,0,0,0,9.241,1.652,30.744,30.744,0,0,0,11.162-3.682,15.128,15.128,0,0,0,6.39-6.506,17,17,0,0,0,1.749-9.207,28.608,28.608,0,0,0-3.069-9.939,15.566,15.566,0,0,0-4.192-5.467c-1.244-.892-2.214-.866-6.14,1.723s-10.8,7.741-15.2,10.851a71.052,71.052,0,0,1-7.694,4.939c-1.39.761-2.261,1.215-2.485,2.135" fill="#4f1212" fill-rule="evenodd"/>
    <path id="Path_455" data-name="Path 455" d="M79.16,156.762a5.462,5.462,0,0,1-4.487.518c-2.056-.637-4.818-2.528-7.368-4.159s-4.886-3-6.72-3.378a4.84,4.84,0,0,0-4.084.935,7.12,7.12,0,0,0-1.753,2.006c-.329.522-.478.781-.475.555a12.6,12.6,0,0,1,.373-1.792,8.846,8.846,0,0,1,.98-2.589,19.584,19.584,0,0,1,1.324-1.487c.158-.275-.213-.35-.832-.32a5.886,5.886,0,0,1-1.714.029c-.228-.138.184-.549.809-1.108a5.837,5.837,0,0,1,2.489-1.493,5.044,5.044,0,0,1,3.457.676,31.78,31.78,0,0,1,2.912,2.053c.48.3.22-.177-.2-.833s-1.005-1.488-.825-1.495a11.342,11.342,0,0,1,2.333,2c1.211,1.192,2.688,2.758,4.067,4.1a25.8,25.8,0,0,0,3.987,3.292,9.353,9.353,0,0,0,4.119,1.559,29.37,29.37,0,0,0,3.177-.132c.319.066-.488.526-1.567,1.065" fill="#4f1212" fill-rule="evenodd"/>
    <path id="Path_456" data-name="Path 456" d="M76.02,156.856a6.906,6.906,0,0,1,.153,2.526,13.58,13.58,0,0,1-.615,3.478,12.667,12.667,0,0,1-2.051,3.887A5.663,5.663,0,0,1,69.866,169a9.631,9.631,0,0,1-5.14-.877,7.941,7.941,0,0,1-3.515-3.289,15.107,15.107,0,0,1-1.931-5.606,27,27,0,0,1-.015-6.7,11.855,11.855,0,0,1,1.036-4.012c.4-.726.812-.837,2.788.292s5.52,3.5,7.759,4.894a28.014,28.014,0,0,0,3.856,2.125c.679.3,1.1.476,1.316,1.029" fill="#4f1212" fill-rule="evenodd"/>
    <path id="Path_457" data-name="Path 457" d="M114.52,134.168a35.05,35.05,0,0,0,10.189-4.629c2.864-1.973,4.331-4.006,4.365-6.189a5.274,5.274,0,0,0-3.712-5.156c-2.35-.64-5.651.413-8.648,2.448a25.978,25.978,0,0,0-7.131,7.454c-1.445,2.4-1.644,4.188-.814,5.291s2.69,1.526,5.751.781" fill="#fff" fill-rule="evenodd"/>
    <path id="Path_458" data-name="Path 458" d="M76.908,141.8a14.8,14.8,0,0,1-6.449-2.6,8.306,8.306,0,0,1-3.558-5.22c-.431-2.127-.108-4.669,1.056-5.738s3.17-.666,5.193.756a21.008,21.008,0,0,1,5.311,5.933c1.244,2.073,1.69,3.78,1.445,5.015s-1.183,2-3,1.85" fill="#fff" fill-rule="evenodd"/>
    <path id="Path_459" data-name="Path 459" d="M115.137,161.213a26.359,26.359,0,0,0,2.266,3.857,13.809,13.809,0,0,0,3.88,3.582,15.751,15.751,0,0,0,5.11,1.89,15.388,15.388,0,0,0,6.126.051,36.979,36.979,0,0,0,6.908-2.259c.4-.171.753-.33,1.062-.474a6.378,6.378,0,0,0,2.352-1.225,8.245,8.245,0,0,0,2.587-4.571,22.319,22.319,0,0,0,.344-7.85,33.924,33.924,0,0,0-2.012-7.939c-.739-1.788-1.309-2.185-2.219-2.31a5.9,5.9,0,0,0-.917-.044c.307-.187-1.011-.035-2.716.244a18.638,18.638,0,0,0-6.151,1.925,37.031,37.031,0,0,0-6.905,5.251c-2.121,1.95-3.879,3.786-5.186,5.046a17.332,17.332,0,0,1-2.809,2.34,6.181,6.181,0,0,1-1.475.626c-.376.13-.686.29-.768.5s.065.461.523,1.364" fill="#fff" fill-rule="evenodd"/>
    <path id="Path_460" data-name="Path 460" d="M69.2,154.524a27.57,27.57,0,0,0-2.98-2.59,2.785,2.785,0,0,0-2.5-.6,2.873,2.873,0,0,0-1.685,1.936,13.52,13.52,0,0,0-.5,4.087,18.629,18.629,0,0,0,.451,4.343,9.983,9.983,0,0,0,1.451,3.346,5.634,5.634,0,0,0,2.037,1.779,8.023,8.023,0,0,0,1.9.724c.132.022.172.008.154-.041a4.6,4.6,0,0,0,.636.035,5.387,5.387,0,0,0,3.617-1.451,9.8,9.8,0,0,0,2.2-4.177,12.152,12.152,0,0,0,.518-3.333,1.111,1.111,0,0,0-.746-1.225c-.6-.324-1.671-.769-2.726-1.432-.468-.295-.933-.631-1.36-.964Z" fill="#fff" fill-rule="evenodd"/>
    <path id="Path_461" data-name="Path 461" d="M69.117,154c-.337-.317-.763-.729-1.225-1.155-1.839,1.473-2.885,4.474-2.482,7.771.434,3.548,2.415,6.36,4.779,7.139a5.455,5.455,0,0,0,1.75-1.132,10.7,10.7,0,0,0,2.4-4.559,13.3,13.3,0,0,0,.566-3.638,1.213,1.213,0,0,0-.815-1.337c-.657-.354-1.823-.84-2.975-1.564-.51-.322-1.018-.688-1.484-1.051Z" fill="#4f1212" fill-rule="evenodd"/>
    <path id="Path_462" data-name="Path 462" d="M90.991,176.48a53.159,53.159,0,0,0-8.192-.274,17.294,17.294,0,0,0-6.254,1.17,4.893,4.893,0,0,0-2.741,2.792,5.515,5.515,0,0,0-.128,3.03c.182.638.462.65.987.018a21.881,21.881,0,0,1,2.35-2.86,9.169,9.169,0,0,1,4.171-2.005,33.833,33.833,0,0,1,6.33-.739c2.33-.088,4.77-.038,5.581-.23s-.007-.625-2.1-.9" fill="#fff" fill-rule="evenodd"/>
    <path id="Path_463" data-name="Path 463" d="M28.613,156.134a77.4,77.4,0,0,1-.05-8.35c.189-2.223.695-2.85,4.332-4.049A70.624,70.624,0,0,1,50,140.419a59.58,59.58,0,0,1,18.379,2.121,103.772,103.772,0,0,1,11.225,4.126c2.72,1.018,4.749,1.5,7.164.663,16.821-5.8,24.783-16.726,58.444-19.906a133.172,133.172,0,0,1,18.725.264c3.01.418,12.338-.872,13.858.45s.59,5.854.984,7.093-5.452,1.017-6.765,1.586a13.813,13.813,0,0,0-5.058,3.068c-1.607,1.736-2.683,4.444-3.979,7.932a92.341,92.341,0,0,1-4.926,11.692,25.584,25.584,0,0,1-8.84,10.033c-13.162,8.206-49.307,10.77-58.582-9.081-1.226-2.624-2.573-2.8-3.538-2.552s-1.926,1.115-2.7,3.283c-7.717,21.512-28.772,25.5-42.891,7.693-3.269-4.124-5.466-7.814-7.043-9.6s-2.533-1.67-3.351-1.225-1.5,1.22-1.891,1.205-.488-.819-.6-3.13m11.75-5.08a7.252,7.252,0,0,1,4.253-3.505,26.111,26.111,0,0,1,10.987-1.2,62.31,62.31,0,0,1,13.971,2.973c3.846,1.305,6.067,2.6,7.564,4.133,8.649,8.839-15.4,33.856-30.522,16.014a30.809,30.809,0,0,1-4.1-6.378,28.8,28.8,0,0,1-1.879-5.158,22.97,22.97,0,0,1-.724-3.54,5.717,5.717,0,0,1,.453-3.338M156.818,136.82c-.853-1.027-2.347-1.831-4.972-2.377-17.09-3.556-51.826,9.572-56.034,16.729a8.384,8.384,0,0,0-1.282,5.686c3.245,19.127,42.4,13.229,50.069,9.682A21.737,21.737,0,0,0,155.184,156.2a30.859,30.859,0,0,0,2.446-7.178,28.755,28.755,0,0,0,.582-5.459,23.2,23.2,0,0,0-.15-3.61,5.717,5.717,0,0,0-1.244-3.131" fill="#4f1212" fill-rule="evenodd"/>
    <path id="Path_464" data-name="Path 464" d="M158.566,42.068a158.071,158.071,0,0,1,5.326-15.021c1.795-4.09,2.968-5.114,3.853-5.455s1.484,0,3.38,1.673a61.086,61.086,0,0,1,8.294,8.884,129.716,129.716,0,0,1,8.726,13.744,84.189,84.189,0,0,1,4.111,7.842c.408,1.062-.173.484-2.079-.511a51.11,51.11,0,0,0-8.338-3.362,42.163,42.163,0,0,0-9.681-1.644,81.884,81.884,0,0,0-8.875.018c-2.1.117-2.819.252-3.5-.012a4.627,4.627,0,0,1-1.731-1.457c-.412-.53-.6-.924.515-4.7" fill="#4f1212" fill-rule="evenodd"/>
    <path id="Path_465" data-name="Path 465" d="M230.719,38.859c1.189.249,2.415.794,2.633,1.625a1.985,1.985,0,0,1-1.616,2.144,3.963,3.963,0,0,1-3.129-1.332c-.794-.807-1.089-1.7-.659-2.168s1.582-.518,2.771-.269" fill="#fff" fill-rule="evenodd"/>
    <path id="Path_466" data-name="Path 466" d="M213.249,36.69c1.189.249,2.414.794,2.631,1.625a1.985,1.985,0,0,1-1.614,2.145,3.971,3.971,0,0,1-3.131-1.333c-.794-.807-1.087-1.7-.658-2.168s1.582-.518,2.772-.269" fill="#fff" fill-rule="evenodd"/>
    <path id="Path_467" data-name="Path 467" d="M138.291,30.8c1.189.249,2.415.794,2.633,1.625a1.988,1.988,0,0,1-1.616,2.145,3.967,3.967,0,0,1-3.129-1.333c-.794-.807-1.089-1.7-.659-2.168s1.582-.518,2.771-.269" fill="#fff" fill-rule="evenodd"/>
    <path id="Path_468" data-name="Path 468" d="M107.374,39.756c1.189.249,2.415.794,2.633,1.625a1.987,1.987,0,0,1-1.616,2.145,3.967,3.967,0,0,1-3.129-1.333c-.794-.807-1.089-1.7-.659-2.168s1.582-.518,2.771-.269" fill="#fff" fill-rule="evenodd"/>
    <path id="Path_469" data-name="Path 469" d="M135.334,171.559c5.559.643,10.71-4.408,11.5-11.282s-3.067-12.966-8.626-13.609-10.71,4.408-11.5,11.282,3.067,12.966,8.626,13.609" fill="#4f1212" fill-rule="evenodd"/>
    <path id="Path_470" data-name="Path 470" d="M129.867,149.436a4.9,4.9,0,1,1-4.9,4.9,4.9,4.9,0,0,1,4.9-4.9" fill="#fff" fill-rule="evenodd"/>
    <path id="Path_471" data-name="Path 471" d="M139.14,153.718a2.418,2.418,0,1,1-2.418,2.418,2.419,2.419,0,0,1,2.418-2.418" fill="#fff" fill-rule="evenodd"/>
    <path id="Path_472" data-name="Path 472" d="M66.849,156.431a2.884,2.884,0,1,1-2.885,2.885,2.885,2.885,0,0,1,2.885-2.885" fill="#fff" fill-rule="evenodd"/>
    <path id="Path_473" data-name="Path 473" d="M72.3,158.95a1.423,1.423,0,1,1-1.422,1.422A1.422,1.422,0,0,1,72.3,158.95" fill="#fff" fill-rule="evenodd"/>
    <path id="Path_474" data-name="Path 474" d="M42.079,221.314a77.789,77.789,0,0,1,11.454-2.22c3.553-.264,5.562.45,6.685,1.652s1.36,2.893,1.707,5.524.8,6.2.855,8.166-.3,2.337-1.859,2.309a21.131,21.131,0,0,1-8.247-2.26,69.3,69.3,0,0,1-11.546-7.041c-2.589-2.035-2.722-2.907-2.788-3.554s-.066-1.07.185-1.374.753-.489,3.554-1.2" fill="#4f1212" fill-rule="evenodd"/>
    <path id="Path_475" data-name="Path 475" d="M139.052,261.469c4.263-2.212,9.932-4.886,14.794-8.48a57.306,57.306,0,0,0,5.616-4.8,6.508,6.508,0,0,0,1.279,3.351c.679.893,1.459,1.395,1.7,1.835s-.063.817-1.458,1.32-3.883,1.131-8.382,3.016a119.285,119.285,0,0,0-16.6,8.571q-1.315.834-2.562,1.691l-1.227.359c-2.994.876-4.792,1.383-5.114,1.129s.829-1.267,2.833-2.65a85.423,85.423,0,0,1,9.126-5.346M187.094,235l.419-.054c3.5-.438,3.5-.069,2.834,2.512a72.1,72.1,0,0,1-4.585,12.835c-.576,1.22-1.215,2.473-1.881,3.736a11.871,11.871,0,0,1-1.361-.3c-.943-.29-1.119-.667-1.622-1.949a35.312,35.312,0,0,0-2.526-5.442,17.476,17.476,0,0,0-4.675-5.127,16.34,16.34,0,0,0-2.845-1.657l1.435-.386c5.182-1.4,10.341-2.792,14.807-4.169" fill="#fff" fill-rule="evenodd"/>
    <path id="Path_476" data-name="Path 476" d="M124.419,264.7c-.784-1.982-2.627-5.208-3.8-8.6a49.59,49.59,0,0,1-1.774-7.269,75.436,75.436,0,0,1-19.614-1c-.81-.167-1.569-.346-2.283-.533-.511.505-.242,1.391-.318,3.044a24.983,24.983,0,0,1-1.82,7.812c-1.129,2.672-2.788,4.885-2.7,5.945s1.936.968,4.77.115,6.661-2.465,9.725-3.779,5.369-2.328,7.051-2.558,2.742.322,4.171,1.59a38.286,38.286,0,0,1,4.425,4.816c1.2,1.567,1.8,2.719,2.235,2.927s.714-.531-.069-2.512" fill="#fff" fill-rule="evenodd"/>
    <path id="Path_477" data-name="Path 477" d="M107.314,263.679c2.256-.812,4.053-1.567,5.235-1.977,1.729-.6,2.144-.462,3.48.737s3.6,3.457,4.748,4.7,1.2,1.475.414,4.057c-.565,1.859-1.56,4.94-2.374,8.12-1.542,1.193-2.656,2.01-3.394,2.54-1.206.867-1.408.968-2,.754s-1.571-.742-3.859-1.558a41.368,41.368,0,0,0-9.375-2.263q-.506-.048-1.005-.076c.379-.879.761-1.738,1.142-2.563a92.772,92.772,0,0,1,6.913-12.363Zm15.86,12.164.09-.2c1.421-3.082,2.327-3.326,5.126-3.977-1.936,1.5-3.683,2.927-5.216,4.177" fill="#fff" fill-rule="evenodd"/>
    <path id="Path_478" data-name="Path 478" d="M161.909,241.873a101.319,101.319,0,0,1-9.969,8.486,125.859,125.859,0,0,1-13.2,8.116c-4.122,2.288-7.629,4.2-9.5,4.95s-2.093.325-3-1.493a85.4,85.4,0,0,1-3.571-7.921,29.518,29.518,0,0,1-1.484-5.342,269.982,269.982,0,0,0,28.545-4.11c4.568-.9,8.525-1.791,12.173-2.686" fill="#fff" fill-rule="evenodd"/>
    <path id="Path_479" data-name="Path 479" d="M53.325,221.434a6.039,6.039,0,0,1,2.712-.077,4.168,4.168,0,0,1,2.443,1.717,6.729,6.729,0,0,1,.781,3.435c.071,1.532.049,3.539.238,6.195s.588,5.96.809,7.765a8.85,8.85,0,0,1,.2,2.311.375.375,0,0,1-.462.249,5.571,5.571,0,0,1-1.336-.659,28.113,28.113,0,0,0-3.8-1.835c-1.629-.62-3.534-1.1-4.517-1.434s-1.043-.5-1.159-.948a6.493,6.493,0,0,1-.268-1.554c.021-.4.235-.479,1.2-1.056a30.423,30.423,0,0,0,4.151-2.906,13.666,13.666,0,0,0,3.278-3.972,4.842,4.842,0,0,0,.482-3.221,3.786,3.786,0,0,0-1.158-2.044,4.6,4.6,0,0,0-2.13-1.051c-.9-.215-2.038-.31-2.363-.444s.159-.307.9-.471" fill="#fca921" fill-rule="evenodd"/>
    <path id="Path_480" data-name="Path 480" d="M7.28,354.143a60.8,60.8,0,0,1-.674-10.094,23.9,23.9,0,0,1,2.135-9.673,21.993,21.993,0,0,1,6.1-7.833,71.481,71.481,0,0,1,9.58-6.418c2.436-1.4,3.154-1.7,3.269-1.538s-.37.8-1.36,2.594-2.485,4.758-3.5,6.33a7.749,7.749,0,0,1-2.809,2.656,21.928,21.928,0,0,0-5.088,5.145,47.969,47.969,0,0,0-4.844,9.263,34.91,34.91,0,0,0-2.169,7.362c-.334,2.021-.37,3.716-.643,2.206" fill="#fff" fill-rule="evenodd"/>
    <path id="Path_481" data-name="Path 481" d="M19.663,319.029c.8-2.75,2.816-8.523,4.772-14.616s3.854-12.5,5.11-16.853,1.872-6.635,2.228-7.587.455-.569,1,.921a40.044,40.044,0,0,0,1.853,4.528c.323.442-.017-1.27-.375-3.165a41,41,0,0,1-.8-5.849,16.493,16.493,0,0,1,.375-4.318c.2-.767.373-.626,1.224.121s2.384,2.1,4.183,3.733,3.863,3.549,4.873,4.7.964,1.528-.444,4.487-4.181,8.5-6.889,14.071-5.355,11.174-6.752,14.117-1.546,3.228-2.728,3.887-3.4,1.689-4.84,2.423a23.625,23.625,0,0,0-2.642,1.524c-.536.355-.944.63-.141-2.12" fill="#fff" fill-rule="evenodd"/>
    <path id="Path_482" data-name="Path 482" d="M98.6,304.452a50.864,50.864,0,0,0-4.406,10.206,49.856,49.856,0,0,0-2.14,18.189c.535,6.9,2.788,14.275,4,18.048s1.379,3.941,2.364,3.561,2.788-1.309,3.843-1.717,1.366-.3,3.309.493a61.225,61.225,0,0,1,9.249,4.547,58.025,58.025,0,0,1,8.264,6.138c.647.718-1.943-.972-5.041-2.8s-6.7-3.8-9.333-5.04-4.294-1.745-6.025-1.618a11.742,11.742,0,0,0-5.012,1.787,14.758,14.758,0,0,0-3.871,3.45,25.869,25.869,0,0,0-3.083,4.617c-.521,1.141-.24,1.45,1.084,2.013s3.688,1.38,7.531,2.7a94.432,94.432,0,0,1,12.9,5.167,17.616,17.616,0,0,1,7.165,6.391,12.911,12.911,0,0,1,1.816,5.913,4.82,4.82,0,0,1-.337,2.534c-.1.013.013-.915-.3-2.393a16.15,16.15,0,0,0-2.351-5.463,18.5,18.5,0,0,0-5.786-5.434,45.36,45.36,0,0,0-8.785-3.871,56.4,56.4,0,0,0-6.9-1.943c-1.492-.282-1.971-.169-1.633,1.225a27.322,27.322,0,0,0,3.59,7.292,42.98,42.98,0,0,0,8.672,9.827c3.534,2.829,7.56,4.716,11.121,4.9s6.659-1.337,9.179-2.914a41.583,41.583,0,0,0,5.687-4.308c1.225-1.1,1.731-1.66,1.76-3.28s-.423-4.294-.465-5.265.324-.24.676,1.154a34.889,34.889,0,0,1,.8,4.759c.113,1.309,0,1.872,1.887,2.083s5.772.07,11.7,0,13.894-.07,19.1-.07h1.222c-2.387-.962-4.984-1.829-7.05-2.5-3.594-1.168-5.58-1.747-6.724-2.287s-1.445-1.043-1.57-1.885-.076-2.024-.2-2.627-.427-.628-.98-.98a5.373,5.373,0,0,1-1.784-1.847,4.237,4.237,0,0,1-.34-2.627,2.81,2.81,0,0,1,1.534-2.212c1.068-.6,2.877-1.056,7.691-1.332,3.772-.217,9.388-.325,14.2-.344-.388-.161-.754-.333-1.1-.517.347.184.713.356,1.1.517,1.328-.005,2.6,0,3.746,0,5.316.037,8.131.213,10.344.05a13.048,13.048,0,0,0,4.913-1.219,5.906,5.906,0,0,0,2.64-2.815,35.619,35.619,0,0,0,2.726-5.719c.4-1.344-.15-1.319-2.406-1.838a69.762,69.762,0,0,1-8.88-2.651c-.086-.034-.17-.069-.253-.1a10.532,10.532,0,0,1-4.641-3.165,6.012,6.012,0,0,1-1.263-3.478,4.86,4.86,0,0,1,.691-2.966c.49-.641,1.219-.766,4.939-1.093s10.431-.855,16.414-.918,11.235.34,14.163.478,3.532.013,4.474-.591a24.676,24.676,0,0,0,2.991-2.4c.767-.716,1.018-1.068,1.131-.968s.088.654-.365,1.749-1.332,2.734-1.685,3.6-.175.964.693,1.339c.839.363,2.325.987,4.719,1.762a14.2,14.2,0,0,0-.328-4.763,17.021,17.021,0,0,1-.225-4.73,68.966,68.966,0,0,0,0-12.248,85.809,85.809,0,0,0-6.109-25.988,89.5,89.5,0,0,0-17.429-26.241A62.649,62.649,0,0,0,188.7,259.36a32.613,32.613,0,0,0-8.574-3.238c-2.308-.507-4.871-.9-5.546-1.1s.534-.2,1.647-.239a4.916,4.916,0,0,0,2.618-.535c.493-.408.465-1.14-.112-2.59a20.881,20.881,0,0,0-3.126-5.308,10.337,10.337,0,0,0-4.983-3.42,10.125,10.125,0,0,0-5.322.07,5.05,5.05,0,0,0-3.125,2.041,4.222,4.222,0,0,0-.436,3.154,3.876,3.876,0,0,0,1.492,2.21,1.662,1.662,0,0,0,1.394.366c.154-.113-.155-.394-.2-.986a2.5,2.5,0,0,1,.844-2.027,2.9,2.9,0,0,1,2.773-.323,3.809,3.809,0,0,1,2.267,2.463,3.662,3.662,0,0,1-.817,3.435,7.2,7.2,0,0,1-3.406,1.6c-1.113.281-1.9.422-1.718.493a22.169,22.169,0,0,0,2.295.1c.957.027,1.717.084.929.238a47.58,47.58,0,0,0-7.166,1.662,97.883,97.883,0,0,0-15.64,6.575,141.8,141.8,0,0,0-16.978,10.7,137.813,137.813,0,0,0-12.332,10c-2.844,2.646-4.195,4.336-4.7,4.814s-.169-.253.422-1.239a14.99,14.99,0,0,0,1.605-2.956c.169-.732-.338-.957-1.943-1.718A31.436,31.436,0,0,0,103,280.87a24.9,24.9,0,0,0-12.107.62,30.374,30.374,0,0,0-9.911,5.744c-1.8,1.633-1.464,2.14.085,2.59s4.307.845,6.9,2.576a24.167,24.167,0,0,1,6.391,7.081,18.156,18.156,0,0,1,1.957,4.449c.239.676.38.535,1.126-.423a52.166,52.166,0,0,1,3.351-4.026c1.253-1.295,2.407-2.111,2.35-1.774a23.217,23.217,0,0,1-2.167,2.929,25.616,25.616,0,0,0-2.379,3.816" fill="#e72065" fill-rule="evenodd"/>
    <path id="Path_483" data-name="Path 483" d="M98.6,304.452a54.329,54.329,0,0,0-2.765,5.644c-.152.4-.282.743-.387,1.02-.623,1.653-.373.953,1.666-1.958a135.478,135.478,0,0,1,9.84-12.4,65.892,65.892,0,0,1,10.559-9.624c2.458-1.625,3.25-1.25,2.812,1.646a121.6,121.6,0,0,1-3.166,11.938c-1.063,3.625-1.521,5.458-1.417,6.792s.771,2.166,3.375,2.541,7.146.292,14.083,2.021a132.607,132.607,0,0,1,23.521,8.813c7.25,3.542,12.417,7.083,14.563,8.042s1.271-.667-.063-2.667a65.9,65.9,0,0,1-4.021-6.209c-.9-1.833-.9-3.124.23-6.166s3.375-7.834,4.312-11.813a16.036,16.036,0,0,0-.354-9.542c-.917-2.4-2.375-4.02-6.792-5.875s-11.791-3.937-16.562-5.312-6.938-2.042-7.084-2.959,1.729-2.083,4-4.083,4.938-4.833,5.667-6.6-.479-2.479-3.229-1.563-7.042,3.459-11.6,6.25-9.4,5.834-12.98,6.917a12.2,12.2,0,0,1-1.444.346c-2.332,1.883-4.329,3.613-5.881,5.058-2.844,2.646-4.195,4.336-4.7,4.814s-.169-.253.422-1.239a14.99,14.99,0,0,0,1.605-2.956c.169-.732-.338-.957-1.943-1.718A31.436,31.436,0,0,0,103,280.87a24.9,24.9,0,0,0-12.107.62,30.374,30.374,0,0,0-9.911,5.744,5.609,5.609,0,0,0-1.056,1.172,44.853,44.853,0,0,1,19.58-3.422c3.542.271,5.542,1.27,6.48,2.25s.812,1.937-.519,4.3c-1.113,1.979-3.07,4.944-4.862,8.137l.185-.193c1.253-1.295,2.407-2.111,2.35-1.774a23.217,23.217,0,0,1-2.167,2.929,25.616,25.616,0,0,0-2.379,3.816" fill="#d40e50" fill-rule="evenodd"/>
    <path id="Path_484" data-name="Path 484" d="M96.453,352.124c.863,2.577,1.1,2.666,1.964,2.333.985-.381,2.787-1.309,3.843-1.718s1.366-.3,3.308.493a61.373,61.373,0,0,1,9.249,4.547,58.025,58.025,0,0,1,8.264,6.138c.648.718-1.943-.971-5.04-2.8-1.248-.738-2.577-1.5-3.893-2.224.792.548,1.571,1.117,2.323,1.689a42.838,42.838,0,0,1,8.3,8.029c2.24,2.939,3.949,6.231,3.97,9s-1.646,5.021-3.521,4.417-3.959-4.063-8.979-7.458a65.541,65.541,0,0,0-18.667-8.105,27.891,27.891,0,0,0-6.961-.857,2.942,2.942,0,0,0,1.184.716c1.323.564,3.689,1.38,7.532,2.7a94.413,94.413,0,0,1,12.895,5.166,17.613,17.613,0,0,1,7.166,6.391,12.915,12.915,0,0,1,1.815,5.913,4.808,4.808,0,0,1-.337,2.534c-.1.014.014-.915-.3-2.393a16.137,16.137,0,0,0-2.351-5.462,18.491,18.491,0,0,0-5.786-5.434,45.336,45.336,0,0,0-8.785-3.872,56.574,56.574,0,0,0-6.9-1.943c-1.493-.281-1.971-.168-1.634,1.225a27.325,27.325,0,0,0,3.59,7.292,42.989,42.989,0,0,0,8.673,9.827c3.533,2.83,7.559,4.716,11.121,4.9s6.659-1.338,9.178-2.914a41.593,41.593,0,0,0,5.688-4.309c1.224-1.1,1.731-1.66,1.759-3.28s-.422-4.293-.464-5.265.323-.239.676,1.155a35.188,35.188,0,0,1,.8,4.758c.112,1.31,0,1.872,1.886,2.084s5.772.07,11.7,0,13.9-.071,19.1-.071h1.221c-2.387-.961-4.983-1.829-7.049-2.5-3.6-1.169-5.581-1.747-6.724-2.288s-1.446-1.043-1.571-1.885-.076-2.023-.2-2.627-.428-.628-.981-.98a5.355,5.355,0,0,1-1.784-1.847,4.244,4.244,0,0,1-.34-2.627,2.817,2.817,0,0,1,1.534-2.212c1.068-.6,2.877-1.055,7.691-1.332,3.772-.216,9.388-.325,14.2-.343-.388-.161-.754-.333-1.1-.518.347.185.713.356,1.1.517,1.329-.005,2.6,0,3.747,0,5.316.038,8.131.214,10.343.05a13.034,13.034,0,0,0,4.914-1.219,5.905,5.905,0,0,0,2.639-2.815,35.538,35.538,0,0,0,2.727-5.718c.4-1.345-.151-1.32-2.407-1.839a69.852,69.852,0,0,1-8.879-2.65l-.254-.1h0a10.537,10.537,0,0,1-4.642-3.166,6.009,6.009,0,0,1-1.263-3.478,4.865,4.865,0,0,1,.691-2.965c.49-.641,1.22-.767,4.94-1.094s10.43-.855,16.413-.917,11.235.339,14.163.477,3.532.013,4.474-.59a24.87,24.87,0,0,0,2.992-2.4c.766-.716,1.017-1.068,1.131-.967s.088.653-.365,1.749-1.333,2.733-1.685,3.6-.175.964.692,1.339c.84.363,2.326.986,4.719,1.761a14.174,14.174,0,0,0-.327-4.762,16.987,16.987,0,0,1-.226-4.731,68.956,68.956,0,0,0,0-12.247,85.772,85.772,0,0,0-6.109-25.988,89.487,89.487,0,0,0-17.428-26.241A62.651,62.651,0,0,0,188.7,259.36a32.684,32.684,0,0,0-8.573-3.238c-2.309-.507-4.872-.9-5.547-1.1s.535-.2,1.647-.239a4.919,4.919,0,0,0,2.619-.536c.492-.408.464-1.14-.113-2.59a20.824,20.824,0,0,0-3.125-5.307,10.346,10.346,0,0,0-4.984-3.421A10.11,10.11,0,0,0,165.3,243a5.046,5.046,0,0,0-3.126,2.041,4.22,4.22,0,0,0-.436,3.153,3.878,3.878,0,0,0,1.492,2.21,1.658,1.658,0,0,0,1.394.366c.154-.112-.155-.394-.2-.985a2.508,2.508,0,0,1,.845-2.027,2.9,2.9,0,0,1,2.773-.324,3.81,3.81,0,0,1,2.266,2.463,3.663,3.663,0,0,1-.816,3.436,7.2,7.2,0,0,1-3.407,1.6c-1.112.281-1.9.422-1.717.492a21.562,21.562,0,0,0,2.294.1c.958.028,1.718.084.929.239a47.345,47.345,0,0,0-7.165,1.661c-.543.169-1.118.355-1.719.56.983-.17,1.948-.329,2.873-.46a33.959,33.959,0,0,1,13.647.629,41.223,41.223,0,0,1,18.993,9.617c6.667,6.021,13,15.687,17.25,26.687s6.416,23.334,6.125,30.709-3.042,9.791-7.979,11.063-12.063,1.4-17.6,1.125-9.5-.937-11.6.73-2.354,5.666-1.729,8.541a9.934,9.934,0,0,0,4.063,6.1c1.937,1.48,4.312,2.688,5.521,3.98s1.25,2.666-.542,3.77-5.417,1.938-11.625,2.271-15,.167-20.042.646-6.333,1.6-7.813,3-3.145,3.063-4.812,3.042-3.333-1.729-5.6-3.9-5.146-4.792-5.75-4.938,1.062,2.188,2.312,4.563,2.084,4.792,1.771,5.312-1.77-.854-3.812-2.583a89.875,89.875,0,0,0-8.709-6.5A117.6,117.6,0,0,0,110.2,353.59c-3.938-1.833-6.354-2.208-8.33-2.032s-3.511.9-4.7.755a3.057,3.057,0,0,1-.721-.189" fill="#d40e50" fill-rule="evenodd"/>
    <path id="Path_485" data-name="Path 485" d="M118.055,303.135c.8-4.351,1.663-8.879,2.8-13.148.726-2.718,1.409-5.05,3.936-6.558,2.625-1.566,6.2-2.056,9.194-2.209a54.737,54.737,0,0,1,15.644,1.511,52.306,52.306,0,0,1,13.06,5.46,22.156,22.156,0,0,1,5.964,4.484c1.562,1.912,1.426,3.924,1.147,6.269a42.58,42.58,0,0,1-3.215,12.227,16,16,0,0,1-1.829,2.952,16.513,16.513,0,0,1-2.264,2.982c-.515.66-.436.951.37,1.823s2.338,2.325,3.528,3.553,2.034,2.233,1.585,2.141-2.193-1.282-4.8-2.8a98.352,98.352,0,0,0-9.949-5.064c-3.863-1.689-8.114-3.212-10.725-4.116-1.264-.437-2.144-.729-2.789-.966a68.118,68.118,0,0,0-12.288-2.583c-1.573-.157-3.129-.2-4.709-.209a19.759,19.759,0,0,1-3.157-.121c-2.815-.495-1.862-3.666-1.5-5.624" fill="#4f1212" fill-rule="evenodd"/>
    <path id="Path_486" data-name="Path 486" d="M119.518,302.944c.605-3.294,1.759-9.151,2.7-12.684s1.675-4.744,3.35-5.744,4.294-1.788,8.447-2a53.335,53.335,0,0,1,14.88,1.436,50.28,50.28,0,0,1,12.417,5.2,19.614,19.614,0,0,1,5.5,4.111c.944,1.154,1.253,2.224.887,5.307a41.815,41.815,0,0,1-3.026,11.544,11.265,11.265,0,0,1-5.364,5.673c-1.549.676-2.45.394-5.434-.746s-8.053-3.14-12.938-4.646a71.528,71.528,0,0,0-13.247-2.886c-3.66-.366-6.279-.084-7.56-.31s-1.224-.957-.619-4.251" fill="#e72065" fill-rule="evenodd"/>
    <path id="Path_487" data-name="Path 487" d="M121.5,303.69c-.282-1.788.619-5.476,1.506-8.517s1.76-5.434,2.886-6.771,2.506-1.619,6.265-.775a43.461,43.461,0,0,1,14.641,6.181,31.589,31.589,0,0,1,9.784,11.684c1.689,3.562,1.717,5.927,1.225,7.081s-1.507,1.1-4.519.113-8.025-2.9-13.121-4.294a96.674,96.674,0,0,0-13.6-2.647c-3.322-.38-4.787-.267-5.068-2.055" fill="#4f1212" fill-rule="evenodd"/>
    <path id="Path_488" data-name="Path 488" d="M136.411,278.519c2.013-1.45,5.589-4.125,8.011-5.913s3.688-2.689,4.138-3.392a.861.861,0,0,0-.535-1.408,4.317,4.317,0,0,0-2.153.084,9.2,9.2,0,0,0-2.774,1.45c-1.661,1.056-4.533,2.943-6.982,4.857a37.509,37.509,0,0,0-5.364,4.956c-.887,1.1-.634,1.351.014,1.421a8.676,8.676,0,0,0,2.436-.211c.746-.169,1.2-.394,3.209-1.844" fill="#4f1212" fill-rule="evenodd"/>
    <path id="Path_489" data-name="Path 489" d="M187.792,344.073c3.031-.238,8.663-.738,13.909-.9s10.1.022,13.126.113,4.2.091,6.04.727a35.868,35.868,0,0,1,6.153,3.02,13.045,13.045,0,0,1,4.066,3.565c1.113,1.5,2.2,3.543,2.7,4.2s.408-.068-.227-1.477-1.817-3.5-2.271-4.564-.182-1.112.749-.726a9.346,9.346,0,0,1,1.279.646.943.943,0,0,1,.183-.154c.8-.528,3.07-.563,6.227.047a63.038,63.038,0,0,1,10.382,3.136c3.18,1.27,5.492,2.552,6.686,4.362s1.269,4.147.427,7.327-2.6,7.2-5.643,9.513-7.364,2.916-11.562,4.047a80.9,80.9,0,0,0-10.87,3.925c-1.368.6-2.329,1.049-3.013,1.347-2.054,1.106-4.209,2.315-6.2,3.609-4.043,2.63-7.4,5.62-9.515,7.114s-2.975,1.494-5.03.716-5.3-2.338-10.287-3.947-11.706-3.266-17.69-4.9-11.23-3.247-14.454-4.258-4.428-1.418-5.166-2.111a2.915,2.915,0,0,1-.943-2.237c.068-.568.477-.727,2.418-.318s5.417,1.385,10.8,2.407,12.671,2.089,16.929,2.884,5.484,1.317,5.428,1.158-1.4-1-5.383-1.986-10.616-2.124-16.088-3.18-9.788-2.032-12.468-2.634-3.724-.829-4.383-1.34a2.117,2.117,0,0,1-.828-1.942c.1-.636.579-1.112,1.93-1.5s3.576-.682,8.845-.806,13.58-.08,18.848-.057,7.494.023,9.992-.659,5.268-2.044,7.97-2.168,5.337.987,6.9,1.509,2.066.455,1.317-.056a22.508,22.508,0,0,0-4.553-2.055,16.664,16.664,0,0,0-4.6-.852c-1.18-.033-1.93.125-1.93-.465a11.154,11.154,0,0,1,1.6-3.384c.852-1.453,1.8-3.02,2.464-3.951s1.022-1.226,2.055-1.124a21.14,21.14,0,0,1,4.008,1.044c1.272.443,2.112.829,1.522.375a21.1,21.1,0,0,0-5.45-2.714,79.6,79.6,0,0,0-9.47-2.191,37.806,37.806,0,0,1-6.9-1.828,7.365,7.365,0,0,1-3.225-2.373,4.715,4.715,0,0,1-.92-2.3c-.056-.624.08-1.033.364-1.226s.715-.171,3.747-.409" fill="#fca921" fill-rule="evenodd"/>
    <path id="Path_490" data-name="Path 490" d="M229.679,349a11.93,11.93,0,0,1,1.406,1.6c1.114,1.5,2.2,3.542,2.7,4.2s.408-.068-.227-1.476-1.817-3.5-2.271-4.564-.182-1.113.749-.727a9.253,9.253,0,0,1,1.279.647.912.912,0,0,1,.183-.155c.8-.528,3.07-.563,6.227.047a63.044,63.044,0,0,1,10.382,3.137c3.179,1.269,5.492,2.551,6.686,4.361s1.269,4.147.427,7.327-2.6,7.2-5.643,9.513-7.364,2.916-11.562,4.047a80.85,80.85,0,0,0-10.87,3.925c-1.368.6-2.329,1.05-3.013,1.347-2.054,1.107-4.209,2.315-6.2,3.609-4.043,2.63-7.4,5.62-9.515,7.114s-2.975,1.5-5.03.716c-.828-.314-1.85-.755-3.1-1.274,4.026.7,4.9.136,7.449-1.757a138.434,138.434,0,0,1,12.507-8.59c4.813-2.791,9.563-4.666,13.6-6.687s7.375-4.188,8.979-6.708a7.308,7.308,0,0,0-.041-7.938c-1.521-2.541-4.438-4.75-6.292-6.125s-2.646-1.917-2.667-.6.729,4.479.938,6.667-.125,3.395-.438,3.02-.6-2.333-1.475-4.776a47.185,47.185,0,0,0-4.653-9.078q-.255-.4-.523-.818M153.4,370.877c.225-.448.747-.806,1.807-1.109,1.351-.386,3.576-.681,8.844-.806s13.58-.08,18.849-.057,7.493.023,9.991-.659,5.269-2.043,7.971-2.168,5.337.988,6.9,1.51,2.066.454,1.317-.057a22.589,22.589,0,0,0-4.553-2.055,16.7,16.7,0,0,0-4.6-.851c-1.18-.034-1.93.125-1.93-.466a11.154,11.154,0,0,1,1.6-3.384c.852-1.453,1.8-3.02,2.464-3.951s1.022-1.226,2.055-1.124a21.187,21.187,0,0,1,4.008,1.045c1.272.442,2.112.828,1.521.374A21.1,21.1,0,0,0,204.2,354.4a79.8,79.8,0,0,0-9.47-2.191,37.726,37.726,0,0,1-6.9-1.828,7.365,7.365,0,0,1-3.225-2.373,4.715,4.715,0,0,1-.92-2.3q-.014-.158-.012-.3a28.913,28.913,0,0,0,7.879,3.965c4.22,1.383,9.928,2.258,14.011,3.32s6.542,2.313,8.125,3.583,2.292,2.563,1.384,2.7-3.432-.871-5.432-.83a6.307,6.307,0,0,0-4.443,2.163c-.967,1.026-1.425,1.984.033,3.589s4.833,3.854,6.917,5.291,2.875,2.063,1.556,1.836-4.75-1.3-7.271-1.658-4.132.015-7.25.367a136.45,136.45,0,0,1-15.324.686c-7.58,0-18.114-.329-24.022-.136a47.446,47.446,0,0,0-6.434.586" fill="#fc8320" fill-rule="evenodd"/>
    <path id="Path_491" data-name="Path 491" d="M181.694,387.7a7.853,7.853,0,0,0,2.328,1.976,20.975,20.975,0,0,0,5.858,2.323,89.052,89.052,0,0,0,9.481,1.93c2.316.306,2.725.087,2.464-.2s-1.192-.654-3.315-1.426-5.439-1.953-8.187-2.794-4.927-1.339-6.154-1.623-1.5-.352-1.862-.42-.817-.136-.613.238" fill="#fc8320" fill-rule="evenodd"/>
    <path id="Path_492" data-name="Path 492" d="M198.971,232.035a58.37,58.37,0,0,1,13.969.056,32.985,32.985,0,0,1,14.505,5.845c3.991,2.965,6.8,6.823,9.45,13s5.12,14.676,7.715,27.671,5.31,30.49,7.17,40.494,2.865,12.517,3.066,13.874-.4,1.559-2.513,1.483-5.731-.427-7.767-.5-2.488.125-1.257.452a62.867,62.867,0,0,1,6.812,1.734,18.464,18.464,0,0,1,6.535,3.871c1.458,1.458,1.96,2.916,2.388,5.379a31.984,31.984,0,0,1,.578,7.113c-.2,1.181-.955.076-3.192-1.357a33.56,33.56,0,0,0-10.029-4.122,70.186,70.186,0,0,0-10.783-1.207c-2.287-.176-2.438-.427-2.79-1.407a17.942,17.942,0,0,1-1.056-5.027c-.15-2.337.1-5.3-.05-9.979a112.992,112.992,0,0,0-1.885-17.117,81.17,81.17,0,0,0-5.454-17.367,93.887,93.887,0,0,0-9.275-16.237,80.477,80.477,0,0,0-12.04-13.8,47.332,47.332,0,0,0-10.7-6.947c-2.754-1.342-4.393-1.966-5.127-2.435s-.565-.783.229-2.231a53.784,53.784,0,0,0,3.374-7.142,86.462,86.462,0,0,0,2.645-9.1c.578-2.337.829-3.368,1.282-3.958s1.106-.741,4.2-1.043" fill="#fff" fill-rule="evenodd"/>
    <path id="Path_493" data-name="Path 493" d="M96.245,266.543a60.651,60.651,0,0,1,6.662-1.854c1.607-.342,1.428-.147.208,1.9s-3.483,5.93-5.015,8.782c-.676,1.258-1.209,2.315-1.676,3.331a30.241,30.241,0,0,0-5.581.763,22.6,22.6,0,0,0-2.649.792c.488-.986.965-1.936,1.411-2.818,1.8-3.56,3.12-5.991,3.892-7.385a10.418,10.418,0,0,0,1.078-2.124c.079-.37.008-.752,1.67-1.382m-4.736,32.9a2.061,2.061,0,0,0,.545.914,3.84,3.84,0,0,0,.464.375c.3.336.746.819,1.486,1.632.163.349.308.741.462,1.153a21.686,21.686,0,0,1,.763,2.284c.138.6.088.93-.691,3.23a90.923,90.923,0,0,0-3.28,11.474,55.509,55.509,0,0,0-.98,15.784,75.811,75.811,0,0,0,2.8,13.548c.855,3.017,1.106,3.871,1.081,4.726a5.718,5.718,0,0,1-1.433,3.242c-1.106,1.533-3.016,3.745-4.021,5.2a5.119,5.119,0,0,0-1.157,2.74,1.8,1.8,0,0,0,.78,1.784c.829.755,2.488,1.81,3.318,2.464s.829.9,2.086,3.568a46.436,46.436,0,0,0,7.54,11.764c3.77,4.022,8.8,6.987,10,8.169s-1.408.578-6.711-.051a143.054,143.054,0,0,0-20.384-1.03c-7.089.251-13.272,1.408-15.81,1.131s-1.433-1.986,1.055-3.393a37.817,37.817,0,0,1,10.18-3.293c3.82-.779,7.591-1.231,7.289-1.458s-4.675-.226-8.269.2-6.41,1.282-7.516,1.207-.5-1.081.654-5.228A90.516,90.516,0,0,0,75,361.092c.367-9.053-.609-19.871-1.111-26.62s-.533-9.429-.957-12.218-1.239-5.688-1.695-8.1a23.655,23.655,0,0,1-.452-5.89,11.049,11.049,0,0,1,.664-3.4c.274-.637.53-.71,1.406-1.057a15.634,15.634,0,0,0,3.707-1.976,13.428,13.428,0,0,0,3.6-4.4c.8-1.465,1.555-3.243,2.558-5.54a17.694,17.694,0,0,1,2.546,1.319,21.771,21.771,0,0,1,4.221,3.608,24.733,24.733,0,0,1,2.02,2.616" fill="#e183b2" fill-rule="evenodd"/>
    <path id="Path_494" data-name="Path 494" d="M93.5,250.427a2.954,2.954,0,0,1-.21,1.49c-.409,1.524-1.191,4.376-1.911,7.15s-1.38,5.469-1.6,6.891,0,1.57.592,1.6a18.2,18.2,0,0,1,1.976.035c.413.1.267.381-.767,2.444s-2.956,5.9-4.07,8.118-1.418,2.8-1.813,3.127a19.412,19.412,0,0,1-1.831.9c-.949.518-2.359,1.5-2.7.932s.392-2.675.757-4.686a15.873,15.873,0,0,0,.027-5.768,12.892,12.892,0,0,0-1.936-4.939,28.557,28.557,0,0,0-2.538-2.727c-.465-.591-.239-.943.113-1.735a17.876,17.876,0,0,0,1.106-3.293,7.257,7.257,0,0,0-.126-4,8.977,8.977,0,0,0-3.028-4.122,21.145,21.145,0,0,0-4.714-2.463c-1.181-.49-1.533-.666-1.788-1.227s-.414-1.506-.766-2.336a7.565,7.565,0,0,0-1.424-2.116,7.576,7.576,0,0,1-1.07-1.234l-.151-.154a10.715,10.715,0,0,1-1.6-1.751,7.867,7.867,0,0,1-.436-2.347c-.211-1.307-.713-3.428-.793-4.369s.264-.7,2.98.3,7.8,2.784,11.21,4.211a83.112,83.112,0,0,1,7.6,3.781c2.463,1.278,5.661,2.757,7.378,3.616s1.955,1.1,1.968,1.787a14.542,14.542,0,0,1-.44,2.879" fill="#fff" fill-rule="evenodd"/>
    <path id="Path_495" data-name="Path 495" d="M76.872,292.082c-.961,1.822-2.667,5.6-3.519,7.495s-.853,1.891-.015,1.257a23.466,23.466,0,0,0,3.871-3.524,26.407,26.407,0,0,0,2.96-4.688c.569-1.1.675-1.312.588-1.476s-.367-.271-.815-.363-1.064-.168-1.479-.275-.631-.248-1.591,1.574" fill="#fff" fill-rule="evenodd"/>
    <path id="Path_496" data-name="Path 496" d="M56.408,364.4c1.257-1.747,3.167-4.21,4.625-6.4a17.1,17.1,0,0,0,3.041-8.068,96.522,96.522,0,0,0,.6-14.453c-.125-4.448-.527-7.314-.452-8.043s.628.679.98,2.941.5,5.379.654,6.56.3.428.628-2.287.83-7.39,1.257-12.342.779-10.179,1.217-14.154a33.574,33.574,0,0,1,2.333-10.026,91.61,91.61,0,0,1,4.619-9.082c1.026-1.821.855-1.528-.153-.311a46.793,46.793,0,0,0-4.517,6.149,43.415,43.415,0,0,0-4.392,10.7c-1.244,4.462-2.249,9.941-3.38,16.225s-2.388,13.372-3.633,19.656-2.475,11.763-3.543,16.073-1.974,7.453-2.338,9.036-.188,1.609.2,1.106.993-1.533,2.25-3.28" fill="#fff" fill-rule="evenodd"/>
    <path id="Path_497" data-name="Path 497" d="M36.861,228.028a18.561,18.561,0,0,1,.691-8.357,28.854,28.854,0,0,1,2.872-6.509,31,31,0,0,1,6.918-8.132,19.34,19.34,0,0,1,8.683-4.3c3.543-.613,6.064.323,8.984,2.245a9.444,9.444,0,0,1,3.925,6.208,18.3,18.3,0,0,1-.634,8.658,28.863,28.863,0,0,1-2.871,6.508,31.02,31.02,0,0,1-6.918,8.132,19.352,19.352,0,0,1-8.683,4.3,10.3,10.3,0,0,1-5.247-.358l-.076-.028-.073-.035c-4.223-2.033-6.676-3.262-7.571-8.333" fill="#4f1212" fill-rule="evenodd"/>
    <path id="Path_498" data-name="Path 498" d="M38.39,227.758a17.074,17.074,0,0,1,.651-7.648,27.319,27.319,0,0,1,2.718-6.157,29.552,29.552,0,0,1,6.566-7.722,17.863,17.863,0,0,1,7.964-3.973c3.188-.55,5.339.35,7.866,2.013a7.918,7.918,0,0,1,3.257,5.217,16.816,16.816,0,0,1-.6,7.911,27.4,27.4,0,0,1-2.718,6.158,29.521,29.521,0,0,1-6.567,7.722,17.853,17.853,0,0,1-7.963,3.972,8.751,8.751,0,0,1-4.458-.289c-3.552-1.711-5.9-2.608-6.715-7.2" fill="#4f1212" fill-rule="evenodd"/>
    <path id="Path_499" data-name="Path 499" d="M47.46,233.431c6.687-1.155,14.116-8.887,16.593-17.27s-.936-14.241-7.623-13.086-14.116,8.888-16.593,17.27.936,14.241,7.623,13.086" fill="#fff" fill-rule="evenodd"/>
    <path id="Path_500" data-name="Path 500" d="M47.687,233.388c6.627-1.289,13.917-8.939,16.366-17.227a16.428,16.428,0,0,0,.676-6.98c-.774-4.005-3.7-6.274-8.041-5.524-6.542,1.13-13.81,8.694-16.233,16.894-2.4,8.105.839,13.8,7.232,12.837" fill="#ffd604" fill-rule="evenodd"/>
    <path id="Path_501" data-name="Path 501" d="M49.422,234.434c6.687-1.155,14.116-8.887,16.593-17.27,1.689-5.714.64-10.254-2.317-12.2a8.761,8.761,0,0,1,1.592,3.821,16.845,16.845,0,0,1-.645,7.551,27.169,27.169,0,0,1-2.7,6.11,29.282,29.282,0,0,1-6.518,7.666,17.654,17.654,0,0,1-7.865,3.927,9.818,9.818,0,0,1-2.179.142,7.883,7.883,0,0,0,4.037.253" fill="#f8af04" fill-rule="evenodd"/>
    <path id="Path_502" data-name="Path 502" d="M48.463,230.037c5.192-.9,10.96-6.9,12.883-13.408s-.727-11.057-5.919-10.16-10.96,6.9-12.883,13.408.727,11.057,5.919,10.16" fill="#e59c07" fill-rule="evenodd"/>
    <path id="Path_503" data-name="Path 503" d="M48.661,230c5.139-1.013,10.786-6.946,12.684-13.371a12.768,12.768,0,0,0,.528-5.4,5,5,0,0,0-6.221-4.248c-5.065.875-10.691,6.732-12.568,13.08-1.851,6.266.643,10.67,5.577,9.943" fill="#f8af04" fill-rule="evenodd"/>
    <path id="Path_504" data-name="Path 504" d="M46.148,219.215c.036-.066.075-.176.1-.24a16.685,16.685,0,0,1,.854-1.791,17.5,17.5,0,0,1,1.523-2.247,17.12,17.12,0,0,1,1.546-1.717c.33-.319.672-.616,1.028-.9.026-.021.061-.046.088-.071,0-.012.006-.023.009-.034.086-.326.183-.646.29-.966a12.57,12.57,0,0,1,1.7-3.4c.172-.246.337-.507.674-.5a1.425,1.425,0,0,1,.687.26,3.959,3.959,0,0,1,1.069,1,5.432,5.432,0,0,1,.66,1.341c.025.071.049.14.07.209a3.708,3.708,0,0,1,.459,0,5.259,5.259,0,0,1,1.485.291,2.26,2.26,0,0,1,1.26,1.176,6.378,6.378,0,0,1,.656,2.5,8.244,8.244,0,0,1-.557,3.2,18,18,0,0,1-2.029,4,21.041,21.041,0,0,1-3.147,3.657,11.137,11.137,0,0,1-2.919,2,6.135,6.135,0,0,1-2.767.637,3.279,3.279,0,0,1-2.26-.995,4.422,4.422,0,0,1-.9-1.74v0a4.224,4.224,0,0,1-.79.063,3.448,3.448,0,0,1-1.376-.29,3.66,3.66,0,0,1-.934-.66,1.159,1.159,0,0,1-.287-.326.748.748,0,0,1,.111-.683,6.6,6.6,0,0,1,1-1.4,19.024,19.024,0,0,1,1.831-1.69c.276-.23.555-.456.849-.662l.016-.01" fill="#e59c07" fill-rule="evenodd"/>
    <path id="Path_505" data-name="Path 505" d="M42.451,223.136a6.1,6.1,0,0,1,.945-1.313,20.537,20.537,0,0,1,1.794-1.656c.5-.412.715-.565.825-.642s.11-.077.251-.416a16.021,16.021,0,0,1,.834-1.751,17.806,17.806,0,0,1,1.49-2.2,16.922,16.922,0,0,1,1.512-1.679c.448-.434.818-.733,1-.882s.185-.149.225-.3.122-.462.283-.941a13.366,13.366,0,0,1,.722-1.756,14.085,14.085,0,0,1,.931-1.546c.218-.313.259-.335.349-.332a1,1,0,0,1,.5.2,3.608,3.608,0,0,1,.964.9,5.248,5.248,0,0,1,.611,1.247,3.437,3.437,0,0,1,.135.439c.012.046.02.053.108.041a2.777,2.777,0,0,1,.619-.018,5.041,5.041,0,0,1,1.373.267,1.874,1.874,0,0,1,1.06,1,5.994,5.994,0,0,1,.613,2.339,7.75,7.75,0,0,1-.536,3.049,17.735,17.735,0,0,1-1.985,3.91,21.276,21.276,0,0,1-3.089,3.591,10.632,10.632,0,0,1-2.82,1.929,5.736,5.736,0,0,1-2.591.6,2.887,2.887,0,0,1-2-.873,4.158,4.158,0,0,1-.82-1.592c-.106-.354-.082-.343-.243-.306a4.024,4.024,0,0,1-.906.1,3.1,3.1,0,0,1-1.222-.255,3.367,3.367,0,0,1-.837-.6c-.162-.15-.185-.175-.2-.212s-.029-.082.106-.344" fill="#ffd604" fill-rule="evenodd"/>
    <path id="Path_506" data-name="Path 506" d="M43.12,223.1a9.3,9.3,0,0,1,.914-.67,4.582,4.582,0,0,1,.879-.417,3.135,3.135,0,0,1,.448-.135c.074-.013.076,0,.068.21s-.029.611-.021.967.042.668.06.823.017.155-.085.169a2.928,2.928,0,0,1-.593.026,4.247,4.247,0,0,1-.969-.17,3.244,3.244,0,0,1-.714-.323,1.149,1.149,0,0,1-.257-.185c-.029-.034-.018-.046.006-.069a3.315,3.315,0,0,1,.264-.226" fill="#f8af04" fill-rule="evenodd"/>
    <path id="Path_507" data-name="Path 507" d="M47.34,217.58c-.164.349-.427.9-.657,1.459a12.382,12.382,0,0,0-.572,1.706,8.357,8.357,0,0,0-.263,1.795,6.8,6.8,0,0,0,.167,1.744,4.6,4.6,0,0,0,.542,1.358,3.712,3.712,0,0,0,.642.77.844.844,0,0,0,.253.192c.031.009.032-.006.1-.247a4.994,4.994,0,0,1,.544-1.274,9.907,9.907,0,0,1,1.426-1.767,17.034,17.034,0,0,1,1.421-1.224,3.146,3.146,0,0,0,.584-.55.447.447,0,0,0,.1-.344.461.461,0,0,0-.209-.3,1.818,1.818,0,0,1-.426-.3.811.811,0,0,1-.12-.669,3.417,3.417,0,0,1,.463-1.129,6.714,6.714,0,0,1,.929-1.2,2.557,2.557,0,0,1,.807-.583.631.631,0,0,1,.52-.021,2.052,2.052,0,0,1,.4.278.387.387,0,0,0,.316.118.789.789,0,0,0,.413-.32,4.293,4.293,0,0,0,.555-.942c.185-.418.352-.936.586-1.419a6.007,6.007,0,0,1,.854-1.307,6.659,6.659,0,0,1,.959-.9c.294-.23.537-.4.662-.491s.132-.124.115-.182-.06-.148-.247-.295a3.035,3.035,0,0,0-.9-.47,3.446,3.446,0,0,0-1.312-.116,6.485,6.485,0,0,0-1.751.42,16.041,16.041,0,0,0-2.243,1.051,7.278,7.278,0,0,0-1.68,1.3c-.555.558-1.2,1.318-1.665,1.888a15.089,15.089,0,0,0-.91,1.212,5.07,5.07,0,0,0-.4.757" fill="#f8af04" fill-rule="evenodd"/>
    <path id="Path_508" data-name="Path 508" d="M53.458,211.2c.151-.062.42-.165.723-.257s.642-.175.814-.217.177-.043.148-.242a3.373,3.373,0,0,0-.254-.935,2.764,2.764,0,0,0-.632-.809,2.569,2.569,0,0,0-.453-.346c-.085-.048-.1-.041-.163.043a1.74,1.74,0,0,0-.283.552,5.351,5.351,0,0,0-.217,1.162,4.893,4.893,0,0,0,.02.916c.021.183.036.215.049.229s.023.013.045,0a1.214,1.214,0,0,1,.2-.1" fill="#f8af04" fill-rule="evenodd"/>
    <path id="Path_509" data-name="Path 509" d="M51.573,215.393a.4.4,0,0,1-.143-.363,1.931,1.931,0,0,1,.263-.774,3.128,3.128,0,0,1,.651-.81,3.164,3.164,0,0,1,.893-.557,2.137,2.137,0,0,1,.84-.176c.218.011.344.093.387.2s0,.247-.161.416a8.653,8.653,0,0,1-.784.616c-.33.249-.7.548-1,.806s-.52.475-.665.584-.212.11-.285.055" fill="#ffd604" fill-rule="evenodd"/>
    <path id="Path_510" data-name="Path 510" d="M48.445,219.18a3.008,3.008,0,0,0-.749.64,3.8,3.8,0,0,0-.631,1.024,2.386,2.386,0,0,0-.174.947,1.309,1.309,0,0,0,.162.68.321.321,0,0,0,.378.138c.128-.044.237-.171.348-.457s.224-.73.362-1.127a8.7,8.7,0,0,1,.439-1.018,5.3,5.3,0,0,0,.292-.612c.043-.14.017-.221-.05-.267s-.178-.057-.377.052" fill="#ffd604" fill-rule="evenodd"/>
    <path id="Path_511" data-name="Path 511" d="M53.1,219.778a1.874,1.874,0,0,1-.334.3.758.758,0,0,1-.44.107.2.2,0,0,1-.2-.219,1.485,1.485,0,0,1,.238-.629,5.206,5.206,0,0,1,.56-.782,1.712,1.712,0,0,1,.43-.369.3.3,0,0,1,.257-.059.273.273,0,0,1,.178.234,1.027,1.027,0,0,1-.1.474c-.067.156-.15.282-.181.359s-.012.1.081.181a1.779,1.779,0,0,0,.426.262.483.483,0,0,0,.549-.117,2.361,2.361,0,0,0,.6-.879,1.175,1.175,0,0,0,.01-.7c-.036-.156-.049-.232-.021-.274s.1-.05.16.01a.716.716,0,0,1,.151.358,2.336,2.336,0,0,1,.034.534,2.077,2.077,0,0,0-.022.323c.014.07.07.113.132.225a.982.982,0,0,1,.118.531,2.073,2.073,0,0,1-.266.823,3.626,3.626,0,0,1-.585.8,1.79,1.79,0,0,1-.569.4,1.039,1.039,0,0,1-.456.092,1.412,1.412,0,0,1-.335-.065.145.145,0,0,0-.159.018,1.555,1.555,0,0,1-.335.19,1.579,1.579,0,0,1-.5.08c-.155,0-.273-.014-.318-.09a.2.2,0,0,1,.087-.261,1.314,1.314,0,0,1,.445-.016.667.667,0,0,0,.488-.207,3.006,3.006,0,0,0,.493-.67,1.091,1.091,0,0,0,.161-.494.41.41,0,0,0-.126-.333,1.007,1.007,0,0,0-.388-.217.232.232,0,0,0-.257.084" fill="#f8af04" fill-rule="evenodd"/>
    <path id="Path_512" data-name="Path 512" d="M53.758,221.268a3.107,3.107,0,0,0,.368-.627,1.438,1.438,0,0,0,.076-.512c.006-.1.032-.1.142-.132a1.582,1.582,0,0,0,.472-.226,3.765,3.765,0,0,0,.406-.4c.091-.091.13-.084.16-.038a.424.424,0,0,1,.036.277,1.716,1.716,0,0,1-.208.6,4.575,4.575,0,0,1-.534.762,1.553,1.553,0,0,1-.5.419.923.923,0,0,1-.4.072c-.09,0-.117-.015-.122-.028s.008-.027.107-.165" fill="#ffd604" fill-rule="evenodd"/>
    <path id="Path_513" data-name="Path 513" d="M53.013,214.746a.911.911,0,1,1,.077,1.349.958.958,0,0,1-.077-1.349m.264.212a.636.636,0,0,1,.4-.233.537.537,0,0,1,.633.509.648.648,0,0,1-.539.669.538.538,0,0,1-.633-.509.641.641,0,0,1,.144-.436m.437.027a.383.383,0,0,0-.232.138.379.379,0,0,0-.085.256.283.283,0,0,0,.1.208.288.288,0,0,0,.225.057.39.39,0,0,0,.318-.4.276.276,0,0,0-.328-.264" fill="#ffd604" fill-rule="evenodd"/>
    <path id="Path_514" data-name="Path 514" d="M48.782,220.495a.91.91,0,1,1,.076,1.349.957.957,0,0,1-.076-1.349m.263.212a.636.636,0,0,1,.4-.233.537.537,0,0,1,.633.509.65.65,0,0,1-.539.669.538.538,0,0,1-.633-.509.641.641,0,0,1,.144-.436m.437.027a.386.386,0,0,0-.317.394.275.275,0,0,0,.327.264.369.369,0,0,0,.232-.138A.378.378,0,0,0,49.81,221a.276.276,0,0,0-.328-.264" fill="#ffd604" fill-rule="evenodd"/>
    <path id="Path_515" data-name="Path 515" d="M36.724,226.529c2.475-1.045,6.765-2.711,10.06-3.7a20.321,20.321,0,0,1,7.377-1.135,5.4,5.4,0,0,1,3.944,1.844,5.562,5.562,0,0,1,1.253,3.992c-.16,1.368-1,2.556-2.7,4.067a33.278,33.278,0,0,1-6.692,4.556,12.224,12.224,0,0,1-7.3,1.455,18.629,18.629,0,0,1-7.444-2.922c-1.951-1.329-2.955-2.729-3.179-3.786a2.393,2.393,0,0,1,.938-2.339c.607-.568,1.268-.99,3.743-2.035" fill="#4f1212" fill-rule="evenodd"/>
    <path id="Path_516" data-name="Path 516" d="M37.972,300.155c-2.656,5.7-7.317,15.651-11.084,23.117S20.249,335.723,19,337.694s-.861.93-.216-.876,1.552-4.374,1.29-4.87-1.692,1.08-3.992,4.33a38.639,38.639,0,0,0-6.847,15.093,43.01,43.01,0,0,0,1.831,22.847c2.791,7.019,7.956,12.148,14.693,12.8s15.042-3.168,19.891-7.9S51.9,368.754,53.81,359.7s4.343-21.509,6.469-32.34,3.947-20.032,5.95-26.1a35.5,35.5,0,0,1,5.666-11.042c1.478-2.028,2.249-3.141,3.592-5.044a46.168,46.168,0,0,0,4.212-6.746,6.9,6.9,0,0,0,.389-5.422,13.739,13.739,0,0,0-2.8-4.628,5.884,5.884,0,0,0-2.92-1.974c-.672-.078-.891.448-1.572,1.273s-1.821,1.947-1.874,1.814a26.02,26.02,0,0,1,2.133-3.149,17.828,17.828,0,0,0,2.913-5.393,8.45,8.45,0,0,0-.416-5.362,6.813,6.813,0,0,0-2.661-3.151,3.483,3.483,0,0,0-2.6-.588c-.625.185-.9.722-2,2.309s-3.024,4.226-4.625,6.205a17.044,17.044,0,0,1-2.831,3.09c.048-.209,1.421-1.947,2.763-4.093a32.235,32.235,0,0,0,3.223-6.523,5.356,5.356,0,0,0-.085-4.091,7.585,7.585,0,0,0-2.394-3.257,5.965,5.965,0,0,0-3.746-1.008,6.485,6.485,0,0,0-3.41,1.234,18.806,18.806,0,0,0-3.856,3.977c-1.749,2.192-4.2,5.528-5.058,6.584s-.1-.167.748-1.552a43.808,43.808,0,0,0,2.281-3.991,3.987,3.987,0,0,0,.4-2.462,17.957,17.957,0,0,1-.231-2.061c.058-.154.37.619.639,1.157s.5.84,1.022.587a20.389,20.389,0,0,0,2.351-1.872,18.925,18.925,0,0,0,2.565-2.183c.4-.559.029-.863-1.631-1.578a41.6,41.6,0,0,0-6.813-2.3,9.686,9.686,0,0,0-5.039.143,5.532,5.532,0,0,0-3.87,3.277,50.521,50.521,0,0,0-2.753,8.713c-.609,2.4-.838,3.185-.912,3.013a16.519,16.519,0,0,1,.406-3.751,73.979,73.979,0,0,1,1.815-8.442,6.1,6.1,0,0,1,3.113-4.057c1.74-1.131,4.546-2.7,7.142-4.4a29.666,29.666,0,0,0,6.327-5.184c1.347-1.646,1.654-3.1,1.056-4.269s-2.1-2.037-4.472-1.935-5.61,1.175-9.37,3.318a120.927,120.927,0,0,0-10.594,7.217c-2.552,1.865-3.373,2.386-3.953,3.207s-.921,1.942-1.294,5.643-.777,9.985-1.025,13.507-.338,4.283.058,5.284a9.872,9.872,0,0,0,2.825,3.579c1.544,1.337,3.75,2.767,5.044,3.906s1.677,1.985,3.074,3.219,3.81,2.857,6.15,4.793a61.673,61.673,0,0,1,6.276,6.043,32.6,32.6,0,0,0,4.058,4.3,30.77,30.77,0,0,0,3.049,1.664c.151.2-1.123.118-2.306-.168a7.793,7.793,0,0,1-3.479-1.829c-1.208-1.054-2.532-2.674-3.4-3.2s-1.281.032-2.139,1.533-2.161,3.941-3.137,5.892-1.626,3.415-4.282,9.119" fill="#fca921" fill-rule="evenodd"/>
    <path id="Path_517" data-name="Path 517" d="M22.4,386.288a14.543,14.543,0,0,0,3.36.731c6.736.654,15.042-3.167,19.892-7.9S51.9,368.754,53.81,359.7s4.343-21.509,6.469-32.339,3.946-20.032,5.949-26.1a35.523,35.523,0,0,1,5.667-11.042c1.478-2.028,2.249-3.14,3.591-5.044a46.039,46.039,0,0,0,4.213-6.746,6.9,6.9,0,0,0,.389-5.421,13.72,13.72,0,0,0-2.8-4.629,5.878,5.878,0,0,0-2.919-1.973c-.672-.079-.892.448-1.572,1.272s-1.821,1.948-1.874,1.814a25.969,25.969,0,0,1,2.133-3.149,17.813,17.813,0,0,0,2.912-5.393,8.444,8.444,0,0,0-.415-5.362,6.963,6.963,0,0,0-2.135-2.79,10.289,10.289,0,0,1,.136,3.506,19.178,19.178,0,0,1-2.306,6.852,88.6,88.6,0,0,1-4.9,7.395c-1.708,2.48-3.25,4.938-3.125,5.292s1.917-1.4,3.146-2.1,1.9-.375.667,1.688-4.355,5.854-7.43,7.544-6.1,1.279-9.491-.242c-.361-.162-.725-.336-1.091-.519.2.216.4.43.582.638a32.714,32.714,0,0,0,4.057,4.3,30.284,30.284,0,0,0,3.05,1.664c.151.2-1.123.119-2.306-.168a7.791,7.791,0,0,1-3.48-1.829c-1.207-1.054-2.531-2.674-3.4-3.2-.726-.442-1.134-.122-1.749.871a4.891,4.891,0,0,1,1.113.158c1.688.458,2.739,1.945,4.286,3.293a17.425,17.425,0,0,0,5.609,3.243c2.021.688,4.02.855,5.145,1.938s1.376,3.083-.166,9.771-4.875,18.062-7.625,29.062-4.917,21.625-7.764,30.416S40,378.109,35.774,382.109A15.071,15.071,0,0,1,22.4,386.288m38.48-122.925c.246-.426,1.5-2.044,2.721-4a32.254,32.254,0,0,0,3.222-6.523,5.352,5.352,0,0,0-.084-4.091,7.59,7.59,0,0,0-2.394-3.256,5.151,5.151,0,0,0-1.011-.559,3.747,3.747,0,0,1,.551.972c.448,1.156.435,2.725-.092,5.385a74.687,74.687,0,0,1-2.486,9.014c-.916,2.6-1.708,4.062-1.228,3.8a4.366,4.366,0,0,0,.8-.738m-12.931-6.831c.147-.3.6-1.028,1.074-1.809a43.538,43.538,0,0,0,2.28-3.991,3.986,3.986,0,0,0,.4-2.462,17.934,17.934,0,0,1-.231-2.061c.057-.154.369.619.639,1.157s.5.84,1.022.587a20.279,20.279,0,0,0,2.35-1.871,19.019,19.019,0,0,0,2.566-2.183c.4-.559.029-.864-1.632-1.578a41.492,41.492,0,0,0-6.812-2.3,9.7,9.7,0,0,0-5.04.142A5.371,5.371,0,0,0,41,242.888a4.762,4.762,0,0,1,3.8-1.161,5.336,5.336,0,0,1,3.469,1.667c.562.76.27,1.531.229,2.4s.166,1.823.219,3.135a18.7,18.7,0,0,1-.417,4.625c-.365,1.646-.99,3.271-.617,3.172a.777.777,0,0,0,.269-.19m-10.943-1.508a24.231,24.231,0,0,1,.429-3.606,74.026,74.026,0,0,1,1.815-8.442,6.094,6.094,0,0,1,3.113-4.056c1.74-1.132,4.546-2.7,7.142-4.4a29.665,29.665,0,0,0,6.327-5.183c1.346-1.647,1.654-3.105,1.056-4.27a2.92,2.92,0,0,0-.535-.729,5.531,5.531,0,0,1-.067.8c-.2,1.1-.994,2.269-3.507,4.051s-6.743,4.178-9.493,5.688-4.021,2.136-4.875,3.167-1.292,2.469-1.594,5.594-.468,7.937-.551,10.625-.084,3.25.406,1.808c.1-.279.208-.634.334-1.043" fill="#fc8320" fill-rule="evenodd"/>
    <path id="Path_518" data-name="Path 518" d="M119.775,336.051c2.339-.339,4.673,2.407,5.212,6.133s-.919,7.021-3.259,7.36-4.673-2.408-5.213-6.133.92-7.021,3.26-7.36" fill="#4f1212" fill-rule="evenodd"/>
    <path id="Path_519" data-name="Path 519" d="M97.878,336.613c1.831-.265,3.657,1.884,4.079,4.8s-.72,5.495-2.551,5.76-3.657-1.885-4.079-4.8.72-5.495,2.551-5.76" fill="#4f1212" fill-rule="evenodd"/>
  </g>
</svg>
