<svg id="_003" data-name="003" xmlns="http://www.w3.org/2000/svg" xmlns:xlink="http://www.w3.org/1999/xlink" width="468.143" height="314.992" viewBox="0 0 468.143 314.992">
  <defs>
    <clipPath id="clip-path">
      <rect id="Rectangle_96" data-name="Rectangle 96" width="468.143" height="314.992" fill="none"/>
    </clipPath>
  </defs>
  <g id="Group_204" data-name="Group 204" clip-path="url(#clip-path)">
    <path id="Path_520" data-name="Path 520" d="M159.614,62.529c8.495-4.663,23.159-12.955,38.905-18.77S231.1,34.6,238.608,32.89s5.711-1.8-1.181-1.088a196.624,196.624,0,0,0-30.785,5.488A154.033,154.033,0,0,0,172.86,51.2a139.221,139.221,0,0,0-21.135,14.435c-2.93,2.592-.606,1.555,7.888-3.109" transform="translate(4.299 0.896)" fill="#4f1212" fill-rule="evenodd"/>
    <path id="Path_521" data-name="Path 521" d="M155.077,76.774c8.495-4.665,23.159-12.956,38.905-18.77s32.576-9.156,40.089-10.869,5.711-1.8-1.181-1.088a196.5,196.5,0,0,0-30.785,5.488,153.983,153.983,0,0,0-33.782,13.913,139.165,139.165,0,0,0-21.135,14.435c-2.93,2.591-.606,1.555,7.888-3.109" transform="translate(4.17 1.303)" fill="#4f1212" fill-rule="evenodd"/>
    <path id="Path_522" data-name="Path 522" d="M286.1,165.209c-7.528,6.2-18.254,6.037-26.849,2.326-10.52-4.543-18.392-14.051-22.058-24.78-4.39-12.848-3.336-28.056,1.37-40.664,4.341-11.627,12.719-23.583,21.682-32.127a39.959,39.959,0,0,1,8.489-6.48c3.443-1.809,7.693-2.51,10.714.607a7.069,7.069,0,0,1,1.85,3.553c.585,2.924-.7,5.865-1.736,8.541a45.384,45.384,0,0,0-2.438,7.86,35.248,35.248,0,0,0,2.109,19.583c2.936,6.876,8.251,12.452,11.974,18.868a33.284,33.284,0,0,1,4.471,20.736c-.661,7.94-3.2,16.734-9.578,21.978" transform="translate(6.695 1.769)" fill="#4f1212" fill-rule="evenodd"/>
    <path id="Path_523" data-name="Path 523" d="M392.919,227.427a62.567,62.567,0,0,1,4.613-7.344c5.164-7.053,13.153-14.955,20.778-19.257,6.733-3.8,12.659-4.672,20.191-4.961,4.521-.175,10.435-.868,13.443,3.347,2.605,3.647.758,7.208,1,11.123a59.2,59.2,0,0,0,1.043,6.625,63.691,63.691,0,0,1,1.154,9.506c.206,7.018-1.447,14.461-5.557,20.239a32.637,32.637,0,0,1-8.178,7.813,36.811,36.811,0,0,1,5.585,4.343c6.122,5.794,11.372,14.637,13.029,22.925a40.26,40.26,0,0,1,.352,12.432c-.31,2.778-.9,5.468-1.247,8.214-.346,2.708.152,5.028-1.432,7.538a7.975,7.975,0,0,1-4.109,3.2c-5.031,1.887-12.405,1.1-17.485-.142-9.082-2.212-18.183-7.056-24.457-14.057-6.05-6.751-9.532-15.2-12.687-23.576-.16-.426-.43-1.218-.693-1.779a48.175,48.175,0,0,0-7.661.325c-6.1.583-12.164,1.308-18.282,1.785a185.6,185.6,0,0,1-23.987.5,105.591,105.591,0,0,1-14.307-1.658,79.622,79.622,0,0,1-50.646-32.684c-11.658-16.431-18.134-37.675-20.824-57.484a204.622,204.622,0,0,1-.731-45.677c.333-3.7.789-7.188,1.374-10.847.138-.865.252-1.724.337-2.6.285-2.91.47-5.8.82-8.71a118.855,118.855,0,0,1,2.607-14.281,166.7,166.7,0,0,1,13.607-36.294c5.543-10.465,12-18.289,21.764-24.967a95.819,95.819,0,0,1,33.9-14.125,130.619,130.619,0,0,1,39.676-1.935,93.181,93.181,0,0,1,30.926,8.52c8.449,4.063,15.985,9.379,21.853,16.751a74.286,74.286,0,0,1,11.9,23.145c2.707,8.393,3.194,15.1,2.313,23.942a100.981,100.981,0,0,1-13.217,40.288c-4.489,7.92-9.811,15.51-15.049,22.953-5.916,8.413-12.317,17.088-17.334,26.056-5.052,9.028-9.041,19.517-7.783,30.036a29.17,29.17,0,0,0,3.4,10.77" transform="translate(7.452 0.693)" fill="#4f1212" fill-rule="evenodd"/>
    <path id="Path_524" data-name="Path 524" d="M434.8,75.033c-2.189-6.786-5.78-14.842-10.9-21.279s-11.777-11.251-19.79-15.1a86.683,86.683,0,0,0-28.984-7.968A126.121,126.121,0,0,0,337.3,32.52,89.873,89.873,0,0,0,305.51,45.742c-8.45,5.778-14.4,12.522-19.877,22.855a166.9,166.9,0,0,0-13.09,34.938,128.591,128.591,0,0,0-3.284,22.153c-.394,4.028-.919,4.642-1.707,13.4a201.617,201.617,0,0,0,.7,44.352c2.54,18.7,8.669,39.185,19.79,54.859a73.7,73.7,0,0,0,46.934,30.3c19.7,3.766,42.995.437,54.9-.7s12.435-.087,14.449,5.254,5.516,14.973,11.558,21.716,14.623,10.6,21.454,12.258,11.909,1.139,14.01.351,1.226-1.839,1.752-5.954,2.452-11.3.963-18.739-6.392-15.149-11.3-19.79-9.807-6.217-11.734-7.268-.875-1.576,2.189-3.327,8.144-4.728,11.384-9.282,4.641-10.683,4.466-16.637-1.926-11.734-2.189-15.937.963-6.831.086-8.056-3.853-1.051-8.406-.876-10.682.351-17.512,4.2-14.361,11.383-18.914,17.6-6.129,11.121-7.53,12.96-2.627.613-4.817-2.627a36.04,36.04,0,0,1-6.3-16.55c-.964-8.057.262-18.914,8.494-33.625s23.467-33.275,32.4-49.037,11.559-28.722,12.479-37.959.132-14.755-2.057-21.541" transform="translate(7.616 0.858)" fill="#228dff" fill-rule="evenodd"/>
    <path id="Path_525" data-name="Path 525" d="M382.483,210.866c.019-7.432,2.08-16.847,8.773-28.811,8.232-14.71,23.468-33.274,32.4-49.036a99.511,99.511,0,0,0,10.49-26.088c-2.951-3.053-7.852-5.351-15.659-7.141-12.784-2.934-33.361-4.51-46.978-6.831a97.538,97.538,0,0,1-24.749-7.249c-4.478-1.865-6.779-2.528-8.746-2.649s-3.6.3-7.132,1.729a40.068,40.068,0,0,0-14.666,9.756,85.115,85.115,0,0,0-14.934,22.843c-3.284,7.574-3.9,13.354-3.678,17.995s1.27,8.144.613,13.485-3.021,12.522-4.641,17.294-2.5,7.136-.262,16.9,7.574,26.927,15.98,39.711a61.613,61.613,0,0,0,33.756,25.569c13.879,4.379,30.167,4.728,40.281,4.378s14.054-1.4,15.8-3.108,1.314-4.071-.306-6-4.422-3.415-6.567-4.992-3.634-3.239-5.473-6.83a41.414,41.414,0,0,1-4.493-15.021,25.767,25.767,0,0,1,.187-5.906" transform="translate(8.339 2.372)" fill="#fffffd" fill-rule="evenodd"/>
    <path id="Path_526" data-name="Path 526" d="M432.2,64.574c-1.073,1.62-2.6,5.649-5.188,9.151s-6.218,6.48-12.39,8.428-14.886,2.868-23.84,2.474-18.148-2.1-26.05-3.284a155.839,155.839,0,0,0-19.943-1.925,39.708,39.708,0,0,0-13.835,1.795,31.234,31.234,0,0,0-11.427,6.764A24.815,24.815,0,0,0,312.691,99.4a52.224,52.224,0,0,0-1.642,12.215c-.022,2.124.241.9.7-.832a35.387,35.387,0,0,1,1.445-4.575c.328-.613.328.394.416,2.605a43.286,43.286,0,0,0,1.051,8.712,20.877,20.877,0,0,0,3.94,7.991,54.546,54.546,0,0,0,4.509,4.422c.657.745-.131.7-1.467.2a18.5,18.5,0,0,1-4.837-2.78c-1.62-1.313-2.978-2.978-3.131-2.824s.9,2.124,2.714,4.028a20.97,20.97,0,0,0,7.9,5.057,42.423,42.423,0,0,0,12.368,2.32,58.9,58.9,0,0,0,15.127-1.379c6.218-1.248,14.186-3.393,21.256-5.3s13.245-3.568,18.017-4.465a33,33,0,0,1,11.734-.482,39.029,39.029,0,0,1,10.822,3.429,54.392,54.392,0,0,1,8.3,5.1c1.839,1.357,2.481,1.985,3.2,1.8s1.5-1.2,2.969-4.2a128.068,128.068,0,0,0,5.539-13.573,87.039,87.039,0,0,0,4.4-18.389,106.8,106.8,0,0,0,.242-18.761,47.044,47.044,0,0,0-1.533-10.2,17.609,17.609,0,0,0-2.146-4.684c-.7-1.094-1.313-1.883-2.386-.263" transform="translate(8.884 1.818)" fill="#4f1212" fill-rule="evenodd"/>
    <path id="Path_527" data-name="Path 527" d="M433.412,73.85q-.383-1.188-.824-2.424a18.058,18.058,0,0,1-3.6,7.416c-3.546,4.072-10.814,7.663-20.1,9.064s-20.577.613-32.443-1.226-24.3-4.728-34.106-4.379-16.988,3.94-21.584,9.9a26.785,26.785,0,0,0-4.861,21.891,22.7,22.7,0,0,0,16.2,17.031c8.932,2.5,21.279.569,32.4-2.32s21.017-6.742,29.291-7.53,14.93,1.488,21.19,4.334a101.068,101.068,0,0,0,9.892,4.3,92.566,92.566,0,0,0,10.6-34.51c.92-9.239.132-14.755-2.057-21.541" transform="translate(9.005 2.04)" fill="#fffffd" fill-rule="evenodd"/>
    <path id="Path_528" data-name="Path 528" d="M272.8,95.771c.843,1.16,1.412,3.525,2.649,6.283a59.633,59.633,0,0,0,5.5,9.282c2.353,3.371,5.155,6.961,7.082,10.092a27.314,27.314,0,0,1,3.591,8.494,37.7,37.7,0,0,1,.831,7.377,25.455,25.455,0,0,0,.066,3.2,14.279,14.279,0,0,0,.818-2.921,18.7,18.7,0,0,0,.66-6.3c-.239-2.442-1.215-5.161-1.157-5.633s1.149,1.3,1.87,3.635a22.788,22.788,0,0,1,.787,8.615,47.241,47.241,0,0,1-2.452,10.924,31.728,31.728,0,0,1-4.947,9.632,20.426,20.426,0,0,1-8.034,5.91,22.527,22.527,0,0,1-11.23,1.9,32.277,32.277,0,0,1-12.019-4.05c-3.283-1.882-5.3-3.9-6.7-8.515s-2.189-11.843-.241-20.95A106.621,106.621,0,0,1,260.267,106c3.766-6.655,6.611-8.975,8.593-10.158s3.1-1.226,3.939-.066" transform="translate(7.104 2.711)" fill="#4f1212" fill-rule="evenodd"/>
    <path id="Path_529" data-name="Path 529" d="M282.094,160.381c-4.947,4.072-12.916,4.772-20.622,1.445s-15.149-10.684-18.738-21.191-3.327-24.168,1.313-36.6,13.659-23.643,20.192-29.87,10.577-7.475,10.971-5.5-2.862,7.157-4.184,14.085a41.324,41.324,0,0,0,2.487,23.084c3.2,7.487,8.975,13.791,12.3,19.527a27.267,27.267,0,0,1,3.677,17.206c-.525,6.305-2.451,13.748-7.4,17.82" transform="translate(6.863 1.937)" fill="#228dff" fill-rule="evenodd"/>
    <path id="Path_530" data-name="Path 530" d="M315.956,112.138a48.135,48.135,0,0,1,8.159-3.7,105.12,105.12,0,0,1,17.338-4.28,229.233,229.233,0,0,1,27.484-3.131,153.093,153.093,0,0,1,19.856.569c4.137.329,5.495.372,3.263.461s-8.058.218-15.194.59-15.587.985-23.665,2.1a165.6,165.6,0,0,0-21.716,4.422,81.367,81.367,0,0,0-12.451,4.553c-2.358,1.117-2.917,1.6-3.3,1.741s-.59-.056-.809-.438a4.029,4.029,0,0,1-.493-1.368c-.044-.416.1-.679,1.528-1.521" transform="translate(8.981 2.882)" fill="#4f1212" fill-rule="evenodd"/>
    <path id="Path_531" data-name="Path 531" d="M433.925,101.71c-1.51-.941-4.619-1.729-9.852-1.992s-12.587,0-16.571.219-4.6.394-3.436.57,4.094.35,8.024.742a125.03,125.03,0,0,1,12.656,1.814c3.8.814,6.469,1.834,8.032,2.164s2.023-.028,2.3-.754a2.133,2.133,0,0,0-1.15-2.763" transform="translate(11.526 2.845)" fill="#4f1212" fill-rule="evenodd"/>
    <path id="Path_532" data-name="Path 532" d="M308.2,61.792a28.337,28.337,0,0,1,8-1.345c1.776.013,2.691.344,3.3.94s.913,1.458-.076,4.124a72.987,72.987,0,0,1-5.152,10.229,21.874,21.874,0,0,1-4.239,5.507c-.889.686-1.193.33.05-2.715s4.036-8.782,4.9-11.277-.2-1.752-2.031-.1-4.416,4.2-5.748,5.178-1.408.363-.266-1.4,3.5-4.683,4.391-6.079.3-1.269-1.421-.648-4.594,1.739-7.983,2.729-7.3,1.853-8.438,1.752.482-1.167,3.554-2.6a88.657,88.657,0,0,1,11.167-4.29" transform="translate(8.372 1.727)" fill="#4f1212" fill-rule="evenodd"/>
    <path id="Path_533" data-name="Path 533" d="M320.073,152.215a75.483,75.483,0,0,0-.175,24.694,81.907,81.907,0,0,0,11.952,30.735,90.189,90.189,0,0,0,18.739,19.92c4.685,3.722,6.086,4.16,4.6,2.5a138.41,138.41,0,0,1-10.945-11.821A128.761,128.761,0,0,1,329.529,194.6a68.548,68.548,0,0,1-6.523-24.3c-.744-8.624-.307-18.432-.613-22.2s-1.357-1.488-2.32,4.115" transform="translate(9.11 4.177)" fill="#c6c6c6" fill-rule="evenodd"/>
    <path id="Path_534" data-name="Path 534" d="M351.794,148.549a142.263,142.263,0,0,0-2.671,21.278c-.481,8.319-.394,16.989,1.007,24.694a69.75,69.75,0,0,0,5.254,16.681c1.139,2.233.7-.043-.131-5.648s-2.058-14.536-2.584-23.03a168.155,168.155,0,0,1,.219-23.643c.569-7.093,1.533-13.222,1.4-15.28s-1.357-.043-2.5,4.947" transform="translate(9.964 4.079)" fill="#c6c6c6" fill-rule="evenodd"/>
    <path id="Path_535" data-name="Path 535" d="M378.365,148.054a244.385,244.385,0,0,0-8.056,26.489,98.833,98.833,0,0,0-2.89,26.27,104.776,104.776,0,0,0,2.627,18.87c.745,3.153.657,1.839.351-3.283a158.542,158.542,0,0,1-.087-22.636c.745-8.581,2.758-16.813,5.078-26.095s4.948-19.615,5.692-23.774-.394-2.146-2.714,4.16" transform="translate(10.493 4.048)" fill="#c6c6c6" fill-rule="evenodd"/>
    <path id="Path_536" data-name="Path 536" d="M15.023,141.533a6.881,6.881,0,0,1-1.363-1.86,4.538,4.538,0,0,1-.442-1.345,6.7,6.7,0,0,1-1.148-4.045c0-.174,0-.345.014-.513a6.168,6.168,0,0,1-.5-.707,5.534,5.534,0,0,1-.351-5.073,6.527,6.527,0,0,1,2-2.618,9.581,9.581,0,0,1,1.922-1.13c.784-.373,1.569-.721,2.38-1.033a8.265,8.265,0,0,1,4.6-.674c.2.007.389.013.583.016a12.207,12.207,0,0,0,2.671-.236c1.271-.245,2.547-.59,3.8-.937a6.56,6.56,0,0,1,.64-2.6,4.353,4.353,0,0,1,2.787-2.387,5.294,5.294,0,0,1,3.777-1.22,7.869,7.869,0,0,1,2.735.525c1.463-.585,3.1-.93,4.542-1.43a36.164,36.164,0,0,1,4.9-1.749,24.594,24.594,0,0,1,6-.294,9.265,9.265,0,0,1,3.533.674,4.025,4.025,0,0,1,1.269.97,25.772,25.772,0,0,1,6.153-.976,69.39,69.39,0,0,1,12.015.409c2.211.261,4.409.631,6.592,1.076,1.628-1.395,4.222-.661,6.22-.432,1.943.224,3.958.338,5.913.387a13.521,13.521,0,0,1,4.475.49q.073.026.145.056c.08-.043.161-.084.246-.124a5.66,5.66,0,0,1,4.445-.288,5.08,5.08,0,0,1,.963.492,8.169,8.169,0,0,1,2.566.438,12.346,12.346,0,0,1,3.284,1.337,4.616,4.616,0,0,1,1.343,1.336c1.053.149,2.131.377,3.064.561,3.839.756,7.7,1.615,11.486,2.585a103.934,103.934,0,0,1,10.438,3.172,19.783,19.783,0,0,1,6.906,3.961,64.279,64.279,0,0,1,5.6,6.169c1.466,1.725,3.008,3.424,4.426,5.183a9.83,9.83,0,0,1,1.867,3.235,34.7,34.7,0,0,1,1.219,4.129,31.044,31.044,0,0,1,.855,7.267,16.1,16.1,0,0,1-1.349,6.109,7.562,7.562,0,0,1-3.267,3.967,4.963,4.963,0,0,1-5.706-.719,8.94,8.94,0,0,1-.7.685,8.41,8.41,0,0,1-5.018,2.118,5.079,5.079,0,0,1-2.845-.691,5.6,5.6,0,0,1-4.654-.762c-.138.064-.278.124-.419.182-2.251.915-5.046.921-6.831-.958-2.023-2.13-1.413-5.019-.021-7.276a29.01,29.01,0,0,1,2.486-3.273,10.108,10.108,0,0,1-2.435-2.4,16.416,16.416,0,0,1-2.537-6.292c-.017-.1-.035-.191-.05-.287-.361-.133-.722-.282-1.084-.433-2.764-1.156-5.513-2.257-8.347-3.237-2.262-.782-4.551-1.479-6.832-2.2l-.028.056a15.724,15.724,0,0,1-1,1.647,13.7,13.7,0,0,1-4.287,4.287,6.9,6.9,0,0,1-6.5.141,6,6,0,0,1-.93-.588,4.338,4.338,0,0,1-1.807-.667,6.3,6.3,0,0,1-3.337.114l-.157-.038c1.015,2.544,2.016,5.055,2.884,7.723a112.815,112.815,0,0,1,3.81,14.88c.41,2.325.7,4.756-.59,6.883-1.244,2.049-3.384,2.906-5.63,3.351-2.638.524-5.56.663-8.249.931a63.334,63.334,0,0,0-9.75,1.589c-6.406,1.673-12.048,4.845-18,7.6-4.256,1.968-8.488,3.54-13.233,3.607a32.552,32.552,0,0,1-10.337-1.68c-3.743-1.247-5.864-3.567-4.855-7.713.361-1.485,1.013-3.008,1.525-4.456a35.722,35.722,0,0,0,1.553-5.711,101.972,101.972,0,0,0,.985-10.6c.145-2.1.309-4.207.574-6.3A46.923,46.923,0,0,1,36.676,139.3a18.275,18.275,0,0,1,1.721-2.769,5.749,5.749,0,0,1-1.054-.139,6,6,0,0,1-.643-.186c-.208.1-.426.184-.651.269a32.582,32.582,0,0,0-3.336,1.4,9.487,9.487,0,0,0-1.671,1.147,15.849,15.849,0,0,1-1.356.97l-.03.02a14.309,14.309,0,0,1-1.772,1.034,6.948,6.948,0,0,1-1.969,2.434,8.684,8.684,0,0,1-2.994,1.449,7.349,7.349,0,0,1-3.613.217,6.434,6.434,0,0,1-2.99-1.629,4.868,4.868,0,0,1-1.295-1.978" transform="translate(0.308 3.204)" fill="#4f1212" fill-rule="evenodd"/>
    <path id="Path_537" data-name="Path 537" d="M121.031,70.973a5.528,5.528,0,0,0-.276-3.152,18.64,18.64,0,0,0-1.117-2.326c-.035-.064-.071-.128-.107-.19a34.435,34.435,0,0,0,1.559-5.263,16.173,16.173,0,0,0-.957-10.861,38.387,38.387,0,0,0-6.038-8.976l-.075-1.068q-.093-1.3-.238-2.593a37.6,37.6,0,0,0-2.028-9.159,7.839,7.839,0,0,0-4.484-4.895,7.066,7.066,0,0,0-5.537.5c-1.483.635-2.926,1.341-4.407,1.982-.34-.2-.691-.388-1.034-.574a43.645,43.645,0,0,0-9.466-3.785,81.466,81.466,0,0,0-16.9-2.592,96.908,96.908,0,0,0-13.725.372,27.162,27.162,0,0,0-2.764.308c-.46-.531-.932-1.038-1.414-1.511-1.765-1.733-3.749-2.952-6.327-2.571-2.64.39-4.265,2.319-5.756,4.344q-.734,1-1.446,2.038a15.319,15.319,0,0,0-2.793.539,26.83,26.83,0,0,0-9.649,4.617c-3.79,2.864-7.2,6.835-10.363,10.385A53.017,53.017,0,0,1,8.65,43.566C6.628,45.1,4.216,46.176,2.3,47.679a5.494,5.494,0,0,0-2.28,3.914c-.183,2.253,1.032,3.693,2.439,5.2,1.7,1.829,3.442,3.715,5.248,5.438a10.7,10.7,0,0,0,2.259,1.721C9.348,69.015,9,74.249,8.845,79.25a64.883,64.883,0,0,0,.643,13.742c.634,3.243,1.908,5.908,5.012,7.379a12.426,12.426,0,0,0,2.554.856,5.964,5.964,0,0,0-.072,4.03,5.541,5.541,0,0,0,1.879,2.509,8.578,8.578,0,0,0,1.383.848A4.566,4.566,0,0,0,21.763,112a14.583,14.583,0,0,0,5.76,2.566c.13.031.259.061.389.088.011.044.022.088.034.133a4.5,4.5,0,0,0,3.463,3.233,13.862,13.862,0,0,0,2.727.168,24.319,24.319,0,0,1,2.829.184c1.395.183,2.8.494,4.185.763,1.128.22,2.256.427,3.386.612l-.074.134a2.345,2.345,0,0,1,.258-.05,20.462,20.462,0,0,1,3.411.154c2.4.185,6.613.532,12.811.93s14.384.85,21.028.683,11.745-.949,16.4-2.606a62.549,62.549,0,0,0,11.485-5.8c2.632-1.616,3.695-2.32,4.318-2.795.131-.1.241-.189.344-.271-.082-.036-.166-.069-.25-.1.595-.381,1.189-.791,1.77-1.217.775-.568,1.527-1.162,2.232-1.751.836-.7,1.657-1.435,2.454-2.2,1.093-1.048,2.144-2.146,3.137-3.265.9-1.013,1.935-2.224,2.814-3.444a18.349,18.349,0,0,0,1.151-1.783,5.736,5.736,0,0,0,.745-3.474q.335-.46.622-.943a14.857,14.857,0,0,0,1.189-2.523,7.339,7.339,0,0,0,.341-5.3,5.211,5.211,0,0,0-.442-.862,4.711,4.711,0,0,0-.394-.527,5.128,5.128,0,0,0-1.857-5.056h0a7.977,7.977,0,0,0-3.812-1.428l-.611-.113c-.335-.063-.67-.134-1-.213a39.126,39.126,0,0,0-1.57-4.953" transform="translate(0 0.415)" fill="#4f1212" fill-rule="evenodd"/>
    <path id="Path_538" data-name="Path 538" d="M107.673,57.382q.545.637,1.064,1.293A56.439,56.439,0,0,1,116.2,71.747a30.976,30.976,0,0,1,1.909,6.114c.222.986.383,1.267,1.078,1.559a17.646,17.646,0,0,0,3.038.807,7.328,7.328,0,0,1,2.567.692c.458.363.38.969.091,1.686a12.443,12.443,0,0,1-1.118,2.029c-.328.487-.481.633-.261.692a6.079,6.079,0,0,0,1.385-.012c.571-.046,1.118-.11,1.284.3a4.049,4.049,0,0,1-.393,2.21,9.392,9.392,0,0,1-1.53,2.782c-.729.886-1.724,1.685-1.9,2.068s.457.352.921.393.754.157.235,1.093a31.52,31.52,0,0,1-3.425,4.464,49.576,49.576,0,0,1-5.133,5.016,36.255,36.255,0,0,1-4.16,3.015c-.758.452-.612.242-.353-.279a20.4,20.4,0,0,0,.927-2.2,4.5,4.5,0,0,0,.409-1.7,10.353,10.353,0,0,0-1.065,1.841,27.235,27.235,0,0,1-2.064,3.336,19.138,19.138,0,0,1-3.617,3.825,22.414,22.414,0,0,1-4.8,2.694,46.1,46.1,0,0,1-5.159,1.851,36.317,36.317,0,0,1-10.068,1.667c-5.075.209-12.375-.176-19.266-.544s-13.376-.72-18.206-1.33-8-1.476-10.582-1.814-4.562-.15-5.2-.289.078-.607.842-1.187,1.58-1.272,1.651-1.58-.6-.227-1.775-.219a19.339,19.339,0,0,1-4.534-.452,11.643,11.643,0,0,1-3.851-1.555c-.455-.417.346-.51,1.209-.974a4.7,4.7,0,0,0,1.859-1.625c.068-.328-.722-.15-2.092-.374a11.385,11.385,0,0,1-4.165-1.5c-.843-.648-.581-1.319.146-3.132a34.209,34.209,0,0,1,3.717-7.262,21.488,21.488,0,0,1,1.5-1.84,34.257,34.257,0,0,0,12.913,1.136C44.6,92.5,49.853,90.169,52.75,87.537s3.443-5.562,3.428-9.47-.583-8.792-.818-12.8a87.562,87.562,0,0,1-.065-8.814c.066-1.663.1-1.849,1.382-1.439a45.21,45.21,0,0,0,6.594,1.9,25.353,25.353,0,0,0,8.531-.032A47.611,47.611,0,0,0,78.582,55a4.48,4.48,0,0,1,2.524-.373,20.8,20.8,0,0,0,3.915.384c2.166.027,5.453-.161,9.011-.049A56.691,56.691,0,0,1,104,56.088a15.408,15.408,0,0,1,3.672,1.294M25.707,76.587q.08-1.635.222-3.522a177.392,177.392,0,0,1,3.876-25.992A52.407,52.407,0,0,1,36.4,31.347c2.389-4.013,4.845-7.842,6.41-9.966s2.241-2.545,2.933-2.648,1.4.114,2.7,1.392a36.251,36.251,0,0,1,5.182,6.926c.731,1.217,1.475,2.567,2.2,3.989A8.464,8.464,0,0,0,54.5,32.268a5.291,5.291,0,0,1-1.655,1.495,15.126,15.126,0,0,1-3.482,1.1,20.365,20.365,0,0,0-4.8,1.37,12.969,12.969,0,0,0-5.093,4.478,30.377,30.377,0,0,0-4.044,9.658c-1.087,4.192-1.887,9.394-2.75,13.379A30.194,30.194,0,0,1,29.7,72.5a11.189,11.189,0,0,1-3.785,3.966c-.071.043-.14.084-.209.123" transform="translate(0.582 0.534)" fill="#fca921" fill-rule="evenodd"/>
    <path id="Path_539" data-name="Path 539" d="M110.728,63.477c.419.735.809,1.462,1.175,2.168-.66-.051-1.477-.116-2.078-.156-.888-.059-1.306-.064-1.409.032s.108.291.364,1.053a19.215,19.215,0,0,1,.629,2.618c.072.528-.084.254-.556-.175a9.482,9.482,0,0,0-1.639-1.2c-.381-.185-.355.031-.281.668s.2,1.7.286,2.969a11.278,11.278,0,0,1-.193,3.79,4.12,4.12,0,0,1-1.412,1.9c-.377.33-.427.44.017.591a11.633,11.633,0,0,0,2.186.42,4.534,4.534,0,0,0,2.42-.361,12.171,12.171,0,0,0,3.054-1.931c.88-.78,1.414-1.586,1.548-1.512s-.135,1.025-1.325,2.227a19.967,19.967,0,0,1-4.864,3.393,5.424,5.424,0,0,1-3.955.483,22.324,22.324,0,0,1-4.373-1.518,8.491,8.491,0,0,1-2.769-1.929c-.725-.768-1.39-1.742-1.926-2.3s-.943-.7-1.345-.407a5.14,5.14,0,0,0-1.047,1.488c-.246.454-.341.62-.493.263a2.913,2.913,0,0,1,.233-2.421,13.768,13.768,0,0,1,3.4-3.826,29.2,29.2,0,0,1,4.949-3.107,32.639,32.639,0,0,1,6.924-3,8.172,8.172,0,0,1,2.481-.22" transform="translate(2.644 1.812)" fill="#fc8320" fill-rule="evenodd"/>
    <path id="Path_540" data-name="Path 540" d="M47.369,19.316a3.422,3.422,0,0,0-.613.033c-1.013.149-1.777.822-2.787,2.553a63.882,63.882,0,0,0-3.193,6.753,30.129,30.129,0,0,0-1.39,3.692c.131-.214.988-2.312,1.964-4.122a18.442,18.442,0,0,1,2.964-4.208c.9-.874,1.6-1.1,2.165-.965s1,.64,1.72,1.752,1.739,2.835,3.159,7.486c.173.566.351,1.175.528,1.825a19.871,19.871,0,0,1-2.674.747,20.408,20.408,0,0,0-4.8,1.369,12.977,12.977,0,0,0-5.093,4.478,30.384,30.384,0,0,0-4.044,9.659c-1.087,4.192-1.887,9.394-2.75,13.377A30.183,30.183,0,0,1,29.553,72.5a11.2,11.2,0,0,1-3.785,3.967c-.071.042-.14.083-.209.122q.08-1.635.222-3.522a177.392,177.392,0,0,1,3.876-25.992,52.381,52.381,0,0,1,6.591-15.727c2.389-4.012,4.845-7.841,6.41-9.966s2.241-2.545,2.933-2.646a2.244,2.244,0,0,1,1.777.582" transform="translate(0.73 0.534)" fill="#fc8320" fill-rule="evenodd"/>
    <path id="Path_541" data-name="Path 541" d="M107.672,56.386q.545.636,1.065,1.293c.333.422.657.851.972,1.283-1.412-.6-2.808-1.191-4.321-1.668a37.537,37.537,0,0,0-9.564-1.557c-3.3-.134-6.565.1-8.916.115a22.943,22.943,0,0,1-4.685-.368,4.291,4.291,0,0,0-1.8-.206c-.559.117-1.326.5-3.106,1.03a49.227,49.227,0,0,1-7.28,1.558c-2.707.347-5.328.362-7.081.6s-2.635.693-2.82,1.964a9.611,9.611,0,0,0,.907,4.557,2.408,2.408,0,0,0,2.515,1.57c1.3.046,3.247-.181,5.577-.193a71.032,71.032,0,0,1,8.162.545c3.122.354,6.657.857,7.743,1.156s-.277.4-1.805.679-3.221.752-3.539,1.6.743,2.078,2.547,3.085A19.926,19.926,0,0,0,88.43,75.48a4.945,4.945,0,0,0,3.673-.5,2.979,2.979,0,0,0,1.08-2.024c.13-.754.136-1.5.425-1.576s.857.526,1.1,1.75a7.892,7.892,0,0,1-.565,4.6,11.3,11.3,0,0,1-3.48,3.814,17.682,17.682,0,0,1-5.342,2.916,45.725,45.725,0,0,1-9.048,2.165A14.232,14.232,0,0,1,65.049,83.27c-1.6-1.436-3.114-3.487-4.268-4.716s-1.949-1.635-2.234-.957-.059,2.442-.459,4.362a11.173,11.173,0,0,1-3.262,5.752,20.956,20.956,0,0,1-8.219,4.4c-3.741,1.206-8.58,2.189-12.137,3.281a24.1,24.1,0,0,0-7.2,3.308,4.473,4.473,0,0,0-1.912,2.253c-.077.415.237.42,1.439.384a21.67,21.67,0,0,1,4.124.1c.826.216.387.725-.1,1.4s-1.011,1.5-1.5,2.121-.941,1.026.038,1.214a20.706,20.706,0,0,0,6.052-.312,66.289,66.289,0,0,0,7.234-1.865c1.66-.5,2.065-.584,1.861-.02a15.718,15.718,0,0,1-1.9,2.927c-.876,1.143-1.812,2.21-1.817,2.887s.925.964,2.444,1.318,3.629.772,7.476,1.626,9.431,2.139,15.736,2.993c2.028.275,4.132.5,6.154.782-2.273-.1-4.6-.227-6.875-.349-6.891-.368-13.376-.721-18.206-1.33s-8-1.476-10.581-1.814-4.563-.15-5.2-.289.078-.607.843-1.187,1.579-1.272,1.65-1.58-.6-.228-1.775-.219a19.326,19.326,0,0,1-4.533-.452,11.614,11.614,0,0,1-3.852-1.556c-.454-.416.346-.509,1.21-.973a4.7,4.7,0,0,0,1.858-1.625c.069-.328-.721-.15-2.091-.374a11.39,11.39,0,0,1-4.166-1.5c-.843-.648-.58-1.32.147-3.132a34.112,34.112,0,0,1,3.717-7.262,21.478,21.478,0,0,1,1.5-1.84,34.259,34.259,0,0,0,12.913,1.136c5.439-.648,10.691-2.982,13.589-5.614s3.442-5.562,3.428-9.47-.584-8.792-.819-12.8a87.58,87.58,0,0,1-.065-8.815c.066-1.662.1-1.848,1.382-1.438a45.21,45.21,0,0,0,6.594,1.9,25.326,25.326,0,0,0,8.531-.033,47.516,47.516,0,0,0,6.779-1.873,4.468,4.468,0,0,1,2.523-.373,20.8,20.8,0,0,0,3.915.384c2.166.027,5.453-.161,9.011-.049A56.582,56.582,0,0,1,104,55.092a15.375,15.375,0,0,1,3.672,1.294" transform="translate(0.582 1.53)" fill="#fc8320" fill-rule="evenodd"/>
    <path id="Path_542" data-name="Path 542" d="M120.912,78.42c.182.038.365.075.544.109a7.328,7.328,0,0,1,2.567.692c.458.363.38.969.089,1.686A12.367,12.367,0,0,1,123,82.937c-.328.487-.481.633-.261.692a6.079,6.079,0,0,0,1.385-.012c.571-.046,1.118-.11,1.284.3a4.049,4.049,0,0,1-.393,2.21,9.4,9.4,0,0,1-1.532,2.782c-.728.886-1.723,1.685-1.9,2.068s.457.352.921.393.754.157.235,1.093a31.52,31.52,0,0,1-3.425,4.464,49.576,49.576,0,0,1-5.133,5.016,36.255,36.255,0,0,1-4.16,3.015c-.758.452-.612.242-.353-.279a20.608,20.608,0,0,0,.927-2.2,4.5,4.5,0,0,0,.409-1.7,10.282,10.282,0,0,0-1.065,1.841,27.235,27.235,0,0,1-2.064,3.336,19.138,19.138,0,0,1-3.617,3.825,22.414,22.414,0,0,1-4.8,2.694,46.048,46.048,0,0,1-5.16,1.851,36.309,36.309,0,0,1-10.068,1.667c-5.074.209-12.374-.176-19.265-.544-2.543-.136-5.031-.269-7.4-.415-.543-.121-1.034-.241-1.488-.368-2.375-.664-3.824-1.541-4.724-2.771a6.776,6.776,0,0,1-1.164-4.384,13.253,13.253,0,0,1,1.153-4.382c.541-1.25,1.1-2.189.461-2.114a11.816,11.816,0,0,0-3.514,1.992c-1.048.83-1.315,1.4-1.116.609a15.94,15.94,0,0,1,2.2-4.868,11.9,11.9,0,0,1,5.9-4.454A27.617,27.617,0,0,1,64,93.379a56.656,56.656,0,0,0,8.936-.335A30.989,30.989,0,0,0,80.5,90.658a25.7,25.7,0,0,0,5.345-2.977,25.722,25.722,0,0,0,3.8-3.764,17.027,17.027,0,0,1,3.695-3.565,14.97,14.97,0,0,1,5.282-1.825,21.155,21.155,0,0,1,5.513-.3,13.387,13.387,0,0,1,4.561,1.263,31.931,31.931,0,0,1,3.631,2.084c.783.507.931.614,1.093.492a4.529,4.529,0,0,0,.65-1.023,5.576,5.576,0,0,1,1.419-1.775,4.875,4.875,0,0,1,2.641-.8c.89-.057,1.921,0,2.781-.044" transform="translate(1.346 2.232)" fill="#fff" fill-rule="evenodd"/>
    <path id="Path_543" data-name="Path 543" d="M86.939,32.225q.434-.174.854-.338c3.07-1.2,5.455-1.971,7.656-2.857s4.218-1.889,5.487-2.433,1.794-.626,2.4-.408,1.281.735,1.961,2.449a34.322,34.322,0,0,1,1.753,8.062c.088.782.163,1.59.22,2.41a21.447,21.447,0,0,0-2.884-2.037c-.033-.168-.068-.333-.1-.5a39.192,39.192,0,0,0-1.743-5.706c-.426-1.091-.492-1.1-.817-1.056a6.033,6.033,0,0,0-2.1.812,30.647,30.647,0,0,0-4.839,3.413l-.176.151c-1.537-.17-2.616-.21-3.628-.417a15.49,15.49,0,0,1-3.555-1.317l-.477-.229" transform="translate(2.483 0.745)" fill="#fca921" fill-rule="evenodd"/>
    <path id="Path_544" data-name="Path 544" d="M86.939,32.225q.434-.174.854-.338c3.07-1.2,5.455-1.971,7.656-2.857s4.218-1.889,5.487-2.433,1.794-.626,2.4-.408a2.926,2.926,0,0,1,1.574,1.6,7.708,7.708,0,0,0-2.662.518,33.044,33.044,0,0,0-4.468,2.02c-1.077.584-1.459.878-.686.745.533-.092,1.611-.386,2.626-.5l-.1.055a30.647,30.647,0,0,0-4.839,3.413l-.176.151c-1.537-.17-2.616-.21-3.628-.417a15.49,15.49,0,0,1-3.555-1.317l-.477-.229" transform="translate(2.483 0.745)" fill="#fc8320" fill-rule="evenodd"/>
    <path id="Path_545" data-name="Path 545" d="M58.991,32.23a27.175,27.175,0,0,1,8.061-2.049,44.5,44.5,0,0,1,12.112.4,43.742,43.742,0,0,1,9.474,3.011c.3.128.566.247.818.357-.415.034-.84.077-1.274.129a57.92,57.92,0,0,0-10.039,2.257c-3.292,1.03-6.274,2.231-8.741,2.946a23.526,23.526,0,0,1-5.859.986c-1.442.043-2.374-.1-2.24-.02a12.212,12.212,0,0,0,2.909.482,21.864,21.864,0,0,0,5.616-.386c2.1-.411,4.342-1.152,6.813-1.909s5.171-1.53,7.62-2.036a39,39,0,0,1,6.958-.805c2.309-.066,4.727.039,6.148.122,1,.059,1.51.106,1.968.156.541.083,1.076.18,1.593.3a14.325,14.325,0,0,1,7.325,4.238,37.817,37.817,0,0,1,7.416,10.084,11.991,11.991,0,0,1,.686,8.193,26.787,26.787,0,0,1-1.716,5.387c-.437.833-.551.3-.913-1.013a15.073,15.073,0,0,0-2.266-5.117c-1.295-1.713-3.275-3.045-7.219-3.885a97.36,97.36,0,0,0-13.773-1.367c-3.919-.179-5.849-.188-7.264-.362a14.22,14.22,0,0,1-1.507-.269,30.791,30.791,0,0,1,2.849-1.546,34.591,34.591,0,0,1,5.012-1.824A29.522,29.522,0,0,1,94.739,47.6a19.339,19.339,0,0,1,4.658.143,22.456,22.456,0,0,1,4.431,1.043,22.025,22.025,0,0,1,3.9,1.865c1.1.663,1.92,1.3,1.8,1.1a13.348,13.348,0,0,0-2.473-2.1,17.018,17.018,0,0,0-4.531-2.166,20.473,20.473,0,0,0-5.513-.865,24.712,24.712,0,0,0-6.661.716,55.937,55.937,0,0,0-7.469,2.547c-2.247.917-3.991,1.722-4.972,2.158-.555.248-.867.376-1.123.481a35.407,35.407,0,0,1-8.685,1.752,24.977,24.977,0,0,1-9.337-1.515,18.772,18.772,0,0,1-4.194-2.221c-.646-.393-.73-.227-1.172,1.127a22.426,22.426,0,0,0-1.079,8.388c.159,4.49,1.276,10.926,1.229,15.65s-1.26,7.731-4.052,10.168a22.133,22.133,0,0,1-11.26,4.8A21.22,21.22,0,0,1,26.981,88.8a32.33,32.33,0,0,1-7.145-4.453c-1-.865-.173-.492,1.343-.461a15.722,15.722,0,0,0,5.836-1.124,17.076,17.076,0,0,0,4.442-2.579c.3-.347-1.133.341-2.825.8a9.839,9.839,0,0,1-5.351.156,7.153,7.153,0,0,1-3.332-2.191c-.174-.37.933.178,2.825.087a11.858,11.858,0,0,0,6.637-2.522,11.178,11.178,0,0,0,2.912-3.828,5.934,5.934,0,0,0,1.785-.818c.812-.532,1.139-.945.8-.344a17.662,17.662,0,0,1-2.666,3.549c-1.333,1.331-3,2.379-3.016,2.517a11.173,11.173,0,0,0,2.759-1.332,8.152,8.152,0,0,0,2.52-2.3,18.625,18.625,0,0,0,2.139-3.611c.53-1.249.731-2.376.735-1.8a29.749,29.749,0,0,1-.536,4.5,11.291,11.291,0,0,1-1.284,3.449c-.431.758-.792,1.237-.79,1.341s.365-.168,1.019-.982a13.551,13.551,0,0,0,2.416-4.893c.817-2.718,1.506-6.8,2.242-10.827s1.52-8.015,2.252-10.66a13.716,13.716,0,0,1,2.142-4.913,6.69,6.69,0,0,1,2.448-2.034,10.4,10.4,0,0,1,2.9-.911c.879-.134,1.55-.087,1.3-.163a8.72,8.72,0,0,0-2.7-.142,7.239,7.239,0,0,0-3.923,1.6c-1.234,1.018-2.3,2.6-3.43,6.1s-2.329,8.932-3.527,12.568a25.034,25.034,0,0,1-3.322,6.854c-.824,1.223-1.429,2.065-1.756,2.108A26.679,26.679,0,0,0,33.983,67.9c1.042-4.24,1.667-10.046,2.625-14.562a34.192,34.192,0,0,1,3.724-10.286,12.922,12.922,0,0,1,5.451-5.537,23.7,23.7,0,0,1,5.711-1.65c1.572.274,1.83.762,1.955,1.22s.118.91.341.526a17.349,17.349,0,0,0,.981-2.587l.043-.143a7.042,7.042,0,0,0,.77-.57,13.808,13.808,0,0,1,3.406-2.079" transform="translate(0.554 0.855)" fill="#c9703e" fill-rule="evenodd"/>
    <path id="Path_546" data-name="Path 546" d="M58.987,32.223a22.536,22.536,0,0,1,2.7-.989,18.568,18.568,0,0,0-3.453,2.91c-.931,1.119-.993,2.021-.431,2.726a5.335,5.335,0,0,0,3.231,1.465,16.688,16.688,0,0,0,5.047-.006,23.213,23.213,0,0,0,5.182-1.438c1.66-.663,3.231-1.471,4.868-2.068s3.341-.983,4.333-1.307,1.273-.586,1.027-1.049-1.024-1.129-2.851-1.706c-.644-.2-1.419-.4-2.2-.576.924.1,1.836.226,2.718.388a43.742,43.742,0,0,1,9.474,3.011c.3.128.566.247.818.357-.415.034-.84.077-1.274.129a57.92,57.92,0,0,0-10.039,2.257c-3.292,1.03-6.274,2.231-8.741,2.946a23.526,23.526,0,0,1-5.859.986c-1.442.043-2.374-.1-2.24-.02a12.212,12.212,0,0,0,2.909.482,21.864,21.864,0,0,0,5.616-.386c2.1-.411,4.342-1.152,6.813-1.909s5.171-1.53,7.62-2.036a39,39,0,0,1,6.958-.805c2.309-.066,4.727.039,6.148.122,1,.059,1.51.106,1.968.156.541.083,1.076.18,1.593.3a14.325,14.325,0,0,1,7.325,4.238c.345.335.7.7,1.058,1.078-.222-.141-.451-.28-.682-.416a29.376,29.376,0,0,0-10.278-3.347,31.911,31.911,0,0,0-11,.119c-3.374.706-6.244,2.145-9.546,3.457A46.767,46.767,0,0,1,67.735,44.2c-3.032.417-5.363.064-5.126.308A16.934,16.934,0,0,0,68.576,45.7a29.391,29.391,0,0,0,8.518-1.214c2.543-.693,4.577-1.451,6.949-1.9a35.518,35.518,0,0,1,7.421-.534,23.159,23.159,0,0,1,4.231.41c-.077.051-2.2-.138-4.374.064a21.715,21.715,0,0,0-6.494,1.7c-2.1.9-4.082,2.111-6.669,3.131a36.328,36.328,0,0,1-8.242,2.15c-2.463.3-4.2.063-4.093.249a10.492,10.492,0,0,0,4.689.763,37.194,37.194,0,0,0,8.86-1.492c2.883-.805,5.312-1.755,7.814-2.516a32.057,32.057,0,0,1,7.729-1.465,23.623,23.623,0,0,1,8.045.985,24.8,24.8,0,0,1,7.152,3.484,11.588,11.588,0,0,1,3.5,3.9,20.207,20.207,0,0,1,.871,2.2c.122.152.219-.442.275-1.124s.07-1.455.328-.77A22.117,22.117,0,0,1,116,58.8c.025.382.039.765.045,1.15a23.423,23.423,0,0,1-1.407,4.108c-.437.833-.551.3-.913-1.013a15.073,15.073,0,0,0-2.266-5.117c-1.295-1.713-3.275-3.045-7.219-3.885a97.36,97.36,0,0,0-13.773-1.367c-3.919-.179-5.849-.188-7.264-.362a14.219,14.219,0,0,1-1.507-.269A30.791,30.791,0,0,1,84.541,50.5a34.591,34.591,0,0,1,5.012-1.824,29.522,29.522,0,0,1,5.181-1.084,19.339,19.339,0,0,1,4.658.143,22.456,22.456,0,0,1,4.431,1.043,22.026,22.026,0,0,1,3.9,1.865c1.1.663,1.92,1.3,1.8,1.1a13.348,13.348,0,0,0-2.473-2.1,17.018,17.018,0,0,0-4.531-2.166,20.473,20.473,0,0,0-5.513-.865,24.711,24.711,0,0,0-6.661.716,55.938,55.938,0,0,0-7.469,2.547c-2.247.917-3.991,1.722-4.972,2.158-.555.248-.867.376-1.123.481A35.407,35.407,0,0,1,68.1,54.261a24.977,24.977,0,0,1-9.337-1.515,18.772,18.772,0,0,1-4.194-2.221c-.333-.2-.516-.257-.677-.076a1.229,1.229,0,0,0-1.117-.1,3.062,3.062,0,0,0-1.506,1.614,12.6,12.6,0,0,0-1.021,3.814c-.181,1.478-.166,3.037-.209,2.939a26.127,26.127,0,0,1-.075-3.582,15.345,15.345,0,0,1,.764-4.6,5.026,5.026,0,0,1,1.6-2.205c.467-.367.729-.439.4-.338a6.577,6.577,0,0,0-2.106,1.028c-.851.65-1.626,1.678-2.161,4.134a70.9,70.9,0,0,0-1,9.214c-.175,2.872-.228,4.731-.511,7.21A43.739,43.739,0,0,1,45.5,77.128a6.55,6.55,0,0,1-2.316,3.518c-.895.708-1.91,1.284-1.98,1.4A5.2,5.2,0,0,0,43,81.2a8.224,8.224,0,0,0,2.931-2.882,17.759,17.759,0,0,0,1.79-5.527c.4-2.128.631-4.4.765-4.233a45.01,45.01,0,0,1,.209,5.346,22.393,22.393,0,0,1-.766,7.614,13.318,13.318,0,0,1-4.981,6.806A16.128,16.128,0,0,1,34.752,90.6c-.513.021-1.013.025-1.5.012a22.889,22.889,0,0,1-6.273-1.825,32.33,32.33,0,0,1-7.145-4.453c-.106-.093-.191-.17-.258-.236.444.137.915.275,1.371.381a10.145,10.145,0,0,0,4.682-.016A13.793,13.793,0,0,0,30.7,82.332a11.153,11.153,0,0,0,3.049-3.749,10,10,0,0,0,1.106-2.472,10.4,10.4,0,0,1-2.443,1.712,21.519,21.519,0,0,1-7.56,1.748,24.68,24.68,0,0,1-4.613-.264,1.6,1.6,0,0,1-.3-.368c-.174-.37.933.178,2.825.087A11.858,11.858,0,0,0,29.407,76.5a11.178,11.178,0,0,0,2.912-3.828,5.934,5.934,0,0,0,1.785-.818c.812-.532,1.139-.945.8-.344a17.662,17.662,0,0,1-2.666,3.549c-1.333,1.331-3,2.379-3.016,2.517a11.173,11.173,0,0,0,2.759-1.332,8.152,8.152,0,0,0,2.52-2.3,18.625,18.625,0,0,0,2.139-3.611c.53-1.249.731-2.376.735-1.8a29.749,29.749,0,0,1-.536,4.5,11.291,11.291,0,0,1-1.284,3.449c-.431.758-.792,1.237-.79,1.341s.365-.168,1.019-.982A13.551,13.551,0,0,0,38.2,71.941c.817-2.718,1.506-6.8,2.242-10.827s1.52-8.015,2.252-10.66A13.716,13.716,0,0,1,44.84,45.54a6.69,6.69,0,0,1,2.448-2.034,10.4,10.4,0,0,1,2.9-.911c.879-.134,1.55-.087,1.3-.163a8.72,8.72,0,0,0-2.7-.142,7.239,7.239,0,0,0-3.923,1.6c-1.234,1.018-2.3,2.6-3.43,6.1s-2.329,8.932-3.527,12.568a25.034,25.034,0,0,1-3.322,6.854c-.824,1.223-1.429,2.065-1.756,2.108q.23-.569.441-1.193A16.488,16.488,0,0,0,35.933,66.1a35.747,35.747,0,0,0,2.115-6.879c.622-2.779,1.245-6.183,1.8-8.8a17.069,17.069,0,0,1,2.069-5.987A12.046,12.046,0,0,1,46,40.767c1.522-.865,3.029-1.333,2.858-1.458a9.614,9.614,0,0,0-3.938.856A15.169,15.169,0,0,0,40.3,43.09l.028-.048a12.922,12.922,0,0,1,5.451-5.537,23.7,23.7,0,0,1,5.711-1.65c1.572.274,1.83.762,1.955,1.22s.118.91.341.526a17.349,17.349,0,0,0,.981-2.587l.043-.143a7.041,7.041,0,0,0,.77-.57,13.808,13.808,0,0,1,3.406-2.079" transform="translate(0.559 0.862)" fill="#b04932" fill-rule="evenodd"/>
    <path id="Path_547" data-name="Path 547" d="M92.759,27.946a38.18,38.18,0,0,0-8.554-3.418,80.185,80.185,0,0,0-15.987-2.446,93.881,93.881,0,0,0-13.119.36c-2.579.237-2.727.305-2.822.382s-.138.159.505,1.309,1.97,3.366,2.679,4.639.8,1.6,1.282,1.492a20.055,20.055,0,0,1,3.46-1.056,58.133,58.133,0,0,1,8.658-.725,51.234,51.234,0,0,1,9.171.532A51.332,51.332,0,0,1,84.8,30.7a8.886,8.886,0,0,0,1.868.485,4.226,4.226,0,0,0,1.451-.32c.984-.3,2.721-.885,3.784-1.236s1.452-.476,1.735-.568a1.57,1.57,0,0,0,.518-.217c.061-.066.007-.138-1.395-.9" transform="translate(1.492 0.628)" fill="#e69aba" fill-rule="evenodd"/>
    <path id="Path_548" data-name="Path 548" d="M86.664,25.359c-.745-.256-1.554-.511-2.43-.757a3.348,3.348,0,0,1-2.857.333,5.738,5.738,0,0,1-1.816-1.426c-2.249-.439-4.685-.808-7.13-1.071-.418.248-.835.5-1.249.706a6.232,6.232,0,0,1-4.065.7,7.426,7.426,0,0,1-3.678-1.849c-1.042.008-2.04.035-2.976.073.984.7,2.032,1.513,2.976,2.162a10.468,10.468,0,0,0,4.084,1.906A6.528,6.528,0,0,0,71.3,25.66c1.178-.523,2.221-1.394,3.292-1.571A4.51,4.51,0,0,1,77.736,25.1a13.3,13.3,0,0,0,2.9,1.867,5.164,5.164,0,0,0,4.047-.452,17.96,17.96,0,0,0,1.977-1.152" transform="translate(1.727 0.628)" fill="#fff" fill-rule="evenodd"/>
    <path id="Path_549" data-name="Path 549" d="M36.66,25.383a22.5,22.5,0,0,0-8.145,3.89c-3.306,2.5-6.844,6.559-9.748,9.818a56.744,56.744,0,0,1-7.647,7.591c-2.478,1.879-5.166,3.183-6.3,4.072s-.714,1.36.652,2.828,3.678,3.929,5.07,5.257,1.864,1.519,2.242.543a46.914,46.914,0,0,1,1.755-5.6,31.74,31.74,0,0,1,3.586-5.975c.592-.686-.125.753-.962,2.832a41.14,41.14,0,0,0-2.572,9.917,175.382,175.382,0,0,0-1.583,18.532,62.121,62.121,0,0,0,.565,12.782c.518,2.651,1.319,3.7,2.642,4.33a13.432,13.432,0,0,0,4.174.92c1,.092,1.155.074,1.258.01s.155-.175.474-.792.9-1.741,1.438-2.586c.063-.1.123-.192.184-.283a6.49,6.49,0,0,0,.393-.545l.2-.294a6.149,6.149,0,0,0,.384-.556l.017-.036c.107-.159.2-.3.28-.431a1.52,1.52,0,0,0,.293-.691c0-.157-.074-.274-.575-.557s-1.43-.74-2.469-1.431a12.483,12.483,0,0,1-2.821-2.455,4.04,4.04,0,0,1-.805-2.169A4.247,4.247,0,0,1,18.6,83c.069-.227.242-.206.643-.169a9.981,9.981,0,0,0,1.569.045c.536-.041.978-.176,1-.335s-.373-.341-.887-.729a5.587,5.587,0,0,1-1.551-1.732,4.425,4.425,0,0,1-.541-2.171c.045-.505.316-.6.906-.495a21.059,21.059,0,0,0,2.31.479,3.183,3.183,0,0,0,1.892-.377.866.866,0,0,0,.365-.969c-.057-.4-.217-.88-.365-2.06a42.481,42.481,0,0,1-.263-5.465,85.243,85.243,0,0,1,.587-8.78c.389-3.438.989-7.38,1.475-9.82s.855-3.379.953-2.975-.071,2.153-.11,3.687a31.749,31.749,0,0,0,.133,3.721c.08.865.149,1.272.434-.114s.788-4.567,1.477-7.406a45.637,45.637,0,0,1,2.515-7.517,64.621,64.621,0,0,1,2.946-5.777c.363-.651.717-1.283,1.044-1.864a14.693,14.693,0,0,0,.788-1.385c.15-.274.332-.6.533-.956l.007-.014.015-.027.023-.041,0,0c.465-.822.577-1.018.684-1.207l.056-.1v0l0-.009c.461-.8.917-1.6,1.244-2.146.675-1.141.78-1.245.6-1.3a5.937,5.937,0,0,0-2.423.394" transform="translate(0.119 0.713)" fill="#e183b2" fill-rule="evenodd"/>
    <path id="Path_550" data-name="Path 550" d="M33.025,26.388a22.135,22.135,0,0,0-3.767,1.993,5.73,5.73,0,0,1-.4,1.694c-.56,1.272-1.8,2.083-2.65,3.161a8.3,8.3,0,0,0-1.525,3.508,6.5,6.5,0,0,1-.686,2.682c-.534.77-1.658,1.484-2.29,2.494s-.77,2.317-.985,5.111-.505,7.074-.408,8.083.582-1.255.9-3.353.466-4.03.6-5.544.256-2.612,1.089-3.5,2.377-1.569,3.122-2.321.69-1.579.851-2.7a7.66,7.66,0,0,1,1.352-3.572c.817-1.032,2.073-1.678,2.764-2.822s.816-2.786,1.875-4.643c.051-.089.1-.18.16-.271" transform="translate(0.58 0.754)" fill="#fff" fill-rule="evenodd"/>
    <path id="Path_551" data-name="Path 551" d="M102.388,79.537a8.779,8.779,0,0,0-3.533.1,24.555,24.555,0,0,0-4.214,1.153,6.555,6.555,0,0,0-2.4,1.394,1.313,1.313,0,0,0-.3,1.366,5.14,5.14,0,0,0,.994,1.959,10.692,10.692,0,0,0,2.789,2.462,13.04,13.04,0,0,0,3.855,1.617,2.927,2.927,0,0,0,2.248-.335,4.16,4.16,0,0,0,1.767-1.716,9.2,9.2,0,0,0,1.022-3.554,5.748,5.748,0,0,0-.541-2.917,2.54,2.54,0,0,0-1.692-1.525" transform="translate(2.624 2.268)" fill="#4f1212" fill-rule="evenodd"/>
    <path id="Path_552" data-name="Path 552" d="M89.223,76.748a8.279,8.279,0,0,1-4.653.523,42.845,42.845,0,0,1-7.417-2.63,27.64,27.64,0,0,0-6.782-2.112,7.23,7.23,0,0,0-4.257.8,7.133,7.133,0,0,0-1.9,1.461c-.362.375-.528.562-.514.4a6.9,6.9,0,0,1,.467-1.261,5.835,5.835,0,0,1,1.127-1.839c.532-.531,1.26-.887,1.435-1.083s-.2-.237-.844-.193a9.047,9.047,0,0,1-1.77.082c-.229-.088.214-.39.885-.8a7.765,7.765,0,0,1,2.636-1.129,7.126,7.126,0,0,1,3.537.346c1.225.42,2.433,1.131,2.913,1.325s.235-.131-.171-.573-.97-1-.785-1.011a10.466,10.466,0,0,1,2.318,1.311c1.2.786,2.649,1.824,4.011,2.705a23.86,23.86,0,0,0,3.966,2.15,11.954,11.954,0,0,0,4.179.937c1.451.039,2.959-.242,3.285-.207s-.527.384-1.665.8" transform="translate(1.819 1.967)" fill="#4f1212" fill-rule="evenodd"/>
    <path id="Path_553" data-name="Path 553" d="M98.179,72.236a2.455,2.455,0,0,0,2.014-.249,17.129,17.129,0,0,0,2.777-2.6,10.578,10.578,0,0,1,2.577-2.188,2.177,2.177,0,0,1,1.882-.024,3.214,3.214,0,0,1,.978.69c.2.193.291.291.266.192a5.619,5.619,0,0,0-.353-.743,3.965,3.965,0,0,0-.7-1.027,8.524,8.524,0,0,0-.736-.509c-.1-.1.057-.176.33-.228a2.661,2.661,0,0,0,.751-.169c.085-.084-.138-.22-.47-.4a2.619,2.619,0,0,0-1.246-.389,2.27,2.27,0,0,0-1.438.661,14.169,14.169,0,0,0-1.054,1.205c-.177.182-.114-.055,0-.386s.282-.756.2-.741a5.1,5.1,0,0,0-.807,1.122c-.4.649-.881,1.489-1.342,2.219a11.487,11.487,0,0,1-1.393,1.86,4.2,4.2,0,0,1-1.632,1.117,13.111,13.111,0,0,1-1.4.279c-.133.063.268.178.8.3" transform="translate(2.781 1.845)" fill="#4f1212" fill-rule="evenodd"/>
    <path id="Path_554" data-name="Path 554" d="M81.028,66.243a15.749,15.749,0,0,1-4.939-.942c-1.46-.559-2.315-1.291-2.562-2.24A2.37,2.37,0,0,1,74.6,60.416a5.186,5.186,0,0,1,4.036.153,11.672,11.672,0,0,1,3.9,2.5c.885.9,1.161,1.654.915,2.224s-1.013.951-2.428.95" transform="translate(2.098 1.716)" fill="#fff" fill-rule="evenodd"/>
    <path id="Path_555" data-name="Path 555" d="M97.618,65.633a6.647,6.647,0,0,0,2.542-1.816,3.734,3.734,0,0,0,1-2.656,3.023,3.023,0,0,0-1.069-2.394c-.622-.344-1.455.045-2.188.88A9.425,9.425,0,0,0,96.213,62.8a3.4,3.4,0,0,0-.1,2.342c.238.514.728.748,1.5.491" transform="translate(2.741 1.675)" fill="#fff" fill-rule="evenodd"/>
    <path id="Path_556" data-name="Path 556" d="M95.191,81.647a23.828,23.828,0,0,1,3.548-.986,7.763,7.763,0,0,1,2.855-.152,2.2,2.2,0,0,1,1.492.929,2.493,2.493,0,0,1,.377,1.309c-.012.3-.134.333-.43.113a9.79,9.79,0,0,0-1.329-1,4.118,4.118,0,0,0-2.033-.433,15.129,15.129,0,0,0-2.842.348c-1.028.208-2.087.489-2.461.491s-.064-.275.823-.617" transform="translate(2.691 2.297)" fill="#fff" fill-rule="evenodd"/>
    <path id="Path_557" data-name="Path 557" d="M121.447,66.693a34.665,34.665,0,0,0-.862-3.651c-.318-.95-.606-1.172-2.32-1.309a31.752,31.752,0,0,0-7.822.364,26.782,26.782,0,0,0-7.8,2.872,46.657,46.657,0,0,0-4.465,2.99,4.412,4.412,0,0,1-3.058,1.049c-7.96-.753-12.593-4.679-27.628-2.5a59.871,59.871,0,0,0-8.149,2.1c-1.27.5-5.48.926-6,1.664s.363,2.619.322,3.2,2.488-.134,3.122-.025a6.212,6.212,0,0,1,2.534.8,11.03,11.03,0,0,1,2.577,3.042,41.5,41.5,0,0,0,3.389,4.583A11.5,11.5,0,0,0,70.2,85.32c6.617,2.189,22.672-.519,24.62-10.169.257-1.275.828-1.493,1.274-1.489s.959.283,1.528,1.148c5.648,8.576,15.265,8.09,19.544-1.183.991-2.148,1.559-3.991,2.059-4.938s.929-1,1.334-.89.784.374.952.326.127-.409-.069-1.431m-5.668-.974a3.258,3.258,0,0,0-2.229-1.08,11.732,11.732,0,0,0-4.925.639,28.017,28.017,0,0,0-5.786,2.778,8.283,8.283,0,0,0-2.866,2.605c-2.84,4.776,10.311,13.153,15.024,3.761a13.861,13.861,0,0,0,1.116-3.22,12.924,12.924,0,0,0,.275-2.451,10.367,10.367,0,0,0-.059-1.622,2.57,2.57,0,0,0-.551-1.41m-52.36,6.117a3.771,3.771,0,0,1,1.919-1.564c7.087-3.362,23.645-1.308,26.24,1.371A3.759,3.759,0,0,1,92.74,73.99c.609,8.7-17.114,10.267-20.838,9.53a9.761,9.761,0,0,1-5.718-3.394,13.85,13.85,0,0,1-1.828-2.876,12.952,12.952,0,0,1-.833-2.323,10.5,10.5,0,0,1-.317-1.592,2.576,2.576,0,0,1,.212-1.5" transform="translate(1.519 1.761)" fill="#4f1212" fill-rule="evenodd"/>
    <path id="Path_558" data-name="Path 558" d="M53.012,31.729a71.112,71.112,0,0,0-3.917-6c-1.217-1.6-1.837-1.918-2.26-1.974s-.648.159-1.3,1.089a27.412,27.412,0,0,0-2.68,4.757A58.414,58.414,0,0,0,40.5,36.531a38.111,38.111,0,0,0-.965,3.859c-.066.508.127.193.854-.442A22.983,22.983,0,0,1,43.674,37.6a18.947,18.947,0,0,1,4.053-1.743,36.97,36.97,0,0,1,3.878-.932,4.366,4.366,0,0,0,1.527-.375,2.073,2.073,0,0,0,.6-.82c.124-.276.165-.467-.722-2" transform="translate(1.129 0.678)" fill="#4f1212" fill-rule="evenodd"/>
    <path id="Path_559" data-name="Path 559" d="M21.7,37.58c-.493.235-.971.6-.977.988a.891.891,0,0,0,.932.765,1.78,1.78,0,0,0,1.226-.913c.261-.436.3-.857.058-1.016a1.493,1.493,0,0,0-1.238.176" transform="translate(0.592 1.066)" fill="#fff" fill-rule="evenodd"/>
    <path id="Path_560" data-name="Path 560" d="M28.9,34.86c-.493.236-.97.6-.977.989a.892.892,0,0,0,.932.765,1.784,1.784,0,0,0,1.226-.913c.261-.437.3-.858.058-1.017a1.493,1.493,0,0,0-1.238.176" transform="translate(0.797 0.988)" fill="#fff" fill-rule="evenodd"/>
    <path id="Path_561" data-name="Path 561" d="M60.111,24.642c-.493.236-.97.6-.977.989a.891.891,0,0,0,.932.765,1.784,1.784,0,0,0,1.226-.913c.261-.436.3-.857.058-1.016a1.492,1.492,0,0,0-1.238.175" transform="translate(1.689 0.697)" fill="#fff" fill-rule="evenodd"/>
    <path id="Path_562" data-name="Path 562" d="M74.158,25.262c-.493.235-.97.6-.977.988a.892.892,0,0,0,.932.765,1.781,1.781,0,0,0,1.226-.913c.261-.436.3-.857.058-1.016a1.493,1.493,0,0,0-1.238.176" transform="translate(2.09 0.714)" fill="#fff" fill-rule="evenodd"/>
    <path id="Path_563" data-name="Path 563" d="M100.523,88.285a11.969,11.969,0,0,1-.039,1.727,7.21,7.21,0,0,1-.5,2.125,3.911,3.911,0,0,1-1.642,1.887,9,9,0,0,1-4.093,1.1c-1.918.136-4.46-.019-6.641.125a11.911,11.911,0,0,0-5.32,1.388,6.068,6.068,0,0,0-2.631,3.421A9.962,9.962,0,0,0,79.289,105a7.2,7.2,0,0,0,2.394,4.272c1.254,1.01,2.936,1.453,6.028,1.037A38.686,38.686,0,0,0,99,106.737a33.045,33.045,0,0,0,8.653-6.488,16.356,16.356,0,0,0,3.937-5.628,6.73,6.73,0,0,0,.125-4.4,2.861,2.861,0,0,0-1.841-1.989,2.655,2.655,0,0,0-2.227.815c-.771.634-1.582,1.55-2.318,2.088a2.26,2.26,0,0,1-1.879.555c-.482-.14-.786-.581-.969-1.363a16.7,16.7,0,0,1-.282-2.571c-.036-.667-.044-.875-.257-.939a1.983,1.983,0,0,0-.919.1c-.288.088-.446.185-.505.391a3.826,3.826,0,0,0,.005.974" transform="translate(2.26 2.479)" fill="#4f1212" fill-rule="evenodd"/>
    <path id="Path_564" data-name="Path 564" d="M81.356,99.811a3.889,3.889,0,0,1,1.785-1.845A11.437,11.437,0,0,1,87.4,96.8c2.059-.251,4.9-.352,7.25-.577a26.265,26.265,0,0,0,5.821-1.11,17.354,17.354,0,0,0,4.308-2.139c1.307-.88,2.542-1.917,3.35-2.452s1.189-.569,1.46-.424.43.467.492,1.039a7.543,7.543,0,0,1-.146,2.2,5.557,5.557,0,0,1-1.152,2.449,10.324,10.324,0,0,1-3.152,2.506,32.9,32.9,0,0,1-4.558,1.877,14.293,14.293,0,0,0-2.269.86,6.6,6.6,0,0,0,2.192-.432,42.718,42.718,0,0,0,4.226-1.513,9.337,9.337,0,0,1,2.131-.856c.164.08-.253.658-1.136,1.549a29.079,29.079,0,0,1-3.941,3.292,33.806,33.806,0,0,1-5.77,3.243,26.854,26.854,0,0,1-5.674,1.715,20.053,20.053,0,0,1-4.877.416,6.369,6.369,0,0,1-3.082-.907,3.312,3.312,0,0,1-1.319-1.72,5.482,5.482,0,0,1-.393-1.894c.034-.367.265-.274,1.075-.191a19.247,19.247,0,0,0,3.919-.034,34.151,34.151,0,0,0,4.408-.8c.618-.177-.209-.092-1.487.008s-3.005.214-4.4.194a10.843,10.843,0,0,1-3.018-.363c-.557-.194-.608-.431-.617-.937a4.943,4.943,0,0,1,.32-1.982" transform="translate(2.315 2.571)" fill="#fff" fill-rule="evenodd"/>
    <path id="Path_565" data-name="Path 565" d="M69.074,72.06a6.371,6.371,0,0,0-.274,3.222,6.6,6.6,0,0,0,1.861,3.48,7.669,7.669,0,0,0,3.777,1.95A12.018,12.018,0,0,0,79.56,80.6a33.6,33.6,0,0,0,5.962-1.961,22.238,22.238,0,0,0,3.122-1.657c.523-.324.608-.355.091-.291a10.516,10.516,0,0,1-3.354-.069A30.822,30.822,0,0,1,79.046,74.6c-2.319-.985-4.655-2.21-6.151-2.89a5.116,5.116,0,0,0-2.66-.742c-.509.071-.874.345-1.161,1.094" transform="translate(1.962 2.026)" fill="#4f1212" fill-rule="evenodd"/>
    <path id="Path_566" data-name="Path 566" d="M71.5,73.578a4.441,4.441,0,0,0-.233,2.374A4.682,4.682,0,0,0,72.7,78.5a6.075,6.075,0,0,0,2.952,1.414,10.071,10.071,0,0,0,4.021-.113,27.914,27.914,0,0,0,4.689-1.478,18.276,18.276,0,0,0,2.459-1.237c.411-.242.479-.264.072-.215a8.8,8.8,0,0,1-2.631-.031,25.162,25.162,0,0,1-4.959-1.452c-1.814-.712-3.64-1.6-4.811-2.092a4.2,4.2,0,0,0-2.083-.531,1.109,1.109,0,0,0-.917.812" transform="translate(2.033 2.078)" fill="#fff" fill-rule="evenodd"/>
    <path id="Path_567" data-name="Path 567" d="M99.552,72.2a3.744,3.744,0,0,0,1.38,1.718,7.364,7.364,0,0,0,3,1.187,2.075,2.075,0,0,0,2.224-.817,7.1,7.1,0,0,0,.931-3.453,13.115,13.115,0,0,0-.318-3.566c-.2-.744-.4-.786-.7-.723a4.142,4.142,0,0,0-1.336.641A19.231,19.231,0,0,0,102.5,68.9c-.722.653-1.3,1.3-1.736,1.74a8.839,8.839,0,0,1-.971.836.531.531,0,0,0-.241.722" transform="translate(2.842 1.9)" fill="#4f1212" fill-rule="evenodd"/>
    <path id="Path_568" data-name="Path 568" d="M100.691,72.279a3.687,3.687,0,0,0,1.146.964,5,5,0,0,0,2.217.6,1.623,1.623,0,0,0,1.532-.942,6.739,6.739,0,0,0,.467-2.424,13.708,13.708,0,0,0-.019-2.183c-.062-.5-.178-.7-.391-.776s-.52-.04-.94.336a19.845,19.845,0,0,0-1.474,1.728,9.256,9.256,0,0,1-1.54,1.547c-.489.354-.94.5-1.12.641s-.087.259.122.511" transform="translate(2.87 1.927)" fill="#fff" fill-rule="evenodd"/>
    <path id="Path_569" data-name="Path 569" d="M46.229,133.192a68.19,68.19,0,0,0,4.615-6.439c1.68-2.752,3.11-5.875,5.292-7.712s5.115-2.386,8.626-2.589a67.511,67.511,0,0,1,11.37.39,84.993,84.993,0,0,1,9.477,1.733c2.267.538,3.359.865,3.74.94s.048-.1-.972-.629a13.857,13.857,0,0,1-2.833-1.682c-.1-.276,1.4.052,3.413.284s4.548.368,6.242.409a11.4,11.4,0,0,1,3.289.262,2.618,2.618,0,0,1,1.492,1.288c.133.417-.223.649-1.088,1.553a25.591,25.591,0,0,0-3.352,4.333,18.676,18.676,0,0,0-2.347,6.061,15.134,15.134,0,0,0-.005,5.5c.287,1.429.77,2.282.614,2.793s-.951.674-1.85.468a4.259,4.259,0,0,1-2.763-2.314,42.09,42.09,0,0,1-1.889-4.691c-.308-.683-.2.431.017,1.687a13.946,13.946,0,0,1,.428,3.149c-.122.494-.7.081-1.73-.444a15.5,15.5,0,0,0-4.526-1.509c-2-.34-4.527-.382-6.527-.591a12.471,12.471,0,0,1-4.866-1.336c-1.381-.75-2.662-1.87-3.03-2.043s.179.6,1.691,1.648,3.99,2.362,5.266,3.135,1.352,1,1.243,1.4a10.418,10.418,0,0,0-.568,2.115,23.191,23.191,0,0,1-.622,4.111c-.423,1.2-1.234,1.845-3.546,2.463a27.669,27.669,0,0,1-10.089.711,24.485,24.485,0,0,1-10.7-3.986A11.783,11.783,0,0,1,45.461,138a5.4,5.4,0,0,1-.408-2.78c.074-.5.167-.726,1.177-2.03" transform="translate(1.286 3.324)" fill="#fff" fill-rule="evenodd"/>
    <path id="Path_570" data-name="Path 570" d="M99.81,119.636a4.063,4.063,0,0,1-.052-1.013c.051-.315.227-.511.623-.7a2.067,2.067,0,0,1,1.546-.169,2.178,2.178,0,0,1,1.164,1.483c.191.694.131,1.494.245,1.525s.4-.708.526-1.252.083-.891.325-1a3.174,3.174,0,0,1,1.54.261,10.433,10.433,0,0,1,2.283.868c.478.319.405.636-.171,1.178a16.2,16.2,0,0,0-2.728,2.786,24.8,24.8,0,0,0-2.854,5.656A22.921,22.921,0,0,0,101,134.545a7.664,7.664,0,0,0,.153,3.486c.3.626.892.557,1.592.046s1.515-1.467,1.737-1.548-.148.712-.9,1.813a10.583,10.583,0,0,1-3.027,3.142,3.217,3.217,0,0,1-3.031.089c-.751-.387-1.11-1.006-1.405-2.591s-.528-4.137-.678-5.045-.218-.173-.176,1.133.2,3.183.276,4.243.085,1.3-.136,1.295-.67-.263-1.109-1.006A13.634,13.634,0,0,1,93.1,136.37a9.767,9.767,0,0,1-.3-4.1,17.02,17.02,0,0,1,1.771-4.924,34.6,34.6,0,0,1,2.588-4.12c.772-1.077,1.339-1.793,1.748-2.254s.661-.668.792-.821.141-.253.11-.519" transform="translate(2.648 3.361)" fill="#fff" fill-rule="evenodd"/>
    <path id="Path_571" data-name="Path 571" d="M104.657,133.858c2.307.79,6.918,2.147,10.754,3.471s6.9,2.623,8.565,3.32,1.944.8,2.264.33.685-1.5.851-1.774.136.216.074,1.1a14.16,14.16,0,0,0,.145,3.785,12.915,12.915,0,0,0,1.906,4.814,6.431,6.431,0,0,0,2.873,2.232c.8.314,1.237.307,1.647.039s.789-.8.949-.838.1.406-.2,1.113a13.712,13.712,0,0,1-1.868,2.975c-1.016,1.3-2.5,2.926-3.307,4.233s-.934,2.291-.444,2.807,1.6.562,2.776.083a8.179,8.179,0,0,0,3.456-2.961,23.931,23.931,0,0,0,2.314-4.622c.477-1.2.621-1.66.749-1.61s.237.612-.1,1.721a24.971,24.971,0,0,1-1.808,4.046c-.7,1.283-1.32,2.193-1.23,2.866a1.527,1.527,0,0,0,1.657,1.074,3.685,3.685,0,0,0,2.336-1.42,14.532,14.532,0,0,0,2.486-3.629,17.272,17.272,0,0,0,1.432-4.619c.213-1.391.135-2.441.2-2.614s.283.53.391,1.453a9.013,9.013,0,0,1-.25,3.424,17.687,17.687,0,0,1-1.828,4.169,20.155,20.155,0,0,0-1.686,2.832c-.169.624.263.928,1.019.894a4.728,4.728,0,0,0,2.747-1.2,7.6,7.6,0,0,0,2.092-3.5,15.767,15.767,0,0,0,.583-4.631,17.919,17.919,0,0,0-.417-3.664c-.208-.936-.434-1.548-.248-1.558s.784.58,1.342,1.309a6.244,6.244,0,0,1,1.306,2.966,37.085,37.085,0,0,1,.185,4.792,7.232,7.232,0,0,0,.561,3.385,1.275,1.275,0,0,0,1.735.426,4.188,4.188,0,0,0,1.587-2.17,12.352,12.352,0,0,0,1.046-4.728,28.6,28.6,0,0,0-.766-6.369,28.286,28.286,0,0,0-1.093-3.695,5.721,5.721,0,0,0-1.266-2.166c-.9-1.118-2.6-3.035-4.366-5.11a65.631,65.631,0,0,0-5.264-5.822,15.876,15.876,0,0,0-5.724-3.243,104.188,104.188,0,0,0-10.066-3.056c-4.022-1.03-8.543-2-11.284-2.538a25.107,25.107,0,0,0-4.274-.647,1.54,1.54,0,0,0-1.239.518,13.146,13.146,0,0,0-1.937,2.013,19.4,19.4,0,0,0-1.766,2.994,24.294,24.294,0,0,0-1.236,2.811,13.747,13.747,0,0,0-.511,2.032,9.008,9.008,0,0,0-.146.921c-.019.223-.014.443,2.293,1.23" transform="translate(2.924 3.466)" fill="#fca921" fill-rule="evenodd"/>
    <path id="Path_572" data-name="Path 572" d="M104.657,133.858c2.307.79,6.918,2.147,10.754,3.471s6.9,2.623,8.565,3.32,1.944.8,2.264.33.685-1.5.851-1.774.136.216.074,1.1a14.16,14.16,0,0,0,.145,3.785,12.915,12.915,0,0,0,1.906,4.814,6.431,6.431,0,0,0,2.873,2.232c.8.314,1.237.307,1.647.039s.789-.8.949-.838.1.406-.2,1.113a13.712,13.712,0,0,1-1.868,2.975c-1.016,1.3-2.5,2.926-3.307,4.233s-.934,2.291-.444,2.807,1.6.562,2.776.083a8.179,8.179,0,0,0,3.456-2.961,23.931,23.931,0,0,0,2.314-4.622c.477-1.2.621-1.66.749-1.61s.237.612-.1,1.721a24.971,24.971,0,0,1-1.808,4.046c-.7,1.283-1.32,2.193-1.23,2.866a1.527,1.527,0,0,0,1.657,1.074,3.685,3.685,0,0,0,2.336-1.42,14.532,14.532,0,0,0,2.486-3.629,17.272,17.272,0,0,0,1.432-4.619c.213-1.391.135-2.441.2-2.614s.283.53.391,1.453a9.013,9.013,0,0,1-.25,3.424,17.687,17.687,0,0,1-1.828,4.169,20.155,20.155,0,0,0-1.686,2.832c-.169.624.263.928,1.019.894a4.728,4.728,0,0,0,2.747-1.2,7.6,7.6,0,0,0,2.092-3.5,15.767,15.767,0,0,0,.583-4.631,17.919,17.919,0,0,0-.417-3.664c-.208-.936-.434-1.548-.248-1.558s.784.58,1.342,1.309a6.244,6.244,0,0,1,1.306,2.966,37.085,37.085,0,0,1,.185,4.792,7.232,7.232,0,0,0,.561,3.385,1.275,1.275,0,0,0,1.735.426,4.188,4.188,0,0,0,1.587-2.17A12.352,12.352,0,0,0,153.3,154c-.183.374-.368.735-.56,1.066-1.244,2.135-2.759,2.938-3.466,1.727s-.609-4.433-1.1-6.419a4.868,4.868,0,0,0-2.264-3.207c-.708-.471-1.05-.665-1.093-.075s.214,1.961.172,2.722-.386.911-.815.268-.942-2.08-1.361-1.9-.74,1.982-1.253,3.268-1.222,2.057-1.651,1.971-.578-1.028-.792-1.842-.494-1.5-.962-.685-1.125,3.133-1.993,4.354-1.946,1.347-1.959.371,1.036-3.055,1.55-4.458.493-2.133-.043-2.262-1.586.344-2.615.237-2.036-.793-2.882-2.475a19.167,19.167,0,0,1-1.671-6.183,9.236,9.236,0,0,1,.3-3.118c.032-.332-.311-.033-.89.461a10.679,10.679,0,0,1-2.067,1.489c-.675.311-1.211.245-4.64-.922s-9.75-3.44-13.039-4.811-3.546-1.843-3.406-3.312a12.586,12.586,0,0,1,2.072-5.862,14.263,14.263,0,0,1,3.182-3.009,7.365,7.365,0,0,0-.862-.06,1.54,1.54,0,0,0-1.239.518,13.146,13.146,0,0,0-1.937,2.013,19.4,19.4,0,0,0-1.766,2.994,24.294,24.294,0,0,0-1.236,2.811,13.747,13.747,0,0,0-.511,2.032,9.008,9.008,0,0,0-.146.921c-.019.223-.014.443,2.293,1.23" transform="translate(2.924 3.466)" fill="#fc8320" fill-rule="evenodd"/>
    <path id="Path_573" data-name="Path 573" d="M38.568,141.913a48.013,48.013,0,0,0-2.855,11.627c-.718,5.649-.711,12.128-1.587,17.079S31.491,178.995,31,181.013s.286,2.635,2.442,3.353a29.531,29.531,0,0,0,9.122,1.489,20.022,20.022,0,0,0,4.715-.635,3.9,3.9,0,0,1-.311-.754,4.019,4.019,0,0,1,.357-3.172c.7-1.438,2.222-3.334,3.648-5.936a51.78,51.78,0,0,0,3.721-8.986,46,46,0,0,0,1.794-7.946,8.706,8.706,0,0,0-.148-3.906c-.266-.685-.684-.857-2.137-1.326a44.447,44.447,0,0,1-6.311-2.415,23.993,23.993,0,0,1-6.25-4.45,15.186,15.186,0,0,1-3.074-4.418" transform="translate(0.881 4.053)" fill="#fff" fill-rule="evenodd"/>
    <path id="Path_574" data-name="Path 574" d="M43,135.839a9.789,9.789,0,0,0-3.854,4.462l-.017.034a13.76,13.76,0,0,0,2.921,4.789,27.52,27.52,0,0,0,8.066,5.461,56.852,56.852,0,0,0,6.412,2.16c1.267.469,1.459.976,1.334,2.93a46.6,46.6,0,0,1-1.671,9.276,63.118,63.118,0,0,1-4.488,11.39,45.734,45.734,0,0,1-3.732,5.693c-.683,1.038-.609,1.492-.417,1.894a4.7,4.7,0,0,0,.779,1.061l.036.039a46.3,46.3,0,0,0,5.7-2.259c4.976-2.3,11.6-5.984,18.614-7.817s14.423-1.817,18.214-2.569,3.967-2.27,3.312-5.985a120.817,120.817,0,0,0-3.685-14.379c-1.547-4.756-3.159-8.359-3.994-10.51s-.895-2.849-1.191-3.311-.83-.685-1.874-.948a34.476,34.476,0,0,0-3.753-.708,5.593,5.593,0,0,0-2.278.024c-.38.144-.393.409-.586,1.765s-.57,3.8-.865,5.336-.509,2.154-1.172,2.7a10.221,10.221,0,0,1-3.772,1.576,25.846,25.846,0,0,1-8.164.965,32.874,32.874,0,0,1-9.821-2.279,16.791,16.791,0,0,1-6.273-3.985,12.68,12.68,0,0,1-2.532-4.321,6.8,6.8,0,0,1-.459-1.941,5.1,5.1,0,0,1-.032-.559c0-.166.019-.409-.758.012" transform="translate(1.118 3.873)" fill="#e69aba" fill-rule="evenodd"/>
    <path id="Path_575" data-name="Path 575" d="M38.886,119.416a38.82,38.82,0,0,1,5.211-1.768,35.124,35.124,0,0,1,4.432-1.62A22.151,22.151,0,0,1,53.6,115.8a6.36,6.36,0,0,1,2.1.3c.248.121.215.257-.31.988a42.666,42.666,0,0,0-2.436,3.563c-.886,1.508-1.64,3.2-2.321,4.445a11.677,11.677,0,0,1-1.875,2.641,4.524,4.524,0,0,1-2.011,1.244,12.65,12.65,0,0,1-3.181.55,4.081,4.081,0,0,1-2.368-.488,4.193,4.193,0,0,1-1.455-2.195,44.477,44.477,0,0,1-1.522-4.552c-.37-1.379-.468-2.216.662-2.885" transform="translate(1.085 3.306)" fill="#fff" fill-rule="evenodd"/>
    <path id="Path_576" data-name="Path 576" d="M37.256,118.994a3.756,3.756,0,0,0-1.581-.322,1.547,1.547,0,0,0-1.32.4c-.239.315-.243.844-.042,1.812s.609,2.376.634,2.869-.334.072-.681-.824-.684-2.267-.98-2.828-.554-.31-.759.11a3.5,3.5,0,0,0-.237,2.033,20.938,20.938,0,0,0,1.057,4.042,22.89,22.89,0,0,0,1.979,4.4,3.925,3.925,0,0,0,2.221,1.934,3.048,3.048,0,0,0,2.165-.517,5.475,5.475,0,0,0,1.58-1.2c.155-.272-.244-.291-.706-.656a6.354,6.354,0,0,1-1.651-2.815,60.361,60.361,0,0,1-1.835-5.99c-.36-1.479-.272-1.665-.085-1.864s.47-.407.241-.579" transform="translate(0.921 3.39)" fill="#fff" fill-rule="evenodd"/>
    <path id="Path_577" data-name="Path 577" d="M21.5,125.859a4.574,4.574,0,0,0-2.749.447c-.907.348-1.6.671-2.119.92a6,6,0,0,0-1.219.693,2.841,2.841,0,0,0-.881,1.139,1.871,1.871,0,0,0,.095,1.753,5.3,5.3,0,0,0,2.219,1.724,4.246,4.246,0,0,0,2.612.566c.481-.211.309-.939-.05-1.658a15.65,15.65,0,0,0-1.107-1.733c-.2-.308-.058-.214.261-.031a3.569,3.569,0,0,1,1.984,2.744,1.253,1.253,0,0,1-.354,1.121,1.388,1.388,0,0,1-1.007.338,5.62,5.62,0,0,1-1.728-.261,12.982,12.982,0,0,0-1.471-.523c-.3-.02-.335.249-.332.832a3.015,3.015,0,0,0,.581,2.059,3.811,3.811,0,0,0,2.569.857,4.263,4.263,0,0,0,2.469-.564,1.539,1.539,0,0,0,.709-1.295c-.047-.3-.335-.315-.809-.225s-1.136.276-1.281.259.225-.236.679-.409a4.628,4.628,0,0,1,1.353-.313c.362-.009.551.1.6.37s-.029.7,0,.881.18.122.463.089a1.725,1.725,0,0,1,1.115.211,3.645,3.645,0,0,1,1.058,1.132c.231.382.284.64.7.525a8.014,8.014,0,0,0,1.656-.91l.022-.013h0l.011-.007.044-.029a11.33,11.33,0,0,0,1.045-.747,12.086,12.086,0,0,1,2.279-1.542,40.147,40.147,0,0,1,3.717-1.569c.881-.335.966-.366.663-.976s-.993-1.8-1.523-3.034a34.038,34.038,0,0,1-1.147-3.31,4.283,4.283,0,0,0-.469-1.185c-.1-.131-.19-.12-1.311.186s-3.277.911-4.871,1.22a15.207,15.207,0,0,1-3.442.3c-.4-.007-.746-.022-1.043-.034" transform="translate(0.41 3.545)" fill="#fca921" fill-rule="evenodd"/>
    <path id="Path_578" data-name="Path 578" d="M15.444,131.71a7.367,7.367,0,0,0,1.366.824,4.248,4.248,0,0,0,2.612.566c.482-.211.31-.939-.05-1.658a15.674,15.674,0,0,0-1.106-1.733c-.2-.307-.059-.214.26-.03a3.563,3.563,0,0,1,1.985,2.743,1.256,1.256,0,0,1-.354,1.121,1.39,1.39,0,0,1-1.007.338,5.62,5.62,0,0,1-1.728-.261,13.191,13.191,0,0,0-1.472-.523c-.3-.02-.334.249-.332.832a3.016,3.016,0,0,0,.582,2.059,3.808,3.808,0,0,0,2.568.857,4.263,4.263,0,0,0,2.469-.564,1.536,1.536,0,0,0,.709-1.295c-.046-.3-.334-.314-.808-.225s-1.137.276-1.282.26.226-.236.68-.41a4.63,4.63,0,0,1,1.352-.313c.363-.009.552.1.606.37s-.029.7,0,.881.18.122.463.089a1.725,1.725,0,0,1,1.115.211,3.614,3.614,0,0,1,1.058,1.133c.232.381.284.639.7.524a8.088,8.088,0,0,0,1.657-.909l.022-.014h0l.011-.007.044-.028a11.457,11.457,0,0,0,1.045-.748,12.086,12.086,0,0,1,2.279-1.542,40.156,40.156,0,0,1,3.718-1.569c.88-.334.966-.366.662-.976s-.993-1.8-1.522-3.034a33.49,33.49,0,0,1-1.147-3.31,4.375,4.375,0,0,0-.469-1.185c-.057-.071-.108-.1-.325-.063.245,1.393,1.381,3.662,1.78,5.172.439,1.66-.013,2.4-.829,2.9a31.35,31.35,0,0,1-3.013,1.218,21.274,21.274,0,0,0-2.388,1.425A1.243,1.243,0,0,1,26.24,135a14.654,14.654,0,0,1-1.506-.279c-.375-.117-.429-.267-.638-.471s-.573-.461-.857-.734a2.119,2.119,0,0,1-.626-1.087c-.14-.525-.215-1.286-.392-1.977s-.456-1.312-.584-1.248-.107.814-.134,1.419-.1,1.066-.209,1.072-.247-.445-.551-.89a4.635,4.635,0,0,0-1.361-1.249c-.584-.364-1.281-.653-1.324-.225a14.782,14.782,0,0,0,.756,2.289c.187.712-.048.99-.766.857-.656-.122-1.715-.59-2.6-.767" transform="translate(0.441 3.545)" fill="#fc8320" fill-rule="evenodd"/>
    <path id="Path_579" data-name="Path 579" d="M17.853,137.187a4.8,4.8,0,0,0,1.778.139,7.329,7.329,0,0,0,1.978-.587c.557-.25.93-.494,1.237-.587a.59.59,0,0,1,.664.114c.113.153.1.4-.128.763a3.427,3.427,0,0,1-1.357,1.2,6.522,6.522,0,0,1-2.472.636,2.989,2.989,0,0,1-1.883-.447,3,3,0,0,1-.9-1.1c-.156-.305-.181-.445,0-.434s.578.175,1.077.3" transform="translate(0.475 3.888)" fill="#fc8320" fill-rule="evenodd"/>
    <path id="Path_580" data-name="Path 580" d="M19.292,139.548a9.646,9.646,0,0,0,2.432-.462,5.1,5.1,0,0,0,1.788-1.109c.4-.384.618-.711.77-.794s.242.079.283.339a1.926,1.926,0,0,1-.138,1.042,3.232,3.232,0,0,1-.991,1.294,5.1,5.1,0,0,1-1.735.811,3.857,3.857,0,0,1-1.814.163,2.829,2.829,0,0,1-1.269-.724c-.28-.261-.394-.441-.314-.505a4.973,4.973,0,0,1,.988-.055" transform="translate(0.522 3.918)" fill="#fc8320" fill-rule="evenodd"/>
    <path id="Path_581" data-name="Path 581" d="M92.422,157.683a19.635,19.635,0,0,1-4.942,3.068,32.246,32.246,0,0,1-6.746,1.868c-1.7.287-2.318.249-3.039-.735a18.643,18.643,0,0,1-2.019-4.36,5.744,5.744,0,0,1-.505-2.343c.1.053.449,1.116,1.075,2.222a6.7,6.7,0,0,0,2.722,2.822c1.19.567,2.664.548,4.857-.214a36.356,36.356,0,0,0,6.648-3.278c1.546-1.007,1.73-1.514,1.967-1.465s.529.655.685,1.055.18.6-.7,1.36" transform="translate(2.146 4.432)" fill="#4f1212" fill-rule="evenodd"/>
    <path id="Path_582" data-name="Path 582" d="M188.315,46.111c2.657-5.16,7.263-9.186,11.907-12.525a93.835,93.835,0,0,1,24.221-12.6c7.2-2.344,15.541-3.459,23.018-1.853,6.319,1.36,11.169,4.6,13.174,10.985,1.989,6.334.983,14.827-4.08,19.515-5.187,4.8-14.85,5.429-21.593,6.623A86.775,86.775,0,0,0,214.9,62.13c-2.348,1.064-4.54,2.311-6.786,3.564A26.825,26.825,0,0,1,202,68.438a13.33,13.33,0,0,1-11.368-2.247,12.163,12.163,0,0,1-4.574-8.827,20.112,20.112,0,0,1,2.258-11.252" transform="translate(5.312 0.525)" fill="#4f1212" fill-rule="evenodd"/>
    <path id="Path_583" data-name="Path 583" d="M190.8,47.351c1.793-3.484,4.935-7.125,11.026-11.5a93.208,93.208,0,0,1,23.431-12.2c8.3-2.7,15.857-2.993,21.521-1.775s9.431,3.94,11.029,9.03,1.025,12.542-3.288,16.535-12.371,4.525-20.137,5.9a91.256,91.256,0,0,0-20.749,6.09c-5.5,2.491-9.024,5.252-12.438,6.144a10.443,10.443,0,0,1-8.886-1.743,9.279,9.279,0,0,1-3.461-6.831,17.169,17.169,0,0,1,1.953-9.644" transform="translate(5.392 0.605)" fill="#228dff" fill-rule="evenodd"/>
    <path id="Path_584" data-name="Path 584" d="M237.686,52.538c-1.316.206-2.641.416-3.96.649q-.648.114-1.291.238c.069-.145.148-.3.234-.472.743-1.46,2.1-3.916,3.008-6.091a22.905,22.905,0,0,0,1.564-5.294c.178-1.222.061-1.769-.278-2.205s-.9-.763-1.231-1.255a3,3,0,0,1-.42-1.71c.014-.561.146-1.024-1.245-1.974a24.356,24.356,0,0,0-8.081-3.2,58.832,58.832,0,0,0-11.075-1.017c-2.652-.01-3.31.163-3.306.048a8.013,8.013,0,0,1,2.192-1.275,28.17,28.17,0,0,1,6.134-2.361,11.342,11.342,0,0,1,6.642.537,36.755,36.755,0,0,1,6.586,3.5A17.16,17.16,0,0,0,236.2,32.5c.758.253,1.624.219,2.492.521a4.764,4.764,0,0,1,2.23,1.647,3.057,3.057,0,0,1,.52,2.136,12.884,12.884,0,0,1-.487,1.73c-.136.543-.137,1.1-.436,2.889s-.9,4.825-1.532,7.3a18.563,18.563,0,0,1-1.3,3.807" transform="translate(6.044 0.753)" fill="#fff" fill-rule="evenodd"/>
    <path id="Path_585" data-name="Path 585" d="M190.8,47.351c1.793-3.484,4.935-7.125,11.026-11.5a93.191,93.191,0,0,1,23.431-12.2c8.3-2.7,15.857-2.993,21.521-1.775a15.712,15.712,0,0,1,8,3.917c-2.084-.432-4.1-1.15-6.406-1.572a37.534,37.534,0,0,0-13.424.38,78.072,78.072,0,0,0-16.815,5.3,87.9,87.9,0,0,0-15.278,8.715A54.577,54.577,0,0,0,193.2,47.2a19.724,19.724,0,0,0-4.062,7.031c-.13.392-.251.792-.37,1.2a17.514,17.514,0,0,1,2.032-8.076" transform="translate(5.392 0.605)" fill="#fff" fill-rule="evenodd"/>
    <path id="Path_586" data-name="Path 586" d="M276.188,46.957c-1.2-2.823-2.78-6.327-4.532-11.23s-3.677-11.208-3.677-13,1.926.92,4.816,3.984a66.725,66.725,0,0,0,8.625,7.749c1.882,1.27,1.795.395,1.882-2.714a56.094,56.094,0,0,1,2.146-14.536A84.739,84.739,0,0,1,292.19,1.488c1.62-2.8,1.533-1.576,2.714,3.065s3.635,12.7,5.079,17.119,1.883,5.21,2.365,4.992,1.007-1.445,2.977-4.423a89.729,89.729,0,0,1,7.006-9.369c1.62-1.664,1.445-.262,1.27,3.327s-.351,9.369-.547,12.347-.417,3.153-.854,1.992-1.1-3.657-1.511-4.707-.591-.657-1.992,1.51-4.028,6.108-5.45,7.9-1.643,1.445-2.5-.635-2.342-5.889-3.392-8.975-1.664-5.45-2.037-5.692-.5,1.643.153,5.1,2.1,8.495,2.649,10.727.2,1.664-.7-.262a59.513,59.513,0,0,0-2.889-5.889c-.547-.679-.2,1.248.218,3.436a31.051,31.051,0,0,1,.81,6.13c-.087,1.488-.744,2.014-2.8,4.049s-5.516,5.582-7.749,8.144-3.24,4.137-4.028,4.422-1.358-.723-2.058-2.3-1.533-3.721-2.737-6.546" transform="translate(7.654 0)" fill="#4f1212" fill-rule="evenodd"/>
    <path id="Path_587" data-name="Path 587" d="M275.148,54.661a40.145,40.145,0,0,0-11.581.591c-4.509.941-9.019,2.911-9.676,3.59s2.54.066,5.735-.109,6.393.087,7.049.526-1.226,1.05-3.634,2.429-5.341,3.525-5.122,3.787,3.59-1.358,6.808-2.649a40.678,40.678,0,0,1,8.56-2.584c2.276-.328,3.766-.022,4.773-.438a2.889,2.889,0,0,0,1.6-2.342,1.855,1.855,0,0,0-.831-1.663c-.5-.438-1.117-.876-3.678-1.139" transform="translate(7.249 1.556)" fill="#4f1212" fill-rule="evenodd"/>
    <path id="Path_588" data-name="Path 588" d="M171.044,124.43c6.785-6.918,18.432-19.088,31.83-29.2s28.546-18.169,35.244-21.977,4.948-3.372-1.443-.7a196.439,196.439,0,0,0-27.89,14.143,153.866,153.866,0,0,0-28.328,23.074,139.19,139.19,0,0,0-16.067,19.92c-2.057,3.327-.133,1.665,6.655-5.254" transform="translate(4.673 2.013)" fill="#4f1212" fill-rule="evenodd"/>
    <path id="Path_589" data-name="Path 589" d="M166.742,101.4c5.653-4.6,15.394-12.7,26.094-19.2s22.358-11.378,27.546-13.717,3.9-2.133-.921-.6a150.642,150.642,0,0,0-21.375,8.488,123.909,123.909,0,0,0-22.843,14.961A115.416,115.416,0,0,0,161.4,104.8c-1.874,2.29-.309,1.2,5.344-3.393" transform="translate(4.588 1.906)" fill="#4f1212" fill-rule="evenodd"/>
  </g>
</svg>
