<svg id="_004" data-name="004" xmlns="http://www.w3.org/2000/svg" xmlns:xlink="http://www.w3.org/1999/xlink" width="304.477" height="469.114" viewBox="0 0 304.477 469.114">
  <defs>
    <clipPath id="clip-path">
      <rect id="Rectangle_97" data-name="Rectangle 97" width="304.477" height="469.114" fill="none"/>
    </clipPath>
  </defs>
  <g id="Group_206" data-name="Group 206" clip-path="url(#clip-path)">
    <path id="Path_590" data-name="Path 590" d="M146.98,426.734q-.01.6.016,1.222c.236,5.648,2.745,12.441,4.862,17.7,2.745,6.821,6.183,13.917,5.707,21.463-.561,8.93-6.342,16.341-14.414,19.952-6.141,2.747-15.012,3.737-21.658,3-4.854-.539-9.4-2.969-9.891-8.457a9.341,9.341,0,0,1,1.309-5.529,9.182,9.182,0,0,1,5.833-5.629c2.147-.7,4.369-.451,6.588-.678a26.7,26.7,0,0,0,7.622-1.806,3.769,3.769,0,0,0,2.075-1.741c.518-1.448-.206-4.211-.637-5.586-1.615-5.153-4.109-10.1-5.761-15.341a63.88,63.88,0,0,1-2.978-16.845,77.7,77.7,0,0,0-16.34,4.163c-7.114,2.779-13.632,6.815-20.857,9.547-7.714,2.917-18,5.3-26.148,3.683a20.915,20.915,0,0,1-10.92-5.73,10.93,10.93,0,0,1-1.248-.217,51.136,51.136,0,0,1-10.664-4.042,27.922,27.922,0,0,1-10.5-8.882c-2.414-3.43-4.139-7.477-6.379-11.076-3.25-5.225-7.151-10.248-10.683-15.306s-7.582-11-10-16.678c-2.587-6.074-2.462-10.766-.2-16.907a98.311,98.311,0,0,1,5.647-12.25,9.761,9.761,0,0,1-.738-1.091,9.893,9.893,0,0,1-1.076-6.9,46.271,46.271,0,0,1,3.179-9.665,38.254,38.254,0,0,1,4.916-8.733,12.421,12.421,0,0,1,3.442-2.986,16.712,16.712,0,0,1,2.407-5.051c4.241-6.42,9.875-12.978,14.768-18.913,5.045-6.12,10.156-12.191,15.424-18.121a219.585,219.585,0,0,1,16.94-17.492c7.122-6.407,14.819-11.711,24.076-14.43,3.513-1.032,6.452-1.67,10.106-1a14.383,14.383,0,0,1,7.061,2.909,9.506,9.506,0,0,1,2.445,3.113,9.084,9.084,0,0,1,2.35-.716,9.428,9.428,0,0,1,6.162,1.142c.275.142.541.284.8.429a9.53,9.53,0,0,1,3.8-.415c2.724.236,5.922,1.152,8.741,1.559a71.4,71.4,0,0,0,16.011.573,106.716,106.716,0,0,0,16.87-3.046c1.088-.274,2.178-.578,3.27-.829a10.673,10.673,0,0,1,4.151-.179,8.382,8.382,0,0,1,4.492-1.292,8.8,8.8,0,0,1,2.455-1.375,8.644,8.644,0,0,1,1.582-.411c.556-.486,1.167-.969,1.825-1.463,3.808-2.861,8.616-6.406,13.518-6.509a10.617,10.617,0,0,1,1.827.121,34.5,34.5,0,0,1,2.972-2.641,164.336,164.336,0,0,1,16.06-11.5c5.508-3.413,10.248-5.286,16.694-3.4,5.222,1.527,10.805,5.21,15.3,8.245,6.616,4.472,13.089,9.3,19.281,14.337,7.476,6.085,14.135,12.343,19.153,20.689,4.8,7.985,8.051,17.624,10.285,26.627a85.293,85.293,0,0,1,2.557,15.055,17.036,17.036,0,0,1-.209,4.428c.145.272.3.555.464.855s.342.568.519.842c.392.6.8,1.2,1.194,1.8,1.725,2.662,2.505,5.64,1.056,8.732a16.607,16.607,0,0,1,.828,3.318,18.4,18.4,0,0,1-2.645,12,12.6,12.6,0,0,1-7.745,5.894,151.652,151.652,0,0,1-6.271,13.846,182.847,182.847,0,0,1-15.52,25.675,109.947,109.947,0,0,1-16.73,18.321,23.938,23.938,0,0,1-4.435,3.038,22.918,22.918,0,0,1-10.483,20.889c-7.658,4.984-17.878,5.591-26.743,4.9-9.359-.724-18.682-2.964-27.875-4.8a220.688,220.688,0,0,0-28.419-4.127q-5.227-.349-10.472-.294m-73.5-53.366a14.621,14.621,0,0,1,7.579-5.48,19.039,19.039,0,0,1,6.912-1.1,57,57,0,0,1-.521-9.01q-.186-6.313-.379-12.629c-3.373,3.239-6.758,6.475-10.184,9.654-.862.8-1.705,1.548-2.553,2.211a13.733,13.733,0,0,1,.034,4.476c-.573,3.705-2.031,5.484-4.2,8.243a21.162,21.162,0,0,1-1.764,2.051q-.052.629-.161,1.26c-.029.163-.061.325-.094.485,1.778-.016,3.568-.153,5.332-.165m152.068-22.313c2.838.778,5.7,1.927,8.5,2.708a59.016,59.016,0,0,0,9.346,1.875,62.861,62.861,0,0,0,2.775-8.643c.244-.909.481-1.839.72-2.778a8.548,8.548,0,0,1-1.322-1.314c-2.142-2.646-2.823-7.106-2.707-10.435a16.6,16.6,0,0,1,3.727-10.139c-.285-2.563.1-5.447.06-8.021a8.969,8.969,0,0,0-1.525-5.421,26.141,26.141,0,0,0-8.452-7.722,30.04,30.04,0,0,0-9.223-3.194c-.944,9.687-1.722,19.466-2.073,29.149-.283,7.806-.114,15.388.151,23.177q.014.378.025.758" transform="translate(0 -21.196)" fill="#4f1212" fill-rule="evenodd"/>
    <path id="Path_591" data-name="Path 591" d="M264.631,86.26a13.765,13.765,0,0,1,1.335,1.254c3.658,3.914,4.081,9.4,4.865,14.432,1.287,8.264,2.651,16.681,3.212,25.024a73.918,73.918,0,0,1-.836,18.907,17.867,17.867,0,0,1-2.371,6.352q.326.194.632.409a10.919,10.919,0,0,1,4.475,6.684,11.326,11.326,0,0,1-3.135,10.242q.207.59.366,1.238c1.2,4.9-1.011,9.058-4.031,12.683a106.438,106.438,0,0,1-9.379,9.48,275.118,275.118,0,0,1-40.947,31.716c-18.027,11.269-39.366,21.089-60.438,24.457a116.756,116.756,0,0,1-55.39-4.845,81.132,81.132,0,0,1-18.523-9.083,13.291,13.291,0,0,1-6.055-.764,49.8,49.8,0,0,1-5.5-2.511c-5.371-2.729-10.664-5.656-16-8.461-4.738-2.491-9.548-4.878-14.256-7.415a33.448,33.448,0,0,1-3.642-2.18,10.913,10.913,0,0,1-4.866-10.407,10.525,10.525,0,0,1,.259-1.322l-.042-.042c-3-3.03-6.267-7.334-6.8-11.673a10.71,10.71,0,0,1,1.35-6.727,20.2,20.2,0,0,1-5.071-4.379c-4.474-5.244-8.025-13.606-9.868-20.272a62.116,62.116,0,0,1-2.19-19.834,22.1,22.1,0,0,1,4.829-13.274c.873-1.143,1.795-2.246,2.738-3.333-.016-.484-.026-.96-.038-1.415-.111-4.055-.014-8.062.259-12.11a100.611,100.611,0,0,1,3.791-22.2,110.138,110.138,0,0,1,9.76-22.537c1.868-3.248,4.611-7.557,7.7-10.047.075-2.2.195-4.387.371-6.547.543-6.634,1.88-14.991,5.206-20.848,4.992-8.79,12.975-8.971,21.62-5.872,2.112.757,4.306,1.63,6.525,2.581,1.462-.993,3.053-1.876,4.581-2.741A165.7,165.7,0,0,1,109.869,6.923a146.4,146.4,0,0,1,45.6-6.916,170.978,170.978,0,0,1,36.937,4.7,32.721,32.721,0,0,1,6.475,2.084,34.7,34.7,0,0,1,5.488-3.438C209.55.8,214.794.52,219.877,3.4a21.337,21.337,0,0,1,8.308,9.259,46.939,46.939,0,0,1,5.17,2.482c5.566,2.88,11.138,5.675,16.881,8.19,6.336,2.774,13.381,5.173,19.485,8.257,4.439,2.244,8.09,6.031,7.829,11.411-.238,4.909-3.149,7.617-6.91,10-2.773,1.756-5.547,3.528-8.347,5.244.912,5.9,1.576,11.8,1.943,17.879.2,3.373.327,6.754.4,10.135" transform="translate(-1.097 0)" fill="#4f1212" fill-rule="evenodd"/>
    <path id="Path_592" data-name="Path 592" d="M187.871,96.58a60.6,60.6,0,0,1-15.785,7.159,64.018,64.018,0,0,1-21.468,1.782c-6.159-.617-10.125-2.36-15.714-3.748a85.705,85.705,0,0,0-18.952-2.441,54.246,54.246,0,0,0-16.423,2.516A108.825,108.825,0,0,0,87.161,106.4c-1.849.868-.227.479,3.566-.439s9.761-2.369,15.048-3.2a47.69,47.69,0,0,1,14.672-.368,61.689,61.689,0,0,1,11.526,2.979c1.8.687.466.459-4.082.611a121.33,121.33,0,0,0-22.986,3.088c-10.684,2.407-24.3,6.69-34.258,12.443a70.653,70.653,0,0,0-20.64,18.567c-4.361,5.588-6.766,9.538-7.991,10.789s-1.271-.2-2.028-7.046-2.227-19.088-.046-30.256S47.955,92.3,54.129,84.956,66.822,73.012,75.883,70.136s20.667-4.032,30.729-3.781,18.579,1.908,20.3,1.974-3.35-1.461-9.311-2.523a129.525,129.525,0,0,0-17.911-1.794c-5.1-.137-8.443.186-9.8.191s-.717-.309,3.323-2.337,11.481-5.772,19.641-9.635,17.037-7.85,28.092-9.724,24.287-1.635,34.314.732,16.846,6.865,20.8,9.336,5.047,2.915,7.437,4.351,6.077,3.86,7.174,4.37-.4-.894-2.713-2.632-5.446-3.81-5.65-4.752,2.518-.755,6.79-.191,10.091,1.5,15.525,4.72,10.481,8.708,12.729,19.041,1.7,25.5,2.309,34.774,2.391,12.634,2.677,13.768-.921.037-2.291-1.872a36.63,36.63,0,0,1-4.221-8.067,95.826,95.826,0,0,1-3.874-14.3c-1.443-6.727-3.215-16.039-3.814-16.521s-.024,7.864,1.452,16.307,3.848,16.98,6.412,22.4,5.316,7.717,8.226,9.476a24.437,24.437,0,0,0,9.549,3.462c3.572.485,7.649.237,8.556.862s-1.357,2.119-5.245,5.259-9.4,7.924-15.3,9.335-12.2-.549-17.729-5.442-10.293-12.721-14.136-21.889a205.609,205.609,0,0,1-8.3-25.492c-1.538-5.812-1.689-6.923-1.638-7.555s.3-.784,1.781-2.185a45.794,45.794,0,0,0,4.421-4.585c.24-.53-1.983,1.061-4.58,2.731s-5.568,3.418-7.537,4.659-2.938,1.976-6.2,3.978" transform="translate(-3.643 -3.875)" fill="#c9703e" fill-rule="evenodd"/>
    <path id="Path_593" data-name="Path 593" d="M188.465,96.58a60.6,60.6,0,0,1-15.785,7.159,64.022,64.022,0,0,1-21.469,1.782c-6.158-.618-10.124-2.36-15.714-3.748a85.69,85.69,0,0,0-18.951-2.441,54.246,54.246,0,0,0-16.423,2.516A109.145,109.145,0,0,0,87.754,106.4c-1.849.869-.227.48,3.567-.439s9.761-2.369,15.048-3.2a47.69,47.69,0,0,1,14.672-.368,61.689,61.689,0,0,1,11.526,2.979c1.8.687.466.459-4.082.611a121.337,121.337,0,0,0-22.987,3.088c-10.683,2.407-24.294,6.69-34.258,12.443A70.659,70.659,0,0,0,50.6,140.077c-2.357,3.02-4.142,5.562-5.479,7.458a63.311,63.311,0,0,1,9.267-15.705c6.13-7.549,14.747-14.2,20.071-18.093s7.357-5.009,7.811-5.411-.665-.088-3.363.946a101.778,101.778,0,0,0-10.211,4.5c-3.24,1.716-5.447,3.4-4.519,2.346a78.639,78.639,0,0,1,9.738-8.283A99.47,99.47,0,0,1,90.468,98.29c6.375-2.977,13.7-5.815,23.119-6.148s20.947,1.839,31.334,2.54,19.633-.07,26.849-3.433,12.4-9.317,15.658-13.381,4.589-6.235,3.923-5.745-3.328,3.643-6.025,6.2a29.242,29.242,0,0,1-8.688,5.92,38,38,0,0,1-12.155,2.662,91.327,91.327,0,0,1-17.41-.281c-5.85-.7-11.1-2.1-11.139-2.417s5.148.455,13.275-.456,19.2-3.5,26.973-8.3,12.26-11.805,10.3-17.269-10.368-9.388-19.792-11.568a89.181,89.181,0,0,0-29.425-1.529A98.73,98.73,0,0,0,123.872,47.6a85.537,85.537,0,0,1,17.673-5.1c11.055-1.874,24.287-1.635,34.313.732s16.847,6.865,20.8,9.336,5.046,2.916,7.436,4.35,6.077,3.861,7.174,4.371-.4-.894-2.713-2.632-5.447-3.81-5.65-4.752,2.518-.755,6.79-.191,10.091,1.5,15.525,4.72,10.481,8.708,12.728,19.041,1.7,25.5,2.31,34.774,2.391,12.634,2.677,13.768-.921.037-2.291-1.872a36.609,36.609,0,0,1-4.221-8.067,95.916,95.916,0,0,1-3.874-14.3c-1.442-6.727-3.215-16.039-3.813-16.521s-.024,7.864,1.452,16.307,3.848,16.98,6.412,22.4,5.317,7.717,8.227,9.476a24.437,24.437,0,0,0,9.549,3.462c3.572.485,7.648.237,8.556.862a.417.417,0,0,1,.141.575,36.015,36.015,0,0,1-14.8,1.487c-5.645-.59-11.53-2.481-15.944-10.083s-7.357-20.912-9.318-29.213-2.942-11.6-3.257-9.879.035,8.443,1.1,14.853a91.977,91.977,0,0,0,4.112,15.843c1.257,3.337,1.983,3.917,2.754,4.617a6.126,6.126,0,0,1,2.045,3.228c.459,1.707.564,4.3,1.125,6.453a9.75,9.75,0,0,0,3.556,5.465c1.979,1.594,4.922,3.065,4.729,3.538s-3.52-.053-6.446-1.384-5.447-3.468-7.776-4.2a5.8,5.8,0,0,0-5.692,1.068,4.723,4.723,0,0,0-.339.35,77.485,77.485,0,0,1-8.408-15.453q-.329-.783-.648-1.578c1.372-.191,2.943-.192,4.085-.272,1.771-.124,2.507-.439,2.157-2.137s-1.786-4.782-3.415-10.492-3.45-14.046-4.483-17.987-1.278-3.486-4.414-.946c-.815.66-1.825,1.461-2.966,2.354a7.152,7.152,0,0,1-.256-1.989c.051-.632.3-.784,1.78-2.185a45.722,45.722,0,0,0,4.422-4.585c.24-.53-1.983,1.061-4.58,2.731s-5.568,3.418-7.537,4.658-2.938,1.977-6.2,3.979M60.616,78.9a43.281,43.281,0,0,1,15.86-8.763c9.062-2.877,20.667-4.032,30.729-3.781a136.175,136.175,0,0,1,14.267,1.183c1.866.323,3.621.692,5.283,1.1,4.729,1.156,8.7,2.619,9.275,3.141s-2.268.1-8.643-.354a220.5,220.5,0,0,0-26.6-.4A173.829,173.829,0,0,0,72.5,74.837,55.93,55.93,0,0,0,60.616,78.9" transform="translate(-4.237 -3.875)" fill="#b04932" fill-rule="evenodd"/>
    <path id="Path_594" data-name="Path 594" d="M55.007,74.873A220.507,220.507,0,0,1,55.217,51.6c.647-7.912,2.188-13.646,3.934-16.72s3.7-3.488,9.539-1.394A162.887,162.887,0,0,1,90.871,44c6.6,3.819,10.075,6.856,11.669,8.468s1.311,1.8-.563,2.785-5.337,2.772-7.292,3.55-2.4.547-5.522-1.36-8.912-5.493-13.012-7.473-6.507-2.358-7.826-1.893-1.549,1.771-1.548,5.653.233,10.338.242,13.674-.207,3.551-1.7,4.756-4.266,3.4-6.121,5.044-2.8,2.743-3.333,3.064-.67-.13-.86-5.4" transform="translate(-5.146 -3.022)" fill="#fca921" fill-rule="evenodd"/>
    <path id="Path_595" data-name="Path 595" d="M203.883,38.286A139.062,139.062,0,0,1,215.7,22.645c4.443-4.95,8.255-7.787,10.993-9.137s4.4-1.213,6.144-.225,3.57,2.832,5.814,8.39a175.074,175.074,0,0,1,6.578,21.975,114.092,114.092,0,0,1,2.549,14.256c.2,2.116-.094,1.346-1.269.032a24.474,24.474,0,0,0-5.429-4.455,57.95,57.95,0,0,0-5.648-2.556c-1.116-.558-1.015-.962-1.431-4a102.447,102.447,0,0,0-2.379-12.271c-1.033-3.555-2.167-4.987-3.179-5.256s-1.9.625-4.147,3.209-5.849,6.858-7.889,9.74a31.011,31.011,0,0,0-2.9,5.013c-.381.641-.661.43-1.769-.227s-3.042-1.765-4.712-2.644-3.074-1.531-4.016-1.954-1.419-.617.879-4.246" transform="translate(-18.99 -1.176)" fill="#fca921" fill-rule="evenodd"/>
    <path id="Path_596" data-name="Path 596" d="M198.78,24.34c-2.377,2.844-5.209,6.279-6.977,8.546-2.466,3.163-2.86,4.051-3.5,4.332s-1.524-.048-6.182-.912A126.014,126.014,0,0,0,161.034,34a75.478,75.478,0,0,0-23.817,3.879,220.685,220.685,0,0,0-21.93,8.656c-4.727,2.114-5.233,2.417-5.732,2.356s-1-.485-3.98-2.353-8.459-5.181-12.231-7.31c-.742-.419-1.417-.791-2.031-1.124q1.785-.845,3.7-1.693A188.814,188.814,0,0,1,152.9,21.586,154.566,154.566,0,0,1,198.78,24.34" transform="translate(-8.575 -1.972)" fill="#c51a1b" fill-rule="evenodd"/>
    <path id="Path_597" data-name="Path 597" d="M91.009,30.63A156.418,156.418,0,0,1,119.9,17.484a137.4,137.4,0,0,1,42.418-6.431,166.428,166.428,0,0,1,34.73,4.434c6.628,1.572,6.2,2,3.716,4.934l-.513.607a48.934,48.934,0,0,0-5.557-1.367,169.581,169.581,0,0,0-29.231-3.093A168.36,168.36,0,0,0,130.2,20.035,194.164,194.164,0,0,0,100.695,28.8c-5.277,1.978-10.3,4.011-14.631,5.769-.823-.591-.424-.9,4.945-3.942" transform="translate(-8.051 -1.037)" fill="#e183b2" fill-rule="evenodd"/>
    <path id="Path_598" data-name="Path 598" d="M271.609,92.856c-3.15-.517-6.547-1.1-9.147-1.709-.4-.094-.786-.189-1.152-.283-.135-2.349-.292-4.61-.494-6.7a74.123,74.123,0,0,0-3.109-15.949,28.782,28.782,0,0,0-2.5-5.72c-.5-.937-.6-1.358-.912-4.555a128.28,128.28,0,0,0-2.06-14.774c-.047-.216-.1-.429-.144-.644a64.953,64.953,0,0,1,7.686,10.4,80.473,80.473,0,0,1,7.993,20.785c1.827,7.157,3.149,14.652,3.843,19.145" transform="translate(-23.673 -3.993)" fill="#c51a1b" fill-rule="evenodd"/>
    <path id="Path_599" data-name="Path 599" d="M250.779,26.3c3.613,1.869,10.15,5.265,17.466,8.469s15.409,6.216,18.984,8.023,2.629,2.407.078,4.024-6.71,4.248-8.95,5.61-2.564,1.452-3.489-.261-2.45-5.229-3-6.012-.142,1.167.915,6.553A187.773,187.773,0,0,1,276.269,79c.247,4.1.383,8.571.43,13.065l-.3-.053c-.755-.13-1.6-.268-2.493-.414a183.686,183.686,0,0,0-3.715-21.851A73.955,73.955,0,0,0,261.294,47.7a90.873,90.873,0,0,0-11.825-14.262c-.756-2.316-1.493-4.3-2.031-5.717-1.1-2.89-1.371-3.43-1.163-3.528s.894.246,4.506,2.115" transform="translate(-23.121 -2.27)" fill="#e183b2" fill-rule="evenodd"/>
    <path id="Path_600" data-name="Path 600" d="M205.7,127.795c.21-.381-.123-1.294-.981-3.543-1.166-3.057-3.3-8.583-4.735-13.13s-2.159-8.117-2.587-9.746-.555-1.317-2.629.177a92.422,92.422,0,0,1-10.214,6.324,59.358,59.358,0,0,1-12.738,4.932,62.729,62.729,0,0,1-13.6,1.951c-4.546.148-9-.214-13.178-.472s-8.063-.412-12.307-.263a141.328,141.328,0,0,0-14.247,1.346,175.768,175.768,0,0,0-18.02,3.349,104.18,104.18,0,0,0-19.521,6.761,100.569,100.569,0,0,0-17.635,10.646,59.889,59.889,0,0,0-9.266,8.844c-1.919,2.212-3.025,3.556-3.059,4.086a.254.254,0,0,0,.022.132,5.112,5.112,0,0,0-.51,1.454,3.38,3.38,0,0,0,.1,1.82,10.087,10.087,0,0,1,1,2.921c.405,1.979.828,5.522,1.373,8.35s1.211,4.943,1.755,7.922a43.662,43.662,0,0,1,.806,9.1c-.159,2.28-.9,2.994-2.145,3.589a21.071,21.071,0,0,1-4.214,1.329,14.412,14.412,0,0,1-2.233.328,1.282,1.282,0,0,0-.176.018c-1.053.031-1.848.028-2.137.347-.44.488.315,1.732,1.949,3.377a29.417,29.417,0,0,0,5.841,4.586c1.7.9,2.579.646.806,1.081s-6.2,1.558-9.055,1.981-4.134.147-4,1.233,1.681,3.536,3.974,5.849a42.784,42.784,0,0,0,7.261,5.676c1.929,1.19,2.75,1.394,1.522,1.81s-4.5,1.041-5.686,1.694-.275,1.332,2.835,3.007,8.423,4.349,14.166,7.368,11.916,6.385,15.875,8.4,5.7,2.668,5.969,2.131-.955-2.27-1.82-3.517-1.376-2.012,1.838.5a72.878,72.878,0,0,0,22.855,12.718,106.9,106.9,0,0,0,50.516,4.413c19.35-3.092,39.584-12.354,56.712-23.061a269.308,269.308,0,0,0,39.443-30.563c8.3-7.7,10.866-10.949,10.5-12.446s-3.671-1.242-6.347-1.228-4.725-.208-3.392-1.541,6.046-3.777,9.009-5.632,4.174-3.127,3-3.947-4.723-1.189-9.535-2.532-10.88-3.659-14.825-4.707-5.766-.828-8.547-1.471a30.371,30.371,0,0,1-9.791-4.4c-.5-.345-.993-.708-1.469-1.081a3.115,3.115,0,0,0-.366-.331,31.558,31.558,0,0,1-2.517-2.292,36.664,36.664,0,0,1-5.391-7.042c-2.746-4.316-6.721-11.34-8.8-15.482-.651-1.3-1.115-2.313-1.459-3.124" transform="translate(-3.771 -9.418)" fill="#fca921" fill-rule="evenodd"/>
    <path id="Path_601" data-name="Path 601" d="M53.361,163.847c.256,1.684.532,3.576.849,5.226.473,2.455,1.037,4.374,1.534,6.787l.012-.125a9.659,9.659,0,0,1,1.386-5.03,19.12,19.12,0,0,1,4.938-4.518c1.161-.741.968-.338.915,1.142a41.564,41.564,0,0,0,.14,4.764c.105.727.227-.377,1.077-1.909a17.27,17.27,0,0,1,4.037-4.755,10.8,10.8,0,0,1,4.046-2c.788-.175.719.035.411,1.918a39.062,39.062,0,0,0-.622,8.538,15.911,15.911,0,0,0,2.768,7.987,14.718,14.718,0,0,0,6.515,5.315,24.107,24.107,0,0,0,10.045,1.725,19.19,19.19,0,0,0,9.152-2.565A26.248,26.248,0,0,0,106,181.385c1.251-1.331,2.041-1.875,2.916-1.83s1.839.674.989,2.707-3.514,5.467-8.023,7.972a31.041,31.041,0,0,1-17.636,3.43c-6.769-.65-13.95-3.522-16.84-4.047s-1.489,1.3.28,3.03a19.131,19.131,0,0,0,7.128,4.553,46.457,46.457,0,0,0,11.893,2.189,56.545,56.545,0,0,0,13.1-.455,43.841,43.841,0,0,0,12.908-4.221c4.344-2.189,8.793-5.237,11.612-8.81s4.011-7.671,4.98-9.92,1.714-2.648,2.521-2.648,1.67.4,1.84.021-.356-1.534-1.406-3a14.6,14.6,0,0,0-6.323-4.974c-3.7-1.717-9.511-3.363-11.49-3.469s-.122,1.331,1.068,3.065a6.538,6.538,0,0,1,1.278,5.185c-.438,1.419-1.839,2.224-4.921,1.646a33.985,33.985,0,0,1-11.473-5.044c-3.625-2.5-6.112-5.553-8.453-7.3s-4.534-2.2-9.683-2.305-13.254.136-18.883,1.307c-5.321,1.107-8.43,3.047-10.026,5.387" transform="translate(-5.011 -14.756)" fill="#fc8320" fill-rule="evenodd"/>
    <path id="Path_602" data-name="Path 602" d="M207.03,127.795c.209-.381-.123-1.294-.981-3.543-1.166-3.057-3.3-8.583-4.735-13.13s-2.159-8.117-2.587-9.746-.555-1.317-2.629.177a92.422,92.422,0,0,1-10.214,6.324,59.406,59.406,0,0,1-12.738,4.932,62.729,62.729,0,0,1-13.6,1.951c-4.546.148-9-.214-13.178-.472s-8.063-.413-12.306-.263a141.319,141.319,0,0,0-14.248,1.346A175.709,175.709,0,0,0,101.8,118.72a104.105,104.105,0,0,0-19.522,6.762A100.513,100.513,0,0,0,64.64,136.127a59.932,59.932,0,0,0-9.266,8.844q-.579.667-1.057,1.229c2.562-2.014,6.218-5.427,11.432-9.055A107.943,107.943,0,0,1,86.4,126.077a114.2,114.2,0,0,1,27.061-7.425c9.212-1.244,18.075-.929,27.41-.648s19.144.525,26.745-.456a66.937,66.937,0,0,0,16.34-4.449c3.345-1.261,4.642-1.577,6.551,1.574s4.431,9.765,5.587,13.408.945,4.314-2.312,5.192-9.563,1.964-18.6,4.767a238.585,238.585,0,0,0-28.566,11.033c-7.759,3.713-11.507,6.621-12.663,9.423s.28,5.5,1.786,7.777,3.083,4.133,3.43,4.059-.536-2.079-.8-4.076a9.2,9.2,0,0,1,1.184-5.891c1.089-1.906,2.911-3.727,6.9-5.968a94.525,94.525,0,0,1,13.8-6.113c3.643-1.209,4.764-.963,4.1,1.088a26.683,26.683,0,0,1-5.852,8.634,35.873,35.873,0,0,1-6.82,4.99c-1.012.671.022.423,1.353.212s2.96-.387,4.28.776,2.33,3.663,5.132,5.765a24.15,24.15,0,0,0,11.8,4.149,22.343,22.343,0,0,0,12.07-2.494,16.038,16.038,0,0,0,7.742-8.215c1.541-3.766,1.892-8.669,1.944-11.647s-.193-4.028.526-3.591a10.272,10.272,0,0,1,3.257,5.553,23.984,23.984,0,0,1-.1,11.46c-1,3.824-3.025,7.022-7.526,9.876a39.3,39.3,0,0,1-19.9,5.535c-8.427.17-18.3-2-22-2.142s-1.209,1.751,3.678,3.608a65.435,65.435,0,0,0,19.055,3.976,63.1,63.1,0,0,0,19-2.435c5.64-1.507,10.439-3.293,14.152-7.023s6.34-9.405,7.847-12.961,1.891-4.992,3.5-4.641,4.449,2.486,8.915,4.816,10.561,4.851,15.1,8.425,7.514,8.2,8.233,11.944-.823,6.621-.788,7.392,1.646-.561,2.855-1.77,2.014-2.294,2.189-1.733-.28,2.767-2.5,7.005c-1.5,2.855-3.8,6.632-5.985,10.3,4.512-3.777,8.373-7.242,11.447-10.095,8.3-7.7,10.866-10.948,10.5-12.445s-3.671-1.243-6.347-1.229-4.725-.208-3.392-1.541,6.046-3.777,9.009-5.632,4.174-3.127,3-3.947-4.723-1.19-9.535-2.532-10.88-3.659-14.825-4.707-5.766-.828-8.547-1.471a30.384,30.384,0,0,1-9.792-4.4c-.5-.345-.992-.708-1.468-1.081a3.052,3.052,0,0,0-.367-.331,31.739,31.739,0,0,1-2.516-2.292,36.7,36.7,0,0,1-5.391-7.042c-2.746-4.316-6.721-11.34-8.8-15.483-.651-1.3-1.115-2.312-1.459-3.123" transform="translate(-5.101 -9.418)" fill="#fc8320" fill-rule="evenodd"/>
    <path id="Path_603" data-name="Path 603" d="M64.213,231.66l1.883.986c5.743,3.019,11.916,6.385,15.875,8.4s5.706,2.668,5.969,2.13-.955-2.27-1.82-3.517-1.376-2.012,1.838.5a72.874,72.874,0,0,0,22.855,12.719,106.9,106.9,0,0,0,50.516,4.412c19.35-3.092,39.584-12.353,56.712-23.06,6.051-3.783,11.714-7.746,16.874-11.631a39.084,39.084,0,0,0,3.046-7.1,30.119,30.119,0,0,0-.221-16.625c-1.189-4.34-2.656-7.047-3.044-6.865s.3,3.249.415,6.715a39.234,39.234,0,0,1-.6,8.254c-.256.926-.31-1.084-1.335-3.6a14.686,14.686,0,0,0-6.46-7.408c-3.442-1.876-8.332-2.608-16.386-1.586s-19.27,3.8-28.055,5.781-15.138,3.178-19.775,3.433-7.561-.426-9.5-1.761-2.9-3.327-6.034-4.472-8.444-1.441-14.313-.486-12.295,3.16-16.283,5.632-5.542,5.209-8.407,6.914-7.042,2.379-13.055,1.129c-9.88-2.053-17-7.035-27.067-2a8.41,8.41,0,0,0-4.867,6.142c-.368,2.419.533,4.969.719,6.087s-.341.806-1.207-.31-2.071-3.038-2.441-2.934.1,2.234,1.112,5.63a73.436,73.436,0,0,0,3.056,8.5" transform="translate(-5.627 -18.029)" fill="#fff" fill-rule="evenodd"/>
    <path id="Path_604" data-name="Path 604" d="M31.542,137.877c-1.622,1.837-4.224,4.656-5.94,6.9s-2.543,3.922-2.8,7.843a52.515,52.515,0,0,0,1.848,16.524c1.779,6.434,5.013,13.135,7.834,16.443s5.233,3.223,6.619,3.242,1.749.143,1.194-3.465-2.024-10.947-3.183-18.487-2.005-15.279-2.4-20.737-.336-8.635-.627-9.8-.93-.306-2.551,1.53" transform="translate(-2.135 -12.754)" fill="#c51a1b" fill-rule="evenodd"/>
    <path id="Path_605" data-name="Path 605" d="M264.887,99.2c2.456.3,7.39,1.334,10.831,2.077s5.389,1.2,6.488,2.371,1.343,3.069,2.288,9.14,2.589,16.317,3.116,24.156a63.678,63.678,0,0,1-.664,16.264c-.6,2.992-1.213,3.542-3.208,4.778s-5.371,3.157-7.341,4.064-2.532.8-4.549.275-5.487-1.467-6.925-1.986-.84-.615.825-1.385,4.4-2.214,6.4-3.4,3.261-2.114,3.947-2.532.793-.325,1.78.064a17.174,17.174,0,0,0,4.221,1.187,2.769,2.769,0,0,0,2.854-1.353,7.02,7.02,0,0,0,.935-2.74c-.044-.236-.492.806-1.008,1.626a2.482,2.482,0,0,1-2.359,1.4,11.836,11.836,0,0,1-4.034-1.062c-.838-.414-.576-.61.665-1.662a52.071,52.071,0,0,0,4.816-4.5,7.437,7.437,0,0,0,1.945-3.36c.1-.65-.186-.779-1.646-.943s-4.094-.366-6.595-.82a43.7,43.7,0,0,1-6.643-1.8,15.51,15.51,0,0,1-3.524-1.606c-.574-.421-.541-.711-1.076-2.923a99.923,99.923,0,0,1-2.373-12.108c-.736-5.761-1.1-13.148-1.306-17.2s-.236-4.765-.263-5.335-.05-1,2.407-.695" transform="translate(-24.648 -9.307)" fill="#c51a1b" fill-rule="evenodd"/>
    <path id="Path_606" data-name="Path 606" d="M137.3,217.734c.323,2.569.466,7.039-.894,10.315a9.777,9.777,0,0,1-7.9,5.92,19.8,19.8,0,0,1-11.311-2.051,15.043,15.043,0,0,1-5.96-5.811c-1.1-1.829-1.552-3.154-1.814-2.957s-.331,1.914.2,3.913a12.624,12.624,0,0,0,3.692,6.111,20.234,20.234,0,0,0,8.119,4.084,21.837,21.837,0,0,0,9.491.656,18.526,18.526,0,0,0,6.867-3.021c1.482-1.02,1.991-1.613,2.767-1.346s1.819,1.4,4.187,2.4a26.084,26.084,0,0,0,9.734,1.845,27.357,27.357,0,0,0,10.082-2.134,16.215,16.215,0,0,0,6.3-4.512,19.539,19.539,0,0,0,3.813-6.412c.6-1.984.287-3.471.014-3.752s-.5.643-1.23,2.008a12.373,12.373,0,0,1-2.432,3.41c-.485.238-.235-1.09-.829-2.932a12.051,12.051,0,0,0-3.85-5.545,7.812,7.812,0,0,0-5.847-1.388A6.029,6.029,0,0,0,156,219.72a37.436,37.436,0,0,0-2.684,7.331c-.7,2.32-1.285,3.926-2.434,4.694a5.648,5.648,0,0,1-4.461.267c-1.595-.431-3.065-1.224-3.831-4.64s-.827-9.453-1.25-12.5-1.21-3.118-2.166-2.793a4.419,4.419,0,0,0-2.4,1.733c-.312.69.192,1.356.516,3.925" transform="translate(-10.256 -19.903)" fill="#4f1212" fill-rule="evenodd"/>
    <path id="Path_607" data-name="Path 607" d="M157.873,233.442a23.579,23.579,0,0,0,2.62-5.224,36.742,36.742,0,0,1,2.568-6.064,3.84,3.84,0,0,1,3.408-1.848,5.512,5.512,0,0,1,4.007,1.354,9.314,9.314,0,0,1,2.226,4.4,4.982,4.982,0,0,1-.209,3.5,6.429,6.429,0,0,1-2.522,2.572,12.215,12.215,0,0,1-3.16,1.3c-.583.12-.324-.126-.056-.9a13.087,13.087,0,0,0,.6-3.5,7.139,7.139,0,0,0-.258-2.862c-.145.073-.268,1.745-.642,3.272a12.051,12.051,0,0,1-1.575,3.746,3.254,3.254,0,0,1-2.081,1.419,17.377,17.377,0,0,1-3.664.647,5.718,5.718,0,0,1-2.626-.264c-.2-.2.532-.457,1.366-1.553" transform="translate(-14.694 -20.688)" fill="#e69aba" fill-rule="evenodd"/>
    <path id="Path_608" data-name="Path 608" d="M134.421,205.137a73.047,73.047,0,0,1,9.9-1.239c3.286-.152,5.924.1,7.386.767s1.745,1.753.956,3.6a19.943,19.943,0,0,1-4.681,6.25,12.852,12.852,0,0,1-6.23,3.122,8.153,8.153,0,0,1-6.089-1.269,22.4,22.4,0,0,1-6.1-5.624c-1.2-1.8-.93-2.924-.086-3.744s2.263-1.333,4.942-1.866" transform="translate(-12.091 -19.144)" fill="#4f1212" fill-rule="evenodd"/>
    <path id="Path_609" data-name="Path 609" d="M42.324,171.174a86.9,86.9,0,0,1-.786-9.339c.018-2.491.531-3.207,4.51-4.639,21.234-7.645,50.842-6.881,72.686.562,3.143,1.071,5.462,1.556,8.1.562,18.376-6.918,26.359-19.337,63.87-23.745a150.215,150.215,0,0,1,21.046-.177c3.415.391,13.774-1.288,15.6.153s1.174,6.533,1.725,7.909-6.032,1.276-7.456,1.945a14.409,14.409,0,0,0-5.41,3.56c-1.652,1.983-2.623,5.039-3.773,8.973a97.555,97.555,0,0,1-4.508,13.2c-2.03,4.454-4.762,8.549-9.047,11.448-14.058,9.511-54.412,13.293-66.562-8.68-1.606-2.9-3.133-3.062-4.194-2.765s-2.065,1.3-2.748,3.74c-6.782,24.262-50.06,30.794-67.468,11.226-4.031-4.53-6.821-8.6-8.747-10.562s-2.99-1.8-3.87-1.284-1.578,1.4-2.017,1.394-.62-.9-.949-3.487m12.747-5.98c.547-1.359,1.744-2.884,4.468-4.028,9.134-3.833,49.585-2.6,57.016,4.249,6,5.537-.865,18.572-15.8,24.351-16.263,6.291-38.39,1.306-44.774-16.884a26.936,26.936,0,0,1-1.123-3.941,6.294,6.294,0,0,1,.217-3.747m149.483-20.4c-1.048-1.127-2.8-1.989-5.79-2.533-19.5-3.547-57.346,12.017-61.443,20.129a9.094,9.094,0,0,0-.942,6.393c5.315,21.315,48.759,13.727,57.057,9.567a22.506,22.506,0,0,0,10.979-11.836,32.93,32.93,0,0,0,2.118-8.092,31.757,31.757,0,0,0,.176-6.122,26.142,26.142,0,0,0-.484-4.035,6.772,6.772,0,0,0-1.67-3.47" transform="translate(-3.901 -12.579)" fill="#4f1212" fill-rule="evenodd"/>
    <path id="Path_610" data-name="Path 610" d="M158.156,169.231a17.325,17.325,0,0,0,9.6-1.987c3.925-2.1,8.636-6.318,13.046-10.059s8.52-7,12.124-8.613a15.134,15.134,0,0,1,8.991-1.179,14.924,14.924,0,0,1,4.733,1.67c.965.512,1.414.773,1.287.468a14.623,14.623,0,0,0-1.749-2.207,12.249,12.249,0,0,0-3.44-2.926c-1.4-.709-3.083-.944-3.56-1.222s.254-.6,1.556-.933a18.966,18.966,0,0,0,3.575-.989c.4-.323-.68-.635-2.282-1.018a16.276,16.276,0,0,0-5.981-.535,14.943,14.943,0,0,0-6.815,2.991,66.786,66.786,0,0,0-4.934,4.531c-.831.7-.552-.11-.033-1.252s1.28-2.621.9-2.523-1.893,1.774-3.759,4.117-4.084,5.352-6.221,7.994a49.924,49.924,0,0,1-6.5,6.856A24.99,24.99,0,0,1,161,167c-2.862,1.021-6.045,1.444-6.672,1.726s1.3.421,3.834.5" transform="translate(-14.481 -13.11)" fill="#4f1212" fill-rule="evenodd"/>
    <path id="Path_611" data-name="Path 611" d="M167.026,166.516a6.774,6.774,0,0,0,1.054,3.518,15.276,15.276,0,0,0,3.166,4.35,20.37,20.37,0,0,0,6.371,4.043,15.49,15.49,0,0,0,8.788.872,28.926,28.926,0,0,0,10.2-4.272,14.229,14.229,0,0,0,5.516-6.569,15.978,15.978,0,0,0,.964-8.763,26.891,26.891,0,0,0-3.606-9.1,14.652,14.652,0,0,0-4.332-4.82c-1.232-.744-2.14-.649-5.631,2.067s-9.567,8.052-13.459,11.291a67.038,67.038,0,0,1-6.854,5.2c-1.249.815-2.032,1.306-2.175,2.185" transform="translate(-15.683 -13.652)" fill="#4f1212" fill-rule="evenodd"/>
    <path id="Path_612" data-name="Path 612" d="M170.993,169.072a24.887,24.887,0,0,0,2.409,3.451,12.979,12.979,0,0,0,3.9,3.074,14.813,14.813,0,0,0,4.931,1.4c5.213.62,15.029-2.577,17.1-7.9a16.445,16.445,0,0,0,.958-7.2,18.081,18.081,0,0,0-2.2-6.843c-3.11-5.553-7.5-4.67-12.619-1.384a34.894,34.894,0,0,0-6.091,5.431c-1.846,1.985-3.361,3.835-4.492,5.113a16.274,16.274,0,0,1-2.465,2.4,5.787,5.787,0,0,1-1.336.695c-.344.15-.623.323-.684.522s.093.428.589,1.24" transform="translate(-16.001 -14.184)" fill="#fff" fill-rule="evenodd"/>
    <path id="Path_613" data-name="Path 613" d="M190.513,149.541c-.643.353-1.3.747-1.963,1.173a42.139,42.139,0,0,0-7.352,6.555c-2.1,2.262-3.849,4.378-5.188,5.906.734,7.016,6.039,12.27,12.022,11.811,6.106-.469,10.606-6.712,10.05-13.945-.413-5.376-3.5-9.784-7.569-11.5" transform="translate(-16.529 -14.043)" fill="#4f1212" fill-rule="evenodd"/>
    <path id="Path_614" data-name="Path 614" d="M193.775,153.96a4.631,4.631,0,1,0,4.973,4.262,4.631,4.631,0,0,0-4.973-4.262" transform="translate(-17.795 -14.457)" fill="#fff" fill-rule="evenodd"/>
    <path id="Path_615" data-name="Path 615" d="M187.364,165.474a2.033,2.033,0,1,0,2.183,1.872,2.034,2.034,0,0,0-2.183-1.872" transform="translate(-17.419 -15.539)" fill="#fff" fill-rule="evenodd"/>
    <path id="Path_616" data-name="Path 616" d="M114.178,175.862a15.637,15.637,0,0,1-8.842-.449c-3.792-1.329-8.578-4.446-13.03-7.176s-8.569-5.072-12.008-6.014a13.676,13.676,0,0,0-8.186.188,13.477,13.477,0,0,0-3.992,2.144c-.79.589-1.156.885-1.084.6a13.164,13.164,0,0,1,1.256-2.211,11.069,11.069,0,0,1,2.667-3.085c1.153-.827,2.621-1.268,3.007-1.582s-.309-.5-1.517-.618a17.232,17.232,0,0,1-3.326-.389c-.4-.234.519-.661,1.895-1.223a14.7,14.7,0,0,1,5.264-1.3,13.477,13.477,0,0,1,6.493,1.729,60.474,60.474,0,0,1,5.029,3.363c.837.508.478-.174-.144-1.122s-1.5-2.163-1.153-2.127a19.748,19.748,0,0,1,3.923,3.154c1.989,1.834,4.383,4.213,6.654,6.276a45.068,45.068,0,0,0,6.742,5.222,22.556,22.556,0,0,0,7.509,3.027c2.7.516,5.594.455,6.193.62s-1.1.555-3.352.979" transform="translate(-6.295 -14.531)" fill="#4f1212" fill-rule="evenodd"/>
    <path id="Path_617" data-name="Path 617" d="M107.586,174.439a6.121,6.121,0,0,1-.455,3.285,13.83,13.83,0,0,1-2.225,4.318,18.4,18.4,0,0,1-5.128,4.487,13.978,13.978,0,0,1-7.722,1.99,26.117,26.117,0,0,1-9.69-2.4,12.844,12.844,0,0,1-5.828-5.1,14.431,14.431,0,0,1-2.07-7.686,24.3,24.3,0,0,1,1.964-8.615,13.232,13.232,0,0,1,3.2-4.9c1-.835,1.82-.874,5.311,1.067s9.647,5.866,13.569,8.218a60.584,60.584,0,0,0,6.833,3.691c1.226.555,1.993.884,2.242,1.649" transform="translate(-6.993 -14.956)" fill="#4f1212" fill-rule="evenodd"/>
    <path id="Path_618" data-name="Path 618" d="M104.918,177.19a22.437,22.437,0,0,1-1.674,3.412,11.734,11.734,0,0,1-3.057,3.282,13.357,13.357,0,0,1-4.207,1.927c-4.566,1.272-13.767-.226-16.349-4.691a14.849,14.849,0,0,1-1.848-6.292A16.323,16.323,0,0,1,78.8,168.42c2.009-5.385,6.049-5.2,11.071-2.976a31.494,31.494,0,0,1,6.184,4.006c1.921,1.517,3.527,2.958,4.715,3.942a14.676,14.676,0,0,0,2.529,1.8,5.263,5.263,0,0,0,1.288.436c.328.086.6.2.682.372s-.024.394-.354,1.188" transform="translate(-7.302 -15.399)" fill="#fff" fill-rule="evenodd"/>
    <path id="Path_619" data-name="Path 619" d="M89.921,163.018q.934.34,1.913.777a37.989,37.989,0,0,1,7.465,4.835c2.188,1.728,4.039,3.375,5.445,4.554.313,6.362-3.7,11.783-9.1,12.2-5.514.423-10.39-4.527-10.892-11.058-.372-4.854,1.776-9.213,5.168-11.306" transform="translate(-7.955 -15.309)" fill="#4f1212" fill-rule="evenodd"/>
    <path id="Path_620" data-name="Path 620" d="M87.539,167.272a4.182,4.182,0,1,1-3.849,4.49,4.182,4.182,0,0,1,3.849-4.49" transform="translate(-7.858 -15.707)" fill="#fff" fill-rule="evenodd"/>
    <path id="Path_621" data-name="Path 621" d="M96.46,176.622a1.836,1.836,0,1,1-1.69,1.972,1.836,1.836,0,0,1,1.69-1.972" transform="translate(-8.899 -16.586)" fill="#fff" fill-rule="evenodd"/>
    <path id="Path_622" data-name="Path 622" d="M34.171,122.23a64.8,64.8,0,0,1,3.884-16.135c2.6-6.518,6.909-13.3,9.148-16.917s2.4-4.086,2.315-7.227S49.081,73,48.9,69.713s-.185-4.039-1.247-3.31-3.179,2.944-6.132,8.081a106.849,106.849,0,0,0-9.044,20.875A93.2,93.2,0,0,0,29,115.833c-.371,5.492-.3,9.173-.244,11.364a19.157,19.157,0,0,0,.2,3.2c.087.308.207.223,1.036-.445s2.37-1.919,3.137-2.6.758-.776.725-1.05a18.579,18.579,0,0,1,.316-4.077" transform="translate(-2.696 -6.212)" fill="#c51a1b" fill-rule="evenodd"/>
    <path id="Path_623" data-name="Path 623" d="M135.57,271.18a29.018,29.018,0,0,0,5.9,7.983,34.573,34.573,0,0,0,11.021,6.225,22.117,22.117,0,0,0,9.965,1.507,16.979,16.979,0,0,0,9.348-4.172,56.545,56.545,0,0,0,8.868-9.928,19.811,19.811,0,0,0,3.106-5.585c.19-.774-.21-.523-4.1.456a120.922,120.922,0,0,1-18.173,3.264,80.407,80.407,0,0,1-17.848-.628c-4.519-.652-7.13-1.405-8.283-1.506s-.854.452.2,2.385" transform="translate(-12.643 -25.05)" fill="#fff" fill-rule="evenodd"/>
    <path id="Path_624" data-name="Path 624" d="M129.989,270.91c1.293,2.033,2.925,5.7,5.535,8.924a29.879,29.879,0,0,0,9.827,7.782,49.593,49.593,0,0,0,8.874,3c1.581.477,1.079.678-.792,1.356A23.483,23.483,0,0,0,145.828,296a27.339,27.339,0,0,0-5.2,7.091c-.941,1.657-1.067,1.732-1.732,1.519s-1.87-.715-4.3-3.64a45.407,45.407,0,0,1-8.058-14.434,46.147,46.147,0,0,1-1.883-16.354c.326-3.213,1.23-2.661,2.159-2.184a6.691,6.691,0,0,1,3.175,2.912" transform="translate(-11.695 -25.133)" fill="#fff" fill-rule="evenodd"/>
    <path id="Path_625" data-name="Path 625" d="M166.912,291.167a26.312,26.312,0,0,0,8.12-3.226,34.247,34.247,0,0,0,8.585-8.346,81.437,81.437,0,0,0,6.063-9.74,45.1,45.1,0,0,1,2.347-4.166c.376-.452.527-.151,1.042,1.217a16.193,16.193,0,0,1,.916,8.171,60.722,60.722,0,0,1-4.632,15.953,65.674,65.674,0,0,1-6.664,11.66c-1.531,2.108-1.782,2.059-2.586,1.33a43.883,43.883,0,0,0-4.569-3.891c-2.409-1.757-5.873-3.865-8.12-5.3s-3.276-2.184-3.338-2.623.84-.564,2.836-1.041" transform="translate(-15.408 -24.932)" fill="#fff" fill-rule="evenodd"/>
    <path id="Path_626" data-name="Path 626" d="M120.74,279.059c-.113,5.008-.113,14.848.163,22.68s.828,13.656,2.033,18,3.063,7.2,7.2,9.413,10.568,3.766,20.408,4.117a261.156,261.156,0,0,0,31.052-1.306c7.957-.8,10.619-1.556,12.249-2.761s2.234-2.862,2.636-10.217.6-20.408.352-30.4a163.452,163.452,0,0,0-1.581-20.759c-.628-3.841-1.18-4.594-1.732-4.393s-1.1,1.355-1.317,2.213a8.612,8.612,0,0,0,.088,3.126,30.729,30.729,0,0,1-.39,9.049,67.611,67.611,0,0,1-5.158,16.036,72.064,72.064,0,0,1-7.756,12.576c-1.883,2.435-2.335,2.586-2.611,2.31a14.747,14.747,0,0,0-1.895-2.661,61.424,61.424,0,0,0-7.455-6.626,71.228,71.228,0,0,0-7.594-5.046c-1.531-.854-1.531-.652-1.556,1.682s-.075,6.8-.038,9.928a46.629,46.629,0,0,1,.025,5.209c-.139.3-.54-.879-.967-3.678s-.878-7.217-1.117-9.877-.264-3.565-.552-3.966-.841-.3-2.335.288a18.661,18.661,0,0,0-6.025,3.652,29.642,29.642,0,0,0-4.882,6.7,33.108,33.108,0,0,1-1.682,3.012c-.352.4-.753.427-1.845-.125a16.34,16.34,0,0,1-5.059-4.268,46.977,46.977,0,0,1-6.627-10.894,69.237,69.237,0,0,1-3.74-12.049c-.753-3.288-1.129-5.372-1.355-6.226s-.3-.477-.452-.2-.377.451-.489,5.459" transform="translate(-11.332 -24.736)" fill="#fff" fill-rule="evenodd"/>
    <path id="Path_627" data-name="Path 627" d="M30.351,339.037c.068.126.14.254.213.386,1,1.807,2.31,4.367,3.591,6.3s2.534,3.238,2.007,2.938a29.856,29.856,0,0,1-5.07-4.82c-2.234-2.611-4.393-5.924-5.975-7.38s-2.584-1.055-3.764.4a31.6,31.6,0,0,0-3.766,6.827,42.6,42.6,0,0,0-2.636,7.832c-.3,1.757.2,2.059,3.313,2.535a67.57,67.57,0,0,1,14.76,3.389,55.452,55.452,0,0,1,16.342,9.991c4.293,3.866,6.752,7.732,8.66,9.162s3.263.427,3.614-1.581-.3-5.021-3.238-8.736-8.158-8.133-9.94-9.866-.125-.777,2.083.652a42.58,42.58,0,0,1,7.28,5.7c2.309,2.36,4.166,5.171,5.221,6.175s1.306.2,2.134-.853,2.234-2.359,2.561-4.469-.427-5.02-4.971-8.66-12.877-8.008-16.09-9.891-1.3-1.28,1.733,0,7.2,3.238,10.743,5.147,6.451,3.765,8.183,4.518,2.284.4,5.423-2.51,8.861-8.384,12.726-12.1,5.874-5.674,6.878-8.66,1-7,1.156-11.472.451-9.388.877-8.584.979,7.329,1.456,17.6.878,24.273,1.1,31.9.276,8.887.979,9.188,2.058-.352,3.84-2.033,3.991-4.393,4.493-11.322-.7-18.073-2.259-28.892-3.465-21.312-4.469-30.174-1.1-16.09.151-20.96a20.632,20.632,0,0,1,.643-2.044c.438-.8.776-1.634,1.2-2.615.091-.215.188-.436.286-.661a9.109,9.109,0,0,0,.912-2.079c.531-1.216,1.04-2.42,1.365-3.363.577-1.674.577-2.528-.1-3.106a7.8,7.8,0,0,0-3.264-1.1c-1.23-.227-2.334-.377-6.35.8s-10.946,3.69-20.937,12.676-23.044,24.45-31.528,34.742-12.4,15.413-14.258,18.224-1.657,3.313-.233,5.85c.73,1.3,1.78,3.134,2.917,5" transform="translate(-1.397 -24.565)" fill="#fff" fill-rule="evenodd"/>
    <path id="Path_628" data-name="Path 628" d="M108.952,371.517a54.9,54.9,0,0,0,4.945-4.474c1.706-1.958,3.162-4.569,3.69-9.287s.126-11.547-1.154-21.186-3.44-22.091-4.82-30.424-1.983-12.551-1.814-17.885a109.275,109.275,0,0,1,1.814-15.406,12.765,12.765,0,0,1,1.161-3.97c.469-1.389,1.065-2.928,1.446-3.835a4.318,4.318,0,0,1,.726-1.375c.158-.157.308-.219,1.269.044a34.822,34.822,0,0,1,3.64,1.249c.91.4.96.6.759,1.381s-.652,2.152-1.08,3.532-.829,2.771-1.087,3.9a17.4,17.4,0,0,0-.418,2.632,2.317,2.317,0,0,1-.138.867c-.123,1.228-.229,2.631-.3,4.22-.207,4.851-.057,11.428.294,17.628s.9,12.024,1.595,16.442a46.381,46.381,0,0,0,2.4,9.69c.879,2.259,1.808,3.765,6.087,5.384a82.575,82.575,0,0,0,20.246,4.054,151.564,151.564,0,0,0,25.1-.3,131.909,131.909,0,0,0,18.036-2.649c3.878-.941,5.208-1.795,5.71-4.92s.176-8.522.164-15.237.288-14.748.138-21.977-.753-13.656-1.23-18.187-.829-7.166-.879-8.573.2-1.581,2.422-3.25,6.414-4.833,8.811-4.883,3,3.012,3.477,8.158a221.493,221.493,0,0,1,.728,22.391c-.1,10.016-.652,22.818-1.154,31.755s-.954,14.006-.8,18.45.9,8.259,3.439,12.124,6.853,7.782,8.736,10.292,1.33,3.614-1.055,3.539c-1.137-.035-2.693-.34-5.3-.536-.367.019-.893,0-1.584-.011a37.174,37.174,0,0,0-8.175.67,33.347,33.347,0,0,0-11.618,4.541c-3.662,2.417-6.624,5.831-9.536,8.265s-5.774,3.891-13.882,5.447-21.462,3.213-31.252,4.142-16.015,1.13-20.584.352a20.179,20.179,0,0,1-9.313-3.966c-1.832-1.431-2.586-2.535-2.35-3.951a5.549,5.549,0,0,1,.559-1.562c-.063-.085-.032-.2.019-.344a8.1,8.1,0,0,1,2.108-2.961" transform="translate(-9.975 -23.92)" fill="#e69aba" fill-rule="evenodd"/>
    <path id="Path_629" data-name="Path 629" d="M114.882,263.763c.028-.034.054-.063.08-.089.157-.157.308-.219,1.268.044a34.882,34.882,0,0,1,3.64,1.249c.911.4.96.6.759,1.38s-.652,2.153-1.079,3.533-.829,2.771-1.088,3.9a17.381,17.381,0,0,0-.417,2.631,2.316,2.316,0,0,1-.138.868c-.123,1.228-.23,2.631-.3,4.22-.208,4.851-.057,11.428.294,17.628s.9,12.024,1.594,16.442a46.344,46.344,0,0,0,2.4,9.689c.879,2.26,1.808,3.766,6.087,5.385a68.488,68.488,0,0,0,12.136,3.032q-.65-.05-1.269-.1c-9.774-.841-14.046-2.1-16.428-3.327s-2.872-2.417-3.993-8.582a247.83,247.83,0,0,1-3.44-26.836,204.9,204.9,0,0,1,.26-22.744c.169-4.244.075-6.792-.367-8.32M169.458,334.7c1.319-.089,2.612-.189,3.872-.3a131.864,131.864,0,0,0,18.036-2.649c3.877-.941,5.208-1.795,5.71-4.92s.176-8.522.164-15.237.289-14.748.139-21.977-.754-13.656-1.23-18.187-.829-7.166-.878-8.573.2-1.581,2.421-3.25,6.413-4.833,8.811-4.883,3,3.012,3.477,8.158a221.187,221.187,0,0,1,.728,22.39c-.1,10.016-.651,22.818-1.153,31.755s-.955,14.007-.8,18.45.9,8.259,3.439,12.124,6.855,7.782,8.737,10.292,1.33,3.614-1.054,3.539c-1.137-.035-2.694-.34-5.3-.537-.366.019-.893,0-1.584-.01a37.222,37.222,0,0,0-8.175.669A33.348,33.348,0,0,0,193.2,366.1c-3.663,2.416-6.625,5.83-9.536,8.264s-5.775,3.891-13.882,5.447-21.463,3.213-31.252,4.142-16.015,1.13-20.584.352a20.179,20.179,0,0,1-9.313-3.966,6.208,6.208,0,0,1-2.248-2.6,38.8,38.8,0,0,0,7.666,3.152c6.187,1.742,15.332,2.4,26.819.888s25.315-5.207,33.736-8.909,11.432-7.415,11.992-9.027-1.331-1.121-4.519-.56-7.672,1.191-6.061.105,9.318-3.889,14.608-6.586,8.161-5.29,9.353-9.6a28.679,28.679,0,0,0-.071-13c-.769-2.662-1.82-1.962-5.323-1.226s-9.458,1.507-20.073,1.682c-1.591.026-3.286.039-5.051.039" transform="translate(-9.99 -23.92)" fill="#e183b2" fill-rule="evenodd"/>
    <path id="Path_630" data-name="Path 630" d="M63.3,418.364a26.481,26.481,0,0,0-6.152,10.544A21.2,21.2,0,0,0,58.6,442.427c1.858,4.356,4.845,8.3,10.606,9.439s14.3-.515,21.7-3.314,13.672-6.741,20.774-9.516a95.231,95.231,0,0,1,23.719-5.384q1.35-.156,2.722-.293a36.172,36.172,0,0,1,2.225-6.95,7.009,7.009,0,0,1,4.1-3.878,5.127,5.127,0,0,1,3.915.2c.954.527,1.381,1.431,1.093,3.314-.28,1.822-1.23,4.562-1.655,6.648a148.062,148.062,0,0,1,15.509.206,231.536,231.536,0,0,1,29.47,4.267c9.538,1.908,18.475,4.017,26.909,4.669s16.367-.15,21.688-3.614,8.033-9.589,6.326-17.145c-1.681-7.438-7.643-16.263-11.348-21.349-.084.059-.169.12-.253.18a30.248,30.248,0,0,1-8.113,4.809,83.19,83.19,0,0,1-19.481,4.439c-7.279.883-15.681,1.221-25.65,1.564a24.481,24.481,0,0,0-4.331,2.632,60.031,60.031,0,0,0-4.869,4.337,6.093,6.093,0,0,1-4.038,2.119,39.371,39.371,0,0,1-6.685.348c-.846-.1,1.14-.394,2.931-.642a12.743,12.743,0,0,0,4.8-1.266,25.026,25.026,0,0,0,4.14-3.7c1.462-1.408,3.165-2.805,4.318-3.709l-.488.017c-11.848.4-25.806.9-40.063,1.983-7.462.565-15.006,1.288-22.091,2.014.219.125.462.269.737.433,1.255.753,3.151,1.948,4.8,3.186a25.069,25.069,0,0,0,4.563,3.159,12.764,12.764,0,0,0,4.92.665c1.808.025,3.816.075,2.987.276a39.4,39.4,0,0,1-6.677.477,6.088,6.088,0,0,1-4.268-1.607,60.245,60.245,0,0,0-5.366-3.706,24.482,24.482,0,0,0-4.976-2.193c-.337-.1-.635-.188-.9-.256-4.9.514-9.5,1.013-13.631,1.443-11.083,1.155-18.689,1.808-23.371,1.808s-6.439-.652-7.443-1.418a3.749,3.749,0,0,1-1.048-1.215c-.758.16-1.748.584-3.507,2.456M204.04,395.438c3-.119,5.63,1.231,5.944,3.1.326,1.978-2.05,3.795-5.356,3.962-3.346.169-6.082-1.419-6.08-3.449,0-1.916,2.487-3.494,5.492-3.613m-7.834-4.079c-.056,1.564-2.562,3.061-5.616,3.177-3.083.114-5.312-1.184-4.974-2.83.321-1.552,2.856-2.825,5.667-2.906,2.781-.08,4.979.995,4.923,2.559m-52.2,29.051a25.158,25.158,0,0,1,4.7.521,4.464,4.464,0,0,1,2.817,2.554,21.221,21.221,0,0,0,.917,2.335c.213.1.439-.854.332-1.934a5.826,5.826,0,0,0-1.286-3.138,4.469,4.469,0,0,0-3.144-1.468,12.627,12.627,0,0,0-4.029.446c-.985.282-1.274.571-.307.683m90.387-23.3c-2.359-3.037-3.383-3.807-4.389-3.971-1.23-.2-2.436.5-5.1,1.28a34.3,34.3,0,0,1-10.443,1.456,17.2,17.2,0,0,1-9.012-2.912c-2.134-1.531-3.188-3.389-2.711-5.548l.022-.091c-2.377-.081-4.235-1.053-4.241-2.244,0-1.23,2-2.233,4.434-2.281a8.566,8.566,0,0,1,2.315.258,21.593,21.593,0,0,1,2.29-2.218c2.335-1.958,5-3.414,5.447-4.519s-1.3-1.857-5.045-1.832a36.182,36.182,0,0,0-13.606,2.761c-4.142,1.933-6.7,5-8.911,7.706s-4.067,5.07-7.857,6.8-9.514,2.836-21.01,4.392-28.768,3.565-38.557,3.816-12.1-1.255-14.409-3.54-4.619-5.346-7.18-6.677a9.36,9.36,0,0,0-7.379-.226c-2.009.7-3.213,1.707-3.515,2.359s.3.954,1.23,2.033a12.43,12.43,0,0,1,1.37,1.942,6.107,6.107,0,0,1,1.954-.639c1.936-.29,3.539.411,3.55,1.577q.015,1.544.035,3.145l5.3-.782c2.043-.3,3.807.468,3.914,1.729.11,1.291-1.541,2.621-3.662,2.928l-5.509.8q.016,1.755.037,3.575c.015,1.424-1.781,2.87-3.985,3.184s-3.942-.622-3.873-2.056l.052-1.074a21.983,21.983,0,0,1-6.343,4.446,37.2,37.2,0,0,1-8.987,2.66q-.295.053-.553.1a11.8,11.8,0,0,0,3.706.671,115.829,115.829,0,0,0,17.195-.766c8.485-.828,19.981-2.334,30.273-3.489s19.379-1.958,28.968-2.51,19.68-.854,28.918-1.205,17.622-.753,24.8-1.506a92.562,92.562,0,0,0,17.948-3.376,46.506,46.506,0,0,0,10.43-4.719c1.008-.632,1.62-1.1,2.078-1.44" transform="translate(-5.316 -35.167)" fill="#c6c6c6" fill-rule="evenodd"/>
    <path id="Path_631" data-name="Path 631" d="M80.852,451.512a62.119,62.119,0,0,0,10.471-2.961c7.4-2.8,13.673-6.74,20.774-9.515q.514-.2,1.033-.393l-.166-.222a4.872,4.872,0,0,1-1.082-4.589,10.264,10.264,0,0,1,6.091-6.311c3.468-1.366,8.371-1.261,12.208-1.139a51.4,51.4,0,0,1,7.969.6c1.365.333,1.331.858,1.138,2.54-.049.425-.107.924-.14,1.451a26.409,26.409,0,0,1,1.615-4.559,7.017,7.017,0,0,1,4.1-3.878,5.126,5.126,0,0,1,3.915.2c.954.526,1.381,1.431,1.093,3.313-.28,1.823-1.23,4.562-1.655,6.648q1.812-.069,3.652-.1a7.857,7.857,0,0,0,1.111-1.87,18.879,18.879,0,0,0,1.366-5.92c.122-1.839-.088-3.24.14-3.363s.893,1.033,1.3,2.557.543,3.415.719,3.625.384-1.261.735-2.4a3.024,3.024,0,0,1,2.575-2.364,36.146,36.146,0,0,1,8.634-.281,133.194,133.194,0,0,1,14.064,1.366c5.272.806,10.947,2.031,14.835,4.361s5.99,5.762,8.793,8.564a20,20,0,0,0,5.305,3.875c2.947.485,5.833.867,8.663,1.086,8.434.652,16.366-.151,21.688-3.615s8.033-9.589,6.325-17.144c-1.681-7.439-7.642-16.263-11.348-21.35-.084.06-.169.12-.253.181a30.221,30.221,0,0,1-8.113,4.808,83.19,83.19,0,0,1-19.481,4.439c-7.279.883-15.681,1.222-25.65,1.564a24.624,24.624,0,0,0-4.331,2.632,60.379,60.379,0,0,0-4.869,4.337,6.087,6.087,0,0,1-4.038,2.119,39.266,39.266,0,0,1-6.684.348c-.847-.1,1.14-.394,2.93-.642a12.73,12.73,0,0,0,4.8-1.265,25.076,25.076,0,0,0,4.14-3.7c1.462-1.407,3.165-2.8,4.318-3.708l-.488.016c-11.848.4-25.8.9-40.063,1.983-7.462.564-15.006,1.288-22.091,2.014.219.125.462.268.737.432,1.255.753,3.151,1.949,4.8,3.187A25.09,25.09,0,0,0,127,421.635a12.732,12.732,0,0,0,4.92.665c1.808.025,3.816.076,2.987.276a39.29,39.29,0,0,1-6.677.478,6.093,6.093,0,0,1-4.268-1.607,60.121,60.121,0,0,0-5.366-3.7,24.431,24.431,0,0,0-4.976-2.193c-.337-.1-.635-.188-.9-.257-4.9.514-9.5,1.014-13.631,1.443-11.082,1.154-18.689,1.808-23.371,1.808s-6.439-.653-7.443-1.419a3.747,3.747,0,0,1-1.048-1.214,5.983,5.983,0,0,0-2.987,1.922c-.674,2.109-1.655,4.384-2.283,6.835a29.938,29.938,0,0,0-.543,11.49,18.064,18.064,0,0,0,3.923,9.44,17.714,17.714,0,0,0,8.915,5.062,23.551,23.551,0,0,0,6.6.854M208.87,374.487a8.039,8.039,0,0,1-1.419,3.352,20.7,20.7,0,0,1-3.8,4.356c-.289.242-.561.449-.818.629.178-.015.359-.024.543-.027a8.6,8.6,0,0,1,2.315.259,21.614,21.614,0,0,1,2.291-2.219c2.334-1.958,5-3.413,5.447-4.518.431-1.056-1.155-1.79-4.562-1.831m-9.641,11.371a1.277,1.277,0,0,0,.431,1.3c.4.377,1.016.64,1.348.981s.385.761.762,1.742a17.717,17.717,0,0,0,1.769,3.486c.692.963,1.375,1.348,1.139,1.681a1.882,1.882,0,0,1-.723.424c.168-.016.335-.028.506-.034,3-.119,5.63,1.23,5.944,3.1.27,1.641-1.319,3.17-3.757,3.74a12.815,12.815,0,0,0,4.038-.224c2.479-.578,4.475-2.084,6.025-2.855a4.646,4.646,0,0,1,3.731-.464c1.077.342,2.128,1.06.555,2.3s-5.77,3-13.012,4.126-17.529,1.631-26.7,2.039-17.229.723-25.846,1.179-17.795,1.051-27.691,1.927-20.509,2.031-27.287,2.714a113.794,113.794,0,0,1-11.683.859c-1.962-.035-2.942-.315-3.134-.613s.4-.613,1.646-.7,3.134.053,4.393-.639a3.688,3.688,0,0,0,1.6-1.94,5.777,5.777,0,0,1-3.073,1.39c-2.2.314-3.942-.622-3.873-2.056l.052-1.074a21.949,21.949,0,0,1-6.343,4.446,37.2,37.2,0,0,1-8.987,2.66c-.2.036-.381.068-.553.1a11.832,11.832,0,0,0,3.706.671,116.087,116.087,0,0,0,17.195-.766c8.485-.828,19.981-2.335,30.273-3.489s19.379-1.958,28.968-2.51,19.68-.854,28.918-1.205,17.622-.753,24.8-1.506a92.642,92.642,0,0,0,17.949-3.376,46.5,46.5,0,0,0,10.43-4.72c1.008-.632,1.619-1.1,2.077-1.44-2.359-3.037-3.382-3.806-4.389-3.971-1.23-.2-2.435.5-5.1,1.28a34.274,34.274,0,0,1-10.443,1.456,17.189,17.189,0,0,1-9.011-2.912c-2.134-1.531-3.189-3.389-2.712-5.547l.022-.091a5.356,5.356,0,0,1-3.957-1.464M102.679,402.4a5.42,5.42,0,0,0,.809-.29c1.365-.631,1.611-1.716,1-2.662a6.607,6.607,0,0,0-3.4-2.155c-1.313-.4-2.469-.4-3.293-1.086a4.265,4.265,0,0,1-1.278-3.2A2.821,2.821,0,0,1,98,390.461a9.18,9.18,0,0,0-1.145-.714,9.36,9.36,0,0,0-7.379-.226c-2.008.7-3.213,1.706-3.515,2.359s.3.954,1.23,2.033a12.429,12.429,0,0,1,1.371,1.942,6.072,6.072,0,0,1,1.954-.639c1.936-.29,3.539.411,3.55,1.576.01,1.03.024,2.079.035,3.145l5.3-.781c2.043-.3,3.807.468,3.914,1.728a1.986,1.986,0,0,1-.642,1.511m41.749,18.013a25.08,25.08,0,0,1,4.7.521,4.461,4.461,0,0,1,2.817,2.554,21.247,21.247,0,0,0,.917,2.334c.213.1.439-.854.333-1.933a5.834,5.834,0,0,0-1.287-3.138,4.466,4.466,0,0,0-3.144-1.469,12.683,12.683,0,0,0-4.029.446c-.985.283-1.274.572-.307.684" transform="translate(-5.738 -35.167)" fill="#9d9c9c" fill-rule="evenodd"/>
    <path id="Path_632" data-name="Path 632" d="M223.79,387.061a18.643,18.643,0,0,0,7.844,2.447,22.017,22.017,0,0,0,9.113-1.568c2.786-1.042,5.171-2.372,7.38-2.837a12.266,12.266,0,0,1,6,.439c1.757.5,3.238,1.1,3.075,1.381s-1.971.226-3.577.326a13.843,13.843,0,0,0-3.69.627c-.678.276-.628.577.7,2.31s3.941,4.895,6.326,8.208a76.373,76.373,0,0,1,5.924,9.514c1.38,2.736,1.983,4.744,2.786,5.849s1.807,1.3,5.372-1.683a105.49,105.49,0,0,0,15.413-16.919,181.607,181.607,0,0,0,14.81-24.525,129.073,129.073,0,0,0,7.2-16.592c1.23-3.639,1.481-5.4-.527-6.778s-6.275-2.385-11.22-2.56a59.607,59.607,0,0,0-13.831,1.23c-3.264.753-4.167,1.607-5.1,4.017s-1.883,6.375-2.937,10.317a64.345,64.345,0,0,1-3.753,11.045,30.926,30.926,0,0,1-4.292,6.564c-.816.916-.515.289-.176-.527a5.318,5.318,0,0,0,.6-2.158c-.113-.339-.716-.013-3.3-.251a71.831,71.831,0,0,1-11.234-2.185c-4.079-1.142-7.668-2.623-10.053-3.074s-3.565.125-5.485,1.506-4.582,3.565-7.142,5.485-5.021,3.577-6.363,4.819a3.889,3.889,0,0,0-1.607,2.9c-.038.829.112,1.657,1.732,2.674" transform="translate(-20.852 -32.367)" fill="#fca921" fill-rule="evenodd"/>
    <path id="Path_633" data-name="Path 633" d="M225.666,387.872a19.244,19.244,0,0,0,6.307,1.636,22,22,0,0,0,9.113-1.568c2.786-1.042,5.171-2.372,7.38-2.837a12.271,12.271,0,0,1,6,.439c1.756.5,3.237,1.1,3.074,1.381s-1.971.226-3.577.326a13.851,13.851,0,0,0-3.69.627c-.678.276-.628.578.7,2.31s3.941,4.895,6.326,8.208a76.373,76.373,0,0,1,5.924,9.514c1.381,2.736,1.983,4.744,2.786,5.849s1.808,1.3,5.372-1.683A105.407,105.407,0,0,0,286.8,395.156a181.569,181.569,0,0,0,14.81-24.525,129.129,129.129,0,0,0,7.2-16.591c1.23-3.64,1.481-5.4-.526-6.778s-6.276-2.384-11.221-2.56c-.633-.023-1.278-.032-1.928-.028,1.082.269,2.114.537,3.014.809,5.347,1.617,6.006,3.386,4.688,8.509a109.535,109.535,0,0,1-9.163,22.06,141.16,141.16,0,0,1-14.835,22.208c-4.466,5.307-7.583,7.479-9.685,7.409s-3.188-2.382-3.993-4.957-1.331-5.412-1.034-7.04,1.419-2.05,1.244-2.348-1.646-.472-2.277-1.155-.42-1.874,1.191-4.694a101.968,101.968,0,0,0,7.022-13.027,81.271,81.271,0,0,0,3.7-11.467,61.1,61.1,0,0,1-3.56,10.329,30.888,30.888,0,0,1-4.292,6.564c-.815.916-.515.289-.176-.527a5.3,5.3,0,0,0,.6-2.158c-.113-.339-.716-.013-3.3-.251a71.724,71.724,0,0,1-11.234-2.185c-.76-.213-1.5-.438-2.225-.665,1,.678,2.264,1.518,3.411,2.44,2.7,2.172,4.729,4.8,5.009,5.973s-1.191.893-4.588,1.156a77.6,77.6,0,0,0-13.408,2.363c-4.685,1.295-8.733,3.079-11.763,3.674a12.165,12.165,0,0,1-3.816.178" transform="translate(-21.192 -32.367)" fill="#fc8320" fill-rule="evenodd"/>
    <path id="Path_634" data-name="Path 634" d="M275.59,336.328a24.685,24.685,0,0,1,11.1-3.991,52.877,52.877,0,0,1,16.191.577c4.343.929,6.4,2.436,7.581,4.293s1.481,4.067,2.233,4.719,1.958-.251,2.987-1.933a10.364,10.364,0,0,0,1.531-6.627,11.078,11.078,0,0,0-4.619-7.054,33.249,33.249,0,0,0-9.161-4.493c-2.586-.828-3.892-.878-3.264-.979a29.982,29.982,0,0,1,5.648-.025,17.763,17.763,0,0,1,6.979,2.008c2.159,1.181,4.116,2.938,4.242,2.712s-1.582-2.436-2.485-4.067-1-2.686-2.761-3.865-5.171-2.485-6.225-3.138.25-.652,1.907-.226,3.665,1.28,4.744,1.405,1.23-.477,1.079-2.887a75.514,75.514,0,0,0-2.335-13.606c-1.732-6.979-4.744-16.718-9.363-24.4s-10.844-13.3-17.321-18.576-13.2-10.192-18.7-13.907-9.765-6.225-13.028-7.179-5.523-.352-10.141,2.51a185.4,185.4,0,0,0-15.238,10.92c-3.64,2.937-3.941,3.69-3.84,6.877s.6,8.812.828,17.145.176,19.379-.251,30.173-1.23,21.337-.979,28.466,1.557,10.844,3.74,14.359a44.214,44.214,0,0,0,7.33,8.71c2.083,1.883,3.188,2.335,3.79,2.259s.7-.678.552-5.095-.552-12.652-.15-23.747,1.606-25.053,2.762-36.122,2.259-19.254,3.087-24.073,1.381-6.276,1.557-4.519-.025,6.728-.15,11.949-.176,10.694,0,13.229.577,2.134,3.389,2.535a38.748,38.748,0,0,1,12.751,4.268A34.346,34.346,0,0,1,272.853,305.3a16.961,16.961,0,0,1,2.837,9.714c.05,3.063-.3,6.125-.075,7.505s1.028,1.08,3.539.9,6.727-.227,7.078,0-3.162.728-5.948,1.456-4.845,1.682-6.226,3.137a8.369,8.369,0,0,0-2.159,5.573,10.807,10.807,0,0,0,.9,5.045c.427.527.728-.777,2.786-2.309" transform="translate(-20.93 -22.037)" fill="#fff" fill-rule="evenodd"/>
    <path id="Path_635" data-name="Path 635" d="M16.529,369.742a109.147,109.147,0,0,0-6.351,13.329c-1.581,4.293-1.682,6.854.051,10.92s5.3,9.639,9.187,15.212,8.109,11.146,10.919,15.664,4.218,7.983,6.125,10.694a19.778,19.778,0,0,0,7.556,6.326,48.084,48.084,0,0,0,8.811,3.363c1.506.352.452-.3-.7-2.46a24.082,24.082,0,0,1-2.585-9.388,20.987,20.987,0,0,1,2.234-10.141,45.946,45.946,0,0,1,4.619-7.23c1-1.355.9-1.306.527-1.355a7.983,7.983,0,0,0-2.724.037c-1.694.239-4.431.866-4.707.628S51.4,414,53.956,413.395s5.5-.7,8.887-1.268a31.409,31.409,0,0,0,10.443-3.464c3.213-1.87,5.8-4.581,6.79-6.953a5.1,5.1,0,0,0-.69-5.561c-1.08-1.154-2.636-1.431-4.971-1.418s-5.447.314-8.509.063-6.075-1.054-8.384-1.28a9.709,9.709,0,0,0-6.025,1.218c-2.109,1.092-4.72,2.925-5.661,3.314s-.213-.665.941-1.732,2.736-2.146,3.264-3.138,0-1.895-.227-3.063a8.624,8.624,0,0,1,.227-3.891,24.189,24.189,0,0,1,1.33-3.112c.276-.665.15-.841-1.394-2.247A50.058,50.058,0,0,0,41.1,374.3a79.033,79.033,0,0,0-14.07-6.175,24.174,24.174,0,0,0-7.23-1.356c-1.217-.038-1.568-.037-3.276,2.975" transform="translate(-0.841 -34.441)" fill="#fca921" fill-rule="evenodd"/>
    <path id="Path_636" data-name="Path 636" d="M49.523,443.871a39.392,39.392,0,0,0,4.255,1.378c1.506.352.452-.3-.7-2.46A24.071,24.071,0,0,1,50.49,433.4a20.993,20.993,0,0,1,2.234-10.142,45.973,45.973,0,0,1,4.619-7.229c1-1.355.9-1.306.527-1.355a7.989,7.989,0,0,0-2.725.037c-1.693.238-4.43.866-4.706.627s1.908-1.342,4.469-1.944,5.5-.7,8.885-1.269a31.386,31.386,0,0,0,10.444-3.464c3.213-1.869,5.8-4.58,6.789-6.953a5.093,5.093,0,0,0-.69-5.56,3.712,3.712,0,0,0-1-.764,6.444,6.444,0,0,1-.031,1.085c-.245,2.294-1.523,4.908-5.332,7.057s-10.149,3.83-14.9,5.406a99.624,99.624,0,0,0-10.4,4.169c-2.5,1.121-4.362,1.892-4.607,2.592s1.121,1.331,2.8,1.611,3.678.21,4.536.543.578,1.068-.21,4.729a106.159,106.159,0,0,0-2.271,14.347c-.186,4.1.737,5.718.65,6.7a1.135,1.135,0,0,1-.049.249m-2.841-46.449a9.663,9.663,0,0,1,1.046-1.11c1.154-1.066,2.736-2.146,3.264-3.138s0-1.9-.227-3.063a8.623,8.623,0,0,1,.227-3.891,24.269,24.269,0,0,1,1.33-3.113c.275-.664.15-.841-1.393-2.246a50.145,50.145,0,0,0-8.874-6.564,79.041,79.041,0,0,0-14.07-6.176,24.237,24.237,0,0,0-7.229-1.356,1.792,1.792,0,0,0-1.661.536c.755.121,1.512.253,2.228.42,3.6.836,6.167,2.528,9.165,4.916a95.6,95.6,0,0,1,9.2,8.377c2.766,2.908,4.868,5.64,5.64,8.127a8.394,8.394,0,0,1-1.034,6.919c-1.243,2.189-3.17,4.327-1.874,3.854a36.017,36.017,0,0,0,4.264-2.491" transform="translate(-1.793 -34.441)" fill="#fc8320" fill-rule="evenodd"/>
    <path id="Path_637" data-name="Path 637" d="M247.728,410.722c-2.535.2-6.753,2.46-11.773,3.64s-10.845,1.28-13.681,2.185-2.686,2.61-1.079,4.091,4.669,2.736,8.434,3.088a35.759,35.759,0,0,0,11.8-1.155,19.249,19.249,0,0,0,7.832-3.765,5.414,5.414,0,0,0,2.008-4.719c-.15-1.707-1-3.565-3.539-3.364" transform="translate(-20.664 -38.568)" fill="#4f1212" fill-rule="evenodd"/>
    <path id="Path_638" data-name="Path 638" d="M254.21,426.846c-2.535.2-6.753,2.46-11.773,3.64s-10.845,1.28-13.681,2.184-2.686,2.611-1.079,4.092,4.669,2.736,8.434,3.088a35.76,35.76,0,0,0,11.8-1.155,19.249,19.249,0,0,0,7.832-3.765,5.414,5.414,0,0,0,2.008-4.719c-.15-1.707-1-3.565-3.539-3.364" transform="translate(-21.273 -40.083)" fill="#4f1212" fill-rule="evenodd"/>
    <path id="Path_639" data-name="Path 639" d="M68.58,430.462c2.059-.53,6.006.11,10.3-.323s8.92-1.935,11.409-1.992,2.832,1.334,1.965,2.942a12.532,12.532,0,0,1-5.828,4.732,29.908,29.908,0,0,1-9.641,2.294,16.088,16.088,0,0,1-7.214-.848,4.526,4.526,0,0,1-2.87-3.184c-.345-1.391-.175-3.092,1.884-3.622" transform="translate(-6.25 -40.206)" fill="#4f1212" fill-rule="evenodd"/>
    <path id="Path_640" data-name="Path 640" d="M67.838,444.97c2.059-.53,6.006.11,10.3-.323s8.92-1.935,11.409-1.993,2.832,1.334,1.965,2.941a12.528,12.528,0,0,1-5.828,4.733,29.906,29.906,0,0,1-9.641,2.294,16.087,16.087,0,0,1-7.214-.848,4.526,4.526,0,0,1-2.87-3.185c-.344-1.39-.175-3.091,1.884-3.621" transform="translate(-6.18 -41.568)" fill="#4f1212" fill-rule="evenodd"/>
    <path id="Path_641" data-name="Path 641" d="M153.8,432.741c-.8,2.873-2.778,8.276-2.512,14.67s2.778,13.774,5.442,20.4,5.479,12.481,5.137,17.922-3.843,10.464-9.627,13.052-13.851,2.739-17.447,2.34-2.721-1.351-2.283-2.15.438-1.445,1.142-1.674,2.112-.038,4.909-.323a35.321,35.321,0,0,0,10.16-2.493,11.267,11.267,0,0,0,6.354-6.392c1.008-2.816.856-6.317-.533-10.75s-4.015-9.8-5.765-15.355a55.181,55.181,0,0,1-2.626-15.867,33.554,33.554,0,0,1,1.636-10.388,24.333,24.333,0,0,1,1.941-4.833,2.574,2.574,0,0,1,1.616-1.446,4.9,4.9,0,0,1,2.226-.076c.647.152,1.028.495.228,3.368" transform="translate(-12.404 -40.312)" fill="#c6c6c6" fill-rule="evenodd"/>
    <path id="Path_642" data-name="Path 642" d="M142.249,405.922c1.289-.113,3.749-.211,5.073-.264s1.515-.062,1.688.2a1.418,1.418,0,0,1,.2,1.106c-.129.324-.542.448-.727.5a6.216,6.216,0,0,1-1.291.087c-1.15.053-3.491.182-4.769.262s-1.491.111-1.6-.15a2.655,2.655,0,0,1-.046-1.153c.061-.342.181-.471,1.471-.585" transform="translate(-13.216 -38.091)" fill="#4f1212" fill-rule="evenodd"/>
    <path id="Path_643" data-name="Path 643" d="M155.666,405.122c1.289-.091,3.749-.143,5.073-.173s1.515-.034,1.688.227a1.431,1.431,0,0,1,.2,1.11c-.129.323-.542.439-.727.487a5.993,5.993,0,0,1-1.291.064c-1.15.034-3.492.12-4.769.176s-1.491.085-1.6-.178a2.662,2.662,0,0,1-.046-1.154c.061-.341.181-.468,1.471-.559" transform="translate(-14.476 -38.026)" fill="#4f1212" fill-rule="evenodd"/>
    <path id="Path_644" data-name="Path 644" d="M151.1,148.441a30.441,30.441,0,0,0,7.831-5.752c2.082-2.187,2.966-4.177,2.605-6.038a4.58,4.58,0,0,0-4.075-3.719c-2.111-.124-4.729,1.359-6.912,3.623a22.568,22.568,0,0,0-4.73,7.607c-.8,2.3-.65,3.852.253,4.642s2.558.815,5.027-.363" transform="translate(-13.644 -12.483)" fill="#fff" fill-rule="evenodd"/>
    <path id="Path_645" data-name="Path 645" d="M114.8,151.825a26.847,26.847,0,0,1-8.383-1.795c-2.467-1.007-3.9-2.289-4.281-3.916a4.042,4.042,0,0,1,1.934-4.467c1.654-.863,4.3-.617,6.873.415a19.9,19.9,0,0,1,6.558,4.411c1.475,1.56,1.916,2.864,1.476,3.826s-1.763,1.583-4.176,1.527" transform="translate(-9.581 -13.252)" fill="#fff" fill-rule="evenodd"/>
  </g>
</svg>
