<svg xmlns="http://www.w3.org/2000/svg" xmlns:xlink="http://www.w3.org/1999/xlink" width="712.589" height="702.397" viewBox="0 0 712.589 702.397">
  <defs>
    <clipPath id="clip-path">
      <rect id="Rectangle_93" data-name="Rectangle 93" width="540.943" height="648.339" fill="none"/>
    </clipPath>
  </defs>
  <g id="banner-img" transform="translate(-1070.919 -225)">
    <g id="Group_43" data-name="Group 43" transform="translate(2090.788 -1100.51)" style="isolation: isolate">
      <path id="Path_73" data-name="Path 73" d="M947.028,925.755c-120.968,0-219.385-98.415-219.385-219.382S826.06,486.988,947.028,486.988s219.385,98.417,219.385,219.385S1068,925.755,947.028,925.755m0-433.45c-118.035,0-214.068,96.03-214.068,214.068s96.032,214.065,214.068,214.065S1161.1,824.408,1161.1,706.373s-96.032-214.068-214.068-214.068" transform="translate(-1549.108 1026.734)" fill="#fbf5f2" stroke="#fca823" stroke-linecap="round" stroke-width="1" stroke-dasharray="10"/>
      <path id="Path_74" data-name="Path 74" d="M993.768,1047.413c-162.28,0-294.3-132.025-294.3-294.3s132.022-294.3,294.3-294.3,294.3,132.022,294.3,294.3-132.02,294.3-294.3,294.3m0-583.288c-159.348,0-288.985,129.64-288.985,288.985S834.42,1042.1,993.768,1042.1s288.98-129.638,288.98-288.985-129.635-288.985-288.98-288.985" transform="translate(-1595.845 979.994)" fill="#fbf5f2" stroke="#fca823" stroke-linecap="round" stroke-width="1" stroke-dasharray="10"/>
      <path id="Path_75" data-name="Path 75" d="M970.4,986.586c-141.625,0-256.842-115.22-256.842-256.845S828.772,472.9,970.4,472.9s256.837,115.22,256.837,256.842S1112.02,986.586,970.4,986.586m0-508.37c-138.693,0-251.525,112.832-251.525,251.525S831.7,981.268,970.4,981.268s251.52-112.835,251.52-251.528S1109.088,478.215,970.4,478.215" transform="translate(-1572.475 1003.364)" fill="#fbf5f2" stroke="#fca823" stroke-linecap="round" stroke-width="1" stroke-dasharray="10"/>
      <path id="Path_76" data-name="Path 76" d="M947.028,925.755c-120.968,0-219.385-98.415-219.385-219.382S826.06,486.988,947.028,486.988s219.385,98.417,219.385,219.385S1068,925.755,947.028,925.755m0-433.45c-118.035,0-214.068,96.03-214.068,214.068s96.032,214.065,214.068,214.065S1161.1,824.408,1161.1,706.373s-96.032-214.068-214.068-214.068" transform="translate(-1549.108 1026.734)" fill="#fbf5f2" stroke="#fca823" stroke-linecap="round" stroke-width="1" stroke-dasharray="10"/>
      <path id="Path_77" data-name="Path 77" d="M921.951,860.487c-98.805,0-179.189-80.386-179.189-179.192s80.384-179.189,179.189-179.189S1101.14,582.49,1101.14,681.3s-80.384,179.192-179.189,179.192m0-353.064c-95.875,0-173.872,78-173.872,173.872s78,173.875,173.872,173.875,173.872-78,173.872-173.875-78-173.872-173.872-173.872" transform="translate(-1524.031 1051.809)" fill="#fbf5f2" stroke="#fca823" stroke-linecap="round" stroke-width="1" stroke-dasharray="10"/>
      <path id="Path_78" data-name="Path 78" d="M898.982,800.7c-78.5,0-142.372-63.868-142.372-142.373s63.868-142.372,142.372-142.372,142.372,63.866,142.372,142.372S977.487,800.7,898.982,800.7m0-279.428c-75.572,0-137.055,61.484-137.055,137.055s61.484,137.055,137.055,137.055,137.055-61.484,137.055-137.055S974.554,521.272,898.982,521.272" transform="translate(-1501.063 1074.78)" fill="#fbf5f2" stroke="#fca823" stroke-linecap="round" stroke-width="1" stroke-dasharray="10"/>
    </g>
    <path id="Path_2" data-name="Path 2" d="M322.917,8.07C527.9-146.111,645.835,152.645,645.835,330.988S501.26,653.9,322.917,653.9,0,509.33,0,330.988,117.936,162.252,322.917,8.07Z" transform="translate(1070.919 259.709)" fill="#ffe7db"/>
    <g id="Group_198" data-name="Group 198" transform="translate(1159.058 227.058)">
      <g id="Group_197" data-name="Group 197" clip-path="url(#clip-path)">
        <path id="Path_179" data-name="Path 179" d="M268.394,607.561c145.485,0,263.423-117.938,263.423-263.423S413.879,80.715,268.394,80.715,4.971,198.653,4.971,344.138,122.909,607.561,268.394,607.561" transform="translate(2.077 33.729)" fill="#fca921" fill-rule="evenodd"/>
        <path id="Path_180" data-name="Path 180" d="M83.524,229.827A19.644,19.644,0,0,1,83.2,218.6a66.232,66.232,0,0,1,2.982-8.66q.147-.359.3-.715A122.749,122.749,0,0,1,78.808,191.3c-4.649-13.417-5.4-24.958-1.1-38.7,3.45-11.016,10.294-23.558,17.6-34.147l-.174-3.8q-.211-4.619-.231-9.243c-.031-10.509.651-22.954,3.379-33.14,2.159-8.063,6.056-15.242,13.8-19.112,6.694-3.346,12.818-2.575,19.731-.527,5.5,1.626,10.874,3.522,16.362,5.172,1.119-.844,2.279-1.652,3.41-2.449A154.839,154.839,0,0,1,183.407,38.1a289.2,289.2,0,0,1,58.551-16.107,344.2,344.2,0,0,1,48.563-4.342,95.721,95.721,0,0,1,9.873-.052c1.4-2.062,2.86-4.044,4.366-5.913C310.272,4.848,316.769-.269,326.017.01c9.472.286,16,6.426,22.091,12.947,2,2.14,3.98,4.344,5.94,6.592a54.534,54.534,0,0,1,10.073.75A95.292,95.292,0,0,1,400.054,32.61c14.548,8.538,28.207,21.141,40.828,32.358,8.526,7.579,17.874,16.084,27.721,21.888,7.767,4.578,16.717,7.379,24.1,11.889,4.861,2.966,8.5,7.128,9.653,12.864,1.575,7.868-2.114,13.447-6.454,19.357-5.252,7.153-10.609,14.521-16.272,21.342a37.86,37.86,0,0,1-7.254,7c4.254,17.59,7.62,35.912,10.246,53.484,2.273,15.221,4.58,33.342,3.4,48.73-.9,11.7-4.3,21.627-14.641,28.091a43.938,43.938,0,0,1-8.655,4.074c1.993,4.412,3.159,8.934,1.914,14.185a19.675,19.675,0,0,1-5.592,9.62,30.686,30.686,0,0,1-4.53,3.559,16.216,16.216,0,0,1-3.967,12.558c-4.251,4.923-13.161,9.211-19.256,11.427q-.666.245-1.337.471c-.018.16-.038.322-.061.482a15.99,15.99,0,0,1-10.884,12.829,49.165,49.165,0,0,1-9.548,1.717,85.979,85.979,0,0,0-9.9,1.813c-4.841,1.219-9.686,2.9-14.445,4.417q-5.836,1.861-11.692,3.553a59.572,59.572,0,0,1,7.4,13.839c4.486,11.863,3.655,22.336-.234,34.272-4.2,12.9-11.289,26.85-17.636,38.87-.639,1.214-1.286,2.452-1.953,3.679a24.745,24.745,0,0,1,2.507,11.98c-.173,5.8-2,12.035-4.01,17.477-1.928,5.228-4.676,11.89-8.955,15.558a16.1,16.1,0,0,1-7.427,3.6,22.34,22.34,0,0,1-2.171,3.5,17.039,17.039,0,0,1-2.6,2.724,36.694,36.694,0,0,1-3.526,11.3,29.378,29.378,0,0,1-2.03,3.428c.391.872.774,1.767,1.161,2.674q.4.94.834,1.869l1.785,3.837-.149,1.381q.413.381.805.791c.539.563,1.015,1.141,1.523,1.724l.776.895.63,1c1.828,2.914,3.749,5.774,5.717,8.6,10.96,15.733,24.251,32.479,31.826,50.117q.649,1.51,1.235,3.04a263.878,263.878,0,0,1-240.15,11.189,92.69,92.69,0,0,1,4.882-19.736c4.1-11.394,9.877-22.4,15.316-33.212,2.3-4.561,5.121-9.869,6.468-14.821.047-.17.092-.343.136-.516q-5.959,3.022-11.957,5.925c-9.739,4.707-20.273,9.528-31.062,11.058-9.866,1.4-20.517.1-29.448-4.452a36.573,36.573,0,0,1-17.165-18.146A38.636,38.636,0,0,1,73.345,522a63.352,63.352,0,0,1,2.07-8.87,32.535,32.535,0,0,1-5.775-4.9,34.14,34.14,0,0,1-7.79-4.636,21.541,21.541,0,0,1-7.543-21.178,34.935,34.935,0,0,1,5.9-12.923c.478-.7.977-1.394,1.483-2.086a25.54,25.54,0,0,1,.91-10.162,31.935,31.935,0,0,1,8.133-14.706,29.389,29.389,0,0,1,3.716-3.1,19.909,19.909,0,0,1,3.027-5.256,26.9,26.9,0,0,1,6.834-6.13l6.951-7.315,3.821-6.242c.632-.445,1.278-.871,1.931-1.27l.011-.03a59.2,59.2,0,0,1,2.328-6.081l.448-1.073.284-.732c.277-.715.542-1.441.757-2.176,1.469-5,1.94-9.764,3.769-14.96,3.484-9.9,9.524-18.457,18.873-23.442-2.253-1.1-4.517-2.3-6.744-3.562-2.965-1.682-5.866-3.47-8.592-5.252-3.24-2.118-6.436-4.377-9.562-6.742-4.288-3.243-8.446-6.681-12.409-10.217-3.593-3.206-7.739-7.047-11.344-10.986a64.864,64.864,0,0,1-4.8-5.816,20.387,20.387,0,0,1-4.059-11.947q-1.368-1.482-2.583-3.07a53.007,53.007,0,0,1-5.229-8.408c-2.88-5.69-5.155-12.119-3.39-18.537a18.486,18.486,0,0,1,1.207-3.221,16.1,16.1,0,0,1,1.174-2.019c-1.863-6.519-.82-13.315,4.464-18.6h0c3.76-3.762,8.132-5.16,12.859-6.607.695-.213,1.4-.427,2.108-.649q1.731-.542,3.443-1.163a138.827,138.827,0,0,1,3.494-18.116" transform="translate(22.512 0)" fill="#4f1212" fill-rule="evenodd"/>
        <path id="Path_181" data-name="Path 181" d="M118.479,172.562q-1.661,2.469-3.221,5c-10.61,17.233-17.383,36.5-20.919,49.178a109.9,109.9,0,0,0-4.215,22.349c-.376,3.574-.827,4.628-3.16,5.945a62.686,62.686,0,0,1-10.385,4.1c-3.838,1.2-7.3,2.032-8.767,3.5s-.941,3.573.376,5.982a44.179,44.179,0,0,0,4.778,6.7c1.355,1.58,1.958,2.03,1.205,2.332a21.619,21.619,0,0,1-4.892.526c-2.032.075-3.989.075-4.4,1.581s.715,4.515,2.3,7.638a33.364,33.364,0,0,0,6.546,9.181c2.935,2.822,6.773,5.231,7.563,6.51s-1.467,1.429-3.085,1.768-2.6.866-.376,3.952,7.637,8.729,13.919,14.335a176.444,176.444,0,0,0,20.167,15.578,128.529,128.529,0,0,0,15.917,8.917c2.858,1.279,2.257.6,1.129-1.129a72.672,72.672,0,0,1-4.177-7.376c-1.392-2.858-2.521-5.793-2.144-5.83s2.257,2.822,4.515,6.057a96.484,96.484,0,0,0,8.655,10.911,67.8,67.8,0,0,0,14.335,12,79.726,79.726,0,0,0,18.023,7.525,163.083,163.083,0,0,0,18.961,4.4c7.827,1.431,18.211,3.087,36.2,1.733s43.572-5.718,67.728-9.857,46.882-8.053,63.663-12.192,27.618-8.5,36.573-10.76,16.029-2.409,18.211-3.16-.526-2.107-3.461-3.838-6.1-3.838-6.473-4.892,2.033-1.053,6.171-1.506a68.688,68.688,0,0,0,15.8-3.46c5.793-2.108,11.515-5.419,12.942-7.074s-1.428-1.656-4.665-2.936-6.847-3.837-7.224-4.965,2.483-.828,7.224-2.184,11.364-4.364,14.072-7,1.5-4.892-1.806-10.987-8.73-16.029-16.1-24.081a76.642,76.642,0,0,0-6.037-5.871c-12.883,5.27-28.966,9.362-45.075,9.325-19.451-.047-38.938-6.112-50.243-14.2s-14.433-18.2-16-31.987-1.561-31.253-2.389-45.5a311.486,311.486,0,0,0-3.4-31.114c-.919-5.837-1.1-6.481-5.469-4.5s-12.916,6.572-22.475,9.422a89.924,89.924,0,0,1-30.1,3.4c-9.973-.552-19.35-2.758-24.681-3.814s-6.617-.967-9.053-.276a74.355,74.355,0,0,1-13.65,2.965c-7.63.987-19.3,1.677-31.8,3.539s-25.83,4.895-34.7,8.066a54.536,54.536,0,0,0-12.416,6.076m297.007,33.964q-.959-5.738-2.233-12.331c-5.192-26.714-14.675-64.341-24.382-90.078s-19.641-39.583-29.724-52.751S338.829,25.7,332.431,18.856s-8.954-8.052-11.438-8.127-4.89.978-8.955,6.02-9.782,14.072-15.425,26.564c-2.077,4.6-4.145,9.661-6.1,14.974a29.966,29.966,0,0,1,5.172,3.787c2.364,2.106,3.559,3.484,6.454,4.587A53.869,53.869,0,0,0,314.872,69.1c5.239.5,11.122.689,17.511,2.849s13.281,6.3,19.808,13.7,12.686,18.062,18.247,32.4S380.962,150.4,385.65,164.1s9.1,23.072,14.064,29.651A39.763,39.763,0,0,0,414.7,206.179c.265.122.527.237.785.347" transform="translate(27.075 4.482)" fill="#fca921" fill-rule="evenodd"/>
        <path id="Path_182" data-name="Path 182" d="M95.04,144.832c-1.173,2.766-2.254,5.487-3.248,8.13,2.307-.454,5.16-1.018,7.264-1.407,3.105-.573,4.578-.764,4.982-.471s-.262,1.073-.854,3.867a68.731,68.731,0,0,0-1.14,9.493c-.037,1.89.4.863,1.89-.844a33.927,33.927,0,0,1,5.286-4.9c1.266-.807,1.266-.037,1.266,2.24s0,6.059.216,10.593.664,9.817,2.243,13.286a14.631,14.631,0,0,0,5.765,6.131c1.469,1.01,1.689,1.377.183,2.091a41.04,41.04,0,0,1-7.537,2.381,16.092,16.092,0,0,1-8.683-.274A43.243,43.243,0,0,1,91.1,189.6c-3.426-2.389-5.64-5.011-6.08-4.7s.9,3.562,5.588,7.308a70.979,70.979,0,0,0,18.556,9.966c5.82,1.975,9.416,1.682,14.148.072a79.15,79.15,0,0,0,14.8-7.155,30.2,30.2,0,0,0,8.972-7.943c2.239-3.01,4.184-6.718,5.846-8.911s3.036-2.873,4.578-1.992,3.248,3.322,4.3,4.819,1.459,2.046,1.845.724.753-4.515-1.818-8.442-8.075-8.591-13.563-12.1-10.957-5.856-18.739-8.921-17.878-6.845-25.659-7.744a29.009,29.009,0,0,0-8.84.247" transform="translate(35.497 60.327)" fill="#fc8320" fill-rule="evenodd"/>
        <path id="Path_183" data-name="Path 183" d="M244.131,13.516a12.43,12.43,0,0,1,2.175-.138c3.634.109,6.609,2.167,10.885,7.857s9.857,15.014,14.041,22.5,6.975,13.142,6.423,12.445-4.441-7.744-8.627-13.728-8.663-10.9-12.187-13.619-6.093-3.231-8.034-2.514-3.253,2.666-5.344,6.888-4.967,10.715-8.058,27.707c-.376,2.063-.754,4.283-1.11,6.651a70.649,70.649,0,0,0,9.741,1.53c5.241.506,11.122.689,17.511,2.85s13.283,6.3,19.808,13.7,12.686,18.061,18.247,32.4S310.128,150.4,314.816,164.1s9.1,23.072,14.066,29.651a39.744,39.744,0,0,0,14.986,12.431c.267.122.527.238.786.349q-.959-5.738-2.233-12.333c-5.192-26.714-14.674-64.341-24.382-90.077S298.4,64.535,288.313,51.365,267.994,25.7,261.6,18.856,252.643,10.8,250.16,10.73c-1.823-.055-3.6.5-6.029,2.786" transform="translate(97.909 4.482)" fill="#fc8320" fill-rule="evenodd"/>
        <path id="Path_184" data-name="Path 184" d="M104.461,133.822q-1.661,2.467-3.221,5-1.5,2.44-2.9,4.927c4.736-2.708,9.413-5.361,14.553-7.668a133.268,133.268,0,0,1,33.089-9.432c11.6-1.835,23.2-2.348,31.5-3.267a81.571,81.571,0,0,0,16.372-3.23c3.084-.991,4.258-1.652,6.277-1.469s4.883,1.212,11.38,2.351a174.965,174.965,0,0,0,26.32,2.5c9.691.109,18.942-.917,25.22-.807s9.581,1.357,10.755,5.762.221,11.967-1.321,16.446-3.669,5.873-8.222,6.57-11.527.7-19.75,1.615a252.837,252.837,0,0,0-28.559,5.287c-10.867,2.532-23.127,5.762-26.835,7.268s1.139,1.285,6.644,1.65,11.673,1.321,13.142,4.186-1.762,7.635-7.709,11.93a70.689,70.689,0,0,1-21,9.8c-6.388,1.689-10.5,1.248-13.161-.262s-3.871-4.089-4.642-6.7-1.1-5.241-2.148-5.382-2.809,2.208-3.163,6.626a28.016,28.016,0,0,0,3.891,16.008c3.193,5.1,8.529,8.821,13.843,12.019a62.822,62.822,0,0,0,20.046,8.081,162.359,162.359,0,0,0,32.8,3.91c9.8-.018,15.816-1.781,21.654-4.461a48.219,48.219,0,0,0,16.555-12c5.066-5.728,9.545-13.583,13.105-18.393s6.2-6.57,7.488-4.293,1.212,8.59,3.414,15.2a39.658,39.658,0,0,0,13.877,18.943c7.194,5.432,17.105,9.4,30.8,12.114s31.166,4.184,44.161,6.57,21.511,5.69,26.761,8.7,7.231,5.725,7.672,7.157-.661,1.578-4.919,1.945-11.675.954-14.5,2.056-1.065,2.717.917,4.883,4.186,4.882,6.168,6.864,3.743,3.23.366,4.295-11.893,1.945-21.474,1.4-20.226-2.534-26.283-3.6-7.526-1.212-6.572.7,4.332,5.874,7.893,9.545,7.3,7.048,7.6,9.435-2.863,3.78-8.076,5.653-12.48,4.221-25.7,8.815S296.188,320.492,274.3,326.1c-7.041,1.8-14.366,3.481-21.382,5.293,7.974-1.3,16.117-2.694,24.1-4.062,24.155-4.14,46.882-8.054,63.663-12.192s27.618-8.5,36.573-10.76,16.029-2.409,18.211-3.162-.526-2.107-3.461-3.837-6.1-3.838-6.471-4.892,2.032-1.054,6.169-1.506a68.631,68.631,0,0,0,15.8-3.461c5.795-2.107,11.515-5.418,12.944-7.072s-1.429-1.656-4.666-2.936-6.847-3.837-7.224-4.965,2.483-.829,7.224-2.184,11.364-4.364,14.073-7,1.506-4.892-1.806-10.989-8.728-16.028-16.1-24.08a76.887,76.887,0,0,0-6.039-5.872c-12.883,5.27-28.966,9.362-45.075,9.325-19.45-.047-38.936-6.112-50.243-14.2s-14.433-18.2-15.994-31.989-1.562-31.252-2.391-45.5a311.47,311.47,0,0,0-3.4-31.114c-.919-5.837-1.1-6.481-5.469-4.5s-12.915,6.572-22.475,9.422a89.925,89.925,0,0,1-30.1,3.4c-9.973-.55-19.35-2.756-24.681-3.814s-6.617-.966-9.053-.275a74.392,74.392,0,0,1-13.65,2.963c-7.63.988-19.3,1.679-31.8,3.54s-25.83,4.895-34.7,8.066a54.539,54.539,0,0,0-12.416,6.076" transform="translate(41.093 43.224)" fill="#fc8320" fill-rule="evenodd"/>
        <path id="Path_185" data-name="Path 185" d="M78.454,188.133c-.628.211-1.256.416-1.876.608-3.837,1.205-7.3,2.032-8.767,3.5s-.94,3.573.376,5.982a44.061,44.061,0,0,0,4.78,6.7c1.354,1.581,1.957,2.032,1.2,2.334a21.616,21.616,0,0,1-4.892.526c-2.032.075-3.987.075-4.4,1.581s.716,4.515,2.3,7.638a33.413,33.413,0,0,0,6.548,9.181c2.934,2.822,6.772,5.229,7.562,6.509s-1.467,1.429-3.085,1.768-2.6.865-.376,3.952,7.637,8.729,13.919,14.335a176.3,176.3,0,0,0,20.168,15.577,128.584,128.584,0,0,0,15.916,8.919c2.86,1.279,2.257.6,1.129-1.129a72.673,72.673,0,0,1-4.177-7.376c-1.392-2.858-2.52-5.793-2.144-5.832s2.257,2.823,4.515,6.057a96.656,96.656,0,0,0,8.655,10.912,67.911,67.911,0,0,0,14.335,12,79.785,79.785,0,0,0,18.023,7.525,163.139,163.139,0,0,0,18.961,4.4c7.827,1.429,18.211,3.087,36.2,1.733s43.573-5.72,67.728-9.857c8.913-1.528,17.63-3.024,25.925-4.513,1.869-.651,3.546-1.275,5.1-1.911,8.1-3.321,12.849-7.011,15.517-11.719a24.065,24.065,0,0,0,2.3-15.941,46.916,46.916,0,0,0-5.873-14.977c-2.423-4.186-4.773-7.27-2.5-7.27s9.178,3.084,13.216,5.579,5.212,4.405,4.184,1.69a56.5,56.5,0,0,0-9.764-16.263A42.25,42.25,0,0,0,316.5,217.08c-9.367-2.009-20.321-.96-31.15.362s-21.533,2.915-31.658,2.5-19.669-2.837-27.671-5.3-14.464-4.956-20.08-8.3A91.159,91.159,0,0,1,191,194.64c-4.551-4.186-8.883-8.371-14.5-11.051s-12.517-3.854-19.381-4.258a75.155,75.155,0,0,0-19.567,1.211,47.5,47.5,0,0,0-15.564,6.334,113,113,0,0,0-11.949,8.846c-2.552,2.111-3.029,2.551-3.652,2.184s-1.4-1.541-2.717-3.339a19.853,19.853,0,0,0-5.735-5.68c-2.542-1.456-5.754-1.948-9.65-1.743-3.162.169-6.778.8-9.827.99" transform="translate(27.075 74.874)" fill="#fff" fill-rule="evenodd"/>
        <path id="Path_186" data-name="Path 186" d="M162.606,61.824q-1.606-.436-3.151-.841c-11.325-2.973-20.056-4.7-28.18-6.924s-15.654-4.929-20.357-6.321-6.585-1.468-8.616-.451S98.089,50.41,96.4,56.731s-2.9,16.856-2.861,29.16c.009,2.792.081,5.674.216,8.591a75.948,75.948,0,0,1,9.333-8.373q.072-.9.162-1.8a138.916,138.916,0,0,1,3.8-20.846c1.055-4.025,1.28-4.1,2.446-4.064s3.274.189,7.752,1.995a108.761,108.761,0,0,1,18.475,10.046c.227.152.455.306.683.461,5.348-1.234,9.138-1.819,12.625-2.966a55.093,55.093,0,0,0,11.994-6.11c.523-.329,1.055-.664,1.589-1" transform="translate(39.086 19.473)" fill="#fca921" fill-rule="evenodd"/>
        <path id="Path_187" data-name="Path 187" d="M161.465,61.824q-1.606-.436-3.151-.841c-11.325-2.973-20.056-4.7-28.18-6.924s-15.653-4.929-20.357-6.321-6.585-1.468-8.616-.451c-1.646.822-3.392,2.362-4.895,6.278a27.361,27.361,0,0,1,9.6.73,117.177,117.177,0,0,1,16.592,5.286c4.038,1.615,5.506,2.5,2.724,2.344-1.913-.1-5.839-.7-9.463-.679l.376.15a108.759,108.759,0,0,1,18.475,10.046c.227.152.455.306.683.461,5.348-1.234,9.138-1.819,12.625-2.966a55.092,55.092,0,0,0,11.994-6.11c.523-.329,1.055-.664,1.589-1" transform="translate(40.228 19.473)" fill="#fc8320" fill-rule="evenodd"/>
        <path id="Path_188" data-name="Path 188" d="M273.935,50.093a96.561,96.561,0,0,0-29.277-3.906A158.037,158.037,0,0,0,202.1,52.576c-13.7,4.181-25.092,10.433-32.17,14.523-.99.571-1.9,1.1-2.739,1.594,1.476-.047,2.995-.074,4.549-.072a205.983,205.983,0,0,1,36.337,3.825c12.035,2.273,23.048,5.283,32.041,6.789A83.579,83.579,0,0,0,261.188,80.3c5.1-.44,8.333-1.321,7.892-.991a43.4,43.4,0,0,1-10.058,2.9,77.748,77.748,0,0,1-19.969.954c-7.562-.587-15.784-2.276-24.816-3.928s-18.868-3.267-27.714-4.038a138.43,138.43,0,0,0-24.874.023c-8.17.722-16.656,2.09-21.633,2.968-3.516.62-5.282,1-6.874,1.363-1.873.515-3.722,1.079-5.5,1.7-8.731,3.08-15.717,7.675-24.091,17.963s-18.133,26.269-22,38.626-1.847,21.088.956,29.177,6.389,15.534,8.273,18.292,2.069.827,2.8-3.953,2.022-12.408,5.883-18.981,10.3-12.087,23.863-16.676,34.265-8.253,48.015-10.5,20.554-3.073,25.471-4.268a51.119,51.119,0,0,0,5.205-1.574,109.476,109.476,0,0,0-10.687-4.276,122.985,122.985,0,0,0-18.428-4.369,104.878,104.878,0,0,0-18.722-1.687,68.744,68.744,0,0,0-16.372,2.422,80.036,80.036,0,0,0-15.2,5.507,78.1,78.1,0,0,0-12.995,8.185c-3.6,2.79-6.24,5.36-5.91,4.625a47.348,47.348,0,0,1,7.855-8.444,60.361,60.361,0,0,1,15.088-9.507A72.769,72.769,0,0,1,145.74,116.5a88,88,0,0,1,23.788-.221,199.043,199.043,0,0,1,27.395,5.906c8.3,2.308,14.784,4.429,18.425,5.565,2.063.644,3.214.97,4.159,1.234,7.442,1.4,19.623,3.467,31.355,2.6a88.724,88.724,0,0,0,32.311-9.192,66.909,66.909,0,0,0,13.88-9.558c2.114-1.656,2.481-1.1,4.6,3.492s5.975,13.236,7.262,29.139,0,39.066,2.114,55.7,7.63,26.748,18.475,34.194,27.025,12.225,41.694,12.283,27.832-4.6,38.954-11.221a114.787,114.787,0,0,0,23.368-18.652c3.163-3.46.405-1.8-4.926-1.069a55.9,55.9,0,0,1-21.05-1.564c-7.814-2.114-15.534-6.158-16.73-7.261s4.136.734,10.3,1.655,13.145.919,18.936-1.655,10.386-7.722,10.845-9.1-3.217,1.011-9.927,1.47a42.1,42.1,0,0,1-24.451-6.158,39.763,39.763,0,0,1-11.849-12.3,21.073,21.073,0,0,1-6.627-2.151c-3.084-1.541-4.405-2.863-2.973-.88a62.736,62.736,0,0,0,10.865,11.417c5.249,4.149,11.563,7.159,11.673,7.635s-5.983-1.578-10.278-3.56a28.937,28.937,0,0,1-9.839-7.085,65.922,65.922,0,0,1-9.029-11.856c-2.386-4.186-3.562-8.076-3.341-6.057a105.82,105.82,0,0,0,3.743,15.638A40.183,40.183,0,0,0,374.8,196.52c1.835,2.5,3.3,4.038,3.339,4.405s-1.357-.441-4-3.047-6.535-7.011-10.536-16.262-8.113-23.348-12.371-37.261-8.663-27.642-12.334-36.672-6.607-13.362-9.581-16.446a23.723,23.723,0,0,0-9.472-6.166,36.974,36.974,0,0,0-10.609-2.019c-3.158-.111-5.506.33-4.662-.037a30.976,30.976,0,0,1,9.47-1.615,25.731,25.731,0,0,1,14.5,4.038c4.773,3.084,9.178,8.222,14.61,20.117s11.895,30.541,17.621,42.875,10.719,18.355,14.54,22.805c3.413,3.974,5.893,6.7,7.063,6.709a94.733,94.733,0,0,1-5.544-12.354c-5.423-14.523-10.019-34.745-15.259-50.281s-11.122-26.38-17.372-34.745S331.338,66.318,322.7,63.285c-6.743-2.368-14.719-3-20.825-3.468-5.428,1.615-6.138,3.444-6.393,5.109-.262,1.717-.043,3.26-.987,1.994a61.507,61.507,0,0,1-4.526-8.716l-.21-.489a24.51,24.51,0,0,1-2.953-1.692,49,49,0,0,0-12.869-5.93" transform="translate(33.183 19.299)" fill="#c9703e" fill-rule="evenodd"/>
        <path id="Path_189" data-name="Path 189" d="M272.669,49.641a81.057,81.057,0,0,0-9.935-2.376c4.421,2.308,10.107,5.73,13.381,8.842,3.745,3.562,4.332,6.718,2.643,9.435s-5.653,4.992-10.793,6.5a59.177,59.177,0,0,1-17.8,2.056,82.118,82.118,0,0,1-18.868-2.936c-6.131-1.652-12-3.854-18.024-5.286s-12.188-2.093-15.822-2.827-4.734-1.541-4.052-3.278,3.146-4.4,9.351-7.192c2.189-.985,4.845-1.985,7.522-2.938-3.219.726-6.382,1.555-9.433,2.487-13.7,4.181-25.092,10.433-32.17,14.523-.99.571-1.9,1.1-2.739,1.594,1.476-.047,2.995-.074,4.549-.072a205.987,205.987,0,0,1,36.337,3.825c12.035,2.273,23.048,5.283,32.041,6.789a83.581,83.581,0,0,0,21.071,1.063c5.1-.44,8.333-1.321,7.892-.991a43.4,43.4,0,0,1-10.058,2.9,77.75,77.75,0,0,1-19.969.954c-7.562-.587-15.784-2.276-24.816-3.928s-18.868-3.267-27.714-4.038a138.427,138.427,0,0,0-24.874.023c-8.17.722-16.656,2.09-21.633,2.968-3.516.62-5.282,1-6.874,1.363-1.873.515-3.722,1.079-5.5,1.7-8.731,3.08-15.717,7.675-24.091,17.963-1.078,1.326-2.179,2.746-3.288,4.239q1.089-.887,2.233-1.745c9.544-7.159,21.878-12.518,34.873-16.042S162.757,80,174.944,81.106s22.906,4.992,35.094,8.259,25.842,5.911,36.709,6.131,18.942-1.982,18.207-1.028-10.278,5.066-20.556,6.644-21.291.624-30.543-.771-16.738-3.23-25.292-3.854a126.268,126.268,0,0,0-26.394,1.174c-8.222,1.212-15.051,3.047-14.756,3.194s7.709-1.4,15.454-1.578a77.133,77.133,0,0,1,23.6,3.3c7.783,2.313,15.271,5.762,24.816,8.3a129.009,129.009,0,0,0,29.954,4.184c8.811.037,14.831-1.5,14.538-.807s-6.9,3.634-16.226,4.625-21.363.037-31.863-1.615-19.456-4-28.6-5.653a113.938,113.938,0,0,0-27.861-1.982,83.908,83.908,0,0,0-27.972,6.79A88.1,88.1,0,0,0,99.47,131.653a41.232,41.232,0,0,0-10.756,15.2c-1.652,4.295-1.8,7.525-2.165,8.112s-.954-1.467-1.432-3.854-.844-5.1-1.472-2.581a78.229,78.229,0,0,0-1.1,18.346c.069,1.354.176,2.717.312,4.075a83.063,83.063,0,0,0,6.658,13.911c1.884,2.758,2.069.827,2.8-3.953S94.339,168.5,98.2,161.926s10.3-12.087,23.863-16.676,34.265-8.253,48.015-10.5,20.554-3.073,25.471-4.268a51.111,51.111,0,0,0,5.205-1.574,109.475,109.475,0,0,0-10.687-4.276,122.989,122.989,0,0,0-18.428-4.369,104.883,104.883,0,0,0-18.722-1.687A68.749,68.749,0,0,0,136.545,121a80.038,80.038,0,0,0-15.2,5.507,78.1,78.1,0,0,0-12.995,8.185c-3.6,2.79-6.24,5.36-5.91,4.625a47.348,47.348,0,0,1,7.855-8.444,60.363,60.363,0,0,1,15.088-9.507,72.77,72.77,0,0,1,19.089-5.323,88,88,0,0,1,23.788-.221,199.045,199.045,0,0,1,27.395,5.905c8.3,2.308,14.784,4.429,18.425,5.565,2.063.644,3.214.97,4.159,1.234,7.442,1.4,19.623,3.467,31.355,2.6a88.724,88.724,0,0,0,32.311-9.192,66.909,66.909,0,0,0,13.88-9.558c1.089-.854,1.716-1.12,2.355-.549a4.344,4.344,0,0,1,3.9-.808c1.828.479,3.956,1.947,5.975,5.068a44.833,44.833,0,0,1,5.177,13.032c1.248,5.138,1.835,10.645,1.945,10.278a92.267,92.267,0,0,0-1.212-12.665c-.954-6.057-2.5-11.93-4.588-15.894a17.877,17.877,0,0,0-6.534-7.122c-1.8-1.1-2.754-1.248-1.543-1.028a23.331,23.331,0,0,1,7.856,2.754c3.267,1.945,6.424,5.249,9.324,13.693s5.543,22.025,7.342,32.084,2.752,16.592,4.771,25.218,5.1,19.346,8.187,26.027,6.166,9.324,9.618,11.452,7.268,3.745,7.563,4.112-2.936-.515-6.681-2.239a29.2,29.2,0,0,1-11.527-8.957c-3.525-4.662-6.314-11.417-8.59-18.759s-4.038-15.271-4.442-14.61.552,9.911,1.469,18.941,1.8,17.84,5.836,26.54,11.234,17.291,20.374,21.953,20.226,5.395,29.845,4.662c1.816-.139,3.58-.33,5.3-.574a81.348,81.348,0,0,0,21.373-9.019,114.774,114.774,0,0,0,23.368-18.652c.336-.369.605-.678.813-.937-1.51.666-3.112,1.347-4.679,1.907a36.014,36.014,0,0,1-16.518,1.873c-6.094-.588-13.288-2.276-18.8-5.433s-9.324-7.783-12.3-11.967-5.1-7.929-4.919-8.259,2.68,2.754,9.324,5.029,17.436,3.743,27.384,3.046a87.73,87.73,0,0,0,16.163-2.83,5.664,5.664,0,0,0,.9-1.422c.461-1.378-3.217,1.011-9.927,1.47a42.1,42.1,0,0,1-24.451-6.158,39.762,39.762,0,0,1-11.849-12.3,21.072,21.072,0,0,1-6.627-2.151c-3.084-1.541-4.405-2.863-2.973-.881a62.733,62.733,0,0,0,10.865,11.417c5.249,4.149,11.563,7.159,11.673,7.635s-5.983-1.578-10.278-3.56a28.937,28.937,0,0,1-9.839-7.085,65.935,65.935,0,0,1-9.029-11.856c-2.386-4.186-3.562-8.076-3.34-6.057a105.821,105.821,0,0,0,3.743,15.638,40.182,40.182,0,0,0,5.948,11.637c1.835,2.5,3.3,4.038,3.339,4.405s-1.357-.441-4-3.047-6.535-7.011-10.536-16.262-8.113-23.348-12.371-37.261-8.663-27.642-12.334-36.672-6.607-13.362-9.581-16.446a23.724,23.724,0,0,0-9.472-6.166A36.974,36.974,0,0,0,307.973,82.6c-3.158-.111-5.506.33-4.662-.037a30.976,30.976,0,0,1,9.47-1.615,25.732,25.732,0,0,1,14.5,4.038c4.773,3.084,9.178,8.222,14.61,20.117s11.895,30.541,17.621,42.875,10.719,18.354,14.54,22.805c3.413,3.974,5.893,6.7,7.063,6.709q-1.046-1.91-2.049-4.027a58.61,58.61,0,0,1-11.129-13.83c-3.869-6.508-6.952-13.85-10.294-23.394s-6.938-21.291-9.985-30.285-5.543-15.235-9.764-20.264A42.8,42.8,0,0,0,322,74.425c-5.727-2.423-11.232-3.451-10.682-3.964s7.159-.515,14.243,1.4a53.858,53.858,0,0,1,17.5,8.417l-.118-.159c-6.25-8.364-12.869-14.247-21.509-17.28-6.743-2.368-14.719-3-20.824-3.468-5.428,1.615-6.138,3.444-6.393,5.109-.262,1.717-.043,3.26-.987,1.994a61.5,61.5,0,0,1-4.526-8.716l-.21-.489a24.518,24.518,0,0,1-2.953-1.692,49,49,0,0,0-12.869-5.93" transform="translate(34.449 19.751)" fill="#b04932" fill-rule="evenodd"/>
        <path id="Path_190" data-name="Path 190" d="M130.323,58.133a135.574,135.574,0,0,1,28.76-15.58c15.028-6.067,35.986-11.95,55.381-15.212A332.78,332.78,0,0,1,260.883,23.2c9.192-.231,9.744-.047,10.111.183s.553.5-1.241,4.825-5.561,12.686-7.537,17.465-2.159,5.975-3.906,5.791-5.055-1.747-12.639-2.3-19.441-.091-30.839,1.012a181.677,181.677,0,0,0-32.125,5.653,182.448,182.448,0,0,0-23.164,8.731c-4.734,2.069-5.561,2.344-6.389,2.481s-1.655.139-5.251-.527-9.962-2-13.857-2.8-5.32-1.08-6.355-1.287a5.616,5.616,0,0,1-1.918-.552c-.241-.207-.081-.483,4.55-3.746" transform="translate(52.53 9.652)" fill="#e69aba" fill-rule="evenodd"/>
        <path id="Path_191" data-name="Path 191" d="M142.787,46.273c2.52-1.211,5.27-2.444,8.259-3.671,4.217,1.574,7.55,1.459,10.214,0,2.25-1.235,4.024-3.43,5.82-5.775,7.756-2.477,16.194-4.781,24.71-6.717,1.572.7,3.148,1.408,4.695,1.977,4.992,1.836,9.691,2.276,14.621.781a26.381,26.381,0,0,0,12.211-8.039c3.679-.4,7.208-.717,10.526-.97-3.185,2.88-6.546,6.176-9.6,8.853-4.992,4.367-9.178,7.084-13.619,8.405a23.213,23.213,0,0,1-13.51-.109c-4.369-1.36-8.407-4-12.26-4.186s-7.526,2.093-10.682,4.846-5.8,5.983-9.471,7.781-8.37,2.167-14.462.074a63.185,63.185,0,0,1-7.447-3.248" transform="translate(59.668 9.969)" fill="#fff" fill-rule="evenodd"/>
        <path id="Path_192" data-name="Path 192" d="M273.844,25.127a79.944,79.944,0,0,1,30.333,10.365C316.862,42.937,331.017,55.805,342.6,66.1s20.59,18.016,30.106,23.622,19.531,9.1,23.9,11.767,3.08,4.5-1.133,10.241-11.353,15.374-15.717,20.63-5.946,6.128-7.682,2.841-3.618-10.732-8.5-19.021a112.708,112.708,0,0,0-15.112-19.6c-2.368-2.176.756,2.6,4.561,9.591s8.289,16.177,13.161,33.919,10.131,44.028,13.219,64.711,4.01,35.756,3.275,45.316-3.125,13.6-7.538,16.362-10.847,4.228-14.34,4.963-4.045.736-4.434.552-.621-.552-2-2.6-3.906-5.768-6.137-8.526c-.258-.322-.515-.631-.766-.926a22.034,22.034,0,0,1-1.608-1.76l-.824-.956a21.654,21.654,0,0,1-1.582-1.8l-.077-.119c-.442-.516-.837-.991-1.164-1.4a5.34,5.34,0,0,1-1.316-2.32c-.074-.552.146-.991,1.8-2.2s4.736-3.193,8.116-6.063,7.062-6.627,8.937-9.82a14.336,14.336,0,0,0,1.95-7.981,15.032,15.032,0,0,0-.4-4.622c-.333-.771-.934-.624-2.335-.33a35.372,35.372,0,0,1-5.513.808c-1.911.074-3.526-.22-3.672-.77s1.174-1.36,2.827-2.938a19.911,19.911,0,0,0,4.756-6.75,15.751,15.751,0,0,0,1.015-7.881c-.367-1.762-1.362-1.991-3.4-1.37s-5.121,2.089-7.947,2.639a11.276,11.276,0,0,1-6.83-.55,3.083,3.083,0,0,1-1.689-3.267c.037-1.432.406-3.194.441-7.415a151.461,151.461,0,0,0-1.32-19.383,304.255,304.255,0,0,0-5.69-30.726c-2.792-11.967-6.534-25.623-9.252-34.029s-4.4-11.563-4.587-10.1S319.233,106.4,320,111.8a112.787,112.787,0,0,1,1.063,13.179c.074,3.084,0,4.551-1.578-.22s-4.662-15.785-8.261-25.513a161.819,161.819,0,0,0-11.967-25.477A229.012,229.012,0,0,0,286.493,54.6c-1.551-2.148-3.06-4.228-4.449-6.144A51.906,51.906,0,0,1,278.69,43.9c-.642-.9-1.418-1.984-2.269-3.153l-.036-.047-.067-.091-.095-.133-.01-.014c-1.98-2.705-2.457-3.355-2.911-3.973l-.235-.319,0-.007-.023-.03c-1.951-2.649-3.893-5.25-5.267-7.057-2.849-3.745-3.262-4.066-2.642-4.343s2.274-.5,8.71.391" transform="translate(110.691 10.234)" fill="#e183b2" fill-rule="evenodd"/>
        <path id="Path_193" data-name="Path 193" d="M279.405,26.619a78.49,78.49,0,0,1,14.106,5.48,20.436,20.436,0,0,0,2.115,5.806c2.5,4.258,7.2,6.607,10.647,10.057A29.419,29.419,0,0,1,313.1,59.711c1.175,3.743,1.321,6.68,3.525,9.177s6.46,4.551,9.1,7.855S329.4,84.6,331.31,94.364s4.7,24.741,4.773,28.339-2.571-4.186-4.553-11.454-3.3-14.023-4.405-19.309-1.982-9.1-5.286-11.895-9.031-4.551-11.967-6.9-3.084-5.286-4.112-9.177-2.936-8.737-6.24-12.041-8-5.066-10.909-8.818-4.024-9.49-8.527-15.6q-.328-.442-.678-.889" transform="translate(116.759 11.124)" fill="#fff" fill-rule="evenodd"/>
        <path id="Path_194" data-name="Path 194" d="M199.391,291.782c4.821-2.5,11.231-5.524,16.728-9.589a83.716,83.716,0,0,0,12.665-12.117,49.854,49.854,0,0,1,3.753-4.2c.6-.469,1.225-.625,5.5-1.407s12.194-2.189,16.155-2.684,3.96-.078,3.2,2.84a81.44,81.44,0,0,1-5.185,14.515c-2.918,6.176-7.244,13.107-9.459,18.292s-2.32,8.625-2.736,10.059-1.146.859-2.423-.6a43.159,43.159,0,0,1-4.585-6.358c-1.486-2.554-2.633-5.316-4.534-6.827s-4.56-1.772-8.677-1.225a130.581,130.581,0,0,0-14.854,3.284c-5.158,1.381-9.9,2.788-13.29,3.777s-5.419,1.564-5.784,1.278.939-1.434,3.2-3a96.212,96.212,0,0,1,10.319-6.046" transform="translate(77.645 109.323)" fill="#fff" fill-rule="evenodd"/>
        <path id="Path_195" data-name="Path 195" d="M194.486,291.82c-.886-2.242-2.971-5.89-4.3-9.72a70.6,70.6,0,0,1-2.318-9.876c-.417-2.033-.678-2.084-3.465-1.9s-8.1.6-12.222.808-7.036.208-8.261.7-.756,1.484-.859,3.752A28.261,28.261,0,0,1,161,284.42c-1.276,3.022-3.154,5.524-3.049,6.722s2.188,1.095,5.394.13,7.53-2.788,11-4.274,6.071-2.632,7.973-2.892,3.1.365,4.717,1.8a43.454,43.454,0,0,1,5,5.446c1.354,1.772,2.032,3.075,2.527,3.309s.808-.6-.078-2.84" transform="translate(66.004 112.935)" fill="#fff" fill-rule="evenodd"/>
        <path id="Path_196" data-name="Path 196" d="M175.006,285.426c2.552-.919,4.584-1.772,5.921-2.235,1.954-.679,2.423-.522,3.935.834s4.065,3.908,5.368,5.316,1.355,1.667.469,4.587a131.068,131.068,0,0,0-3.623,13.341,45.727,45.727,0,0,0-.808,10.423c.1,1.459.313.261,1.564-3.882a145.956,145.956,0,0,1,5.212-14.852c1.667-3.623,2.71-3.779,6.176-4.587s9.354-2.267,15.425-3.6,12.326-2.528,16.182-3.126c1.234-.193,2.223-.323,3.033-.4-1.157,1.653-3.118,4.563-4.964,7.59a58.849,58.849,0,0,0-5.6,11.648c-1.823,5.107-3.648,11.987-4.743,15.686s-1.459,4.221-2.084,4.665-1.512.808-6.671,1.225-14.591.886-22.852.859a149.142,149.142,0,0,1-19.935-1.224c-4.585-.679-6.67-1.511-7.817-2.189s-1.354-1.2.13-5.838a202.074,202.074,0,0,1,7.786-20.142,104.554,104.554,0,0,1,7.817-13.98Z" transform="translate(66.139 118.177)" fill="#fff" fill-rule="evenodd"/>
        <path id="Path_197" data-name="Path 197" d="M145.855,335.9c.265-.7.556-1.428.871-2.184,1.928-4.639,4.741-10.372,6.878-15.062s3.6-8.339,3.179-8.339-2.71,3.648-5.289,8.052-5.446,9.563-7.088,12.534-2.059,3.753-3,3.414-2.4-1.8-5.212-3.387c-1-.564-2.168-1.146-3.392-1.7,1.709-3.393,3.665-7.78,5.425-12.35.98-2.548,1.9-5.153,2.7-7.72,2.959,1.523,5.334,3.064,6.13,3.316,1.068.338-.7-1.642-2.788-3.257-.916-.709-1.89-1.348-2.778-1.918a72.279,72.279,0,0,0,2.047-8.765q.24-1.514.373-2.922c0-.094.007-.2.017-.321.044-.568.1-1.373.118-2.325s.011-2.053-.086-3.43-.279-3.03-.482-4.975a34.944,34.944,0,0,0-1.285-7.048,59.761,59.761,0,0,0-3.359-8.332c-.991-1.983-1.469-2.46-.513-2.257s3.34,1.082,6.275,1.816,6.426,1.321,9.661,1.924,6.223,1.221,7.956,1.568c1.11.223,1.706.336,2.154.415l.033.006.5.084a25.219,25.219,0,0,1,4.534.99c.781.313,1.095.678,1.015,1.876a36.7,36.7,0,0,1-1.432,6.359c-.886,3.126-2.189,7.347-2.945,9.953s-.964,3.6-.756,4.17.834.729,3.8.234l.228-.038c-.142.271-.3.589-.493.964-1.095,2.176-3.074,6.267-5.328,10.7s-4.781,9.2-6.749,13.171-3.375,7.153-4.821,9.38a14.212,14.212,0,0,1-4.234,4.353,17.712,17.712,0,0,1-1.882,1.048" transform="translate(55.497 111.529)" fill="#fff" fill-rule="evenodd"/>
        <path id="Path_198" data-name="Path 198" d="M243.193,333.978c-.028.129-.054.257-.078.384-.495,2.632-.181,5.082-.364,6.593s-.859,2.084-8.1,4.2-21.056,5.758-34.007,8.989-25.041,6.046-33.068,7.5-11.987,1.564-14.9,1.3a17.436,17.436,0,0,1-6.41-1.667c-1.615-.781-2.971-1.72-3.335-3.96s.261-5.785-.157-9.277-1.874-6.931-2.084-10.423a19.9,19.9,0,0,1,1.148-7.377c.526-.137,1.117-.317,1.727-.542a11.713,11.713,0,0,0,5-3.349c1.6-1.838,3.036-4.6,5.812-10.305s6.892-14.357,9.72-19.816a62.254,62.254,0,0,1,4.841-8.256c2.882-.591,6.471-1.445,9.586-2.391l.279-.088a71.981,71.981,0,0,0-5.116,8.153,106.932,106.932,0,0,0-7.322,16.782,46.037,46.037,0,0,0-2.385,12.652c-.027,2.5.495,2.918,2.918,3.726s6.749,2.006,15.01,2.528,20.456.364,27.934.129,10.241-.547,12.273-.937a8.9,8.9,0,0,0,4.274-1.667c.939-.808,1.511-1.955,2.581-6.334s2.63-11.985,5.446-18.528,6.878-12.012,8.741-14.838c.262-.4.482-.744.662-1.045a4.219,4.219,0,0,1,.787.2c1.095.391,1.823,1.171,3.543,3.726.644.956,1.426,2.16,2.3,3.431-.631,1.674-1.781,4.29-3.07,7.97a140.8,140.8,0,0,0-4.065,13.992,59.174,59.174,0,0,0-1.642,11.231,14.127,14.127,0,0,0,.991,6.111c.166.411.35.819.539,1.2" transform="translate(58.778 119.304)" fill="#e69aba" fill-rule="evenodd"/>
        <path id="Path_199" data-name="Path 199" d="M243.193,333.978c-.028.129-.054.257-.078.384-.495,2.632-.181,5.082-.364,6.593s-.859,2.084-8.1,4.2-21.056,5.758-34.007,8.989-25.041,6.046-33.068,7.5-11.987,1.564-14.9,1.3a17.435,17.435,0,0,1-6.41-1.667c-1.615-.781-2.97-1.72-3.335-3.96s.261-5.785-.157-9.277-1.874-6.931-2.084-10.423a16.84,16.84,0,0,1,.352-4.4c.342,1.7.3,3.657.7,5.462.571,2.6,2.049,4.865,2.935,6.734s1.178,3.338,3.142,4.384,5.6,1.67,8.792,2,5.947.369,4.9.644-5.891.79-8.883,1.689-4.13,2.185-3.634,3.377,2.624,2.294,7.157,2.5,11.472-.495,20.667-2.239,20.649-4.533,29.221-7.087,14.261-4.865,17.345-6.624,3.56-2.973,3.8-4.02.238-1.927-.808-2.257a16.215,16.215,0,0,0-3.818-.129c-.679-.018.055-.275,1.083-.917s2.349-1.67,2.477-2.643-.936-1.891-5.23-2.4-11.82-.624-19.768-.642-16.317.055-22.741-.513-10.9-1.781-13.342-2.955-2.846-2.314-3.03-4.461a27.926,27.926,0,0,1,1.066-9.819c1.211-4.516,3.6-10.392,4.9-14.318s1.524-5.91,1.065-6.48-1.6.276-3.708,3.194c-.851,1.176-1.859,2.686-3.084,4.2.656-1.317,1.282-2.552,1.855-3.658a62.254,62.254,0,0,1,4.841-8.256c2.883-.591,6.471-1.445,9.586-2.391l.279-.088a71.98,71.98,0,0,0-5.116,8.153,106.95,106.95,0,0,0-7.322,16.782,46.041,46.041,0,0,0-2.385,12.652c-.027,2.5.495,2.918,2.918,3.726s6.749,2.006,15.01,2.528,20.456.364,27.934.129,10.241-.547,12.273-.937a8.9,8.9,0,0,0,4.273-1.667c.939-.808,1.512-1.955,2.581-6.334s2.63-11.985,5.446-18.528,6.878-12.012,8.741-14.838c.262-.4.482-.744.662-1.045a4.218,4.218,0,0,1,.787.2c1.095.391,1.823,1.171,3.543,3.726.644.956,1.426,2.16,2.3,3.431-.631,1.674-1.781,4.29-3.07,7.97a140.784,140.784,0,0,0-4.065,13.992,59.194,59.194,0,0,0-1.642,11.231,14.128,14.128,0,0,0,.991,6.111c.166.411.35.819.539,1.2" transform="translate(58.778 119.304)" fill="#e183b2" fill-rule="evenodd"/>
        <path id="Path_200" data-name="Path 200" d="M275.425,258.951a32.4,32.4,0,0,1,13.654,6.463c4.69,3.908,8.444,9.848,10.787,16.05s3.284,12.665-.468,24.182-12.2,28.091-16.625,36.481-4.846,8.6-5.16,8.287a23.226,23.226,0,0,0-3.648-4.222c-3.127-3.074-9.172-8.39-11.048-9.484s.417,2.032,3.857,6.046,8.025,8.911,10.892,12.456,4.013,5.731,3.908,9.224-1.458,8.286-3.074,12.664-3.492,8.339-4.587,9.276-1.407-1.146-3.074-5.263a55.647,55.647,0,0,0-9.433-15.635,45.2,45.2,0,0,0-18.033-12.4c-6.827-2.449-14.019-2.762-18.4-3.179s-5.94-.937-6.566-2.242-.312-3.386.678-5.263,2.658-3.543,6.1-4.481,8.651-1.148,9.642-1.564-2.242-1.044-4.8-1.459-4.43-.625-4.587-2.241,1.408-4.638,4.065-6.1,6.412-1.355,10.736-.522,9.225,2.4,10.058,2.4-2.4-1.563-5.055-2.552-4.743-1.408-5.681-2.242-.729-2.084,1.772-7.817,7.3-15.948,8.442-19.647-1.354-.886-4.272,4.585-6.254,13.6-8.5,17.668-3.387,4.064-5.394,4.377a17.912,17.912,0,0,0-6.724,2.189,8.712,8.712,0,0,0-3.23,4.794c-.547,1.667-.808,3.128-1.747,4.353s-2.554,2.215-4.013,4.116a16.883,16.883,0,0,0-1.7,2.79,19.5,19.5,0,0,1-.634-4.17,30.779,30.779,0,0,1,.625-6.958,64.488,64.488,0,0,1,2.52-9.157c1.307-3.814,3.193-8.655,4.275-11.221.421-1,.72-1.655.936-2.1a31.309,31.309,0,0,0,2.92,3.4,13.316,13.316,0,0,0,6.644,3.855c1.147.13.678-.651.678-3.282a34.219,34.219,0,0,1,2.97-13.108c2.5-5.992,7.036-13.5,9.928-19.49a82.764,82.764,0,0,0,4.9-12.9c.756-2.423,1.017-2.788,1.669-3.153a15.855,15.855,0,0,1,4.3-1.276c2.6-.547,6.775-1.276,9.381-1.667s3.648-.444,4.69-.73,2.086-.81,5.421-.132" transform="translate(89.24 108.073)" fill="#fff" fill-rule="evenodd"/>
        <path id="Path_201" data-name="Path 201" d="M72.061,369.545a21.912,21.912,0,0,1-5.011-2.789,6.363,6.363,0,0,1-2.3-6.541,21.054,21.054,0,0,1,3.543-7.271c1.615-2.371,3.387-4.611,4.743-6.749a47.547,47.547,0,0,1,3.543-5.575,8.377,8.377,0,0,1,4.768-2.606c1.955-.417,4.3-.469,4.665-.73s-1.251-.73-3.1-1.015a9.226,9.226,0,0,0-5.863.625c-1.928,1.017-3.7,3.152-4.456,3.335s-.495-1.589.183-4.039a17.431,17.431,0,0,1,4.169-7.947c2.4-2.372,6.1-3.987,8.964-4.873s4.9-1.042,4.248-1.146-3.987-.156-5.394-.73-.886-1.667.129-2.945a11.376,11.376,0,0,1,4.9-3.647,35.724,35.724,0,0,1,8.054-1.564c2.449-.288,4.116-.495,3.908-.808s-2.293-.729-3.987-1.017-3-.442-3.36-1.615.207-3.362,1.876-5.343a19.446,19.446,0,0,1,6.305-4.585c1.876-.834,2.867-.73,6.619.13a63.586,63.586,0,0,1,16.338,5.811,54.334,54.334,0,0,1,16.1,14.019c4.4,5.629,7.583,11.831,9.928,15.609s3.857,5.133,8.207,8.625a150.877,150.877,0,0,0,23.582,15.687c12.039,6.566,28.925,14.07,41.8,19.8s21.732,9.694,27.778,13.239,9.277,6.67,10.475,7.3.364-1.251-1.015-2.813a23.907,23.907,0,0,0-4.534-3.648c-1.225-.834-1.745-1.252-1.069-1.85a13.083,13.083,0,0,1,8.833-1.955c1.278.208,2.267.625,4.56,3.491s5.89,8.182,9.2,12.3,6.332,7.036,7.218,10.162-.366,6.463-4.014,11.206-9.693,10.892-15.737,14.175-12.092,3.7-18.241,2.814-12.4-3.074-24.443-11.413-29.861-22.827-45.028-35.022-27.671-22.1-36.637-28.4A116.666,116.666,0,0,0,125.1,358.754c-3.023-1.459-3.648-1.667-2.711-.73s3.441,3.023,4.873,4.351,1.8,1.9.678,2.633a22.482,22.482,0,0,1-6.931,2.213,37.6,37.6,0,0,1-11,.469A47.794,47.794,0,0,1,97.531,364.3c-4.326-1.745-8.808-4.038-11.257-5.211-.742-.356-1.295-.607-1.693-.765-1.114-.515-2.354-1.075-3.548-1.585a15.809,15.809,0,0,0-6.127-1.689,4.121,4.121,0,0,0-4,2.88,16.833,16.833,0,0,0-.262,7.034,11.636,11.636,0,0,0,1.12,3.949c.176.319.328.509.3.628" transform="translate(26.994 125.113)" fill="#fca921" fill-rule="evenodd"/>
        <path id="Path_202" data-name="Path 202" d="M71.375,369.545a21.912,21.912,0,0,1-5.011-2.789l-.126-.108a31.907,31.907,0,0,1,1.811-8.613c1.065-2.973,2.313-4.662,4.956-5.1s6.681.366,8.772.661,2.24.072,1.543-.4-2.239-1.212-1.1-1.065a92.832,92.832,0,0,1,10.057,2.79c5.1,1.615,11.491,3.817,15.822,4.514s6.607-.111,7.744-1.506,1.139-3.376,1.726-4.367,1.762-.991,3.377-.552a36.515,36.515,0,0,1,7.452,3.378,138.733,138.733,0,0,1,16.537,10.645c7.25,5.359,16.245,12.847,27.863,21.988s25.861,19.933,37.278,27.055,20.006,10.572,27.055,12,12.554.844,17.179-1.065,8.37-5.138,9.839-8.846a11.522,11.522,0,0,0-1.762-11.123,19.112,19.112,0,0,0-7.672-5.836c-1.211-.33.4,1.285,1.947,4.074s3.009,6.755,2.459,6.755-3.119-3.964-7.893-8.883a97.353,97.353,0,0,0-21.988-16.63c-10.241-5.836-23.75-11.635-36.121-18.134s-23.6-13.692-31.534-18.5-12.554-7.231-16.042-8.222-5.836-.55-6.13-1.285,1.467-2.643,1.689-5.542-1.1-6.792-4.186-11.2a68.549,68.549,0,0,0-12.408-12.923,51.478,51.478,0,0,0-12.3-7.444c-3.706-1.571-7.007-2.437-9.71-2.107-2.413.3-4.347,1.547-5.31,1.806a20.832,20.832,0,0,1,4.71-3c1.876-.834,2.867-.73,6.619.13a63.586,63.586,0,0,1,16.338,5.811,54.334,54.334,0,0,1,16.1,14.019c4.4,5.629,7.583,11.831,9.928,15.609s3.857,5.133,8.207,8.625a150.878,150.878,0,0,0,23.582,15.687c12.039,6.566,28.925,14.07,41.8,19.8s21.732,9.694,27.778,13.239,9.277,6.67,10.475,7.3.364-1.251-1.015-2.813a23.908,23.908,0,0,0-4.534-3.648c-1.225-.834-1.745-1.252-1.069-1.85a13.083,13.083,0,0,1,8.833-1.955c1.278.208,2.267.625,4.56,3.491s5.89,8.182,9.2,12.3,6.332,7.036,7.218,10.162-.366,6.463-4.014,11.206-9.693,10.892-15.737,14.175-12.092,3.7-18.241,2.814-12.4-3.074-24.443-11.413-29.861-22.827-45.028-35.022-27.671-22.1-36.637-28.4a116.666,116.666,0,0,0-17.406-10.474c-3.023-1.459-3.648-1.667-2.711-.73s3.441,3.023,4.873,4.351,1.8,1.9.678,2.633a22.482,22.482,0,0,1-6.931,2.213,37.6,37.6,0,0,1-11,.469A47.794,47.794,0,0,1,96.844,364.3c-4.326-1.745-8.808-4.038-11.257-5.211-.742-.356-1.295-.607-1.693-.765-1.114-.515-2.354-1.075-3.548-1.585a15.809,15.809,0,0,0-6.127-1.689,4.121,4.121,0,0,0-4,2.88,16.833,16.833,0,0,0-.262,7.034,11.636,11.636,0,0,0,1.12,3.949c.176.319.328.509.3.628" transform="translate(27.68 125.113)" fill="#fc8320" fill-rule="evenodd"/>
        <path id="Path_203" data-name="Path 203" d="M139.507,323.068c-2.881,5.245-3.407,6-3.858,6.135-.478.14-.872-.423-2.844-3.351a78.854,78.854,0,0,0-9.771-12.364,46.532,46.532,0,0,0-14.193-9.263,77.534,77.534,0,0,0-8.8-3.092,44.6,44.6,0,0,0,4.584-1.889,73.388,73.388,0,0,0,8.833-4.717,41.138,41.138,0,0,0,4.6-3.7c.886-.717,1.328-.743,1.85.834a70.415,70.415,0,0,0,2.815,8.729,62.413,62.413,0,0,0,7.556,12.743,82.7,82.7,0,0,0,8.2,8.938c.432.418.767.746,1.031,1" transform="translate(41.806 121.335)" fill="#009fe3" fill-rule="evenodd"/>
        <path id="Path_204" data-name="Path 204" d="M96.464,300.29c.424-1.093.831-2.236,1.173-3.4,1.239-4.223,1.577-8.673,3.519-14.192s5.491-12.109,12.446-15.459,17.318-3.464,24.922-1.268,12.446,6.7,15.117,13.374,3.169,15.51.325,25.675a97.683,97.683,0,0,1-5.472,14.272c-.17-.157-.37-.335-.6-.536a40.064,40.064,0,0,1-5.163-5.318,79.753,79.753,0,0,1-8.166-11.98,49.238,49.238,0,0,1-4.065-10.449c-.651-2.4-.807-3.387-.678-4.168a17.773,17.773,0,0,1,.808-2.189,5.074,5.074,0,0,0,.078-2.867,3.028,3.028,0,0,0-1.9-2.033,4.693,4.693,0,0,0-3.335.391,6.968,6.968,0,0,0-2.841,2.242c-.442.756-.129,1.329-.234,2.111s-.625,1.771-2.867,3.8a53,53,0,0,1-10.657,7.4,62.891,62.891,0,0,1-12.208,4.534Z" transform="translate(40.311 110.529)" fill="#009fe3" fill-rule="evenodd"/>
        <path id="Path_205" data-name="Path 205" d="M94.57,302.13a40.93,40.93,0,0,1,1.866-4.862c1.839-.57,4.744-1.278,7.876-2.422a51.994,51.994,0,0,0,10.45-5.2,57.914,57.914,0,0,0,7.83-6.254c1.564-1.5,1.747-1.914,1.981-2.683a8.125,8.125,0,0,1,1.147-2.684,2.557,2.557,0,0,1,2.4-1.082,2.117,2.117,0,0,1,1.512,1.968,8.166,8.166,0,0,1-.742,2.775,5.345,5.345,0,0,0,.013,2.735,32.869,32.869,0,0,0,2.1,8.1,59.025,59.025,0,0,0,7.427,13.419,63.271,63.271,0,0,0,8.924,9.226c.435.381.781.689,1.059.932-1.847,3.85-3.706,7.355-5.2,10.1-.638-.679-1.852-1.7-3.991-3.854a59.294,59.294,0,0,1-8.012-9.734,53.072,53.072,0,0,1-5.419-12.065,76.032,76.032,0,0,1-1.955-7.791c-.325-1.485-.482-1.745-.743-1.655a18.49,18.49,0,0,0-2.345,2.164,52.539,52.539,0,0,1-8.168,6.514,46.622,46.622,0,0,1-9.732,4.288,33.911,33.911,0,0,1-5.106,1.38c-2.725-.77-3.675-1.227-3.165-3.321" transform="translate(39.464 115.714)" fill="#ececec" fill-rule="evenodd"/>
        <path id="Path_206" data-name="Path 206" d="M71.76,341.069a4.345,4.345,0,0,0-1.251,2.983,18,18,0,0,0,.43,5.511,12.82,12.82,0,0,0,2.97,6.1c1.733,1.9,4.417,3.57,8,5.471a40.064,40.064,0,0,0,13.12,4.741,34.17,34.17,0,0,0,14.7-1.381,20.757,20.757,0,0,0,8.781-5.758,47.5,47.5,0,0,0,5.5-6.593c.783-1.3,0-1.041-2.371-.39a45.822,45.822,0,0,1-10.214,1.823,32.811,32.811,0,0,1-11.7-2.006,116.67,116.67,0,0,1-12.039-5.08c-3.8-1.8-7.192-3.467-9.381-4.483a14.582,14.582,0,0,0-4.1-1.5,3.065,3.065,0,0,0-2.436.56" transform="translate(29.438 142.277)" fill="#009fe3" fill-rule="evenodd"/>
        <path id="Path_207" data-name="Path 207" d="M82.374,364.232a49.458,49.458,0,0,0-4.065,13.029,23.429,23.429,0,0,0,1.511,13.368,21.343,21.343,0,0,0,10.136,10.684,34.937,34.937,0,0,0,20.4,2.944c7.9-1.12,16.391-4.768,26.58-9.693s22.071-11.126,28.012-14.306,5.941-3.335,3.075-5.836-8.6-7.349-14.332-11.518a140.462,140.462,0,0,0-14.723-9.408c-3.257-1.745-4.038-1.745-6.775-1.484s-7.425.781-10.136,1.354-3.44,1.2-5.421,2.762a48.672,48.672,0,0,1-8.573,5.68,27.933,27.933,0,0,1-9.85,2.58,30.7,30.7,0,0,1-7.3-.313,22.126,22.126,0,0,1-3.752-.886,16.981,16.981,0,0,1-2.137-.859c-.651-.312-1.33-.678-2.659,1.9" transform="translate(32.579 147.047)" fill="#fca921" fill-rule="evenodd"/>
        <path id="Path_208" data-name="Path 208" d="M88.428,401.284l.054.028a34.947,34.947,0,0,0,20.4,2.944c7.9-1.12,16.391-4.768,26.58-9.693s22.071-11.127,28.012-14.306,5.941-3.335,3.075-5.836-8.6-7.349-14.332-11.518A140.481,140.481,0,0,0,137.5,353.5c-3.258-1.745-4.04-1.745-6.775-1.484s-7.427.781-10.138,1.354-3.44,1.2-5.421,2.762a48.671,48.671,0,0,1-8.572,5.68,27.925,27.925,0,0,1-9.85,2.58,30.7,30.7,0,0,1-7.3-.313,22.128,22.128,0,0,1-3.752-.886,16.98,16.98,0,0,1-2.137-.859c-.547-.262-1.112-.56-2.066.875.182.183.369.363.564.54a22.517,22.517,0,0,0,9.576,4.681,25.106,25.106,0,0,0,10.385.456c2.79-.587,4.478-1.908,6.938-3.671a75.842,75.842,0,0,1,8.957-5.653,44.7,44.7,0,0,1,9.324-3.56c2.754-.7,4.955-.917,8.994.807a70.867,70.867,0,0,1,14.1,8.737c4.186,3.34,6.681,6.351,7.379,8.663s-.4,3.927-7.929,8.259a233.944,233.944,0,0,1-32.745,15.418c-11.269,4.038-19.859,5.066-27.311,3.671-.435-.081-.865-.17-1.292-.268" transform="translate(34.054 147.047)" fill="#fc8320" fill-rule="evenodd"/>
        <path id="Path_209" data-name="Path 209" d="M158.725,348.045c4.56-1.276,14.515-3.152,24.339-5.263s19.516-4.456,29.237-6.905,19.465-5,26.5-6.593,11.362-2.215,15.217-2.137a29.273,29.273,0,0,1,11.519,2.684,56.066,56.066,0,0,1,13.627,8.234c4.2,3.545,7.427,7.766,8.938,11.883a20.753,20.753,0,0,1,.7,11.178,15.791,15.791,0,0,1-2.267,6.019c-.678.886-1.042.573-1.876-1.407a32.288,32.288,0,0,0-4.924-8.964,45.33,45.33,0,0,0-9.982-8.208c-2.918-1.85-4.481-2.528-4.481-2.242s1.563,1.537,3.933,3.674a53.72,53.72,0,0,1,7.662,8.157,22.579,22.579,0,0,1,3.752,9.067,30.509,30.509,0,0,1,.417,9.172,21.6,21.6,0,0,1-2.11,7.139,9.59,9.59,0,0,1-3.1,3.831,2.442,2.442,0,0,1-3.387-.156c-1.069-1.095-2.006-3.492-3.57-6.827s-3.752-7.608-6.593-10.684a21.393,21.393,0,0,0-7.53-5.316c-1.2-.364-.1.781,1.459,2.476a46.876,46.876,0,0,1,5.55,7.035,54.354,54.354,0,0,1,5.16,10.945c1.33,3.882,2.111,7.687,1.747,10.97a14.931,14.931,0,0,1-4.326,8.677,31.542,31.542,0,0,1-8.261,6.305c-2.423,1.173-3.882,1.017-4.456.417s-.26-1.642-.078-2.945.235-2.866,1.069-3.908a8.176,8.176,0,0,1,3.023-1.85c.573-.286.1-.339-.73-.391a6.973,6.973,0,0,1-3.048-.676c-1.017-.574-1.85-1.669-4.743-5.734s-7.844-11.1-11.282-15.244-5.368-5.394-8.052-5.706a31.884,31.884,0,0,0-8.365.7,31.078,31.078,0,0,1-4.194.573c-.913.025-1.694-.078-4.431-1.042s-7.426-2.787-11.987-4.846a73.143,73.143,0,0,1-10.84-5.733c-1.849-1.381-1.12-1.85,1.147-2.606s6.071-1.8,6.41-2.162-2.787-.053-5.837.337-6.019.861-8.025.913-3.048-.313-6.88-1.928-10.448-4.482-14.071-6.073a31.094,31.094,0,0,1-4.977-2.4c-.729-.495-1.564-1.171,3-2.449" transform="translate(64.836 136.707)" fill="#fca921" fill-rule="evenodd"/>
        <path id="Path_210" data-name="Path 210" d="M158.725,348.045c4.56-1.276,14.515-3.152,24.339-5.263q6.6-1.419,13.14-2.966c-3.508,1.5-6.726,2.911-9.194,4.161-8.258,4.186-8.112,6.535-6.933,8.985s3.39,5,8.9,5.256,14.309-1.78,17.278-2.172.106.854-1.95,2.506-3.3,3.708-1.285,5.837,7.3,4.33,12.3,4.954,9.691-.33,13.362-.439,6.314.624,8.663.624a6.618,6.618,0,0,0,5.836-2.79c1.432-2.056,2.24-5.432,2.717-7.6s.625-3.119,2.02-3.745,4.037-.917,5.762-2.239,2.532-3.671,3.047-5.616.734-3.488,2.753-4.736,5.836-2.2,6.827-4.074-.844-4.663-2.908-6.715a15.217,15.217,0,0,0-8.324-4.212c-1.061-.225-2.24-.418-3.379-.618.8-.041,1.575-.052,2.327-.037a29.281,29.281,0,0,1,11.519,2.684,56.072,56.072,0,0,1,13.627,8.234c4.2,3.545,7.427,7.766,8.938,11.883a20.755,20.755,0,0,1,.7,11.179,15.788,15.788,0,0,1-2.267,6.019c-.678.886-1.042.573-1.876-1.407a32.288,32.288,0,0,0-4.924-8.964,45.33,45.33,0,0,0-9.982-8.208c-2.918-1.85-4.481-2.528-4.481-2.242s1.563,1.537,3.933,3.674a53.726,53.726,0,0,1,7.662,8.157,22.581,22.581,0,0,1,3.752,9.067,30.507,30.507,0,0,1,.417,9.172,21.594,21.594,0,0,1-2.11,7.139,9.592,9.592,0,0,1-3.1,3.831,2.442,2.442,0,0,1-3.387-.156c-1.069-1.095-2.006-3.492-3.57-6.827s-3.752-7.608-6.593-10.684a21.393,21.393,0,0,0-7.53-5.316c-1.2-.364-.1.781,1.459,2.476a46.876,46.876,0,0,1,5.55,7.035,54.359,54.359,0,0,1,5.16,10.945c1.33,3.882,2.111,7.686,1.747,10.97a14.932,14.932,0,0,1-4.326,8.678,31.549,31.549,0,0,1-8.261,6.305c-2.423,1.172-3.882,1.017-4.456.417s-.26-1.642-.078-2.945.235-2.865,1.069-3.908a8.178,8.178,0,0,1,3.023-1.85c.573-.286.1-.339-.73-.391a6.971,6.971,0,0,1-3.048-.676c-1.017-.574-1.85-1.669-4.743-5.734s-7.844-11.1-11.282-15.244-5.368-5.394-8.052-5.706a31.878,31.878,0,0,0-8.365.7,31.118,31.118,0,0,1-4.194.573c-.913.025-1.694-.078-4.431-1.042s-7.426-2.788-11.987-4.846a73.133,73.133,0,0,1-10.84-5.732c-1.849-1.381-1.12-1.85,1.147-2.606s6.071-1.8,6.41-2.162-2.787-.052-5.837.338-6.019.861-8.025.913-3.048-.313-6.88-1.928-10.448-4.482-14.071-6.073a31.073,31.073,0,0,1-4.977-2.4c-.729-.495-1.564-1.171,3-2.449" transform="translate(64.836 136.707)" fill="#fc8320" fill-rule="evenodd"/>
        <path id="Path_211" data-name="Path 211" d="M134.153,313.3a17.031,17.031,0,0,1,5,2.189,5.463,5.463,0,0,1,2.633,3.414,28.878,28.878,0,0,1,.625,5.55,34.682,34.682,0,0,0,.676,5.915c.469,2.137,1.3,4.585,1.721,6.827a15.1,15.1,0,0,1,.207,5.158c-.207.886-.625.625-2.71-.729a72.508,72.508,0,0,1-8.286-6.02,17.947,17.947,0,0,1-4.534-6.2,30.5,30.5,0,0,1-1.954-5.265c-.286-1.224-.13-1.64.625-2.865s2.11-3.257,2.892-4.587a19.045,19.045,0,0,0,1.251-2.527c.261-.574.574-1.1,1.85-.86" transform="translate(53.239 130.9)" fill="#fca921" fill-rule="evenodd"/>
        <path id="Path_212" data-name="Path 212" d="M152.028,374.912a63.3,63.3,0,0,1,.7,9.459,59.334,59.334,0,0,1-1.981,14.254c-1.3,4.794-3.284,9.172-7.557,17.667s-10.84,21.107-14.593,31.53a70.133,70.133,0,0,0-4.442,20.762,263.984,263.984,0,0,0,211.863-10.131q-.734-2.089-1.67-4.275c-6.67-15.53-21.471-34.708-30.331-47.424-2.469-3.543-4.475-6.585-6.122-9.211-.347-.4-.692-.834-1.017-1.173-.889-.927-1.645-1.163-2.415-.445s-1.55,2.383-3.426,4.39a34.8,34.8,0,0,1-9.2,6.644,97.721,97.721,0,0,1-12.065,5.185c-1.979.652-.208-.287,2.554-1.823a67.721,67.721,0,0,0,9.721-6.28,27.883,27.883,0,0,0,7.372-8.714,25.078,25.078,0,0,0,2.181-8.893l.02-.186c-.4-.856-.73-1.613-1.022-2.294-1.642-3.831-2.006-5.239-2.657-5.317s-1.589,1.173-3.128,3.257a65.017,65.017,0,0,1-6.071,7.4,26.966,26.966,0,0,1-7.608,5.445c-2.554,1.174-5,1.643-6.7,2.58s-2.632,2.345-6.332,6.332c-7.3,7.867-14.062,12.626-22.5,15.419-.024.157-.047.323-.067.5-.261,2.293-.052,6.2-.235,10.006a35.291,35.291,0,0,1-1.72,10.058c-.964,2.554-2.318,3.96-7.4,5.628a89.881,89.881,0,0,1-22.306,3.935,82.5,82.5,0,0,1-22.122-2.293,42.857,42.857,0,0,1-10.294-3.621c-1.276-.73-.495-.678,1.72-.208s5.864,1.354,10.945,2.006a109.78,109.78,0,0,0,18.5.754,115.4,115.4,0,0,0,18.631-2.371c4.431-1.015,5.993-2.006,7.167-3.153s1.954-2.449,2.215-6.383c.252-3.822.014-10.128.072-13.5a71.755,71.755,0,0,1-28.11.754,119.391,119.391,0,0,1-20.742-5.472,85.306,85.306,0,0,1-12.143-5.238c-1.3-.808.834-.183,5.16,1.12s10.84,3.282,17.772,4.717a140.6,140.6,0,0,0,20.5,2.637,53.671,53.671,0,0,0,12.984-.614c-1.649-.282-3.3-.658-4.948-1.085a68.751,68.751,0,0,1-20.742-9.042c-7.27-4.69-15.086-11.465-22.3-17.406S164.3,379.756,160.1,376.6a57.181,57.181,0,0,0-6.932-4.821c-.964-.469-1.12-.208-1.225.208a8.19,8.19,0,0,0,.081,2.92" transform="translate(51.884 155.258)" fill="#e69aba" fill-rule="evenodd"/>
        <path id="Path_213" data-name="Path 213" d="M146.864,374.91a63.262,63.262,0,0,1,.7,9.46,59.469,59.469,0,0,1-1.981,14.253c-1.3,4.8-3.284,9.172-7.557,17.667-.479.953-.988,1.957-1.517,3,.564-.859,1.1-1.659,1.609-2.358,2.166-2.973,3.818-4.094,5.93-4.434a18.592,18.592,0,0,1,6.919.652c2.239.551,4.149,1.212,3.634.147s-3.451-3.854-4.588-7.709-.478-8.774.074-12.7.991-6.864,3.671-7.085,7.6,2.276,13.032,6.314a146.861,146.861,0,0,1,15.16,13.436c3.781,3.818,5.4,5.873,3.594,6.766s-7.02.621-10.729.157c-1.74-.217-3.148-.476-3.969-.54,4.288,1.289,10.285,3.061,16.635,4.374a140.445,140.445,0,0,0,20.5,2.639,53.7,53.7,0,0,0,12.985-.615c-1.649-.282-3.3-.658-4.948-1.085a68.721,68.721,0,0,1-20.742-9.042c-7.271-4.689-15.086-11.465-22.3-17.406s-13.837-11.048-18.033-14.2a57.247,57.247,0,0,0-6.932-4.821c-.964-.468-1.12-.209-1.224.208a8.212,8.212,0,0,0,.079,2.919m183.994,83.54q-.734-2.086-1.67-4.273c-6.671-15.53-21.472-34.708-30.332-47.425-2.468-3.542-4.475-6.583-6.122-9.21-.349-.4-.692-.832-1.018-1.171-.889-.927-1.645-1.163-2.413-.447s-1.551,2.385-3.427,4.391a34.794,34.794,0,0,1-9.2,6.644,98.147,98.147,0,0,1-12.065,5.185c-1.981.651-.208-.286,2.554-1.825a67.66,67.66,0,0,0,9.72-6.28,27.849,27.849,0,0,0,7.372-8.714,25.105,25.105,0,0,0,2.182-8.893l.02-.184c-.4-.856-.732-1.615-1.022-2.3-1.642-3.831-2.006-5.238-2.659-5.317s-1.589,1.173-3.126,3.258a65.315,65.315,0,0,1-6.071,7.4,27,27,0,0,1-7.608,5.446c-2.555,1.173-5,1.642-6.7,2.581s-2.633,2.345-6.332,6.332c-7.3,7.865-14.063,12.625-22.5,15.418q-.038.236-.068.5c-.26,2.293-.053,6.2-.234,10.006a35.345,35.345,0,0,1-1.72,10.059c-.964,2.554-2.32,3.961-7.4,5.629a90.023,90.023,0,0,1-22.306,3.935q-.893.036-1.779.048c1.557.118,3.121.206,4.656.248a80.194,80.194,0,0,0,22.835-2.567c5.066-1.43,6.829-2.9,7.709-6.166s.88-8.333.991-11.71.33-5.066,2.019-6.351,4.845-2.165,7.781-3.414,5.653-2.863,7.526-1.8,2.9,4.809,1.982,7.306-3.781,3.743-5.249,4.734-1.541,1.726.478,2.019,6.13.148,9.433,1.909,5.8,5.433,7.268,11.013a40.8,40.8,0,0,1,.367,19.089,24.684,24.684,0,0,1-9.911,14.1c-4.356,3.167-9.778,5.5-12.056,6.744,1.561-.173,3.122-.345,4.675-.544q.749-.283,1.581-.62c5.8-2.35,14.61-6.755,21.658-9.544s12.336-3.964,17.548-4.186,10.352.515,10.5,1.028-4.7.808-12.041,3.745c-2.386.956-5.039,2.189-7.956,3.593a261.8,261.8,0,0,0,52.13-19.418M195.774,445.9q.84-.023,1.69-.062a115.4,115.4,0,0,0,18.631-2.371c4.431-1.016,5.993-2.006,7.166-3.153s1.954-2.448,2.215-6.383c.254-3.822.016-10.129.072-13.5a71.69,71.69,0,0,1-28.108.756,119.317,119.317,0,0,1-20.742-5.473c-1.5-.537-2.917-1.079-4.223-1.6a61.993,61.993,0,0,0,11.939,6.032,77.022,77.022,0,0,0,17.657,3.841c4.662.515,7.231.515,8.809,1.541s2.167,3.084,2.46,5.213a11.3,11.3,0,0,1-.841,6.725c-1.134,2.394-3.4,4.977-8.9,6.728a52.987,52.987,0,0,1-7.821,1.706" transform="translate(57.047 155.258)" fill="#e183b2" fill-rule="evenodd"/>
        <path id="Path_214" data-name="Path 214" d="M119.552,183.715c2.936-1.175,7.379-1.432,12.5-1.12a86.851,86.851,0,0,1,15.337,2.328c4.407,1.137,7.417,2.532,9.032,3.927a4.666,4.666,0,0,1,1.612,4.693,18.155,18.155,0,0,1-2.7,7.323,37.918,37.918,0,0,1-8.822,9.836,46.306,46.306,0,0,1-12.934,7.289,10.411,10.411,0,0,1-8.068-.252,14.792,14.792,0,0,1-6.938-5.323,32.674,32.674,0,0,1-5.069-12.113,20.4,20.4,0,0,1,.706-10.514c.97-2.809,2.4-4.9,5.338-6.076" transform="translate(47.276 76.253)" fill="#4f1212" fill-rule="evenodd"/>
        <path id="Path_215" data-name="Path 215" d="M133.921,207.7a30.921,30.921,0,0,0-.13,8.205,37.239,37.239,0,0,0,1.377,7.028,8.965,8.965,0,0,0,3.817,5.507,30.57,30.57,0,0,0,11.417,4.59,23.551,23.551,0,0,0,12.738-1.249c4.112-1.578,8.078-4.295,9.47-4.771s.221,1.285-2.055,3.523a32.577,32.577,0,0,1-9.582,6.644,25.61,25.61,0,0,1-12.37,1.947,22.318,22.318,0,0,1-10.243-3.781c-2.826-1.91-5.028-4.258-6.349-5.249s-1.762-.625-3.158,0a15.719,15.719,0,0,1-6.019,1.5,9.505,9.505,0,0,1-6.463-2.68,18.065,18.065,0,0,1-3.927-5.175c-.182-.661,1.212.733,3.01,1.835a13.014,13.014,0,0,0,6.094,1.982,7.632,7.632,0,0,0,5.287-1.689c1.21-1.1,1.652-2.643,1.429-6.57s-1.1-10.243-.991-13.436,1.214-3.267,2.975-3.414a34.835,34.835,0,0,1,5.286-.22c1.1.148.88.661.312,1.45a9.07,9.07,0,0,0-1.925,4.018" transform="translate(46.982 84.49)" fill="#4f1212" fill-rule="evenodd"/>
        <path id="Path_216" data-name="Path 216" d="M153.41,182.326c4.186.991,9.4,2.091,16.629-.074s16.483-7.6,25.072-12.334,16.52-8.774,23.053-10.243a25.682,25.682,0,0,1,15.344,1.066,25.3,25.3,0,0,1,7.3,4.367c1.432,1.175,2.093,1.762,1.984,1.212a24.717,24.717,0,0,0-2.166-4.258,20.748,20.748,0,0,0-4.736-6.02c-2.093-1.653-4.808-2.607-5.506-3.231s.624-.917,2.9-1.028,5.506-.037,6.277-.44-.917-1.286-3.45-2.46a27.614,27.614,0,0,0-9.765-2.9,25.311,25.311,0,0,0-12.334,2.678c-4.149,1.982-8.113,4.992-9.728,5.874s-.882-.367.367-2.093,3.01-3.928,2.35-3.891-3.745,2.313-7.635,5.579-8.589,7.525-13.032,11.2a84.84,84.84,0,0,1-13.106,9.213,42.368,42.368,0,0,1-14.353,5.029c-5.1.734-10.536.367-11.674.624s2.019,1.139,6.2,2.13" transform="translate(61.418 60.987)" fill="#4f1212" fill-rule="evenodd"/>
        <path id="Path_217" data-name="Path 217" d="M161.348,177.312c-.533,1.414-.129,3.689.569,6.2a25.932,25.932,0,0,0,3.8,8.3,34.549,34.549,0,0,0,9.232,8.865,26.259,26.259,0,0,0,14.316,4.4,49.054,49.054,0,0,0,18.391-3.671,24.131,24.131,0,0,0,11.38-9.066,27.107,27.107,0,0,0,4.551-14.244,45.614,45.614,0,0,0-2.936-16.335c-1.725-4.662-3.78-7.82-5.579-9.47s-3.341-1.8-10.059,1.541-18.611,10.169-26.174,14.243a113.435,113.435,0,0,1-13.141,6.332c-2.35.936-3.818,1.487-4.35,2.9" transform="translate(67.322 63.165)" fill="#4f1212" fill-rule="evenodd"/>
        <path id="Path_218" data-name="Path 218" d="M136.915,169.923a8.716,8.716,0,0,1-7.207-.048c-3.132-1.407-7.142-4.936-10.864-8.012s-7.157-5.7-9.99-6.653a7.722,7.722,0,0,0-6.648.692,11.352,11.352,0,0,0-3.165,2.837c-.621.763-.907,1.144-.861.787a20.348,20.348,0,0,1,.939-2.766,14.153,14.153,0,0,1,2.053-3.911,31.085,31.085,0,0,1,2.386-2.1c.3-.406-.271-.6-1.258-.668a9.472,9.472,0,0,1-2.719-.285c-.335-.264.4-.835,1.494-1.6a9.326,9.326,0,0,1,4.232-1.883,8.053,8.053,0,0,1,5.344,1.741,50.747,50.747,0,0,1,4.215,3.814c.7.573.383-.237-.159-1.358s-1.3-2.551-1.018-2.527,1.622,1.5,3.308,3.623,3.723,4.889,5.647,7.274a41.1,41.1,0,0,0,5.679,5.985,14.9,14.9,0,0,0,6.22,3.267,46.556,46.556,0,0,0,5.059.405c.493.167-.875.739-2.688,1.384" transform="translate(41.026 61.132)" fill="#4f1212" fill-rule="evenodd"/>
        <path id="Path_219" data-name="Path 219" d="M129.927,167.64a11.005,11.005,0,0,1-.247,4.03,21.727,21.727,0,0,1-1.646,5.389,20.212,20.212,0,0,1-4,5.758,9.011,9.011,0,0,1-6.2,2.861,15.331,15.331,0,0,1-7.97-2.383,12.669,12.669,0,0,1-4.931-5.889,24.09,24.09,0,0,1-1.972-9.253,43.046,43.046,0,0,1,1.273-10.613,18.857,18.857,0,0,1,2.417-6.151c.78-1.073,1.446-1.168,4.359,1s8.065,6.6,11.342,9.252a44.863,44.863,0,0,0,5.694,4.113c1.018.607,1.655.967,1.886,1.883" transform="translate(43.021 62.954)" fill="#4f1212" fill-rule="evenodd"/>
        <path id="Path_220" data-name="Path 220" d="M170.867,149.583a55.893,55.893,0,0,0,17.033-5.36c4.919-2.569,7.635-5.507,8.112-8.957a8.411,8.411,0,0,0-4.882-8.883c-3.6-1.469-9.03-.441-14.169,2.2a41.442,41.442,0,0,0-12.738,10.426c-2.754,3.524-3.414,6.312-2.313,8.222s3.964,2.936,8.957,2.349" transform="translate(67.448 52.532)" fill="#fff" fill-rule="evenodd"/>
        <path id="Path_221" data-name="Path 221" d="M129.262,152.971a23.6,23.6,0,0,1-9.711-5.36,13.24,13.24,0,0,1-4.624-8.957c-.274-3.451.732-7.416,2.782-8.883s5.15-.441,8.079,2.2A33.548,33.548,0,0,1,133.05,142.4c1.57,3.523,1.945,6.314,1.317,8.222s-2.26,2.936-5.106,2.349" transform="translate(48.008 53.948)" fill="#fff" fill-rule="evenodd"/>
        <path id="Path_222" data-name="Path 222" d="M185.358,272.225c3.634-.552,10.243-1.726,18.172-3.029s17.179-2.735,21.767-3.341,4.516-.386,2.259,1.8a115.772,115.772,0,0,1-11.6,9.913,142.209,142.209,0,0,1-14.922,9.178c-4.662,2.588-8.626,4.753-10.738,5.6s-2.368.367-3.4-1.689a96.544,96.544,0,0,1-4.038-8.957,25.613,25.613,0,0,1-1.816-7.582c.019-1.412.679-1.34,4.313-1.89" transform="translate(75.656 110.975)" fill="#fc8320" fill-rule="evenodd"/>
        <path id="Path_223" data-name="Path 223" d="M165.258,179.519a42.213,42.213,0,0,0,2.844,6.548,22.032,22.032,0,0,0,5.45,6.424,25.12,25.12,0,0,0,7.727,3.983,24.54,24.54,0,0,0,9.691,1.266,58.94,58.94,0,0,0,11.38-2.24c3.029-.88,4.534-1.541,4.387-1.689a24.5,24.5,0,0,1-4.387-.31,16.054,16.054,0,0,1-7.744-4.259,16.35,16.35,0,0,1-4.112-8.608,25.387,25.387,0,0,1,.349-9.232,16.42,16.42,0,0,1,3.318-7.746,17.758,17.758,0,0,1,7.752-4.807c3.083-1.046,6.433-1.526,7.037-1.771s-1.534-.262-4.325-.152a29.761,29.761,0,0,0-10.117,1.857,59.164,59.164,0,0,0-11.954,6.982c-3.735,2.677-6.875,5.243-9.188,6.987a27.475,27.475,0,0,1-4.9,3.162,9.864,9.864,0,0,1-2.456.706,2,2,0,0,0-1.313.638c-.169.312.013.742.563,2.26" transform="translate(68.798 65.55)" fill="#fff" fill-rule="evenodd"/>
        <path id="Path_224" data-name="Path 224" d="M189.062,160.432a7.716,7.716,0,1,1-7.716,7.716,7.715,7.715,0,0,1,7.716-7.716" transform="translate(75.782 67.042)" fill="#fff" fill-rule="evenodd"/>
        <path id="Path_225" data-name="Path 225" d="M193.054,176.906a2.8,2.8,0,1,1,2.795-2.8,2.795,2.795,0,0,1-2.795,2.8" transform="translate(79.506 71.59)" fill="#fff" fill-rule="evenodd"/>
        <path id="Path_226" data-name="Path 226" d="M118.5,160.918a44.355,44.355,0,0,0-4.217-4.679c-1.465-1.273-2.685-1.674-3.841-1.435a4.574,4.574,0,0,0-3.043,2.738,21.506,21.506,0,0,0-1.582,6.376,29.717,29.717,0,0,0-.129,6.966,15.874,15.874,0,0,0,1.652,5.581,9.006,9.006,0,0,0,2.881,3.212,12.859,12.859,0,0,0,2.873,1.514c.488.146.193-.148-.183-.716a10.877,10.877,0,0,1-1.212-2.542,19.562,19.562,0,0,1-.817-3.909,14.854,14.854,0,0,1,.129-4.286A12.116,12.116,0,0,1,112.743,165a6.329,6.329,0,0,1,3.165-2.257,5.118,5.118,0,0,1,2.4-.248,5.387,5.387,0,0,0,1.486.147c.139-.1-.247-.468-1.293-1.726" transform="translate(44.101 64.663)" fill="#fff" fill-rule="evenodd"/>
        <path id="Path_227" data-name="Path 227" d="M112.8,159.451c1.76,0,3.185,2,3.185,4.462s-1.425,4.461-3.185,4.461-3.184-2-3.184-4.461,1.425-4.462,3.184-4.462" transform="translate(45.808 66.632)" fill="#fff" fill-rule="evenodd"/>
        <path id="Path_228" data-name="Path 228" d="M114.453,168.977c-.637,0-1.154-.723-1.154-1.616s.518-1.616,1.154-1.616,1.154.725,1.154,1.616-.518,1.616-1.154,1.616" transform="translate(47.346 69.262)" fill="#fff" fill-rule="evenodd"/>
        <path id="Path_229" data-name="Path 229" d="M144.5,187.239a84.589,84.589,0,0,0-12.921-2.019c-4.332-.33-7.672-.147-10.132.642a7.808,7.808,0,0,0-4.882,3.892,8.822,8.822,0,0,0-.79,4.771c.166,1.046.607,1.12,1.561.221a34.864,34.864,0,0,1,4.276-4.075,14.609,14.609,0,0,1,6.993-2.368,53.827,53.827,0,0,1,10.168.055c3.708.311,7.563.862,8.884.716s.109-.993-3.158-1.836" transform="translate(48.356 77.335)" fill="#fff" fill-rule="evenodd"/>
        <path id="Path_230" data-name="Path 230" d="M69.172,162.133A123.152,123.152,0,0,1,70.709,148.9c.73-3.484,1.652-4.38,7.645-5.574a112.637,112.637,0,0,1,27.737-1.941,95.138,95.138,0,0,1,28.7,6.916c7.72,3.185,12.869,6.568,16.979,8.707s7.231,3.291,11.218,2.439c27.765-5.937,42.488-21.694,96.416-20.215a212.537,212.537,0,0,1,29.605,4.044c4.688,1.243,19.71,1.008,21.861,3.4s-.2,9.385.186,11.424-8.832.554-11.021,1.2-5.724,1.443-8.605,3.881-5.11,6.519-7.837,11.793-5.955,11.741-10.066,17.563-9.106,11-15.943,14.18c-22.435,10.447-80.176,7.512-91.024-25.723-1.434-4.393-3.535-4.926-5.11-4.727s-3.265,1.394-4.917,4.676c-16.387,32.577-50.505,34.823-69.42,3.882-4.378-7.165-7.145-13.434-9.3-16.568s-3.689-3.135-5.072-2.588-2.612,1.642-3.227,1.543-.615-1.394-.346-5.075m19.592-5.772c1.153-1.792,3.265-3.682,7.416-4.727s10.334-1.243,17.633.224a99.394,99.394,0,0,1,21.552,7.414c5.839,2.81,9.1,5.3,11.18,8.01,11.987,15.673-30.948,50.64-51.441,19.455a49.187,49.187,0,0,1-5.263-10.9,45.99,45.99,0,0,1-1.979-8.533,37.045,37.045,0,0,1-.461-5.747,9.134,9.134,0,0,1,1.364-5.2m187.2,0c-1.153-1.792-3.363-3.355-7.414-4.727-26.378-8.941-83.936,5.127-91.985,15.648a13.371,13.371,0,0,0-3.131,8.757c1.436,30.921,64.593,29.16,77.424,25.027a34.683,34.683,0,0,0,18.767-14.329,49.187,49.187,0,0,0,5.263-10.9,45.976,45.976,0,0,0,1.979-8.533,37.019,37.019,0,0,0,.461-5.747,9.125,9.125,0,0,0-1.364-5.2" transform="translate(28.834 58.142)" fill="#4f1212" fill-rule="evenodd"/>
        <path id="Path_231" data-name="Path 231" d="M230.466,54.745a251.674,251.674,0,0,1,11.343-22.76c3.633-6.131,5.689-7.525,7.158-7.892s2.349.294,5.029,3.3a97.4,97.4,0,0,1,11.415,15.675,206.736,206.736,0,0,1,11.16,23.457,134.812,134.812,0,0,1,4.994,13.215c.44,1.762-.367.734-3.194-1.211a81.5,81.5,0,0,0-12.555-6.939A67.305,67.305,0,0,0,250.8,67.116a130.789,130.789,0,0,0-14.06-1.689c-3.339-.221-4.515-.147-5.542-.7a7.39,7.39,0,0,1-2.46-2.643c-.55-.919-.77-1.578,1.727-7.342" transform="translate(95.438 10.03)" fill="#4f1212" fill-rule="evenodd"/>
        <path id="Path_232" data-name="Path 232" d="M312.321,52.11c1.836.624,3.671,1.726,3.854,3.084s-1.285,2.973-2.972,3.082-3.6-1.283-4.7-2.715-1.4-2.9-.625-3.562,2.606-.513,4.442.111" transform="translate(128.478 21.549)" fill="#fff" fill-rule="evenodd"/>
        <path id="Path_233" data-name="Path 233" d="M293.1,47.3c1.836.624,3.671,1.726,3.854,3.084s-1.285,2.972-2.973,3.084-3.6-1.285-4.7-2.717-1.4-2.9-.625-3.562,2.606-.513,4.442.111" transform="translate(120.447 19.54)" fill="#fff" fill-rule="evenodd"/>
        <path id="Path_234" data-name="Path 234" d="M210.18,30.488c1.836.624,3.671,1.726,3.854,3.084s-1.285,2.973-2.973,3.082-3.6-1.283-4.7-2.715-1.4-2.9-.625-3.562,2.606-.513,4.442.111" transform="translate(85.795 12.514)" fill="#fff" fill-rule="evenodd"/>
        <path id="Path_235" data-name="Path 235" d="M174.422,36.273c1.836.624,3.671,1.726,3.854,3.084s-1.285,2.973-2.973,3.082-3.6-1.285-4.7-2.715-1.394-2.9-.624-3.562,2.606-.513,4.442.111" transform="translate(70.852 14.931)" fill="#fff" fill-rule="evenodd"/>
        <path id="Path_236" data-name="Path 236" d="M270.471,585.643a256.475,256.475,0,0,0,230.274-369.2,44.3,44.3,0,0,0,1.5-11.814,141.31,141.31,0,0,0-1.54-17.361A270.491,270.491,0,1,1,79.22,138.018,272.134,272.134,0,0,1,103.73,116.3a23.457,23.457,0,0,0-.647,3.516c-.4,3.964.478,6.9,1.626,13.65l.033.194q-8.069,6.844-15.556,14.326a256.375,256.375,0,0,0,181.285,437.66" transform="translate(0 48.599)" fill="#4f1212"/>
      </g>
    </g>
  </g>
</svg>
