<svg version="1.2" baseProfile="tiny-ps" xmlns="http://www.w3.org/2000/svg" viewBox="0 0 192 199" width="192" height="199">
	<title>bunny-color-svg</title>
	<style>
		tspan { white-space:pre }
		.s0 { fill: #633001 } 
		.s1 { fill: #d1884f } 
		.s2 { fill: #fedc90 } 
	</style>
	<path id="Layer" fill-rule="evenodd" class="s0" d="m95.55 198.61c-29.49-0.02-53.25-7.03-69.84-19.61c-16.8-12.73-25.71-30.8-25.71-51.25c0-19.7 8.89-33.91 18.95-43.51c7.88-7.53 16.58-12.34 22.64-15.12c-1.37-4.16-3.08-9.61-4.61-15.24c-2.05-7.53-4.05-16.37-4.05-22.84c0-7.66 1.69-15.36 6.24-21.34c4.81-6.32 12.05-9.7 20.76-9.7c6.81 0 12.58 2.5 17.11 6.81c4.32 4.12 7.2 9.59 9.19 15.3c3.49 10.02 4.85 22.62 5.23 35.19h8.34c0.38-12.57 1.74-25.16 5.23-35.19c1.99-5.7 4.87-11.18 9.19-15.3c4.52-4.31 10.3-6.81 17.11-6.81c8.71 0 15.95 3.38 20.76 9.7c4.55 5.98 6.24 13.68 6.24 21.34c0 6.47-2.01 15.31-4.05 22.84c-1.53 5.63-3.24 11.08-4.61 15.24c6.06 2.77 14.76 7.59 22.64 15.12c10.06 9.6 18.95 23.81 18.95 43.51c0 20.45-8.91 38.52-25.71 51.25c-16.6 12.58-40.35 19.59-69.84 19.61h-0.15z" />
	<path id="Layer" class="s1" d="m83.19 61.21c0.02 1.86 1.53 3.38 3.39 3.38h18.09c1.86 0 3.37-1.51 3.39-3.38c0.33-27.91 4.9-53.92 23.26-53.92c12.76 0 18.63 9.52 18.63 22.67c0 10.46-6.82 31.41-9.62 39.56c-0.63 1.83 0.36 3.84 2.16 4.56c10.22 4.03 40.39 18.79 40.39 52.59c0 35.6-30.66 62.45-87.19 62.49c-0.02 0-0.05 0-0.07 0c-0.02 0-0.05 0-0.07 0c-56.53-0.04-87.19-26.89-87.19-62.49c0-33.8 30.17-48.56 40.39-52.59c1.8-0.71 2.79-2.72 2.16-4.56c-2.8-8.15-9.62-29.1-9.62-39.56c0-13.16 5.87-22.67 18.63-22.67c18.36 0 22.94 26.01 23.26 53.92z" />
	<path id="Layer" class="s2" d="m183.02 126.74c0 0.04 0 0.09 0 0.13c0 35.63-30.71 62.49-87.32 62.49c-56.62 0-87.33-26.86-87.33-62.49c0-0.05 0-0.09 0-0.13c0.07 28.78 45.79 51.02 87.33 51.02c41.54 0 87.25-22.23 87.32-51.02z" />
	<path id="Layer" class="s0" d="m72.61 117.9c0 9.72-4.59 14.78-10.26 14.78c-5.67 0-10.26-5.06-10.26-14.78c0-9.72 4.59-14.78 10.26-14.78c5.67 0 10.26 5.06 10.26 14.78z" />
	<path id="Layer" class="s0" d="m139.29 117.9c0 9.72-4.59 14.78-10.26 14.78c-5.67 0-10.26-5.06-10.26-14.78c0-9.72 4.59-14.78 10.26-14.78c5.66 0 10.26 5.06 10.26 14.78z" />
</svg>