<svg xmlns="http://www.w3.org/2000/svg" width="96.797" height="76.056" viewBox="0 0 96.797 76.056">
  <g id="shuffle" transform="translate(0 -51.197)" style="isolation: isolate">
    <g id="Group_87" data-name="Group 87" transform="translate(0 51.197)">
      <g id="Group_86" data-name="Group 86" transform="translate(0 0)">
        <path id="Path_114" data-name="Path 114" d="M95.787,66l-.006-.006,0,0L81.95,52.168a3.457,3.457,0,0,0-4.888,4.888l7.93,7.93H65.682a24.226,24.226,0,0,0-24.2,24.2A17.305,17.305,0,0,1,24.2,106.469H3.457a3.457,3.457,0,1,0,0,6.914H24.2a24.226,24.226,0,0,0,24.2-24.2A17.305,17.305,0,0,1,65.682,71.9h19.31l-7.927,7.927a3.457,3.457,0,1,0,4.8,4.973q.043-.042.085-.085L95.781,70.887A3.457,3.457,0,0,0,95.787,66Z" transform="translate(0 -51.197)" fill="#fca823"/>
      </g>
    </g>
    <g id="Group_89" data-name="Group 89" transform="translate(48.418 92.681)">
      <g id="Group_88" data-name="Group 88" transform="translate(0 0)">
        <path id="Path_115" data-name="Path 115" d="M286.405,270.8l-.006-.006,0,0-13.828-13.828a3.457,3.457,0,0,0-4.888,4.888l7.93,7.93H256.3a17.259,17.259,0,0,1-11.525-4.4,3.457,3.457,0,0,0-4.612,5.151A24.161,24.161,0,0,0,256.3,276.7h19.31l-7.927,7.927a3.457,3.457,0,0,0,4.8,4.973c.029-.028.057-.056.085-.085L286.4,275.688A3.457,3.457,0,0,0,286.405,270.8Z" transform="translate(-239.036 -255.998)" fill="#fca823"/>
      </g>
    </g>
    <g id="Group_91" data-name="Group 91" transform="translate(0 64.986)">
      <g id="Group_90" data-name="Group 90" transform="translate(0 0)">
        <path id="Path_116" data-name="Path 116" d="M40.335,125.436A24.161,24.161,0,0,0,24.2,119.272H3.457a3.457,3.457,0,0,0,0,6.914H24.2a17.259,17.259,0,0,1,11.525,4.4,3.457,3.457,0,0,0,4.612-5.151Z" transform="translate(0 -119.272)" fill="#fca823"/>
      </g>
    </g>
  </g>
</svg>
