<svg version="1.2" baseProfile="tiny-ps" xmlns="http://www.w3.org/2000/svg" viewBox="0 0 257 239" width="257" height="239">
	<title>metamask-fox-svg</title>
	<style>
		tspan { white-space:pre }
		.s0 { fill: #e2761b;stroke: #e2761b;stroke-linecap:round;stroke-linejoin:round } 
		.s1 { fill: #e4761b;stroke: #e4761b;stroke-linecap:round;stroke-linejoin:round } 
		.s2 { fill: #d7c1b3;stroke: #d7c1b3;stroke-linecap:round;stroke-linejoin:round } 
		.s3 { fill: #233447;stroke: #233447;stroke-linecap:round;stroke-linejoin:round } 
		.s4 { fill: #cd6116;stroke: #cd6116;stroke-linecap:round;stroke-linejoin:round } 
		.s5 { fill: #e4751f;stroke: #e4751f;stroke-linecap:round;stroke-linejoin:round } 
		.s6 { fill: #f6851b;stroke: #f6851b;stroke-linecap:round;stroke-linejoin:round } 
		.s7 { fill: #c0ad9e;stroke: #c0ad9e;stroke-linecap:round;stroke-linejoin:round } 
		.s8 { fill: #161616;stroke: #161616;stroke-linecap:round;stroke-linejoin:round } 
		.s9 { fill: #763d16;stroke: #763d16;stroke-linecap:round;stroke-linejoin:round } 
	</style>
	<path id="Layer" class="s0" d="m243.1 1.5l-99.5 73.9l18.4-43.6l81.1-30.3z" />
	<g id="Layer">
		<path id="Layer" class="s1" d="m94.6 31.8l17.5 44.3l-98.7-74.6l81.2 30.3z" />
		<path id="Layer" class="s1" d="m253.8 173.7l-16.3 55.3l-56.7-15.6l26.5-40.6l46.5 0.9z" />
		<path id="Layer" class="s1" d="m49.3 172.8l26.5 40.6l-56.7 15.6l-16.2-55.3l46.4-0.9z" />
		<path id="Layer" class="s1" d="m111.1 70.1l2 60.5l-56.3-2.5l15.8-23.9l38.5-34.1z" />
		<path id="Layer" class="s1" d="m199.8 128.1l-56.2 2.5l1.3-61.2l39 34.8l15.9 23.9z" />
		<path id="Layer" class="s1" d="m80.4 174.1l29.2 22.8l-33.8 16.5l4.6-39.3z" />
		<path id="Layer" class="s1" d="m176.1 174.1l4.7 39.3l-33.9-16.5l29.2-22.8z" />
	</g>
	<g id="Layer">
		<path id="Layer" class="s2" d="m149.3 228.3l0.3-9.3l-2.7-22.1l33.9 16.5l-31.5 14.9z" />
		<path id="Layer" class="s2" d="m109.6 196.9l-2.5 22.1l0.2 9.3l-31.5-14.9l33.8-16.5z" />
	</g>
	<path id="Layer" class="s3" d="m107.8 159.5l-28.2-8.3l19.9-9.1l8.3 17.4z" />
	<path id="Layer" class="s3" d="m148.7 159.5l8.3-17.4l20 9.1l-28.3 8.3z" />
	<g id="Layer">
		<path id="Layer" class="s4" d="m49.3 173.7l31.3-0.9l-4.8 40.6l-26.5-39.7z" />
		<path id="Layer" class="s4" d="m207.3 173.7l-26.5 39.7l-4.8-40.6l31.3 0.9z" />
		<path id="Layer" class="s4" d="m177.1 151.2l-20-9.1l-8.3 17.4l-5.2-28.9l56.2-2.5l-22.7 23.1z" />
		<path id="Layer" class="s4" d="m56.8 128.1l56.3 2.5l-5.3 28.9l-8.2-17.4l-20 9.1l-22.8-23.1z" />
	</g>
	<g id="Layer">
		<path id="Layer" class="s5" d="m79.6 151.2l0.8 22.9l-23.6-46l22.8 23.1z" />
		<path id="Layer" class="s5" d="m199.8 128.1l-23.7 46l1-22.9l22.7-23.1z" />
		<path id="Layer" class="s5" d="m115.9 148.7l-1.5 44.9l-6.6-34.1l5.3-28.9l2.8 18.1z" />
		<path id="Layer" class="s5" d="m148.8 159.5l-6.7 34.1l-1.2-45l2.7-18l5.2 28.9z" />
	</g>
	<path id="Layer" class="s6" d="m177.1 151.2l-1 22.9l-29.2 22.8l-4.8-3.3l6.7-34.1l28.3-8.3z" />
	<path id="Layer" class="s6" d="m107.8 159.5l6.6 34.1l-4.8 3.3l-29.2-22.8l-0.8-22.9l28.2 8.3z" />
	<path id="Layer" class="s7" d="m180.8 213.4l-11 9l-22.4 15.5h-38.3l-22.3-15.5l-11-9l31.5 14.9l-0.2-9.3l2.3-2.2h37.7l2.5 2.2l-0.3 9.3l31.5-14.9z" />
	<path id="Layer" class="s8" d="m149.6 219l-2.5-2.2h-37.7l-2.3 2.2l2.5-22.1l4.8-3.3h27.7l4.8 3.3l2.7 22.1z" />
	<g id="Layer">
		<path id="Layer" class="s9" d="m252.6 84.2l-8 6.1l6.2 4.8l-8 7.3l5 3.6l-11.6 13.5l-52.3-15.3l-37-31.3l96.2-71.4l12.7 37.9l-8.5 40.8l5.3 4z" />
		<path id="Layer" class="s9" d="m13.4 1.5l96.2 71.4l-37 31.3l-52.3 15.3l-11.5-13.5l5-3.6l-8-7.3l6.1-4.8l-8-6.1l5.4-4l-8.5-40.8l12.6-37.9z" />
	</g>
	<path id="Layer" class="s6" d="m253.8 173.7h-46.5l-31.2 0.4l23.7-46l-15.9-23.9l52.3 15.3l17.6 54.2z" />
	<path id="Layer" class="s6" d="m56.8 128.1l23.6 46l-31.1-0.4h-46.4l17.4-54.2l52.3-15.3l-15.8 23.9z" />
	<path id="Layer" class="s6" d="m141.3 147.8l-0.2 44.8h-27.7l-0.1-44.8l-1.2-18.2l-3.5-57.7l-15-41.1h67.5l-15.2 41.1l-3.3 57.7l-1.3 18.2z" />
</svg>