<svg xmlns="http://www.w3.org/2000/svg" xmlns:xlink="http://www.w3.org/1999/xlink" width="425.285" height="102.083" viewBox="0 0 425.285 102.083">
  <defs>
    <clipPath id="clip-path">
      <rect id="Rectangle_93" data-name="Rectangle 93" width="85.173" height="102.083" fill="none"/>
    </clipPath>
  </defs>
  <g id="Group_215" data-name="Group 215" transform="translate(-220 -40)">
    <g id="Group_199" data-name="Group 199">
      <g id="Group_198" data-name="Group 198" transform="translate(220 40)">
        <g id="Group_197" data-name="Group 197" clip-path="url(#clip-path)">
          <path id="Path_179" data-name="Path 179" d="M46.448,163.669A41.477,41.477,0,1,0,4.971,122.192a41.477,41.477,0,0,0,41.477,41.477" transform="translate(-3.861 -62.695)" fill="#fca921" fill-rule="evenodd"/>
          <path id="Path_180" data-name="Path 180" d="M58.541,36.186a3.093,3.093,0,0,1-.051-1.768,10.428,10.428,0,0,1,.469-1.364l.047-.113A19.326,19.326,0,0,1,57.8,30.12a9.047,9.047,0,0,1-.173-6.094A21.479,21.479,0,0,1,60.4,18.65l-.027-.6q-.033-.727-.036-1.455a21.049,21.049,0,0,1,.532-5.218,4.383,4.383,0,0,1,2.172-3.009,3.948,3.948,0,0,1,3.107-.083c.866.256,1.712.555,2.576.814.176-.133.359-.26.537-.386A24.38,24.38,0,0,1,74.267,6a45.535,45.535,0,0,1,9.219-2.536,54.2,54.2,0,0,1,7.646-.684,15.072,15.072,0,0,1,1.554-.008c.221-.325.45-.637.687-.931A4.078,4.078,0,0,1,96.722,0,5.064,5.064,0,0,1,100.2,2.04c.315.337.627.684.935,1.038a8.587,8.587,0,0,1,1.586.118,15,15,0,0,1,5.658,1.938,43.313,43.313,0,0,1,6.428,5.095,29.664,29.664,0,0,0,4.365,3.446c1.223.721,2.632,1.162,3.795,1.872a3.068,3.068,0,0,1,1.52,2.026,3.691,3.691,0,0,1-1.016,3.048c-.827,1.126-1.67,2.286-2.562,3.36a5.961,5.961,0,0,1-1.142,1.1c.67,2.77,1.2,5.654,1.613,8.421a36.3,36.3,0,0,1,.535,7.673,5.2,5.2,0,0,1-2.305,4.423,6.918,6.918,0,0,1-1.363.641,3.334,3.334,0,0,1,.3,2.233,3.1,3.1,0,0,1-.88,1.515,4.831,4.831,0,0,1-.713.56,2.553,2.553,0,0,1-.625,1.977,8.146,8.146,0,0,1-3.032,1.8q-.1.039-.211.074c0,.025-.006.051-.01.076a2.518,2.518,0,0,1-1.714,2.02,7.741,7.741,0,0,1-1.5.27,13.538,13.538,0,0,0-1.559.286c-.762.192-1.525.456-2.274.7q-.919.293-1.841.559a9.38,9.38,0,0,1,1.165,2.179,7.608,7.608,0,0,1-.037,5.4A41.361,41.361,0,0,1,102.537,72c-.1.191-.2.386-.307.579a3.9,3.9,0,0,1,.395,1.886,9.078,9.078,0,0,1-.631,2.752,6.09,6.09,0,0,1-1.41,2.45,2.535,2.535,0,0,1-1.169.567,3.517,3.517,0,0,1-.342.55,2.682,2.682,0,0,1-.409.429A5.778,5.778,0,0,1,98.108,83a4.626,4.626,0,0,1-.32.54c.062.137.122.278.183.421q.064.148.131.294l.281.6-.023.217q.065.06.127.125c.085.089.16.18.24.271l.122.141.1.158c.288.459.59.909.9,1.354,1.726,2.477,3.818,5.114,5.011,7.891q.1.238.194.479a41.548,41.548,0,0,1-37.812,1.762,14.594,14.594,0,0,1,.769-3.107,48.208,48.208,0,0,1,2.412-5.229,13.409,13.409,0,0,0,1.018-2.334c.007-.027.015-.054.021-.081q-.938.476-1.883.933a17.154,17.154,0,0,1-4.891,1.741,7.9,7.9,0,0,1-4.637-.7,5.758,5.758,0,0,1-2.7-2.857,6.083,6.083,0,0,1-.41-3.426,9.974,9.974,0,0,1,.326-1.4,5.123,5.123,0,0,1-.909-.771,5.376,5.376,0,0,1-1.227-.73,3.392,3.392,0,0,1-1.188-3.334,5.5,5.5,0,0,1,.929-2.035c.075-.11.154-.219.234-.328a4.021,4.021,0,0,1,.143-1.6,5.028,5.028,0,0,1,1.281-2.316,4.627,4.627,0,0,1,.585-.487,3.135,3.135,0,0,1,.477-.828,4.235,4.235,0,0,1,1.076-.965l1.094-1.152.6-.983c.1-.07.2-.137.3-.2l0,0a9.322,9.322,0,0,1,.367-.958l.071-.169.045-.115c.044-.113.085-.227.119-.343.231-.787.305-1.537.593-2.356a6.44,6.44,0,0,1,2.972-3.691c-.355-.173-.711-.362-1.062-.561-.467-.265-.924-.546-1.353-.827-.51-.334-1.013-.689-1.506-1.062-.675-.511-1.33-1.052-1.954-1.609-.566-.5-1.218-1.11-1.786-1.73a10.214,10.214,0,0,1-.755-.916,3.21,3.21,0,0,1-.639-1.881q-.215-.233-.407-.483a8.346,8.346,0,0,1-.823-1.324,4.1,4.1,0,0,1-.534-2.919,2.911,2.911,0,0,1,.19-.507,2.536,2.536,0,0,1,.185-.318,2.866,2.866,0,0,1,.7-2.929h0a4.461,4.461,0,0,1,2.025-1.04l.332-.1q.273-.085.542-.183a21.859,21.859,0,0,1,.55-2.852" transform="translate(-41.845 0.001)" fill="#4f1212" fill-rule="evenodd"/>
          <path id="Path_181" data-name="Path 181" d="M73.244,36.207q-.262.389-.507.787a31.55,31.55,0,0,0-3.294,7.743,17.3,17.3,0,0,0-.664,3.519c-.059.563-.13.729-.5.936a9.871,9.871,0,0,1-1.635.646,4.08,4.08,0,0,0-1.38.551c-.231.231-.148.563.059.942a6.956,6.956,0,0,0,.752,1.055c.213.249.308.32.19.367a3.4,3.4,0,0,1-.77.083c-.32.012-.628.012-.693.249a2.265,2.265,0,0,0,.361,1.2A5.253,5.253,0,0,0,66.2,55.733c.462.444,1.066.824,1.191,1.025s-.231.225-.486.278-.409.136-.059.622a17.58,17.58,0,0,0,2.192,2.257,27.781,27.781,0,0,0,3.175,2.453,20.237,20.237,0,0,0,2.506,1.4c.45.2.355.095.178-.178a11.443,11.443,0,0,1-.658-1.161,2.519,2.519,0,0,1-.338-.918,5.778,5.778,0,0,1,.711.954,15.193,15.193,0,0,0,1.363,1.718,10.675,10.675,0,0,0,2.257,1.89,12.553,12.553,0,0,0,2.838,1.185,25.678,25.678,0,0,0,2.986.693,20.294,20.294,0,0,0,5.7.273c2.832-.213,6.86-.9,10.664-1.552s7.382-1.268,10.024-1.92,4.348-1.339,5.759-1.694,2.524-.379,2.867-.5-.083-.332-.545-.6a3.3,3.3,0,0,1-1.019-.77c-.059-.166.32-.166.972-.237a10.815,10.815,0,0,0,2.488-.545A6.5,6.5,0,0,0,123,59.294c.225-.261-.225-.261-.734-.462a2.628,2.628,0,0,1-1.137-.782c-.059-.178.391-.13,1.137-.344a6.361,6.361,0,0,0,2.216-1.1c.427-.415.237-.77-.284-1.73a19.108,19.108,0,0,0-2.536-3.792,12.067,12.067,0,0,0-.951-.924,19.157,19.157,0,0,1-7.1,1.468A14.575,14.575,0,0,1,105.7,49.39c-1.78-1.274-2.272-2.866-2.518-5.037s-.246-4.921-.376-7.164a49.043,49.043,0,0,0-.536-4.9c-.145-.919-.174-1.02-.861-.709a25.326,25.326,0,0,1-3.539,1.484,14.159,14.159,0,0,1-4.74.536,26.642,26.642,0,0,1-3.886-.6,2.5,2.5,0,0,0-1.425-.044,11.708,11.708,0,0,1-2.149.467c-1.2.155-3.039.264-5.007.557A31.66,31.66,0,0,0,75.2,35.25a8.587,8.587,0,0,0-1.955.957m46.765,5.348q-.151-.9-.352-1.942a99.22,99.22,0,0,0-3.839-14.183,29.288,29.288,0,0,0-4.68-8.306c-1.588-2.074-3.2-4.041-4.206-5.119s-1.41-1.268-1.8-1.28-.77.154-1.41.948a20.281,20.281,0,0,0-2.429,4.183c-.327.724-.653,1.521-.96,2.358a4.718,4.718,0,0,1,.814.6,2.957,2.957,0,0,0,1.016.722,8.482,8.482,0,0,0,2,.384,11.407,11.407,0,0,1,2.757.449,7.256,7.256,0,0,1,3.119,2.157,17,17,0,0,1,2.873,5.1c.876,2.258,1.657,5.095,2.4,7.251a16.872,16.872,0,0,0,2.214,4.669,6.261,6.261,0,0,0,2.36,1.957l.124.055" transform="translate(-50.326 -8.331)" fill="#fca921" fill-rule="evenodd"/>
          <path id="Path_182" data-name="Path 182" d="M86.535,144.437c-.185.436-.355.864-.511,1.28.363-.071.812-.16,1.144-.221.489-.09.721-.12.785-.074s-.041.169-.134.609a10.823,10.823,0,0,0-.179,1.495c-.006.3.064.136.3-.133a5.342,5.342,0,0,1,.832-.772c.2-.127.2-.006.2.353s0,.954.034,1.668a6.308,6.308,0,0,0,.353,2.092,2.3,2.3,0,0,0,.908.965c.231.159.266.217.029.329a6.462,6.462,0,0,1-1.187.375,2.534,2.534,0,0,1-1.367-.043,6.809,6.809,0,0,1-1.821-.874c-.539-.376-.888-.789-.957-.739s.141.561.88,1.151a11.176,11.176,0,0,0,2.922,1.569,3.032,3.032,0,0,0,2.228.011,12.462,12.462,0,0,0,2.33-1.127A4.755,4.755,0,0,0,94.73,151.1c.353-.474.659-1.058.92-1.4s.478-.452.721-.314a2.859,2.859,0,0,1,.678.759c.166.236.23.322.29.114a1.625,1.625,0,0,0-.286-1.329,7.692,7.692,0,0,0-2.136-1.9,16.3,16.3,0,0,0-2.95-1.4,18.238,18.238,0,0,0-4.04-1.219,4.567,4.567,0,0,0-1.392.039" transform="translate(-65.981 -112.134)" fill="#fc8320" fill-rule="evenodd"/>
          <path id="Path_183" data-name="Path 183" d="M235.845,11.166a1.957,1.957,0,0,1,.342-.022c.572.017,1.041.341,1.714,1.237a35.819,35.819,0,0,1,2.211,3.543,16.913,16.913,0,0,1,1.011,1.959c-.087-.11-.7-1.219-1.358-2.162a10.3,10.3,0,0,0-1.919-2.144c-.555-.428-.959-.509-1.265-.4s-.512.42-.841,1.085a15.071,15.071,0,0,0-1.269,4.363c-.059.325-.119.674-.175,1.047a11.124,11.124,0,0,0,1.534.241,11.406,11.406,0,0,1,2.757.449,7.253,7.253,0,0,1,3.119,2.157,17,17,0,0,1,2.873,5.1c.876,2.258,1.657,5.095,2.4,7.251a16.875,16.875,0,0,0,2.215,4.669,6.258,6.258,0,0,0,2.36,1.957l.124.055q-.151-.9-.352-1.942a99.179,99.179,0,0,0-3.839-14.183,29.287,29.287,0,0,0-4.68-8.306c-1.588-2.074-3.2-4.04-4.206-5.119s-1.41-1.268-1.8-1.279a1.255,1.255,0,0,0-.949.439" transform="translate(-181.99 -8.332)" fill="#fc8320" fill-rule="evenodd"/>
          <path id="Path_184" data-name="Path 184" d="M99.3,108.219q-.262.388-.507.787t-.457.776c.746-.426,1.482-.844,2.291-1.207a20.984,20.984,0,0,1,5.21-1.485c1.827-.289,3.653-.37,4.959-.514a12.844,12.844,0,0,0,2.578-.509,2.394,2.394,0,0,1,.988-.231c.318.029.769.191,1.792.37a27.549,27.549,0,0,0,4.144.393c1.526.017,2.982-.144,3.971-.127s1.509.214,1.693.907a5.364,5.364,0,0,1-.208,2.589A1.346,1.346,0,0,1,124.462,111c-.717.11-1.815.11-3.11.254a39.809,39.809,0,0,0-4.5.833c-1.711.4-3.641.907-4.225,1.144s.179.2,1.046.26,1.838.208,2.069.659-.278,1.2-1.214,1.878a11.13,11.13,0,0,1-3.306,1.543,2.763,2.763,0,0,1-2.072-.041,1.664,1.664,0,0,1-.731-1.054c-.121-.41-.173-.825-.338-.847s-.442.348-.5,1.043a4.411,4.411,0,0,0,.613,2.521,6.321,6.321,0,0,0,2.18,1.892,9.891,9.891,0,0,0,3.156,1.272,25.564,25.564,0,0,0,5.165.616,7.959,7.959,0,0,0,6.016-2.592c.8-.9,1.5-2.139,2.064-2.9s.977-1.035,1.179-.676.191,1.352.538,2.393a6.244,6.244,0,0,0,2.185,2.983,11.713,11.713,0,0,0,4.849,1.907c2.156.428,4.907.659,6.953,1.035a13.491,13.491,0,0,1,4.214,1.37c.826.474,1.139.9,1.208,1.127s-.1.248-.774.306a12.1,12.1,0,0,0-2.283.324c-.445.173-.168.428.144.769s.659.769.971,1.081.589.509.058.676a11.591,11.591,0,0,1-3.381.22,37.177,37.177,0,0,1-4.138-.566c-.954-.168-1.185-.191-1.035.11a8.811,8.811,0,0,0,1.243,1.5c.561.578,1.15,1.11,1.2,1.486s-.451.6-1.272.89-1.965.665-4.046,1.388-5.1,1.8-8.544,2.683c-1.109.284-2.262.548-3.367.833,1.256-.2,2.538-.424,3.8-.64,3.8-.652,7.382-1.268,10.024-1.92s4.348-1.339,5.759-1.694,2.524-.379,2.867-.5-.083-.332-.545-.6a3.3,3.3,0,0,1-1.019-.77c-.059-.166.32-.166.971-.237a10.806,10.806,0,0,0,2.488-.545,6.5,6.5,0,0,0,2.038-1.114c.225-.261-.225-.261-.735-.462a2.628,2.628,0,0,1-1.137-.782c-.059-.178.391-.131,1.137-.344a6.361,6.361,0,0,0,2.216-1.1c.427-.415.237-.77-.284-1.73a19.1,19.1,0,0,0-2.535-3.791,12.108,12.108,0,0,0-.951-.924,19.158,19.158,0,0,1-7.1,1.468,14.576,14.576,0,0,1-7.911-2.236c-1.78-1.274-2.272-2.866-2.518-5.037s-.246-4.921-.376-7.164a49.042,49.042,0,0,0-.536-4.9c-.145-.919-.174-1.02-.861-.709a25.325,25.325,0,0,1-3.539,1.483,14.159,14.159,0,0,1-4.74.535,26.582,26.582,0,0,1-3.886-.6,2.5,2.5,0,0,0-1.425-.043,11.714,11.714,0,0,1-2.149.467c-1.2.156-3.039.264-5.007.557a31.66,31.66,0,0,0-5.464,1.27,8.587,8.587,0,0,0-1.955.957" transform="translate(-76.383 -80.343)" fill="#fc8320" fill-rule="evenodd"/>
          <path id="Path_185" data-name="Path 185" d="M66.942,180.585c-.1.033-.2.065-.3.1a4.082,4.082,0,0,0-1.38.551c-.231.231-.148.563.059.942a6.937,6.937,0,0,0,.753,1.054c.213.249.308.32.19.367a3.4,3.4,0,0,1-.77.083c-.32.012-.628.012-.693.249a2.269,2.269,0,0,0,.361,1.2,5.261,5.261,0,0,0,1.031,1.446c.462.444,1.066.823,1.191,1.025s-.231.225-.486.278-.409.136-.059.622a17.594,17.594,0,0,0,2.192,2.257,27.76,27.76,0,0,0,3.176,2.453,20.247,20.247,0,0,0,2.506,1.4c.45.2.355.095.178-.178a11.441,11.441,0,0,1-.658-1.161,2.523,2.523,0,0,1-.338-.918,5.8,5.8,0,0,1,.711.954,15.219,15.219,0,0,0,1.363,1.718,10.693,10.693,0,0,0,2.257,1.89,12.562,12.562,0,0,0,2.838,1.185,25.688,25.688,0,0,0,2.986.693,20.3,20.3,0,0,0,5.7.273c2.832-.213,6.861-.9,10.664-1.552,1.4-.241,2.776-.476,4.082-.711.294-.1.558-.2.8-.3a4.583,4.583,0,0,0,2.443-1.845,3.789,3.789,0,0,0,.362-2.51,7.387,7.387,0,0,0-.925-2.358c-.382-.659-.751-1.145-.393-1.145a6.618,6.618,0,0,1,2.081.878c.636.393.821.694.659.266a8.9,8.9,0,0,0-1.537-2.561,6.652,6.652,0,0,0-3.568-2.091,15.449,15.449,0,0,0-4.9.057,31.646,31.646,0,0,1-4.985.394,17.335,17.335,0,0,1-4.357-.834,11.779,11.779,0,0,1-5.514-3.15,9.516,9.516,0,0,0-2.283-1.74,8.369,8.369,0,0,0-3.052-.67,11.834,11.834,0,0,0-3.081.191,7.479,7.479,0,0,0-2.451,1,17.794,17.794,0,0,0-1.881,1.393c-.4.332-.477.4-.575.344a2.5,2.5,0,0,1-.428-.526,3.126,3.126,0,0,0-.9-.894,2.73,2.73,0,0,0-1.519-.274c-.5.027-1.067.125-1.547.156" transform="translate(-50.326 -139.174)" fill="#fff" fill-rule="evenodd"/>
          <path id="Path_186" data-name="Path 186" d="M104.409,49l-.5-.132c-1.783-.468-3.158-.741-4.437-1.09s-2.465-.776-3.205-1-1.037-.231-1.357-.071-.663.492-.93,1.487a19.173,19.173,0,0,0-.451,4.591c0,.44.013.893.034,1.353a11.958,11.958,0,0,1,1.469-1.318q.011-.142.025-.283a21.872,21.872,0,0,1,.6-3.282c.166-.634.2-.646.385-.64a3.381,3.381,0,0,1,1.221.314,17.125,17.125,0,0,1,2.909,1.582l.108.073c.842-.194,1.439-.286,1.988-.467a8.675,8.675,0,0,0,1.888-.962l.25-.158" transform="translate(-72.652 -36.196)" fill="#fca921" fill-rule="evenodd"/>
          <path id="Path_187" data-name="Path 187" d="M106.532,49l-.5-.132c-1.783-.468-3.158-.741-4.437-1.09s-2.465-.776-3.205-1-1.037-.231-1.357-.071a1.635,1.635,0,0,0-.771.989,4.308,4.308,0,0,1,1.512.115,18.451,18.451,0,0,1,2.612.832c.636.254.867.393.429.369-.3-.017-.919-.11-1.49-.107l.059.024a17.124,17.124,0,0,1,2.909,1.582l.108.073c.842-.194,1.439-.286,1.988-.467a8.675,8.675,0,0,0,1.888-.962l.25-.158" transform="translate(-74.775 -36.196)" fill="#fc8320" fill-rule="evenodd"/>
          <path id="Path_188" data-name="Path 188" d="M110.037,46.8a15.2,15.2,0,0,0-4.61-.615,24.883,24.883,0,0,0-6.7,1.006,24.436,24.436,0,0,0-5.065,2.287l-.431.251c.232-.007.472-.012.716-.011a32.433,32.433,0,0,1,5.721.6c1.895.358,3.629.832,5.045,1.069a13.16,13.16,0,0,0,3.318.167c.8-.069,1.312-.208,1.243-.156a6.833,6.833,0,0,1-1.584.457,12.242,12.242,0,0,1-3.144.15c-1.191-.092-2.485-.358-3.907-.618s-2.971-.514-4.364-.636a21.8,21.8,0,0,0-3.916,0c-1.286.114-2.623.329-3.406.467-.554.1-.832.157-1.082.215-.295.081-.586.17-.866.268a8.01,8.01,0,0,0-3.793,2.828,21.156,21.156,0,0,0-3.464,6.082,6.7,6.7,0,0,0,.15,4.594,15.019,15.019,0,0,0,1.3,2.88c.3.434.326.13.441-.622a8.436,8.436,0,0,1,.926-2.989c.608-1.035,1.621-1.9,3.757-2.626a54.472,54.472,0,0,1,7.56-1.653c2.165-.354,3.236-.484,4.01-.672a8.048,8.048,0,0,0,.82-.248,17.238,17.238,0,0,0-1.683-.673,19.365,19.365,0,0,0-2.9-.688,16.514,16.514,0,0,0-2.948-.266,10.824,10.824,0,0,0-2.578.381,12.6,12.6,0,0,0-2.393.867,12.3,12.3,0,0,0-2.046,1.289c-.566.439-.983.844-.931.728a7.455,7.455,0,0,1,1.237-1.329,9.5,9.5,0,0,1,2.376-1.5,11.458,11.458,0,0,1,3.006-.838A13.856,13.856,0,0,1,93.6,57.22a31.34,31.34,0,0,1,4.313.93c1.308.363,2.328.7,2.9.876.325.1.506.153.655.194a19.808,19.808,0,0,0,4.937.409,13.97,13.97,0,0,0,5.087-1.447,10.535,10.535,0,0,0,2.185-1.5c.333-.261.391-.174.724.55a12.535,12.535,0,0,1,1.143,4.588c.2,2.5,0,6.151.333,8.771s1.2,4.212,2.909,5.384A12.375,12.375,0,0,0,125.35,77.9a11.868,11.868,0,0,0,6.133-1.767,18.073,18.073,0,0,0,3.679-2.937c.5-.545.064-.284-.776-.168a8.8,8.8,0,0,1-3.314-.246,9.555,9.555,0,0,1-2.634-1.143c-.188-.174.651.116,1.621.261a5.5,5.5,0,0,0,2.982-.261,4,4,0,0,0,1.708-1.433c.073-.217-.507.159-1.563.232a6.629,6.629,0,0,1-3.85-.97,6.261,6.261,0,0,1-1.866-1.937,3.318,3.318,0,0,1-1.043-.339c-.486-.243-.694-.451-.468-.139a9.878,9.878,0,0,0,1.711,1.8c.826.653,1.821,1.127,1.838,1.2a6.243,6.243,0,0,1-1.618-.561,4.556,4.556,0,0,1-1.549-1.116,10.38,10.38,0,0,1-1.422-1.867c-.376-.659-.561-1.272-.526-.954a16.661,16.661,0,0,0,.589,2.462,6.327,6.327,0,0,0,.937,1.832c.289.393.52.636.526.694s-.214-.069-.63-.48a7.571,7.571,0,0,1-1.659-2.56c-.63-1.457-1.277-3.676-1.948-5.867s-1.364-4.352-1.942-5.774a7.659,7.659,0,0,0-1.508-2.589,3.735,3.735,0,0,0-1.491-.971,5.822,5.822,0,0,0-1.67-.318c-.5-.017-.867.052-.734-.006a4.877,4.877,0,0,1,1.491-.254,4.051,4.051,0,0,1,2.283.636,6.779,6.779,0,0,1,2.3,3.167c.855,1.873,1.873,4.809,2.775,6.751A14.015,14.015,0,0,0,126,65.874c.537.626.928,1.054,1.112,1.056a14.916,14.916,0,0,1-.873-1.945c-.854-2.287-1.577-5.471-2.4-7.917A19.139,19.139,0,0,0,121.1,51.6a7.223,7.223,0,0,0-3.387-2.721,13.258,13.258,0,0,0-3.279-.546c-.855.254-.966.542-1.007.8s-.007.513-.155.314a9.684,9.684,0,0,1-.713-1.372L112.528,48a3.86,3.86,0,0,1-.465-.266,7.716,7.716,0,0,0-2.026-.934" transform="translate(-61.68 -35.873)" fill="#c9703e" fill-rule="evenodd"/>
          <path id="Path_189" data-name="Path 189" d="M112.39,47.639a12.762,12.762,0,0,0-1.564-.374,10.392,10.392,0,0,1,2.107,1.392c.59.561.682,1.058.416,1.486a2.985,2.985,0,0,1-1.7,1.023,9.318,9.318,0,0,1-2.8.324,12.93,12.93,0,0,1-2.971-.462c-.965-.26-1.89-.607-2.838-.832s-1.919-.33-2.491-.445-.745-.243-.638-.516.5-.693,1.472-1.132c.345-.155.763-.313,1.184-.463-.507.114-1,.245-1.485.392a24.436,24.436,0,0,0-5.065,2.287l-.431.251c.232-.007.472-.012.716-.011a32.433,32.433,0,0,1,5.721.6c1.895.358,3.629.832,5.045,1.069a13.16,13.16,0,0,0,3.318.167c.8-.069,1.312-.208,1.243-.156a6.833,6.833,0,0,1-1.584.457,12.242,12.242,0,0,1-3.144.15c-1.191-.092-2.485-.358-3.907-.618s-2.971-.514-4.364-.636a21.8,21.8,0,0,0-3.916,0c-1.286.114-2.623.329-3.406.467-.554.1-.832.157-1.082.215-.295.081-.586.17-.866.268a8.01,8.01,0,0,0-3.793,2.828c-.17.209-.343.432-.518.668q.171-.14.352-.275a16.422,16.422,0,0,1,5.491-2.526A17.851,17.851,0,0,1,97,52.593a32.428,32.428,0,0,1,5.526,1.3,26.111,26.111,0,0,0,5.78.965c1.711.035,2.982-.312,2.867-.162a9.462,9.462,0,0,1-3.237,1.046,16.419,16.419,0,0,1-4.809-.121c-1.456-.22-2.635-.509-3.982-.607a19.882,19.882,0,0,0-4.156.185,12.91,12.91,0,0,0-2.323.5c.046.023,1.214-.22,2.433-.248a12.145,12.145,0,0,1,3.716.52c1.225.364,2.4.907,3.907,1.306a20.313,20.313,0,0,0,4.716.659c1.387.006,2.335-.237,2.289-.127a5.866,5.866,0,0,1-2.555.728,20.762,20.762,0,0,1-5.017-.254c-1.653-.26-3.063-.63-4.5-.89a17.94,17.94,0,0,0-4.387-.312,13.211,13.211,0,0,0-4.4,1.069,13.871,13.871,0,0,0-3.745,2.4,6.492,6.492,0,0,0-1.694,2.393,11.406,11.406,0,0,0-.341,1.277c-.058.092-.15-.231-.225-.607s-.133-.8-.232-.406a12.317,12.317,0,0,0-.173,2.889c.011.213.028.428.049.642a13.079,13.079,0,0,0,1.048,2.19c.3.434.326.13.441-.622a8.436,8.436,0,0,1,.926-2.989c.608-1.035,1.621-1.9,3.757-2.626a54.472,54.472,0,0,1,7.56-1.653c2.165-.354,3.236-.484,4.01-.672a8.048,8.048,0,0,0,.82-.248,17.238,17.238,0,0,0-1.683-.673,19.365,19.365,0,0,0-2.9-.688,16.514,16.514,0,0,0-2.948-.266,10.824,10.824,0,0,0-2.578.381,12.6,12.6,0,0,0-2.393.867,12.3,12.3,0,0,0-2.046,1.289c-.566.439-.983.844-.931.728a7.455,7.455,0,0,1,1.237-1.329,9.5,9.5,0,0,1,2.376-1.5,11.458,11.458,0,0,1,3.006-.838,13.856,13.856,0,0,1,3.745-.035,31.34,31.34,0,0,1,4.313.93c1.308.363,2.328.7,2.9.876.325.1.506.153.655.194a19.808,19.808,0,0,0,4.937.409,13.97,13.97,0,0,0,5.087-1.447,10.535,10.535,0,0,0,2.185-1.5c.171-.134.27-.176.371-.086a.684.684,0,0,1,.614-.127,1.709,1.709,0,0,1,.941.8,7.059,7.059,0,0,1,.815,2.052c.2.809.289,1.676.306,1.618a14.529,14.529,0,0,0-.191-1.994,8.579,8.579,0,0,0-.722-2.5,2.815,2.815,0,0,0-1.029-1.121c-.283-.173-.434-.2-.243-.162a3.674,3.674,0,0,1,1.237.434,3.567,3.567,0,0,1,1.468,2.156,39.687,39.687,0,0,1,1.156,5.052c.283,1.584.433,2.612.751,3.971a24.452,24.452,0,0,0,1.289,4.1,3.66,3.66,0,0,0,1.514,1.8c.543.335,1.144.59,1.191.647a2.9,2.9,0,0,1-1.052-.353,4.6,4.6,0,0,1-1.815-1.41,9.942,9.942,0,0,1-1.352-2.954,19.1,19.1,0,0,0-.7-2.3,25.14,25.14,0,0,0,.231,2.982,12.517,12.517,0,0,0,.919,4.179,7.449,7.449,0,0,0,3.208,3.457,9.021,9.021,0,0,0,4.7.734c.286-.022.564-.052.835-.09a12.809,12.809,0,0,0,3.365-1.42,18.072,18.072,0,0,0,3.679-2.937c.053-.058.1-.107.128-.148-.238.1-.49.212-.737.3a5.67,5.67,0,0,1-2.6.295,7.713,7.713,0,0,1-2.959-.855,6.232,6.232,0,0,1-1.936-1.884,5.606,5.606,0,0,1-.774-1.3,5.821,5.821,0,0,0,1.468.792,12.022,12.022,0,0,0,4.312.48,13.814,13.814,0,0,0,2.545-.446.891.891,0,0,0,.141-.224c.073-.217-.507.159-1.563.232a6.629,6.629,0,0,1-3.85-.97,6.261,6.261,0,0,1-1.866-1.937,3.318,3.318,0,0,1-1.043-.339c-.486-.243-.694-.451-.468-.139a9.878,9.878,0,0,0,1.711,1.8c.826.653,1.821,1.127,1.838,1.2a6.243,6.243,0,0,1-1.618-.561,4.556,4.556,0,0,1-1.549-1.116,10.381,10.381,0,0,1-1.422-1.867c-.376-.659-.561-1.272-.526-.954a16.662,16.662,0,0,0,.589,2.462,6.327,6.327,0,0,0,.937,1.832c.289.393.52.636.526.694s-.214-.069-.63-.48a7.572,7.572,0,0,1-1.659-2.56c-.63-1.457-1.277-3.676-1.948-5.867s-1.364-4.352-1.942-5.774a7.659,7.659,0,0,0-1.508-2.589,3.735,3.735,0,0,0-1.491-.971,5.822,5.822,0,0,0-1.67-.318c-.5-.017-.867.052-.734-.006a4.877,4.877,0,0,1,1.491-.254,4.051,4.051,0,0,1,2.283.636,6.779,6.779,0,0,1,2.3,3.167c.855,1.873,1.873,4.809,2.775,6.751a14.015,14.015,0,0,0,2.289,3.591c.537.626.928,1.054,1.112,1.056q-.165-.3-.323-.634a9.228,9.228,0,0,1-1.752-2.178,20.04,20.04,0,0,1-1.621-3.683c-.526-1.5-1.092-3.352-1.572-4.768a9.54,9.54,0,0,0-1.537-3.191,6.739,6.739,0,0,0-2.5-1.774,14.119,14.119,0,0,1-1.682-.624,5.364,5.364,0,0,1,2.243.22,8.48,8.48,0,0,1,2.755,1.325l-.019-.025a7.223,7.223,0,0,0-3.387-2.721,13.258,13.258,0,0,0-3.279-.546c-.855.254-.966.542-1.007.8s-.007.513-.155.314a9.684,9.684,0,0,1-.713-1.372l-.033-.077a3.86,3.86,0,0,1-.465-.266,7.716,7.716,0,0,0-2.026-.934" transform="translate(-64.033 -36.713)" fill="#b04932" fill-rule="evenodd"/>
          <path id="Path_190" data-name="Path 190" d="M126.432,28.614a21.346,21.346,0,0,1,4.528-2.453,44.859,44.859,0,0,1,8.72-2.4,52.4,52.4,0,0,1,7.309-.651c1.447-.036,1.534-.007,1.592.029s.087.079-.2.76-.876,2-1.187,2.75-.34.941-.615.912a11.242,11.242,0,0,0-1.99-.362,32.447,32.447,0,0,0-4.856.159,24.285,24.285,0,0,0-8.705,2.265,4.965,4.965,0,0,1-1.006.391,2.355,2.355,0,0,1-.827-.083c-.566-.1-1.569-.315-2.182-.441s-.838-.17-1-.2a.884.884,0,0,1-.3-.087c-.038-.033-.013-.076.716-.59" transform="translate(-97.641 -17.941)" fill="#e69aba" fill-rule="evenodd"/>
          <path id="Path_191" data-name="Path 191" d="M142.787,27.386c.4-.191.83-.385,1.3-.578a1.872,1.872,0,0,0,1.608,0,3.213,3.213,0,0,0,.916-.909c1.221-.39,2.55-.753,3.891-1.058.248.111.5.222.739.311a3.484,3.484,0,0,0,2.3.123,4.154,4.154,0,0,0,1.923-1.266c.579-.063,1.135-.113,1.657-.153-.5.453-1.031.972-1.512,1.394a5.853,5.853,0,0,1-2.144,1.323,3.655,3.655,0,0,1-2.127-.017,9.315,9.315,0,0,0-1.93-.659,2.522,2.522,0,0,0-1.682.763,7.447,7.447,0,0,1-1.491,1.225,2.887,2.887,0,0,1-2.277.012,9.949,9.949,0,0,1-1.173-.511" transform="translate(-110.91 -18.53)" fill="#fff" fill-rule="evenodd"/>
          <path id="Path_192" data-name="Path 192" d="M266.294,24.59a12.587,12.587,0,0,1,4.776,1.632,43.494,43.494,0,0,1,6.05,4.82,31.689,31.689,0,0,0,4.74,3.719c1.5.883,3.075,1.433,3.763,1.853s.485.709-.178,1.613-1.788,2.421-2.475,3.248-.936.965-1.21.447a26.291,26.291,0,0,0-1.338-2.995,17.746,17.746,0,0,0-2.379-3.085c-.373-.343.119.41.718,1.51a22.978,22.978,0,0,1,2.072,5.341,98.021,98.021,0,0,1,2.081,10.189,34.781,34.781,0,0,1,.516,7.135c-.116,1.505-.492,2.142-1.187,2.576a7.511,7.511,0,0,1-2.258.781c-.55.116-.637.116-.7.087s-.1-.087-.315-.409-.615-.908-.966-1.342c-.041-.051-.081-.1-.121-.146a3.471,3.471,0,0,1-.253-.277l-.13-.15a3.412,3.412,0,0,1-.249-.284l-.012-.019c-.07-.081-.132-.156-.183-.221a.841.841,0,0,1-.207-.365c-.012-.087.023-.156.283-.347s.746-.5,1.278-.955A6.972,6.972,0,0,0,279.82,57.4a2.257,2.257,0,0,0,.307-1.257,2.367,2.367,0,0,0-.063-.728c-.052-.121-.147-.1-.368-.052a5.57,5.57,0,0,1-.868.127c-.3.012-.555-.035-.578-.121s.185-.214.445-.463a3.135,3.135,0,0,0,.749-1.063,2.48,2.48,0,0,0,.16-1.241c-.058-.278-.215-.313-.536-.216a11.668,11.668,0,0,1-1.251.415,1.776,1.776,0,0,1-1.075-.087.485.485,0,0,1-.266-.514c.006-.225.064-.5.069-1.168a23.848,23.848,0,0,0-.208-3.052,47.9,47.9,0,0,0-.9-4.838c-.44-1.884-1.029-4.034-1.457-5.358s-.693-1.821-.722-1.59.179,1.191.3,2.04a17.754,17.754,0,0,1,.167,2.075c.012.486,0,.717-.248-.035s-.734-2.485-1.3-4.017a25.478,25.478,0,0,0-1.884-4.011,36.053,36.053,0,0,0-2.011-3.017l-.7-.967a8.174,8.174,0,0,1-.528-.718c-.1-.142-.223-.312-.357-.5l-.006-.007-.01-.014-.015-.021,0,0-.458-.626-.037-.05h0l0,0c-.307-.417-.613-.827-.829-1.111-.449-.59-.514-.64-.416-.684a3.318,3.318,0,0,1,1.371.062" transform="translate(-205.748 -19.022)" fill="#e183b2" fill-rule="evenodd"/>
          <path id="Path_193" data-name="Path 193" d="M279.4,26.619a12.359,12.359,0,0,1,2.221.863,3.218,3.218,0,0,0,.333.914c.393.67,1.133,1.04,1.676,1.584a4.632,4.632,0,0,1,1.075,1.85,3.634,3.634,0,0,0,.555,1.445c.347.393,1.017.717,1.434,1.237a6.46,6.46,0,0,1,.878,2.775c.3,1.537.74,3.9.751,4.462s-.4-.659-.717-1.8-.52-2.208-.694-3.04a3.009,3.009,0,0,0-.832-1.873c-.52-.439-1.422-.717-1.884-1.087s-.486-.832-.647-1.445a4.277,4.277,0,0,0-.983-1.9c-.52-.52-1.26-.8-1.718-1.388s-.634-1.494-1.343-2.457q-.052-.07-.107-.14" transform="translate(-217.028 -20.676)" fill="#fff" fill-rule="evenodd"/>
          <path id="Path_194" data-name="Path 194" d="M187.945,266.362a19.12,19.12,0,0,0,2.634-1.51,13.182,13.182,0,0,0,1.994-1.908,7.849,7.849,0,0,1,.591-.661c.094-.074.193-.1.866-.221s1.92-.345,2.544-.423.624-.012.5.447a12.823,12.823,0,0,1-.816,2.285c-.459.972-1.141,2.064-1.489,2.88a6.971,6.971,0,0,0-.431,1.584c-.066.226-.18.135-.382-.094a6.794,6.794,0,0,1-.722-1,3.835,3.835,0,0,0-.714-1.075,1.744,1.744,0,0,0-1.366-.193,20.567,20.567,0,0,0-2.339.517c-.812.217-1.559.439-2.093.595a2.6,2.6,0,0,1-.911.2c-.057-.045.148-.226.5-.472a15.143,15.143,0,0,1,1.625-.952" transform="translate(-144.325 -203.207)" fill="#fff" fill-rule="evenodd"/>
          <path id="Path_195" data-name="Path 195" d="M163.7,273.65c-.14-.353-.468-.927-.677-1.53a11.115,11.115,0,0,1-.365-1.555c-.066-.32-.107-.328-.546-.3s-1.276.094-1.924.127a6.36,6.36,0,0,0-1.3.111c-.193.078-.119.234-.135.591a4.449,4.449,0,0,1-.324,1.391c-.2.476-.5.87-.48,1.058s.344.172.849.021,1.186-.439,1.732-.673a5.959,5.959,0,0,1,1.255-.455.842.842,0,0,1,.743.283,6.843,6.843,0,0,1,.788.857,3.282,3.282,0,0,0,.4.521c.078.037.127-.094-.012-.447" transform="translate(-122.686 -209.92)" fill="#fff" fill-rule="evenodd"/>
          <path id="Path_196" data-name="Path 196" d="M160.906,283.213c.4-.145.722-.279.932-.352a.469.469,0,0,1,.62.131c.238.213.64.615.845.837s.213.263.074.722a20.642,20.642,0,0,0-.57,2.1,7.2,7.2,0,0,0-.127,1.641c.017.23.049.041.246-.611a22.978,22.978,0,0,1,.821-2.339c.263-.57.427-.595.972-.722s1.473-.357,2.429-.566,1.941-.4,2.548-.492c.194-.03.35-.051.478-.063-.182.26-.491.718-.782,1.2a9.266,9.266,0,0,0-.882,1.834c-.287.8-.574,1.887-.747,2.47s-.23.665-.328.734-.238.127-1.05.193-2.3.14-3.6.135a23.482,23.482,0,0,1-3.139-.193,3.418,3.418,0,0,1-1.231-.345c-.18-.107-.213-.189.021-.919a31.82,31.82,0,0,1,1.226-3.171,16.463,16.463,0,0,1,1.231-2.2Z" transform="translate(-122.937 -219.664)" fill="#fff" fill-rule="evenodd"/>
          <path id="Path_197" data-name="Path 197" d="M134.861,277.756c.042-.111.088-.225.137-.344.3-.73.747-1.633,1.083-2.372a4.718,4.718,0,0,0,.5-1.313,6.858,6.858,0,0,0-.833,1.268c-.406.693-.858,1.506-1.116,1.974s-.324.591-.472.538-.378-.283-.821-.533c-.157-.089-.341-.18-.534-.267.269-.534.577-1.225.854-1.945.154-.4.3-.811.426-1.216.466.24.84.482.965.522.168.053-.111-.259-.439-.513-.144-.112-.3-.212-.437-.3a11.377,11.377,0,0,0,.322-1.38q.038-.238.059-.46c0-.015,0-.032,0-.05.007-.09.015-.216.019-.366s0-.323-.014-.54-.044-.477-.076-.783a5.5,5.5,0,0,0-.2-1.11,9.41,9.41,0,0,0-.529-1.312c-.156-.312-.231-.387-.081-.355s.526.17.988.286,1.012.208,1.521.3.98.192,1.253.247c.175.035.269.053.339.065h.005l.079.013a3.97,3.97,0,0,1,.714.156c.123.049.172.107.16.3a5.78,5.78,0,0,1-.225,1c-.14.492-.345,1.157-.464,1.567s-.152.566-.119.657.131.115.6.037l.036-.006c-.022.043-.048.093-.078.152-.172.343-.484.987-.839,1.684s-.753,1.448-1.063,2.074-.531,1.126-.759,1.477a2.238,2.238,0,0,1-.667.685,2.788,2.788,0,0,1-.3.165" transform="translate(-103.157 -207.307)" fill="#fff" fill-rule="evenodd"/>
          <path id="Path_198" data-name="Path 198" d="M156.8,293.129c0,.02-.008.04-.012.06a9.021,9.021,0,0,0-.057,1.038c-.029.238-.135.328-1.276.661s-3.315.907-5.354,1.415-3.943.952-5.207,1.181a8.666,8.666,0,0,1-2.347.205,2.746,2.746,0,0,1-1.009-.263.8.8,0,0,1-.525-.624c-.058-.353.041-.911-.025-1.461s-.3-1.091-.328-1.641a3.133,3.133,0,0,1,.181-1.162c.083-.022.176-.05.272-.085a1.844,1.844,0,0,0,.788-.527,7.877,7.877,0,0,0,.915-1.623c.437-.9,1.085-2.261,1.53-3.12a9.8,9.8,0,0,1,.762-1.3c.454-.093,1.019-.228,1.509-.376l.044-.014a11.332,11.332,0,0,0-.805,1.284,16.836,16.836,0,0,0-1.153,2.642,7.249,7.249,0,0,0-.376,1.992c0,.394.078.459.459.587a8.987,8.987,0,0,0,2.363.4c1.3.082,3.221.057,4.4.02a12.471,12.471,0,0,0,1.932-.148,1.4,1.4,0,0,0,.673-.263c.148-.127.238-.308.406-1a18.2,18.2,0,0,1,.857-2.917,14.254,14.254,0,0,1,1.376-2.336c.041-.063.076-.117.1-.165a.665.665,0,0,1,.124.031c.172.062.287.184.558.587.1.15.225.34.362.54-.1.264-.28.676-.483,1.255a22.17,22.17,0,0,0-.64,2.2,9.317,9.317,0,0,0-.259,1.768,2.224,2.224,0,0,0,.156.962c.026.065.055.129.085.19" transform="translate(-109.254 -221.758)" fill="#e69aba" fill-rule="evenodd"/>
          <path id="Path_199" data-name="Path 199" d="M156.8,293.129c0,.02-.008.04-.012.06a9.025,9.025,0,0,0-.057,1.038c-.029.238-.135.328-1.276.661s-3.315.907-5.354,1.415-3.943.952-5.207,1.181a8.666,8.666,0,0,1-2.347.205,2.746,2.746,0,0,1-1.009-.263.8.8,0,0,1-.525-.624c-.058-.353.041-.911-.025-1.461s-.3-1.091-.328-1.641a2.652,2.652,0,0,1,.055-.693c.054.267.048.576.11.86a4.892,4.892,0,0,0,.462,1.06c.139.294.186.526.495.69a4.393,4.393,0,0,0,1.384.315c.5.052.936.058.772.1s-.928.124-1.4.266-.65.344-.572.532.413.361,1.127.393a15.384,15.384,0,0,0,3.254-.353c1.448-.275,3.251-.714,4.6-1.116a14.164,14.164,0,0,0,2.731-1.043c.486-.277.561-.468.6-.633s.038-.3-.127-.355a2.553,2.553,0,0,0-.6-.02c-.107,0,.009-.043.171-.144s.37-.263.39-.416-.147-.3-.824-.379-1.861-.1-3.113-.1-2.569.009-3.581-.081a6.508,6.508,0,0,1-2.1-.465.7.7,0,0,1-.477-.7,4.4,4.4,0,0,1,.168-1.546c.191-.711.566-1.636.772-2.254s.24-.93.168-1.02-.251.044-.584.5c-.134.185-.293.423-.486.661.1-.207.2-.4.292-.576a9.8,9.8,0,0,1,.762-1.3c.454-.093,1.019-.228,1.509-.376l.044-.014a11.331,11.331,0,0,0-.805,1.284,16.838,16.838,0,0,0-1.153,2.642,7.25,7.25,0,0,0-.376,1.992c0,.394.078.459.459.587a8.987,8.987,0,0,0,2.363.4c1.3.082,3.221.057,4.4.02a12.471,12.471,0,0,0,1.932-.148,1.4,1.4,0,0,0,.673-.263c.148-.127.238-.308.406-1a18.2,18.2,0,0,1,.858-2.917,14.253,14.253,0,0,1,1.376-2.336c.041-.063.076-.117.1-.165a.665.665,0,0,1,.124.031c.172.062.287.184.558.587.1.15.225.34.362.54-.1.264-.28.676-.483,1.255a22.17,22.17,0,0,0-.64,2.2,9.32,9.32,0,0,0-.259,1.768,2.225,2.225,0,0,0,.156.962c.026.065.055.129.085.19" transform="translate(-109.254 -221.758)" fill="#e183b2" fill-rule="evenodd"/>
          <path id="Path_200" data-name="Path 200" d="M223.295,258.671a5.1,5.1,0,0,1,2.15,1.018,6.174,6.174,0,0,1,1.7,2.527,5.164,5.164,0,0,1-.074,3.808,44.064,44.064,0,0,1-2.618,5.744c-.7,1.321-.763,1.354-.812,1.3a3.656,3.656,0,0,0-.574-.665,15.994,15.994,0,0,0-1.74-1.493c-.3-.172.066.32.607.952s1.264,1.4,1.715,1.961a2.005,2.005,0,0,1,.615,1.452,7.071,7.071,0,0,1-.484,1.994,5.045,5.045,0,0,1-.722,1.461c-.172.148-.221-.18-.484-.829a8.762,8.762,0,0,0-1.485-2.462,7.117,7.117,0,0,0-2.839-1.953,11.445,11.445,0,0,0-2.9-.5c-.689-.066-.935-.148-1.034-.353a1,1,0,0,1,.107-.829,1.4,1.4,0,0,1,.96-.705c.541-.148,1.362-.181,1.518-.246s-.353-.164-.755-.23-.7-.1-.722-.353a1.211,1.211,0,0,1,.64-.96,2.6,2.6,0,0,1,1.69-.082c.681.131,1.452.377,1.584.377s-.378-.246-.8-.4a3.885,3.885,0,0,1-.895-.353c-.148-.131-.115-.328.279-1.231s1.149-2.511,1.329-3.094-.213-.14-.673.722-.985,2.142-1.338,2.782-.533.64-.849.689a2.821,2.821,0,0,0-1.059.345,1.372,1.372,0,0,0-.509.755,2.2,2.2,0,0,1-.275.685c-.148.193-.4.349-.632.648a2.659,2.659,0,0,0-.268.439,3.07,3.07,0,0,1-.1-.657,4.847,4.847,0,0,1,.1-1.1,10.152,10.152,0,0,1,.4-1.442c.206-.6.5-1.363.673-1.767.066-.157.113-.261.147-.331a4.929,4.929,0,0,0,.46.536,2.1,2.1,0,0,0,1.046.607c.181.021.107-.1.107-.517a5.388,5.388,0,0,1,.468-2.064c.394-.943,1.108-2.125,1.563-3.069a13.033,13.033,0,0,0,.771-2.031c.119-.382.16-.439.263-.5a2.5,2.5,0,0,1,.677-.2c.41-.086,1.067-.2,1.477-.263s.574-.07.739-.115a1.4,1.4,0,0,1,.853-.021" transform="translate(-165.877 -200.882)" fill="#fff" fill-rule="evenodd"/>
          <path id="Path_201" data-name="Path 201" d="M65.771,310.441a3.449,3.449,0,0,1-.789-.439,1,1,0,0,1-.362-1.03,3.315,3.315,0,0,1,.558-1.145c.254-.373.533-.726.747-1.063a7.486,7.486,0,0,1,.558-.878,1.319,1.319,0,0,1,.751-.41c.308-.066.677-.074.734-.115s-.2-.115-.488-.16a1.453,1.453,0,0,0-.923.1c-.3.16-.583.5-.7.525s-.078-.25.029-.636a2.745,2.745,0,0,1,.656-1.251,3.615,3.615,0,0,1,1.411-.767c.451-.14.771-.164.669-.18a4.229,4.229,0,0,1-.849-.115c-.222-.09-.14-.263.02-.464a1.791,1.791,0,0,1,.771-.574,5.626,5.626,0,0,1,1.268-.246c.386-.045.648-.078.615-.127a2.126,2.126,0,0,0-.628-.16c-.267-.045-.472-.07-.529-.254a1.034,1.034,0,0,1,.3-.841,3.062,3.062,0,0,1,.993-.722c.3-.131.451-.115,1.042.021a10.011,10.011,0,0,1,2.573.915,8.555,8.555,0,0,1,2.536,2.207,23.875,23.875,0,0,1,1.563,2.458,4.534,4.534,0,0,0,1.292,1.358,23.755,23.755,0,0,0,3.713,2.47c1.9,1.034,4.554,2.215,6.581,3.118s3.422,1.526,4.374,2.084,1.461,1.05,1.649,1.149.057-.2-.16-.443a3.764,3.764,0,0,0-.714-.574c-.193-.131-.275-.2-.168-.291a2.06,2.06,0,0,1,1.391-.308c.2.033.357.1.718.55s.927,1.288,1.448,1.937a5.758,5.758,0,0,1,1.137,1.6c.14.492-.058,1.018-.632,1.764a8.828,8.828,0,0,1-2.478,2.232,4.442,4.442,0,0,1-2.872.443,8.6,8.6,0,0,1-3.849-1.8c-1.9-1.313-4.7-3.594-7.09-5.514s-4.357-3.479-5.769-4.472a18.371,18.371,0,0,0-2.741-1.649c-.476-.23-.574-.263-.427-.115s.542.476.767.685.283.3.107.415a3.539,3.539,0,0,1-1.091.349,5.92,5.92,0,0,1-1.732.074,7.526,7.526,0,0,1-1.965-.533c-.681-.275-1.387-.636-1.772-.82-.117-.056-.2-.1-.267-.121-.175-.081-.371-.169-.559-.25a2.489,2.489,0,0,0-.965-.266.649.649,0,0,0-.63.453,2.65,2.65,0,0,0-.041,1.108,1.832,1.832,0,0,0,.176.622c.028.05.052.08.047.1" transform="translate(-50.175 -232.556)" fill="#fca921" fill-rule="evenodd"/>
          <path id="Path_202" data-name="Path 202" d="M67.047,310.441a3.449,3.449,0,0,1-.789-.439l-.02-.017a5.024,5.024,0,0,1,.285-1.356c.168-.468.364-.734.78-.8a5.253,5.253,0,0,1,1.381.1c.33.046.353.011.243-.064s-.353-.191-.173-.168a14.618,14.618,0,0,1,1.584.439,21.167,21.167,0,0,0,2.491.711c.682.11,1.04-.017,1.219-.237s.179-.532.272-.688.278-.156.532-.087a5.749,5.749,0,0,1,1.173.532,21.843,21.843,0,0,1,2.6,1.676c1.141.844,2.558,2.023,4.387,3.462s4.072,3.138,5.869,4.26a13.172,13.172,0,0,0,4.26,1.89,4.526,4.526,0,0,0,2.7-.168A2.755,2.755,0,0,0,97.4,318.1a1.814,1.814,0,0,0-.277-1.751,3.009,3.009,0,0,0-1.208-.919c-.191-.052.064.2.307.641s.474,1.064.387,1.064-.491-.624-1.243-1.4a15.329,15.329,0,0,0-3.462-2.618c-1.613-.919-3.739-1.832-5.687-2.855S82.5,308.1,81.25,307.345a11.786,11.786,0,0,0-2.526-1.295c-.549-.156-.919-.087-.965-.2s.231-.416.266-.873a2.924,2.924,0,0,0-.659-1.763,10.793,10.793,0,0,0-1.954-2.035,8.106,8.106,0,0,0-1.936-1.172,3.164,3.164,0,0,0-1.529-.332,3.7,3.7,0,0,0-.836.284,3.281,3.281,0,0,1,.742-.473c.3-.131.451-.115,1.042.021a10.011,10.011,0,0,1,2.573.915A8.555,8.555,0,0,1,78,302.629a23.875,23.875,0,0,1,1.563,2.458,4.534,4.534,0,0,0,1.292,1.358,23.755,23.755,0,0,0,3.713,2.47c1.9,1.034,4.554,2.215,6.581,3.118s3.422,1.526,4.374,2.084,1.461,1.05,1.649,1.149.057-.2-.16-.443a3.764,3.764,0,0,0-.714-.574c-.193-.131-.275-.2-.168-.291a2.06,2.06,0,0,1,1.391-.308c.2.033.357.1.718.55s.927,1.288,1.448,1.937a5.758,5.758,0,0,1,1.137,1.6c.14.492-.058,1.018-.632,1.764a8.828,8.828,0,0,1-2.478,2.232,4.442,4.442,0,0,1-2.872.443,8.6,8.6,0,0,1-3.849-1.8c-1.9-1.313-4.7-3.594-7.09-5.514s-4.357-3.479-5.769-4.472a18.371,18.371,0,0,0-2.741-1.649c-.476-.23-.574-.263-.427-.115s.542.476.767.685.283.3.107.415a3.539,3.539,0,0,1-1.091.349,5.92,5.92,0,0,1-1.732.074,7.526,7.526,0,0,1-1.965-.533c-.681-.275-1.387-.636-1.772-.82-.117-.056-.2-.1-.267-.121-.175-.081-.371-.169-.559-.25a2.489,2.489,0,0,0-.965-.266.649.649,0,0,0-.63.453,2.65,2.65,0,0,0-.041,1.108,1.832,1.832,0,0,0,.176.622c.028.05.052.08.047.1" transform="translate(-51.45 -232.556)" fill="#fc8320" fill-rule="evenodd"/>
          <path id="Path_203" data-name="Path 203" d="M106.257,295.507c-.454.826-.536.945-.607.966s-.137-.067-.448-.528A12.416,12.416,0,0,0,103.663,294a7.327,7.327,0,0,0-2.235-1.458,12.21,12.21,0,0,0-1.385-.487,7.023,7.023,0,0,0,.722-.3,11.556,11.556,0,0,0,1.391-.743,6.477,6.477,0,0,0,.724-.582c.14-.113.209-.117.291.131a11.085,11.085,0,0,0,.443,1.374,9.826,9.826,0,0,0,1.19,2.006,13.021,13.021,0,0,0,1.29,1.407l.162.157" transform="translate(-77.708 -225.535)" fill="#009fe3" fill-rule="evenodd"/>
          <path id="Path_204" data-name="Path 204" d="M96.464,270.133c.067-.172.131-.352.185-.535.2-.665.248-1.366.554-2.235a4.071,4.071,0,0,1,1.96-2.434,6.028,6.028,0,0,1,3.924-.2,3.424,3.424,0,0,1,2.38,2.106,6.331,6.331,0,0,1,.051,4.043,15.38,15.38,0,0,1-.862,2.247l-.095-.084a6.306,6.306,0,0,1-.813-.837,12.556,12.556,0,0,1-1.286-1.886,7.753,7.753,0,0,1-.64-1.645,1.681,1.681,0,0,1-.107-.656,2.8,2.8,0,0,1,.127-.345.8.8,0,0,0,.012-.451.477.477,0,0,0-.3-.32.739.739,0,0,0-.525.062,1.1,1.1,0,0,0-.447.353c-.07.119-.02.209-.037.332s-.1.279-.451.6a8.344,8.344,0,0,1-1.678,1.165,9.9,9.9,0,0,1-1.922.714Z" transform="translate(-74.928 -205.448)" fill="#009fe3" fill-rule="evenodd"/>
          <path id="Path_205" data-name="Path 205" d="M94.459,280.876a6.444,6.444,0,0,1,.294-.766c.29-.09.747-.2,1.24-.381a8.186,8.186,0,0,0,1.645-.819,9.118,9.118,0,0,0,1.233-.985c.246-.236.275-.3.312-.422a1.279,1.279,0,0,1,.181-.423.4.4,0,0,1,.377-.17.333.333,0,0,1,.238.31,1.285,1.285,0,0,1-.117.437.842.842,0,0,0,0,.431,5.175,5.175,0,0,0,.33,1.276,9.293,9.293,0,0,0,1.169,2.113,9.962,9.962,0,0,0,1.405,1.453l.167.147c-.291.606-.584,1.158-.818,1.59-.1-.107-.292-.268-.628-.607a9.336,9.336,0,0,1-1.262-1.533,8.356,8.356,0,0,1-.853-1.9,11.97,11.97,0,0,1-.308-1.227c-.051-.234-.076-.275-.117-.261a2.913,2.913,0,0,0-.369.341,8.272,8.272,0,0,1-1.286,1.026,7.34,7.34,0,0,1-1.532.675,5.339,5.339,0,0,1-.8.217c-.429-.121-.579-.193-.5-.523" transform="translate(-73.355 -215.085)" fill="#ececec" fill-rule="evenodd"/>
          <path id="Path_206" data-name="Path 206" d="M70.653,340.563a.684.684,0,0,0-.2.47,2.834,2.834,0,0,0,.068.868,2.019,2.019,0,0,0,.468.96,4.685,4.685,0,0,0,1.26.862,6.308,6.308,0,0,0,2.066.747,5.38,5.38,0,0,0,2.314-.217,3.268,3.268,0,0,0,1.383-.907,7.479,7.479,0,0,0,.866-1.038c.123-.2,0-.164-.373-.061a7.215,7.215,0,0,1-1.608.287,5.166,5.166,0,0,1-1.842-.316,18.374,18.374,0,0,1-1.9-.8c-.6-.283-1.132-.546-1.477-.706a2.3,2.3,0,0,0-.646-.236.483.483,0,0,0-.384.088" transform="translate(-54.719 -264.459)" fill="#009fe3" fill-rule="evenodd"/>
          <path id="Path_207" data-name="Path 207" d="M78.657,353.83a7.787,7.787,0,0,0-.64,2.051,3.689,3.689,0,0,0,.238,2.1,3.361,3.361,0,0,0,1.6,1.682,5.5,5.5,0,0,0,3.213.463,15.022,15.022,0,0,0,4.185-1.526c1.6-.776,3.475-1.752,4.411-2.253s.935-.525.484-.919-1.354-1.157-2.257-1.813a22.112,22.112,0,0,0-2.318-1.481,1.407,1.407,0,0,0-1.067-.234c-.431.041-1.169.123-1.6.213a1.638,1.638,0,0,0-.853.435,7.663,7.663,0,0,1-1.35.894,4.4,4.4,0,0,1-1.551.406A4.835,4.835,0,0,1,80,353.8a3.486,3.486,0,0,1-.591-.14,2.674,2.674,0,0,1-.336-.135c-.1-.049-.209-.107-.419.3" transform="translate(-60.557 -273.327)" fill="#fca921" fill-rule="evenodd"/>
          <path id="Path_208" data-name="Path 208" d="M82.584,359.664l.008,0a5.5,5.5,0,0,0,3.213.463,15.022,15.022,0,0,0,4.185-1.526c1.6-.776,3.475-1.752,4.411-2.253s.935-.525.484-.919-1.354-1.157-2.257-1.813a22.115,22.115,0,0,0-2.318-1.481,1.408,1.408,0,0,0-1.067-.234c-.431.041-1.169.123-1.6.213a1.637,1.637,0,0,0-.853.435,7.663,7.663,0,0,1-1.35.894,4.4,4.4,0,0,1-1.551.406,4.835,4.835,0,0,1-1.149-.049,3.486,3.486,0,0,1-.591-.14,2.674,2.674,0,0,1-.336-.135c-.086-.041-.175-.088-.325.138.029.029.058.057.089.085a3.545,3.545,0,0,0,1.508.737,3.953,3.953,0,0,0,1.635.072,2.742,2.742,0,0,0,1.092-.578,11.939,11.939,0,0,1,1.41-.89,7.037,7.037,0,0,1,1.468-.561,1.9,1.9,0,0,1,1.416.127,11.158,11.158,0,0,1,2.22,1.376,3.343,3.343,0,0,1,1.162,1.364c.11.364-.064.618-1.248,1.3a36.835,36.835,0,0,1-5.156,2.428,8.2,8.2,0,0,1-4.3.578c-.069-.013-.136-.027-.2-.042" transform="translate(-63.299 -273.327)" fill="#fc8320" fill-rule="evenodd"/>
          <path id="Path_209" data-name="Path 209" d="M155.716,330.432c.718-.2,2.285-.5,3.832-.829s3.073-.7,4.6-1.087,3.065-.788,4.173-1.038a10.007,10.007,0,0,1,2.4-.336,4.609,4.609,0,0,1,1.814.423,8.828,8.828,0,0,1,2.146,1.3,4.72,4.72,0,0,1,1.407,1.871,3.268,3.268,0,0,1,.111,1.76,2.486,2.486,0,0,1-.357.948c-.107.14-.164.09-.3-.221a5.084,5.084,0,0,0-.775-1.411,7.137,7.137,0,0,0-1.572-1.292c-.459-.291-.705-.4-.705-.353a4.731,4.731,0,0,0,.619.578,8.458,8.458,0,0,1,1.206,1.284,3.555,3.555,0,0,1,.591,1.428,4.8,4.8,0,0,1,.066,1.444,3.4,3.4,0,0,1-.332,1.124,1.51,1.51,0,0,1-.488.6.384.384,0,0,1-.533-.025,4.973,4.973,0,0,1-.562-1.075,6.792,6.792,0,0,0-1.038-1.682,3.369,3.369,0,0,0-1.186-.837c-.189-.057-.017.123.23.39a7.381,7.381,0,0,1,.874,1.108,8.558,8.558,0,0,1,.812,1.723,4.134,4.134,0,0,1,.275,1.727,2.351,2.351,0,0,1-.681,1.366,4.967,4.967,0,0,1-1.3.993c-.382.185-.611.16-.7.066s-.041-.259-.012-.464a1.257,1.257,0,0,1,.168-.615,1.287,1.287,0,0,1,.476-.291c.09-.045.016-.053-.115-.062a1.1,1.1,0,0,1-.48-.107c-.16-.09-.291-.263-.747-.9s-1.235-1.748-1.776-2.4-.845-.849-1.268-.9a5.02,5.02,0,0,0-1.317.111,4.892,4.892,0,0,1-.66.09,1.8,1.8,0,0,1-.7-.164c-.431-.152-1.169-.439-1.887-.763a11.517,11.517,0,0,1-1.707-.9c-.291-.217-.176-.291.181-.41a9.333,9.333,0,0,0,1.009-.34c.053-.058-.439-.008-.919.053s-.948.136-1.264.144a2.317,2.317,0,0,1-1.083-.3c-.6-.254-1.645-.706-2.216-.956a4.895,4.895,0,0,1-.784-.378c-.115-.078-.246-.184.472-.386" transform="translate(-120.515 -254.106)" fill="#fca921" fill-rule="evenodd"/>
          <path id="Path_210" data-name="Path 210" d="M155.716,330.432c.718-.2,2.285-.5,3.832-.829q1.039-.223,2.069-.467c-.552.236-1.059.458-1.448.655-1.3.659-1.277,1.029-1.092,1.415a1.45,1.45,0,0,0,1.4.828,16.415,16.415,0,0,0,2.721-.342c.467-.062.017.134-.307.395s-.52.584-.2.919a3.7,3.7,0,0,0,1.936.78,12.023,12.023,0,0,0,2.1-.069c.578-.017.994.1,1.364.1a1.042,1.042,0,0,0,.919-.439,3.673,3.673,0,0,0,.428-1.2c.075-.341.1-.491.318-.59a3.779,3.779,0,0,0,.907-.353,1.614,1.614,0,0,0,.48-.884,1,1,0,0,1,.434-.746c.318-.2.919-.347,1.075-.641s-.133-.734-.458-1.057a2.4,2.4,0,0,0-1.311-.663c-.167-.035-.353-.066-.532-.1.127-.006.248-.008.366-.006a4.61,4.61,0,0,1,1.814.423,8.828,8.828,0,0,1,2.146,1.3,4.72,4.72,0,0,1,1.407,1.871,3.268,3.268,0,0,1,.111,1.76,2.486,2.486,0,0,1-.357.948c-.107.14-.164.09-.3-.221a5.084,5.084,0,0,0-.775-1.411,7.136,7.136,0,0,0-1.572-1.292c-.459-.291-.705-.4-.705-.353a4.728,4.728,0,0,0,.619.578,8.46,8.46,0,0,1,1.206,1.284,3.555,3.555,0,0,1,.591,1.428,4.8,4.8,0,0,1,.066,1.444,3.4,3.4,0,0,1-.332,1.124,1.51,1.51,0,0,1-.488.6.385.385,0,0,1-.533-.025,4.973,4.973,0,0,1-.562-1.075,6.792,6.792,0,0,0-1.038-1.682,3.368,3.368,0,0,0-1.186-.837c-.189-.057-.017.123.23.39a7.381,7.381,0,0,1,.874,1.108,8.559,8.559,0,0,1,.812,1.723,4.134,4.134,0,0,1,.275,1.727,2.351,2.351,0,0,1-.681,1.366,4.967,4.967,0,0,1-1.3.993c-.382.185-.611.16-.7.066s-.041-.259-.012-.464a1.257,1.257,0,0,1,.168-.615,1.287,1.287,0,0,1,.476-.291c.09-.045.016-.053-.115-.062a1.1,1.1,0,0,1-.48-.107c-.16-.09-.291-.263-.747-.9s-1.235-1.748-1.776-2.4-.845-.849-1.268-.9a5.019,5.019,0,0,0-1.317.111,4.9,4.9,0,0,1-.66.09,1.8,1.8,0,0,1-.7-.164c-.431-.152-1.169-.439-1.887-.763a11.517,11.517,0,0,1-1.707-.9c-.291-.217-.176-.291.181-.41a9.333,9.333,0,0,0,1.009-.34c.053-.058-.439-.008-.919.053s-.948.136-1.264.144a2.317,2.317,0,0,1-1.083-.3c-.6-.254-1.645-.706-2.216-.956a4.895,4.895,0,0,1-.784-.378c-.115-.078-.246-.184.472-.386" transform="translate(-120.515 -254.106)" fill="#fc8320" fill-rule="evenodd"/>
          <path id="Path_211" data-name="Path 211" d="M128.464,313.254a2.682,2.682,0,0,1,.788.345.86.86,0,0,1,.415.538,4.547,4.547,0,0,1,.1.874,5.46,5.46,0,0,0,.106.931c.074.336.205.722.271,1.075a2.378,2.378,0,0,1,.033.812c-.033.14-.1.1-.427-.115a11.413,11.413,0,0,1-1.3-.948,2.826,2.826,0,0,1-.714-.976,4.8,4.8,0,0,1-.308-.829.472.472,0,0,1,.1-.451c.119-.193.332-.513.455-.722a3,3,0,0,0,.2-.4c.041-.09.09-.173.291-.135" transform="translate(-98.958 -243.313)" fill="#fca921" fill-rule="evenodd"/>
          <path id="Path_212" data-name="Path 212" d="M128.546,372.065a9.967,9.967,0,0,1,.111,1.489,9.342,9.342,0,0,1-.312,2.244,14.733,14.733,0,0,1-1.19,2.782,49.394,49.394,0,0,0-2.3,4.964,11.043,11.043,0,0,0-.7,3.269,41.565,41.565,0,0,0,33.358-1.6q-.116-.329-.263-.673c-1.05-2.445-3.381-5.465-4.776-7.467-.389-.558-.7-1.037-.964-1.45-.055-.063-.109-.131-.16-.185-.14-.146-.259-.183-.38-.07s-.244.375-.539.691a5.479,5.479,0,0,1-1.448,1.046,15.386,15.386,0,0,1-1.9.816c-.312.1-.033-.045.4-.287a10.662,10.662,0,0,0,1.531-.989,4.391,4.391,0,0,0,1.161-1.372,3.949,3.949,0,0,0,.343-1.4l0-.029c-.063-.135-.115-.254-.161-.361-.259-.6-.316-.825-.418-.837s-.25.185-.492.513a10.24,10.24,0,0,1-.956,1.165,4.246,4.246,0,0,1-1.2.857c-.4.185-.788.259-1.054.406s-.414.369-1,1a8.208,8.208,0,0,1-3.543,2.428c0,.025-.007.051-.01.079-.041.361-.008.977-.037,1.575a5.557,5.557,0,0,1-.271,1.584c-.152.4-.365.624-1.165.886a14.152,14.152,0,0,1-3.512.62,12.99,12.99,0,0,1-3.483-.361,6.75,6.75,0,0,1-1.621-.57c-.2-.115-.078-.107.271-.033s.923.213,1.723.316a17.283,17.283,0,0,0,2.913.119,18.171,18.171,0,0,0,2.934-.373,2.119,2.119,0,0,0,1.129-.5c.185-.18.308-.386.349-1.005.04-.6,0-1.595.011-2.125a11.3,11.3,0,0,1-4.426.119,18.8,18.8,0,0,1-3.266-.862,13.43,13.43,0,0,1-1.912-.825c-.205-.127.131-.029.812.176s1.707.517,2.8.743a22.139,22.139,0,0,0,3.228.415,8.451,8.451,0,0,0,2.044-.1c-.26-.044-.52-.1-.779-.171a10.825,10.825,0,0,1-3.266-1.424,41.313,41.313,0,0,1-3.512-2.741c-1.136-.936-2.179-1.74-2.839-2.236a9,9,0,0,0-1.091-.759c-.152-.074-.176-.033-.193.033a1.29,1.29,0,0,0,.013.46" transform="translate(-96.44 -288.589)" fill="#e69aba" fill-rule="evenodd"/>
          <path id="Path_213" data-name="Path 213" d="M138.143,372.065a9.959,9.959,0,0,1,.111,1.49,9.363,9.363,0,0,1-.312,2.244,14.743,14.743,0,0,1-1.19,2.782l-.239.473c.089-.135.173-.261.253-.371a1.413,1.413,0,0,1,.934-.7,2.928,2.928,0,0,1,1.089.1c.353.087.653.191.572.023a4.525,4.525,0,0,1-.722-1.214,5.065,5.065,0,0,1,.012-2c.087-.618.156-1.081.578-1.116a4.057,4.057,0,0,1,2.052.994,23.122,23.122,0,0,1,2.387,2.116c.6.6.85.925.566,1.065a4.334,4.334,0,0,1-1.689.025c-.274-.034-.5-.075-.625-.085.675.2,1.619.482,2.619.689a22.112,22.112,0,0,0,3.228.415,8.454,8.454,0,0,0,2.045-.1c-.26-.044-.52-.1-.779-.171a10.821,10.821,0,0,1-3.266-1.424,41.229,41.229,0,0,1-3.512-2.741c-1.137-.935-2.179-1.74-2.839-2.236a9.014,9.014,0,0,0-1.091-.759c-.152-.074-.176-.033-.193.033a1.293,1.293,0,0,0,.013.46m28.97,13.154q-.116-.328-.263-.673c-1.05-2.445-3.381-5.465-4.776-7.467-.389-.558-.7-1.037-.964-1.45-.055-.063-.109-.131-.16-.184-.14-.146-.259-.183-.38-.07s-.244.376-.54.691a5.478,5.478,0,0,1-1.448,1.046,15.457,15.457,0,0,1-1.9.816c-.312.1-.033-.045.4-.287a10.652,10.652,0,0,0,1.53-.989,4.385,4.385,0,0,0,1.161-1.372,3.953,3.953,0,0,0,.344-1.4l0-.029c-.063-.135-.115-.254-.161-.361-.259-.6-.316-.825-.419-.837s-.25.185-.492.513a10.281,10.281,0,0,1-.956,1.165,4.25,4.25,0,0,1-1.2.857c-.4.185-.788.259-1.054.406s-.415.369-1,1a8.21,8.21,0,0,1-3.543,2.428c0,.025-.008.051-.011.079-.041.361-.008.977-.037,1.576a5.565,5.565,0,0,1-.271,1.584c-.152.4-.365.624-1.165.886a14.175,14.175,0,0,1-3.512.62q-.141.006-.28.008c.245.019.491.032.733.039a12.628,12.628,0,0,0,3.6-.4c.8-.225,1.075-.457,1.214-.971a9.359,9.359,0,0,0,.156-1.844c.017-.532.052-.8.318-1a7.026,7.026,0,0,1,1.225-.538c.463-.2.89-.451,1.185-.283a1.068,1.068,0,0,1,.312,1.15c-.144.393-.6.589-.826.745s-.243.272.075.318a4.088,4.088,0,0,1,1.485.3,2.585,2.585,0,0,1,1.144,1.734,6.424,6.424,0,0,1,.058,3.006,3.887,3.887,0,0,1-1.561,2.22,14.658,14.658,0,0,1-1.9,1.062c.246-.027.492-.054.736-.086q.118-.045.249-.1c.913-.37,2.3-1.064,3.41-1.5a8.221,8.221,0,0,1,2.763-.659,4.224,4.224,0,0,1,1.653.162c.023.081-.74.127-1.9.59-.376.15-.793.345-1.253.566a41.22,41.22,0,0,0,8.208-3.057m-21.269-1.976.266-.01a18.171,18.171,0,0,0,2.934-.373,2.119,2.119,0,0,0,1.128-.5c.185-.181.308-.386.349-1.005.04-.6,0-1.595.011-2.125a11.287,11.287,0,0,1-4.426.119,18.789,18.789,0,0,1-3.266-.862c-.236-.085-.459-.17-.665-.252a9.761,9.761,0,0,0,1.88.95,12.127,12.127,0,0,0,2.78.6,3.839,3.839,0,0,1,1.387.243,1.113,1.113,0,0,1,.387.821,1.779,1.779,0,0,1-.132,1.059,2.089,2.089,0,0,1-1.4,1.059,8.343,8.343,0,0,1-1.231.269" transform="translate(-106.036 -288.588)" fill="#e183b2" fill-rule="evenodd"/>
          <path id="Path_214" data-name="Path 214" d="M114.143,182.669a4.909,4.909,0,0,1,1.968-.176,13.675,13.675,0,0,1,2.415.367,3.682,3.682,0,0,1,1.422.618.735.735,0,0,1,.254.739,2.859,2.859,0,0,1-.425,1.153,5.97,5.97,0,0,1-1.389,1.549,7.291,7.291,0,0,1-2.036,1.148,1.639,1.639,0,0,1-1.27-.04,2.329,2.329,0,0,1-1.092-.838,5.145,5.145,0,0,1-.8-1.907,3.212,3.212,0,0,1,.111-1.655,1.418,1.418,0,0,1,.841-.957" transform="translate(-87.875 -141.736)" fill="#4f1212" fill-rule="evenodd"/>
          <path id="Path_215" data-name="Path 215" d="M115.813,203.054a4.869,4.869,0,0,0-.021,1.292,5.864,5.864,0,0,0,.217,1.107,1.412,1.412,0,0,0,.6.867,4.814,4.814,0,0,0,1.8.723,3.708,3.708,0,0,0,2.006-.2c.647-.248,1.272-.676,1.491-.751s.035.2-.323.555a5.13,5.13,0,0,1-1.509,1.046,4.032,4.032,0,0,1-1.948.307,3.514,3.514,0,0,1-1.613-.6c-.445-.3-.792-.67-1-.826s-.277-.1-.5,0a2.475,2.475,0,0,1-.948.237,1.5,1.5,0,0,1-1.018-.422,2.844,2.844,0,0,1-.618-.815c-.029-.1.191.115.474.289a2.049,2.049,0,0,0,.96.312,1.2,1.2,0,0,0,.832-.266c.19-.173.26-.416.225-1.035s-.173-1.613-.156-2.116.191-.514.468-.538a5.486,5.486,0,0,1,.832-.035c.173.023.139.1.049.228a1.428,1.428,0,0,0-.3.633" transform="translate(-87.329 -157.048)" fill="#4f1212" fill-rule="evenodd"/>
          <path id="Path_216" data-name="Path 216" d="M147.986,151.671a4.626,4.626,0,0,0,2.618-.012,23.988,23.988,0,0,0,3.948-1.942,15.457,15.457,0,0,1,3.63-1.613,4.044,4.044,0,0,1,2.416.168,3.983,3.983,0,0,1,1.15.688c.225.185.329.277.312.191a3.892,3.892,0,0,0-.341-.67,3.267,3.267,0,0,0-.746-.948c-.33-.26-.757-.411-.867-.509s.1-.144.457-.162a5.091,5.091,0,0,0,.988-.069c.121-.064-.144-.2-.543-.387a4.348,4.348,0,0,0-1.538-.457,3.985,3.985,0,0,0-1.942.422A17.838,17.838,0,0,0,156,147.3c-.254.139-.139-.058.058-.33s.474-.618.37-.613a5.855,5.855,0,0,0-1.2.878c-.613.514-1.352,1.185-2.052,1.763a13.358,13.358,0,0,1-2.064,1.451,6.671,6.671,0,0,1-2.26.792c-.8.116-1.659.058-1.838.1s.318.179.977.335" transform="translate(-114.161 -113.361)" fill="#4f1212" fill-rule="evenodd"/>
          <path id="Path_217" data-name="Path 217" d="M161.142,155.274a1.806,1.806,0,0,0,.09.977,4.083,4.083,0,0,0,.6,1.306,5.44,5.44,0,0,0,1.454,1.4,4.135,4.135,0,0,0,2.254.693,7.724,7.724,0,0,0,2.9-.578,3.8,3.8,0,0,0,1.792-1.427,4.268,4.268,0,0,0,.717-2.243,7.182,7.182,0,0,0-.462-2.572,3.911,3.911,0,0,0-.878-1.491c-.283-.26-.526-.283-1.584.243s-2.93,1.6-4.121,2.243a17.859,17.859,0,0,1-2.069,1c-.37.147-.6.234-.685.457" transform="translate(-125.137 -117.41)" fill="#4f1212" fill-rule="evenodd"/>
          <path id="Path_218" data-name="Path 218" d="M104.274,150.01a1.372,1.372,0,0,1-1.135-.008,9.587,9.587,0,0,1-1.711-1.262,5.9,5.9,0,0,0-1.573-1.048,1.216,1.216,0,0,0-1.047.109,1.787,1.787,0,0,0-.5.447c-.1.12-.143.18-.136.124a3.2,3.2,0,0,1,.148-.436,2.228,2.228,0,0,1,.323-.616,4.893,4.893,0,0,1,.376-.33c.048-.064-.043-.094-.2-.105a1.491,1.491,0,0,1-.428-.045c-.053-.042.063-.132.235-.252a1.469,1.469,0,0,1,.666-.3,1.268,1.268,0,0,1,.841.274,7.988,7.988,0,0,1,.664.6c.11.09.06-.037-.025-.214s-.205-.4-.16-.4a2.846,2.846,0,0,1,.521.57c.266.334.586.77.889,1.145a6.472,6.472,0,0,0,.894.942,2.346,2.346,0,0,0,.979.514,7.334,7.334,0,0,0,.8.064c.078.026-.138.116-.423.218" transform="translate(-76.257 -113.629)" fill="#4f1212" fill-rule="evenodd"/>
          <path id="Path_219" data-name="Path 219" d="M107.2,153.326a1.733,1.733,0,0,1-.039.634,3.421,3.421,0,0,1-.259.849,3.182,3.182,0,0,1-.63.907,1.419,1.419,0,0,1-.977.451,2.414,2.414,0,0,1-1.255-.375,2,2,0,0,1-.776-.927,3.793,3.793,0,0,1-.311-1.457,6.778,6.778,0,0,1,.2-1.671,2.969,2.969,0,0,1,.381-.968c.123-.169.228-.184.686.158s1.27,1.04,1.786,1.457a7.063,7.063,0,0,0,.9.648c.16.1.261.152.3.3" transform="translate(-79.966 -117.018)" fill="#4f1212" fill-rule="evenodd"/>
          <path id="Path_220" data-name="Path 220" d="M162.894,129.469a8.8,8.8,0,0,0,2.682-.844c.774-.4,1.2-.867,1.277-1.41a1.324,1.324,0,0,0-.769-1.4,2.9,2.9,0,0,0-2.231.347,6.525,6.525,0,0,0-2.006,1.642c-.434.555-.538.994-.364,1.295s.624.462,1.41.37" transform="translate(-125.37 -97.646)" fill="#fff" fill-rule="evenodd"/>
          <path id="Path_221" data-name="Path 221" d="M117.147,132.857a3.717,3.717,0,0,1-1.529-.844,2.085,2.085,0,0,1-.728-1.41,1.687,1.687,0,0,1,.438-1.4c.323-.231.811-.069,1.272.347a5.282,5.282,0,0,1,1.143,1.642,1.9,1.9,0,0,1,.207,1.295c-.1.3-.356.462-.8.37" transform="translate(-89.235 -100.277)" fill="#fff" fill-rule="evenodd"/>
          <path id="Path_222" data-name="Path 222" d="M181.724,266.613c.572-.087,1.613-.272,2.861-.477s2.7-.431,3.427-.526.711-.061.356.283a18.231,18.231,0,0,1-1.827,1.561,22.391,22.391,0,0,1-2.349,1.445c-.734.407-1.358.748-1.691.881s-.373.058-.535-.266a15.2,15.2,0,0,1-.636-1.41,4.033,4.033,0,0,1-.286-1.194c0-.222.107-.211.679-.3" transform="translate(-140.626 -206.277)" fill="#fc8320" fill-rule="evenodd"/>
          <path id="Path_223" data-name="Path 223" d="M164.732,160.428a6.647,6.647,0,0,0,.448,1.031,3.469,3.469,0,0,0,.858,1.012,3.955,3.955,0,0,0,1.217.627,3.864,3.864,0,0,0,1.526.2,9.28,9.28,0,0,0,1.792-.353c.477-.139.714-.243.691-.266a3.856,3.856,0,0,1-.691-.049,2.528,2.528,0,0,1-1.219-.671,2.574,2.574,0,0,1-.647-1.355,4,4,0,0,1,.055-1.454,2.585,2.585,0,0,1,.522-1.22,2.8,2.8,0,0,1,1.221-.757c.485-.165,1.013-.24,1.108-.279s-.242-.041-.681-.024a4.686,4.686,0,0,0-1.593.292,9.315,9.315,0,0,0-1.882,1.1c-.588.421-1.083.826-1.447,1.1a4.326,4.326,0,0,1-.772.5,1.553,1.553,0,0,1-.387.111.314.314,0,0,0-.207.1c-.027.049,0,.117.089.356" transform="translate(-127.88 -121.842)" fill="#fff" fill-rule="evenodd"/>
          <path id="Path_224" data-name="Path 224" d="M182.561,160.432a1.215,1.215,0,1,1-1.215,1.215,1.215,1.215,0,0,1,1.215-1.215" transform="translate(-140.86 -124.616)" fill="#fff" fill-rule="evenodd"/>
          <path id="Path_225" data-name="Path 225" d="M190.7,172.2a.44.44,0,1,1,.44-.44.44.44,0,0,1-.44.44" transform="translate(-147.784 -133.069)" fill="#fff" fill-rule="evenodd"/>
          <path id="Path_226" data-name="Path 226" d="M107.576,155.712a6.982,6.982,0,0,0-.664-.737.7.7,0,0,0-.6-.226.72.72,0,0,0-.479.431,3.386,3.386,0,0,0-.249,1,4.679,4.679,0,0,0-.02,1.1,2.5,2.5,0,0,0,.26.879,1.418,1.418,0,0,0,.454.506,2.024,2.024,0,0,0,.452.238c.077.023.03-.023-.029-.113a1.713,1.713,0,0,1-.191-.4,3.08,3.08,0,0,1-.129-.615,2.339,2.339,0,0,1,.02-.675,1.908,1.908,0,0,1,.273-.746,1,1,0,0,1,.5-.355.806.806,0,0,1,.377-.039.848.848,0,0,0,.234.023c.022-.016-.039-.074-.2-.272" transform="translate(-81.974 -120.193)" fill="#fff" fill-rule="evenodd"/>
          <path id="Path_227" data-name="Path 227" d="M110.121,159.451c.277,0,.5.315.5.7s-.224.7-.5.7-.5-.315-.5-.7.224-.7.5-.7" transform="translate(-85.147 -123.854)" fill="#fff" fill-rule="evenodd"/>
          <path id="Path_228" data-name="Path 228" d="M113.481,166.253c-.1,0-.182-.114-.182-.255s.081-.255.182-.255.182.114.182.255-.081.255-.182.255" transform="translate(-88.005 -128.742)" fill="#fff" fill-rule="evenodd"/>
          <path id="Path_229" data-name="Path 229" d="M120.248,185.406a13.318,13.318,0,0,0-2.034-.318,4.337,4.337,0,0,0-1.6.1,1.229,1.229,0,0,0-.769.613,1.389,1.389,0,0,0-.124.751c.026.165.1.176.246.035a5.49,5.49,0,0,1,.673-.642,2.3,2.3,0,0,1,1.1-.373,8.475,8.475,0,0,1,1.6.009c.584.049,1.191.136,1.4.113s.017-.156-.5-.289" transform="translate(-89.882 -143.748)" fill="#fff" fill-rule="evenodd"/>
          <path id="Path_230" data-name="Path 230" d="M69.027,142.756a19.391,19.391,0,0,1,.242-2.084c.115-.549.26-.69,1.2-.878a17.735,17.735,0,0,1,4.367-.306,14.98,14.98,0,0,1,4.519,1.089,26.1,26.1,0,0,1,2.673,1.371,2.468,2.468,0,0,0,1.766.384c4.372-.935,6.69-3.416,15.181-3.183a33.464,33.464,0,0,1,4.661.637c.738.2,3.1.159,3.442.535s-.031,1.478.029,1.8-1.391.087-1.735.189a3.473,3.473,0,0,0-1.355.611,6.16,6.16,0,0,0-1.234,1.857,23.2,23.2,0,0,1-1.585,2.765,6.428,6.428,0,0,1-2.51,2.233c-3.532,1.645-12.624,1.183-14.332-4.05-.226-.692-.557-.776-.8-.744s-.514.219-.774.736c-2.58,5.129-7.952,5.483-10.93.611-.689-1.128-1.125-2.115-1.464-2.609s-.581-.494-.8-.407-.411.259-.508.243-.1-.219-.054-.8m3.085-.909a1.822,1.822,0,0,1,1.168-.744,6.557,6.557,0,0,1,2.776.035,15.65,15.65,0,0,1,3.393,1.167,4.633,4.633,0,0,1,1.76,1.261c1.887,2.468-4.873,7.973-8.1,3.063a7.744,7.744,0,0,1-.829-1.716,7.241,7.241,0,0,1-.312-1.344,5.832,5.832,0,0,1-.073-.9,1.438,1.438,0,0,1,.215-.819m29.475,0a2.107,2.107,0,0,0-1.167-.744c-4.153-1.408-13.216.807-14.483,2.464a2.105,2.105,0,0,0-.493,1.379c.226,4.869,10.17,4.591,12.191,3.941a5.461,5.461,0,0,0,2.955-2.256,7.745,7.745,0,0,0,.829-1.716,7.241,7.241,0,0,0,.312-1.344,5.83,5.83,0,0,0,.073-.9,1.437,1.437,0,0,0-.215-.819" transform="translate(-53.596 -108.073)" fill="#4f1212" fill-rule="evenodd"/>
          <path id="Path_231" data-name="Path 231" d="M228.712,28.842a39.626,39.626,0,0,1,1.786-3.584c.572-.965.9-1.185,1.127-1.243s.37.046.792.52a15.337,15.337,0,0,1,1.8,2.468,32.55,32.55,0,0,1,1.757,3.693,21.23,21.23,0,0,1,.786,2.081c.069.278-.058.116-.5-.191a12.832,12.832,0,0,0-1.977-1.093,10.6,10.6,0,0,0-2.364-.705,20.593,20.593,0,0,0-2.214-.266,2.441,2.441,0,0,1-.873-.11A1.164,1.164,0,0,1,228.44,30c-.087-.145-.121-.248.272-1.156" transform="translate(-177.397 -18.643)" fill="#4f1212" fill-rule="evenodd"/>
          <path id="Path_232" data-name="Path 232" d="M308.215,51.653c.289.1.578.272.607.486a.5.5,0,0,1-.468.485,1,1,0,0,1-.74-.428c-.173-.225-.22-.457-.1-.561a.835.835,0,0,1,.7.017" transform="translate(-238.81 -40.055)" fill="#fff" fill-rule="evenodd"/>
          <path id="Path_233" data-name="Path 233" d="M289,46.845c.289.1.578.272.607.486a.5.5,0,0,1-.468.486,1,1,0,0,1-.74-.428c-.173-.225-.22-.457-.1-.561a.835.835,0,0,1,.7.017" transform="translate(-223.883 -36.321)" fill="#fff" fill-rule="evenodd"/>
          <path id="Path_234" data-name="Path 234" d="M206.074,30.031c.289.1.578.272.607.486a.5.5,0,0,1-.468.485,1,1,0,0,1-.74-.428c-.173-.225-.22-.457-.1-.561a.835.835,0,0,1,.7.017" transform="translate(-159.472 -23.26)" fill="#fff" fill-rule="evenodd"/>
          <path id="Path_235" data-name="Path 235" d="M170.316,35.816c.289.1.578.272.607.486a.5.5,0,0,1-.468.485,1,1,0,0,1-.74-.428c-.173-.225-.219-.457-.1-.561a.835.835,0,0,1,.7.017" transform="translate(-131.697 -27.754)" fill="#fff" fill-rule="evenodd"/>
          <path id="Path_236" data-name="Path 236" d="M42.587,190.2a40.383,40.383,0,0,0,36.257-58.132,6.975,6.975,0,0,0,.236-1.86,22.249,22.249,0,0,0-.242-2.733,42.59,42.59,0,1,1-66.364-7.755,42.848,42.848,0,0,1,3.859-3.42,3.693,3.693,0,0,0-.1.554A8.007,8.007,0,0,0,16.487,119l.005.031q-1.271,1.078-2.449,2.256A40.367,40.367,0,0,0,42.587,190.2" transform="translate(0 -90.334)" fill="#4f1212"/>
        </g>
      </g>
    </g>
    <g id="Group_214" data-name="Group 214" transform="translate(-2786 384.001)">
      <path id="Path_647" data-name="Path 647" d="M803.045.444a37.915,37.915,0,0,0-5.15.961l-1.717.584-1.511,4.7c-.824,2.61-1.751,5.494-2.026,6.455-.275.927-.687,2.266-.927,2.919s-.618,1.888-.824,2.747c-.858,3.193-1.373,5.013-1.682,6.009-.206.549-.687,2.2-1.1,3.605-.378,1.408-.927,3.331-1.2,4.292-1.717,6.146-1.717,6.078.309,6.73,2.266.755,9.648,1.1,14.456.721,6.318-.549,10.2-2.095,13.391-5.356a9.316,9.316,0,0,0,2.678-4.017c.721-2.4.755-4.67,0-6.181-.755-1.579-1.511-2.266-3.743-3.365l-1.854-.961.79-.687a11.014,11.014,0,0,1,1.923-1.3,15.486,15.486,0,0,0,5.322-5.6,7.584,7.584,0,0,0,.893-3.983c0-2.644-.275-3.5-1.751-5.185-1.545-1.717-3.811-2.781-6.97-3.228-3.193-.446-4.773-.412-9.305.137m6.49,8.412c2.163.824,1.854,3.914-.549,5.975-2.129,1.854-7.142,2.369-7.142.755a27.641,27.641,0,0,1,2.2-5.872,2.456,2.456,0,0,1,1.3-.961,9.259,9.259,0,0,1,4.189.1m-4.6,15.383c1.3.515,1.58.79,1.854,1.854.412,1.648-.206,3.09-1.854,4.4-1.991,1.579-6.7,2.266-7.932,1.167-.515-.446-.515-.687-.137-2.129,1.1-4.052,1.614-5.185,2.506-5.528a9.15,9.15,0,0,1,5.563.24" transform="translate(2580.47 -313)" fill="#4c0e0f" fill-rule="evenodd"/>
      <path id="Path_648" data-name="Path 648" d="M195.591,1.493c-1.82.137-2.987.378-3.3.687-.652.687-5.082,9.545-9.305,18.713-2.3,5.013-2.953,6.387-4.017,8.756-2.781,6.009-4.086,9.271-3.983,9.82.1.515.584.584,3.88.584a27.542,27.542,0,0,0,4.5-.24c.412-.1,1.133-1.1,1.751-2.369,1.579-3.159,1.682-3.228,6.455-3.5,3.365-.206,4.223-.137,4.567.24a11.14,11.14,0,0,1,.481,3.365l.1,2.919h9.271l.275-3.949c.343-4.807.137-34.577-.24-34.92-.309-.309-6.284-.343-10.438-.1M197.72,12.55a72.733,72.733,0,0,1,.172,11.5c-.275.755-.481.79-3.537.79-4.429,0-4.567-.206-2.61-3.88.858-1.545,1.854-3.434,2.3-4.189.412-.755.927-1.717,1.133-2.163.446-1.064,1.785-2.816,2.129-2.816.137,0,.343.343.412.755" transform="translate(2981.46 -313.877)" fill="#4c0e0f" fill-rule="evenodd"/>
      <path id="Path_649" data-name="Path 649" d="M430.188,1.2a9.22,9.22,0,0,0-3.3.652c-.481.378-4.91,9.03-7.245,14.147-.481,1.03-1.648,3.571-2.61,5.6-.961,2.06-1.751,3.811-1.751,3.88s-.687,1.579-1.511,3.3c-.79,1.751-1.957,4.258-2.541,5.6-.584,1.3-1.27,2.85-1.579,3.4-.927,1.785-.412,2.026,3.88,1.992,2.095,0,4.052-.034,4.292-.034a6.47,6.47,0,0,0,1.751-2.4,15.951,15.951,0,0,1,1.82-2.884c.755-.687,8.515-1.133,9.2-.549.343.275.481,1.27.481,3.434v3.056h9.271l.24-.961c.172-.515.275-9.133.275-19.16,0-14.936-.069-18.336-.481-18.782-.378-.481-1.064-.584-3.949-.515-1.888.034-4.7.137-6.249.24m2.266,16.619a36.691,36.691,0,0,1-.069,6.146c-.24.515-.79.618-3.708.618-4.258,0-4.361-.172-2.369-3.983,2.129-4.155,3.365-6.352,4.326-7.829,1.339-2.06,1.614-1.3,1.82,5.047" transform="translate(2827.622 -313.617)" fill="#4c0e0f" fill-rule="evenodd"/>
      <path id="Path_650" data-name="Path 650" d="M903.254,1.321a9.037,9.037,0,0,0-3.125.721,37.117,37.117,0,0,0-3.365,6.009c-1.476,3.022-2.816,5.734-2.987,6.009a7.2,7.2,0,0,0-.515,1.03c-.137.275-1.064,2.232-2.06,4.361-1.03,2.095-1.854,3.914-1.854,4.017a41.784,41.784,0,0,1-1.717,3.846c-.927,1.992-1.717,3.674-1.717,3.743,0,.206-2.713,6.043-3.262,7.039-.858,1.579-.309,1.785,4.292,1.82,4.773,0,4.361.206,6.283-3.3a5.737,5.737,0,0,1,1.786-2.3,31.447,31.447,0,0,1,4.4-.515c2.747-.206,3.811-.137,4.189.172s.515,1.2.515,3.468V40.5h4.635c4.429,0,4.635-.034,5.047-.79.652-1.1.652-37.427,0-38.079-.481-.481-6.421-.687-10.541-.309M905.521,14.4c.378,3.88.343,9.889-.069,10.164a17.665,17.665,0,0,1-3.537.172c-4.326-.069-4.429-.24-2.266-4.292.893-1.717,2.06-3.811,2.541-4.67s1.133-2.06,1.408-2.678q.567-1.133,1.133-1.03c.446.069.618.618.79,2.335" transform="translate(2517 -313.74)" fill="#4c0e0f" fill-rule="evenodd"/>
      <path id="Path_651" data-name="Path 651" d="M558.9,2.881c-5.391,1.511-7.829,2.713-10.061,4.91-3.159,3.056-4.223,6.043-3.5,9.855a8.726,8.726,0,0,0,3.914,5.975c.858.584,2.266,1.545,3.125,2.095,4.017,2.781,3.88,5.391-.378,6.7a21.276,21.276,0,0,1-8.515.137,4.685,4.685,0,0,0-2.163-.172,44.915,44.915,0,0,0-1.373,6.97c-.172,1.373-.137,1.476.79,1.854.652.24,3.434.309,8.206.206,6.661-.137,7.417-.206,9.717-1.03,5.425-1.923,8.687-4.567,10.026-8.138.755-2.026.755-2.129.172-3.434-.893-1.992-3.5-4.223-6.97-5.975-2.129-1.064-4.189-3.056-4.189-4.017a7.862,7.862,0,0,1,2.129-3.983c1.751-1.648,3.605-2.163,7.863-2.163h3.983l.549-1.476a34.4,34.4,0,0,0,1.751-7.623l.034-1.373-6.181-.034c-5.46-.069-6.49.034-8.927.721" transform="translate(2741.865 -314.407)" fill="#4c0e0f" fill-rule="evenodd"/>
      <path id="Path_652" data-name="Path 652" d="M640.547,2.323c-1.579.378-2.06.858-2.3,2.438a7.444,7.444,0,0,1-.515,1.957,18.658,18.658,0,0,0-.893,2.987c-.618,2.541-1.167,4.876-1.992,8.241-.275,1.133-.858,3.537-1.27,5.322s-1,4.189-1.27,5.322c-.24,1.133-.755,3.365-1.133,4.979-.343,1.614-.79,3.537-1,4.292A11.244,11.244,0,0,0,629.8,40.2v.961l4.7-.1,4.67-.1.481-1.373c.275-.755.721-2.232.961-3.262,1.992-8.206,1.751-7.9,6.73-7.9,4.429,0,4.6.137,4.086,3.228a12,12,0,0,1-.515,2.232,29.109,29.109,0,0,0-1.03,6.593c.343.481,8.172.378,8.893-.137a4.5,4.5,0,0,0,.927-1.957c.172-.858.549-2.369.824-3.365.275-.961.755-2.61,1.03-3.605.275-.961,1-3.571,1.545-5.734,1.579-5.975,1.923-7.176,2.713-9.786.412-1.339.961-3.193,1.236-4.12.24-.961.824-2.816,1.236-4.12a19.567,19.567,0,0,0,.79-3.777l.034-1.373-3.777-.1a26.38,26.38,0,0,0-5.013.24c-1.2.378-1.3.515-2.026,2.884-1,3.4-1.888,6.49-2.678,9.339l-.652,2.4-1.854.24c-2.953.343-6.318.309-6.73-.1-.378-.378-.069-1.923,1.271-6.49.412-1.408.961-3.365,1.236-4.292a16.781,16.781,0,0,1,.858-2.438,2.544,2.544,0,0,0,.24-1.373c-.1-.584-.481-.652-4.223-.721a30.34,30.34,0,0,0-5.219.24" transform="translate(2682.81 -314.363)" fill="#4c0e0f" fill-rule="evenodd"/>
      <path id="Path_653" data-name="Path 653" d="M748.2,2.161c-2.266.378-2.747.824-3.434,3.193-.343,1.2-.824,2.781-1.064,3.537-.824,2.747-1.957,6.558-2.369,8.241-.275.927-.79,2.953-1.2,4.464-.79,2.884-1.477,5.528-2.232,8.859a21.679,21.679,0,0,1-.687,2.575c-.206.549-1.03,4.464-1.442,6.867L735.6,41.03l5.082-.1,5.082-.1.79-2.747c.446-1.511,1.03-3.537,1.3-4.464.24-.961.79-2.816,1.167-4.12.412-1.339.961-3.193,1.2-4.12.652-2.369,1.923-6.593,2.438-8.241.412-1.3,1.545-5.013,2.4-7.9.24-.755.79-2.472,1.2-3.811,1.133-3.5,1.064-3.571-3.159-3.537-1.957.034-4.155.172-4.91.275" transform="translate(2613.338 -314.236)" fill="#4c0e0f" fill-rule="evenodd"/>
      <path id="Path_654" data-name="Path 654" d="M55.759,3.218a2.263,2.263,0,0,0-1.408,1.1c-.172.412-.755,1.751-1.3,2.987-1.27,2.816-2.232,5.116-3.228,7.726a25.911,25.911,0,0,1-1.03,2.4,6.339,6.339,0,0,0-.584,1.545c-.206.652-.687,2.06-1.1,3.09-.927,2.4-2.438,6.764-2.438,6.764s-.549,1.545-.824,2.06h0l-1.03,2.987s-.186.563-.435,1.327-.561,1.729-.561,1.729-1.545,4.292-1.3,4.5a28.742,28.742,0,0,0,4.532.206c4.7,0,4.91-.069,5.494-1.957.378-1.236,2.472-6.936,3.434-9.374.412-1.03.927-2.369,1.167-2.919a9.6,9.6,0,0,1,1.3-2.232l.893-1.167.206,1.545c.1.824.24,4.5.343,8.172.206,7.932.206,7.932,3.434,7.932a6.066,6.066,0,0,0,2.644-.446c.584-.446,3.537-5.494,6.661-11.4,2.335-4.4,3.228-5.734,3.708-5.425.343.206.24,4.12-.343,13.563l-.206,3.708h4.326c5.356,0,5.253.1,5.768-5.528.172-2.163.584-5.631.824-7.691.275-2.095.652-5.253.858-7.039.481-4.773,1-9.065,1.442-12.189.206-1.511.412-3.434.412-4.258.034-1.476,0-1.545-1.167-1.854-1.614-.412-7.588-.1-8.79.515-.961.446-2.4,2.61-5.013,7.52-.652,1.2-1.923,3.468-2.816,5.047-1.408,2.4-1.751,2.781-2.129,2.4-.721-.687-1.1-3.434-1.373-9.374-.309-6.627-.069-6.352-5.459-6.318a28.357,28.357,0,0,0-4.91.343" transform="translate(3069.788 -314.881)" fill="#4c0e0f" fill-rule="evenodd"/>
      <path id="Path_655" data-name="Path 655" d="M289.494,3.059c-1.167.206-1.682,1-3.571,5.425-.961,2.266-1.991,4.6-2.266,5.219a5.015,5.015,0,0,0-.481,1.476,3.056,3.056,0,0,1-.412,1.133c-.378.687-1.408,3.434-2.884,7.623-.275.755-.652,1.682-.824,2.06s-.549,1.373-.858,2.232-1,2.85-1.545,4.464-1.408,3.983-1.854,5.322c-1.373,3.811-1.614,3.605,3.674,3.605h4.567l.584-1.2a6.829,6.829,0,0,0,.584-1.648,4.349,4.349,0,0,1,.515-1.373,12.278,12.278,0,0,0,.824-2.06,49.9,49.9,0,0,1,1.923-5.219c.24-.584.824-1.957,1.3-3.09.446-1.133,1.03-2.06,1.3-2.06.549,0,.755,1.511,1.3,9.855.206,3.159.481,5.975.584,6.249.172.446.755.549,2.678.549,2.85,0,3.262-.275,4.7-3.262.481-.961,1.27-2.369,1.785-3.193a24.6,24.6,0,0,0,1.3-2.232c.172-.412.927-1.854,1.682-3.159.721-1.339,1.545-2.884,1.82-3.434.584-1.27,1.82-2.4,2.095-1.957a19.509,19.509,0,0,1-.1,3.88c-.206,1.957-.378,5.734-.446,8.378l-.1,4.807,4.361.1c3.88.069,4.4.034,4.67-.515.378-.721,1.476-9.545,2.644-20.533.24-2.472.618-5.631.824-7.039s.515-4.12.721-6.009c.343-3.331.309-3.434-.446-4.086-.687-.584-1.133-.618-4.361-.412a38.357,38.357,0,0,0-4.635.481c-1.064.309-2.232,1.957-4.738,6.661-.618,1.133-1.236,2.3-1.442,2.61-.172.343-.961,1.682-1.682,2.987-1.27,2.232-2.095,3.228-2.678,3.262-.378,0-.549-1.614-.927-8.584-.412-7.932-.137-7.588-5.665-7.52-2.095.034-4.155.137-4.532.206" transform="translate(2916.468 -314.859)" fill="#4c0e0f" fill-rule="evenodd"/>
    </g>
  </g>
</svg>
