<svg xmlns="http://www.w3.org/2000/svg" width="100.177" height="209.771" viewBox="0 0 100.177 209.771">
  <g id="Group_39" data-name="Group 39" transform="translate(2570.592 -219)" style="isolation: isolate">
    <path id="Path_36" data-name="Path 36" d="M76.949,115.034a3.605,3.605,0,1,1-3.605-3.605,3.6,3.6,0,0,1,3.605,3.605" transform="translate(-2640.33 221.966)" fill="#fff"/>
    <path id="Path_37" data-name="Path 37" d="M107.135,115.034a3.605,3.605,0,1,1-3.605-3.605,3.6,3.6,0,0,1,3.605,3.605" transform="translate(-2639.527 221.966)" fill="#fff"/>
    <path id="Path_38" data-name="Path 38" d="M137.32,115.034a3.605,3.605,0,1,1-3.605-3.605,3.6,3.6,0,0,1,3.605,3.605" transform="translate(-2638.723 221.966)" fill="#fff"/>
    <path id="Path_39" data-name="Path 39" d="M167.5,115.034a3.606,3.606,0,1,1-3.605-3.605,3.6,3.6,0,0,1,3.605,3.605" transform="translate(-2637.92 221.966)" fill="#fff"/>
    <path id="Path_40" data-name="Path 40" d="M76.949,143.661a3.605,3.605,0,1,1-3.605-3.605,3.6,3.6,0,0,1,3.605,3.605" transform="translate(-2640.33 222.728)" fill="#fff"/>
    <path id="Path_41" data-name="Path 41" d="M107.135,143.661a3.605,3.605,0,1,1-3.605-3.605,3.6,3.6,0,0,1,3.605,3.605" transform="translate(-2639.527 222.728)" fill="#fff"/>
    <path id="Path_42" data-name="Path 42" d="M137.32,143.661a3.605,3.605,0,1,1-3.605-3.605,3.6,3.6,0,0,1,3.605,3.605" transform="translate(-2638.723 222.728)" fill="#fff"/>
    <path id="Path_43" data-name="Path 43" d="M167.5,143.661a3.606,3.606,0,1,1-3.605-3.605,3.6,3.6,0,0,1,3.605,3.605" transform="translate(-2637.92 222.728)" fill="#fff"/>
    <path id="Path_44" data-name="Path 44" d="M76.949,172.287a3.605,3.605,0,1,1-3.605-3.605,3.6,3.6,0,0,1,3.605,3.605" transform="translate(-2640.33 223.49)" fill="#fff"/>
    <path id="Path_45" data-name="Path 45" d="M107.135,172.287a3.605,3.605,0,1,1-3.605-3.605,3.6,3.6,0,0,1,3.605,3.605" transform="translate(-2639.527 223.49)" fill="#fff"/>
    <path id="Path_46" data-name="Path 46" d="M137.32,172.287a3.605,3.605,0,1,1-3.605-3.605,3.6,3.6,0,0,1,3.605,3.605" transform="translate(-2638.723 223.49)" fill="#fff"/>
    <path id="Path_47" data-name="Path 47" d="M167.5,172.287a3.606,3.606,0,1,1-3.605-3.605,3.6,3.6,0,0,1,3.605,3.605" transform="translate(-2637.92 223.49)" fill="#fff"/>
    <path id="Path_48" data-name="Path 48" d="M76.949,200.914a3.605,3.605,0,1,1-3.605-3.605,3.6,3.6,0,0,1,3.605,3.605" transform="translate(-2640.33 224.252)" fill="#fff"/>
    <path id="Path_49" data-name="Path 49" d="M107.135,200.914a3.605,3.605,0,1,1-3.605-3.605,3.6,3.6,0,0,1,3.605,3.605" transform="translate(-2639.527 224.252)" fill="#fff"/>
    <path id="Path_50" data-name="Path 50" d="M137.32,200.914a3.605,3.605,0,1,1-3.605-3.605,3.6,3.6,0,0,1,3.605,3.605" transform="translate(-2638.723 224.252)" fill="#fff"/>
    <path id="Path_51" data-name="Path 51" d="M167.5,200.914a3.606,3.606,0,1,1-3.605-3.605,3.6,3.6,0,0,1,3.605,3.605" transform="translate(-2637.92 224.252)" fill="#fff"/>
    <path id="Path_52" data-name="Path 52" d="M76.949,3.605A3.605,3.605,0,1,1,73.343,0a3.6,3.6,0,0,1,3.605,3.605" transform="translate(-2640.33 219)" fill="#fff"/>
    <path id="Path_53" data-name="Path 53" d="M107.135,3.605A3.605,3.605,0,1,1,103.529,0a3.6,3.6,0,0,1,3.605,3.605" transform="translate(-2639.527 219)" fill="#fff"/>
    <path id="Path_54" data-name="Path 54" d="M137.32,3.605A3.605,3.605,0,1,1,133.714,0a3.6,3.6,0,0,1,3.605,3.605" transform="translate(-2638.723 219)" fill="#fff"/>
    <path id="Path_55" data-name="Path 55" d="M167.5,3.605A3.606,3.606,0,1,1,163.9,0,3.6,3.6,0,0,1,167.5,3.605" transform="translate(-2637.92 219)" fill="#fff"/>
    <path id="Path_56" data-name="Path 56" d="M76.949,32.232a3.605,3.605,0,1,1-3.605-3.605,3.6,3.6,0,0,1,3.605,3.605" transform="translate(-2640.33 219.762)" fill="#fff"/>
    <path id="Path_57" data-name="Path 57" d="M107.135,32.232a3.605,3.605,0,1,1-3.605-3.605,3.6,3.6,0,0,1,3.605,3.605" transform="translate(-2639.527 219.762)" fill="#fff"/>
    <path id="Path_58" data-name="Path 58" d="M137.32,32.232a3.605,3.605,0,1,1-3.605-3.605,3.6,3.6,0,0,1,3.605,3.605" transform="translate(-2638.723 219.762)" fill="#fff"/>
    <path id="Path_59" data-name="Path 59" d="M167.5,32.232a3.606,3.606,0,1,1-3.605-3.605,3.6,3.6,0,0,1,3.605,3.605" transform="translate(-2637.92 219.762)" fill="#fff"/>
    <path id="Path_60" data-name="Path 60" d="M76.949,60.858a3.605,3.605,0,1,1-3.605-3.605,3.6,3.6,0,0,1,3.605,3.605" transform="translate(-2640.33 220.524)" fill="#fff"/>
    <path id="Path_61" data-name="Path 61" d="M107.135,60.858a3.605,3.605,0,1,1-3.605-3.605,3.6,3.6,0,0,1,3.605,3.605" transform="translate(-2639.527 220.524)" fill="#fff"/>
    <path id="Path_62" data-name="Path 62" d="M137.32,60.858a3.605,3.605,0,1,1-3.605-3.605,3.6,3.6,0,0,1,3.605,3.605" transform="translate(-2638.723 220.524)" fill="#fff"/>
    <path id="Path_63" data-name="Path 63" d="M167.5,60.858a3.606,3.606,0,1,1-3.605-3.605,3.6,3.6,0,0,1,3.605,3.605" transform="translate(-2637.92 220.524)" fill="#fff"/>
    <path id="Path_64" data-name="Path 64" d="M76.949,89.485a3.605,3.605,0,1,1-3.605-3.605,3.6,3.6,0,0,1,3.605,3.605" transform="translate(-2640.33 221.286)" fill="#fff"/>
    <path id="Path_65" data-name="Path 65" d="M107.135,89.485a3.605,3.605,0,1,1-3.605-3.605,3.6,3.6,0,0,1,3.605,3.605" transform="translate(-2639.527 221.286)" fill="#fff"/>
    <path id="Path_66" data-name="Path 66" d="M137.32,89.485a3.605,3.605,0,1,1-3.605-3.605,3.6,3.6,0,0,1,3.605,3.605" transform="translate(-2638.723 221.286)" fill="#fff"/>
    <path id="Path_67" data-name="Path 67" d="M167.5,89.485A3.606,3.606,0,1,1,163.9,85.88a3.6,3.6,0,0,1,3.605,3.605" transform="translate(-2637.92 221.286)" fill="#fff"/>
  </g>
</svg>
