<svg xmlns="http://www.w3.org/2000/svg" width="879.894" height="349.138" viewBox="0 0 879.894 349.138">
  <g id="Group_335" data-name="Group 335" transform="translate(-1043.169 -671.643)">
    <path id="Rectangle_25" data-name="Rectangle 25" d="M35,0h.081a22,22,0,0,1,22,22v.081a35,35,0,0,1-35,35H22a22,22,0,0,1-22-22V35A35,35,0,0,1,35,0Z" transform="translate(1070.919 935.95)" fill="#2355fc" opacity="0.298"/>
    <path id="Rectangle_32" data-name="Rectangle 32" d="M35,0h.081a22,22,0,0,1,22,22v.081a35,35,0,0,1-35,35H22a22,22,0,0,1-22-22V35A35,35,0,0,1,35,0Z" transform="translate(1838.233 699.393)" fill="#fca823"/>
  </g>
</svg>
