<svg xmlns="http://www.w3.org/2000/svg" xmlns:xlink="http://www.w3.org/1999/xlink" width="220" height="589" viewBox="0 0 220 589">
  <defs>
    <clipPath id="clip-path">
      <rect id="Rectangle_136" data-name="Rectangle 136" width="220" height="589" transform="translate(0 251)" fill="#fff" stroke="#707070" stroke-width="1"/>
    </clipPath>
  </defs>
  <g id="Mask_Group_7" data-name="Mask Group 7" transform="translate(0 -251)" clip-path="url(#clip-path)">
    <g id="Group_44" data-name="Group 44" transform="translate(500.78 -1187.629)" style="isolation: isolate">
      <path id="Path_73" data-name="Path 73" d="M947.028,925.755c-120.968,0-219.385-98.415-219.385-219.382S826.06,486.988,947.028,486.988s219.385,98.417,219.385,219.385S1068,925.755,947.028,925.755m0-433.45c-118.035,0-214.068,96.03-214.068,214.068s96.032,214.065,214.068,214.065S1161.1,824.408,1161.1,706.373s-96.032-214.068-214.068-214.068" transform="translate(-1549.108 1026.734)" fill="#fbf5f2" stroke="#fff" stroke-linecap="round" stroke-width="1" stroke-dasharray="10"/>
      <path id="Path_74" data-name="Path 74" d="M993.768,1047.413c-162.28,0-294.3-132.025-294.3-294.3s132.022-294.3,294.3-294.3,294.3,132.022,294.3,294.3-132.02,294.3-294.3,294.3m0-583.288c-159.348,0-288.985,129.64-288.985,288.985S834.42,1042.1,993.768,1042.1s288.98-129.638,288.98-288.985-129.635-288.985-288.98-288.985" transform="translate(-1595.845 979.994)" fill="#fbf5f2" stroke="#fff" stroke-linecap="round" stroke-width="1" stroke-dasharray="10"/>
      <path id="Path_75" data-name="Path 75" d="M970.4,986.586c-141.625,0-256.842-115.22-256.842-256.845S828.772,472.9,970.4,472.9s256.837,115.22,256.837,256.842S1112.02,986.586,970.4,986.586m0-508.37c-138.693,0-251.525,112.832-251.525,251.525S831.7,981.268,970.4,981.268s251.52-112.835,251.52-251.528S1109.088,478.215,970.4,478.215" transform="translate(-1572.475 1003.364)" fill="#fbf5f2" stroke="#fff" stroke-linecap="round" stroke-width="1" stroke-dasharray="10"/>
      <path id="Path_76" data-name="Path 76" d="M947.028,925.755c-120.968,0-219.385-98.415-219.385-219.382S826.06,486.988,947.028,486.988s219.385,98.417,219.385,219.385S1068,925.755,947.028,925.755m0-433.45c-118.035,0-214.068,96.03-214.068,214.068s96.032,214.065,214.068,214.065S1161.1,824.408,1161.1,706.373s-96.032-214.068-214.068-214.068" transform="translate(-1549.108 1026.734)" fill="#fbf5f2" stroke="#fff" stroke-linecap="round" stroke-width="1" stroke-dasharray="10"/>
      <path id="Path_77" data-name="Path 77" d="M921.951,860.487c-98.805,0-179.189-80.386-179.189-179.192s80.384-179.189,179.189-179.189S1101.14,582.49,1101.14,681.3s-80.384,179.192-179.189,179.192m0-353.064c-95.875,0-173.872,78-173.872,173.872s78,173.875,173.872,173.875,173.872-78,173.872-173.875-78-173.872-173.872-173.872" transform="translate(-1524.031 1051.809)" fill="#fbf5f2" stroke="#fff" stroke-linecap="round" stroke-width="1" stroke-dasharray="10"/>
      <path id="Path_78" data-name="Path 78" d="M898.982,800.7c-78.5,0-142.372-63.868-142.372-142.373s63.868-142.372,142.372-142.372,142.372,63.866,142.372,142.372S977.487,800.7,898.982,800.7m0-279.428c-75.572,0-137.055,61.484-137.055,137.055s61.484,137.055,137.055,137.055,137.055-61.484,137.055-137.055S974.554,521.272,898.982,521.272" transform="translate(-1501.063 1074.78)" fill="#fbf5f2" stroke="#fff" stroke-linecap="round" stroke-width="1" stroke-dasharray="10"/>
    </g>
  </g>
</svg>
