<svg xmlns="http://www.w3.org/2000/svg" width="272.547" height="82.528" viewBox="0 0 272.547 82.528">
  <g id="Group_76" data-name="Group 76" transform="translate(1037.807 -1261.345)" style="isolation: isolate">
    <path id="Path_32" data-name="Path 32" d="M728.839,432.225l-26.847-31.9-26.839,31.9L646.27,397.9l4.073-3.422,24.81,29.484,26.839-31.9,26.847,31.9,26.836-31.9,26.836,31.9,26.847-31.9,26.855,31.9,26.844-31.9,26.866,31.9,24.829-29.49,4.065,3.427-28.894,34.318-26.866-31.9-26.844,31.9-26.855-31.9-26.847,31.906-26.836-31.9Z" transform="translate(-1684.076 869.284)" fill="#fbf5f2"/>
    <path id="Path_33" data-name="Path 33" d="M728.839,448.159l-26.847-31.9-26.839,31.9L646.27,413.836l4.073-3.422,24.81,29.484L701.992,408l26.847,31.9L755.675,408l26.836,31.9L809.358,408l26.855,31.9L863.057,408l26.866,31.9,24.829-29.49,4.065,3.427-28.894,34.318-26.866-31.9-26.844,31.9-26.855-31.9-26.847,31.906-26.836-31.9Z" transform="translate(-1684.076 895.714)" fill="#fbf5f2"/>
  </g>
</svg>
