<svg xmlns="http://www.w3.org/2000/svg" width="291.251" height="139.089" viewBox="0 0 291.251 139.089">
  <g id="Group_77" data-name="Group 77" transform="translate(510.251 2570.592) rotate(90)" style="isolation: isolate">
    <path id="Path_36" data-name="Path 36" d="M79.75,116.435a5.006,5.006,0,1,1-5.006-5.006,5.005,5.005,0,0,1,5.006,5.006" transform="translate(-2640.33 266.4)" fill="#ffdfac"/>
    <path id="Path_37" data-name="Path 37" d="M109.936,116.435a5.006,5.006,0,1,1-5.006-5.006,5.005,5.005,0,0,1,5.006,5.006" transform="translate(-2627.49 266.4)" fill="#ffdfac"/>
    <path id="Path_38" data-name="Path 38" d="M140.121,116.435a5.006,5.006,0,1,1-5.006-5.006,5.005,5.005,0,0,1,5.006,5.006" transform="translate(-2614.65 266.4)" fill="#ffdfac"/>
    <path id="Path_39" data-name="Path 39" d="M170.306,116.435a5.007,5.007,0,1,1-5.006-5.006,5.005,5.005,0,0,1,5.006,5.006" transform="translate(-2601.81 266.4)" fill="#ffdfac"/>
    <path id="Path_40" data-name="Path 40" d="M79.75,145.061a5.006,5.006,0,1,1-5.006-5.006,5.005,5.005,0,0,1,5.006,5.006" transform="translate(-2640.33 278.577)" fill="#ffdfac"/>
    <path id="Path_41" data-name="Path 41" d="M109.936,145.061a5.006,5.006,0,1,1-5.006-5.006,5.005,5.005,0,0,1,5.006,5.006" transform="translate(-2627.49 278.577)" fill="#ffdfac"/>
    <path id="Path_42" data-name="Path 42" d="M140.121,145.061a5.006,5.006,0,1,1-5.006-5.006,5.005,5.005,0,0,1,5.006,5.006" transform="translate(-2614.65 278.577)" fill="#ffdfac"/>
    <path id="Path_43" data-name="Path 43" d="M170.306,145.061a5.007,5.007,0,1,1-5.006-5.006,5.005,5.005,0,0,1,5.006,5.006" transform="translate(-2601.81 278.577)" fill="#ffdfac"/>
    <path id="Path_44" data-name="Path 44" d="M79.75,173.688a5.006,5.006,0,1,1-5.006-5.006,5.005,5.005,0,0,1,5.006,5.006" transform="translate(-2640.33 290.754)" fill="#ffdfac"/>
    <path id="Path_45" data-name="Path 45" d="M109.936,173.688a5.006,5.006,0,1,1-5.006-5.006,5.005,5.005,0,0,1,5.006,5.006" transform="translate(-2627.49 290.754)" fill="#ffdfac"/>
    <path id="Path_46" data-name="Path 46" d="M140.121,173.688a5.006,5.006,0,1,1-5.006-5.006,5.005,5.005,0,0,1,5.006,5.006" transform="translate(-2614.65 290.754)" fill="#ffdfac"/>
    <path id="Path_47" data-name="Path 47" d="M170.306,173.688a5.007,5.007,0,1,1-5.006-5.006,5.005,5.005,0,0,1,5.006,5.006" transform="translate(-2601.81 290.754)" fill="#ffdfac"/>
    <path id="Path_48" data-name="Path 48" d="M79.75,202.314a5.006,5.006,0,1,1-5.006-5.006,5.005,5.005,0,0,1,5.006,5.006" transform="translate(-2640.33 302.931)" fill="#ffdfac"/>
    <path id="Path_49" data-name="Path 49" d="M109.936,202.314a5.006,5.006,0,1,1-5.006-5.006,5.005,5.005,0,0,1,5.006,5.006" transform="translate(-2627.49 302.931)" fill="#ffdfac"/>
    <path id="Path_50" data-name="Path 50" d="M140.121,202.314a5.006,5.006,0,1,1-5.006-5.006,5.005,5.005,0,0,1,5.006,5.006" transform="translate(-2614.65 302.931)" fill="#ffdfac"/>
    <path id="Path_51" data-name="Path 51" d="M170.306,202.314a5.007,5.007,0,1,1-5.006-5.006,5.005,5.005,0,0,1,5.006,5.006" transform="translate(-2601.81 302.931)" fill="#ffdfac"/>
    <path id="Path_52" data-name="Path 52" d="M79.75,5.006A5.006,5.006,0,1,1,74.744,0,5.005,5.005,0,0,1,79.75,5.006" transform="translate(-2640.33 219)" fill="#ffdfac"/>
    <path id="Path_53" data-name="Path 53" d="M109.936,5.006A5.006,5.006,0,1,1,104.93,0a5.005,5.005,0,0,1,5.006,5.006" transform="translate(-2627.49 219)" fill="#ffdfac"/>
    <path id="Path_54" data-name="Path 54" d="M140.121,5.006A5.006,5.006,0,1,1,135.115,0a5.005,5.005,0,0,1,5.006,5.006" transform="translate(-2614.65 219)" fill="#ffdfac"/>
    <path id="Path_55" data-name="Path 55" d="M170.306,5.006A5.007,5.007,0,1,1,165.3,0a5.005,5.005,0,0,1,5.006,5.006" transform="translate(-2601.81 219)" fill="#ffdfac"/>
    <path id="Path_56" data-name="Path 56" d="M79.75,33.633a5.006,5.006,0,1,1-5.006-5.006,5.005,5.005,0,0,1,5.006,5.006" transform="translate(-2640.33 231.177)" fill="#ffdfac"/>
    <path id="Path_57" data-name="Path 57" d="M109.936,33.633a5.006,5.006,0,1,1-5.006-5.006,5.005,5.005,0,0,1,5.006,5.006" transform="translate(-2627.49 231.177)" fill="#ffdfac"/>
    <path id="Path_58" data-name="Path 58" d="M140.121,33.633a5.006,5.006,0,1,1-5.006-5.006,5.005,5.005,0,0,1,5.006,5.006" transform="translate(-2614.65 231.177)" fill="#ffdfac"/>
    <path id="Path_59" data-name="Path 59" d="M170.306,33.633a5.007,5.007,0,1,1-5.006-5.006,5.005,5.005,0,0,1,5.006,5.006" transform="translate(-2601.81 231.177)" fill="#ffdfac"/>
    <path id="Path_60" data-name="Path 60" d="M79.75,62.259a5.006,5.006,0,1,1-5.006-5.006,5.005,5.005,0,0,1,5.006,5.006" transform="translate(-2640.33 243.354)" fill="#ffdfac"/>
    <path id="Path_61" data-name="Path 61" d="M109.936,62.259a5.006,5.006,0,1,1-5.006-5.006,5.005,5.005,0,0,1,5.006,5.006" transform="translate(-2627.49 243.354)" fill="#ffdfac"/>
    <path id="Path_62" data-name="Path 62" d="M140.121,62.259a5.006,5.006,0,1,1-5.006-5.006,5.005,5.005,0,0,1,5.006,5.006" transform="translate(-2614.65 243.354)" fill="#ffdfac"/>
    <path id="Path_63" data-name="Path 63" d="M170.306,62.259a5.007,5.007,0,1,1-5.006-5.006,5.005,5.005,0,0,1,5.006,5.006" transform="translate(-2601.81 243.354)" fill="#ffdfac"/>
    <path id="Path_64" data-name="Path 64" d="M79.75,90.886a5.006,5.006,0,1,1-5.006-5.006,5.005,5.005,0,0,1,5.006,5.006" transform="translate(-2640.33 255.532)" fill="#ffdfac"/>
    <path id="Path_65" data-name="Path 65" d="M109.936,90.886a5.006,5.006,0,1,1-5.006-5.006,5.005,5.005,0,0,1,5.006,5.006" transform="translate(-2627.49 255.532)" fill="#ffdfac"/>
    <path id="Path_66" data-name="Path 66" d="M140.121,90.886a5.006,5.006,0,1,1-5.006-5.006,5.005,5.005,0,0,1,5.006,5.006" transform="translate(-2614.65 255.532)" fill="#ffdfac"/>
    <path id="Path_67" data-name="Path 67" d="M170.306,90.886A5.007,5.007,0,1,1,165.3,85.88a5.005,5.005,0,0,1,5.006,5.006" transform="translate(-2601.81 255.532)" fill="#ffdfac"/>
  </g>
</svg>
